#usda 1.0
(
    defaultPrim = "Object"
    metersPerUnit = 1
    subLayers = [
        @./configuration/appearance.usda@
    ]
    upAxis = "Z"
)

def Xform "Object" (
    prepend apiSchemas = ["PhysicsRigidBodyAPI", "PhysicsMassAPI"]
)
{
    custom string crossEmbodiment:objectName = "YcbStrawberry"
    float physics:mass = 0.018

    def Material "physicsMaterial" (
        apiSchemas = ["PhysicsMaterialAPI", "PhysxMaterialAPI"]
    )
    {
        float physics:dynamicFriction = 0.5
        float physics:restitution = 0
        float physics:staticFriction = 0.5
        token physxMaterial:frictionCombineMode = "max"
        token physxMaterial:restitutionCombineMode = "average"
    }

    def Mesh "hull0" (
        prepend apiSchemas = ["PhysicsCollisionAPI", "PhysicsMeshCollisionAPI", "MaterialBindingAPI"]
    )
    {
        int[] faceVertexCounts = [3, 3, 3, 3, 3, 3, 3, 3, 3, 3, 3, 3, 3, 3, 3, 3, 3, 3, 3, 3, 3, 3, 3, 3, 3, 3, 3, 3, 3, 3, 3, 3, 3, 3, 3, 3, 3, 3, 3, 3, 3, 3, 3, 3, 3, 3, 3, 3, 3, 3, 3, 3, 3, 3, 3, 3, 3, 3, 3, 3, 3, 3, 3, 3, 3, 3, 3, 3, 3, 3, 3, 3, 3, 3, 3, 3, 3, 3, 3, 3, 3, 3, 3, 3, 3, 3, 3, 3, 3, 3, 3, 3, 3, 3, 3, 3, 3, 3, 3, 3, 3, 3, 3, 3, 3, 3, 3, 3, 3, 3, 3, 3, 3, 3, 3, 3, 3, 3, 3, 3, 3, 3, 3, 3]
        int[] faceVertexIndices = [0, 1, 2, 0, 2, 3, 0, 3, 4, 0, 4, 5, 0, 5, 6, 0, 6, 1, 1, 6, 7, 1, 7, 8, 1, 8, 9, 1, 9, 2, 2, 9, 10, 2, 10, 11, 2, 11, 12, 2, 12, 13, 2, 13, 3, 3, 13, 4, 4, 14, 15, 4, 15, 5, 4, 13, 16, 4, 16, 14, 5, 15, 17, 5, 17, 6, 6, 17, 18, 6, 18, 19, 6, 19, 20, 6, 20, 21, 6, 21, 7, 7, 22, 8, 7, 21, 23, 7, 23, 22, 8, 24, 9, 8, 22, 24, 9, 24, 10, 10, 24, 25, 10, 25, 26, 10, 26, 11, 11, 26, 12, 12, 26, 27, 12, 27, 13, 13, 27, 28, 13, 28, 16, 14, 16, 28, 14, 28, 29, 14, 29, 30, 14, 30, 31, 14, 31, 32, 14, 32, 15, 15, 32, 33, 15, 33, 18, 15, 18, 17, 18, 33, 19, 19, 33, 34, 19, 34, 20, 20, 34, 23, 20, 23, 21, 22, 35, 24, 22, 23, 36, 22, 36, 35, 23, 34, 37, 23, 37, 36, 24, 38, 25, 24, 35, 38, 25, 39, 40, 25, 40, 26, 25, 38, 39, 26, 40, 41, 26, 41, 27, 27, 41, 28, 28, 42, 29, 28, 41, 42, 29, 42, 43, 29, 43, 30, 30, 44, 31, 30, 43, 44, 31, 45, 32, 31, 44, 46, 31, 46, 45, 32, 45, 33, 33, 47, 34, 33, 45, 47, 34, 47, 48, 34, 48, 37, 35, 36, 49, 35, 49, 50, 35, 50, 38, 36, 37, 51, 36, 51, 49, 37, 48, 51, 38, 50, 39, 39, 52, 53, 39, 53, 40, 39, 50, 54, 39, 54, 52, 40, 53, 42, 40, 42, 41, 42, 53, 43, 43, 53, 55, 43, 55, 44, 44, 55, 46, 45, 56, 47, 45, 46, 56, 46, 55, 57, 46, 57, 58, 46, 58, 59, 46, 59, 56, 47, 56, 48, 48, 56, 60, 48, 60, 51, 49, 51, 50, 50, 51, 61, 50, 61, 54, 51, 60, 61, 52, 62, 57, 52, 57, 53, 52, 54, 62, 53, 57, 55, 54, 61, 62, 56, 59, 60, 57, 62, 58, 58, 63, 59, 58, 62, 63, 59, 63, 60, 60, 63, 61, 61, 63, 62]
        rel material:binding:physics = </Object/physicsMaterial>
        uniform token physics:approximation = "convexHull"
        point3f[] points = [(-0.0023781003, 0.0037368035, 0.04234375), (-0.009985267, -0.002411785, 0.040503), (-0.0031698504, -0.009910434, 0.036538646), (0.004095153, -0.0033674452, 0.0378746), (0.007902714, 0.008368471, 0.03850559), (0.0036177156, 0.015882289, 0.03807478), (-0.007363341, 0.015002474, 0.040063486), (-0.017978363, 0.0021136976, 0.03694335), (-0.015718492, -0.0061434116, 0.03407126), (-0.011226604, -0.012929108, 0.030154768), (-0.005942965, -0.017904611, 0.025246104), (0.0012782732, -0.020078864, 0.022256518), (0.007381513, -0.012605498, 0.02884492), (0.00853134, -0.0067906315, 0.033718772), (0.01498072, 0.009890448, 0.02854901), (0.0065101897, 0.020180231, 0.031203518), (0.013257968, 0.0038733266, 0.033005103), (-0.00057577476, 0.020913413, 0.034328002), (-0.0035557789, 0.025105169, 0.030085143), (-0.008051646, 0.027699107, 0.025864039), (-0.0140275685, 0.020756662, 0.031373233), (-0.018443866, 0.012924291, 0.034906775), (-0.02411741, 0.0018153697, 0.022591595), (-0.022740798, 0.015305858, 0.025241751), (-0.020218339, -0.0077462923, 0.019897921), (-0.0010651479, -0.0212115, 0.0101067005), (0.004242363, -0.022212667, 0.015189433), (0.011602853, -0.008302497, 0.026151247), (0.013707557, -0.0021640211, 0.027678678), (0.015792364, 0.0012136574, 0.017939677), (0.016409054, 0.008697137, 0.017887458), (0.013456902, 0.01755596, 0.0133791445), (0.008984906, 0.023568023, 0.01868381), (-0.002895324, 0.029443566, 0.018405305), (-0.0129931215, 0.027284482, 0.017856997), (-0.020878794, -0.0011325143, 0.008344281), (-0.02423677, 0.008914562, 0.014784728), (-0.020966325, 0.019350983, 0.016703807), (-0.015185354, -0.01070429, 0.009902174), (0.0010713838, -0.015614059, 0.00376199), (0.007616252, -0.018784424, 0.010154569), (0.011698341, -0.010320003, 0.01973256), (0.014284459, -0.005025946, 0.011712461), (0.01466641, 0.000596776, 0.008035314), (0.01531095, 0.01147816, 0.009876063), (0.004930668, 0.025560247, 0.012017077), (0.009557829, 0.015063151, 0.0034443191), (-0.00733549, 0.027825518, 0.0116602415), (-0.013200011, 0.022592138, 0.006259838), (-0.021622797, 0.006553221, 0.007948281), (-0.016637558, 0.00021754579, 0.0025000107), (-0.018288698, 0.013116435, 0.0041579898), (0.0014573119, -0.0067704064, -0.0005766077), (0.010970251, -0.005738899, 0.003853374), (-0.009281048, 0.001906385, -0.0011858392), (0.013277863, 0.007377415, 0.004693243), (-0.004582269, 0.02493831, 0.0059726285), (0.008829739, 0.0023412358, 0.00024585245), (0.0058576916, 0.009445485, -0.0005461465), (0.0031124281, 0.015674977, 0.00049389637), (-0.009058243, 0.015508114, -0.00023282938), (-0.011727912, 0.00881849, -0.0011727839), (0.0010753626, 0.0018861593, -0.0021040402), (-0.0016261367, 0.01005731, -0.001773314)]
        uniform token subdivisionScheme = "none"
        token visibility = "invisible"
    }
}

