#usda 1.0
(
    defaultPrim = "Object"
    metersPerUnit = 1
    subLayers = [
        @./configuration/appearance.usda@
    ]
    upAxis = "Z"
)

def Xform "Object" (
    prepend apiSchemas = ["PhysicsRigidBodyAPI", "PhysicsMassAPI"]
)
{
    custom string crossEmbodiment:objectName = "YcbFoamBrick"
    float physics:mass = 0.028

    def Material "physicsMaterial" (
        apiSchemas = ["PhysicsMaterialAPI", "PhysxMaterialAPI"]
    )
    {
        float physics:dynamicFriction = 0.5
        float physics:restitution = 0
        float physics:staticFriction = 0.5
        token physxMaterial:frictionCombineMode = "max"
        token physxMaterial:restitutionCombineMode = "average"
    }

    def Mesh "hull0" (
        prepend apiSchemas = ["PhysicsCollisionAPI", "PhysicsMeshCollisionAPI", "MaterialBindingAPI"]
    )
    {
        int[] faceVertexCounts = [3, 3, 3, 3, 3, 3, 3, 3, 3, 3, 3, 3, 3, 3, 3, 3, 3, 3, 3, 3, 3, 3, 3, 3, 3, 3, 3, 3, 3, 3, 3, 3, 3, 3, 3, 3, 3, 3, 3, 3, 3, 3, 3, 3, 3, 3, 3, 3, 3, 3, 3, 3, 3, 3, 3, 3, 3, 3, 3, 3, 3, 3, 3, 3, 3, 3, 3, 3, 3, 3, 3, 3, 3, 3, 3, 3, 3, 3, 3, 3, 3, 3, 3, 3, 3, 3, 3, 3, 3, 3, 3, 3, 3, 3, 3, 3, 3, 3, 3, 3, 3, 3, 3, 3, 3, 3, 3, 3, 3, 3, 3, 3, 3, 3, 3, 3, 3, 3, 3, 3, 3, 3]
        int[] faceVertexIndices = [0, 1, 2, 0, 2, 3, 0, 3, 4, 0, 4, 5, 0, 5, 6, 0, 6, 7, 0, 7, 1, 1, 7, 8, 1, 8, 9, 1, 9, 2, 2, 9, 10, 2, 10, 11, 2, 11, 3, 3, 11, 12, 3, 12, 4, 4, 13, 5, 4, 12, 14, 4, 14, 13, 5, 15, 6, 5, 13, 16, 5, 16, 15, 6, 17, 7, 6, 15, 18, 6, 18, 19, 6, 19, 17, 7, 17, 20, 7, 20, 8, 8, 20, 21, 8, 21, 9, 9, 22, 23, 9, 23, 10, 9, 21, 22, 10, 23, 11, 11, 23, 24, 11, 24, 25, 11, 25, 12, 12, 25, 14, 13, 14, 26, 13, 26, 16, 14, 25, 27, 14, 27, 28, 14, 28, 26, 15, 16, 29, 15, 29, 30, 15, 30, 31, 15, 31, 18, 16, 32, 29, 16, 26, 32, 17, 19, 18, 17, 18, 33, 17, 33, 20, 18, 31, 33, 20, 33, 34, 20, 34, 35, 20, 35, 21, 21, 35, 36, 21, 36, 22, 22, 37, 23, 22, 36, 37, 23, 37, 24, 24, 37, 38, 24, 38, 25, 25, 38, 27, 26, 28, 27, 26, 27, 39, 26, 39, 40, 26, 40, 41, 26, 41, 42, 26, 42, 32, 27, 38, 43, 27, 43, 44, 27, 44, 45, 27, 45, 39, 29, 46, 47, 29, 47, 31, 29, 31, 30, 29, 32, 42, 29, 42, 48, 29, 48, 46, 31, 47, 49, 31, 49, 33, 33, 49, 50, 33, 50, 51, 33, 51, 44, 33, 44, 34, 34, 36, 35, 34, 44, 37, 34, 37, 36, 37, 44, 52, 37, 52, 43, 37, 43, 38, 39, 53, 40, 39, 45, 54, 39, 54, 53, 40, 53, 55, 40, 55, 41, 41, 55, 42, 42, 55, 48, 43, 52, 44, 44, 56, 57, 44, 57, 45, 44, 51, 56, 45, 57, 58, 45, 58, 54, 46, 59, 47, 46, 48, 60, 46, 60, 59, 47, 59, 50, 47, 50, 49, 48, 55, 61, 48, 61, 60, 50, 59, 51, 51, 59, 62, 51, 62, 56, 53, 54, 58, 53, 58, 61, 53, 61, 55, 56, 62, 59, 56, 59, 60, 56, 60, 57, 57, 60, 58, 58, 60, 61]
        rel material:binding:physics = </Object/physicsMaterial>
        uniform token physics:approximation = "convexHull"
        point3f[] points = [(-0.046099927, -0.027613595, 0.0020208373), (-0.044877548, -0.02528099, 0.015857685), (-0.044611502, -0.023286572, 0.007810095), (-0.04563974, -0.024673993, -0.008947458), (-0.045237068, -0.023668112, -0.016202282), (-0.04079336, -0.030180324, -0.01586849), (-0.044999786, -0.030622564, 0.011648738), (-0.045251455, -0.028853603, 0.024713684), (-0.043180592, -0.022410762, 0.027780425), (-0.02213407, 0.038080838, 0.018903565), (-0.021961497, 0.039572317, 0.012274603), (-0.021645116, 0.04134128, 0.0035229153), (-0.044870358, -0.022289362, -0.014976633), (-0.042152356, -0.022931045, -0.016702978), (-0.020523401, 0.03853175, -0.01482538), (-0.014533735, -0.039380666, -0.01770436), (-0.03539331, -0.026373584, -0.017073281), (-0.042461548, -0.031576417, 0.033460155), (-0.018797688, -0.04069872, 0.032312736), (-0.025535164, -0.038366113, 0.03242748), (-0.041116927, -0.019419132, 0.03434158), (-0.038830355, -0.011285371, 0.034278996), (-0.021673879, 0.035800263, 0.033434078), (-0.020904496, 0.039390218, 0.02468239), (-0.020595307, 0.041306593, 0.013140384), (-0.020760687, 0.04207835, -0.0028661294), (-0.0057110195, 0.03685817, -0.015816335), (-0.016964117, 0.041688133, -0.00920302), (-0.01159283, 0.038479723, -0.015336503), (0.010215887, -0.018421924, -0.01810596), (-0.0008071144, -0.04333482, -0.01718281), (0.0008107429, -0.045051754, -0.005901579), (0.013128029, -0.009342981, -0.01807988), (-0.012261544, -0.042805865, 0.03214584), (-0.028512022, 0.015092989, 0.03517607), (-0.031107783, 0.009023018, 0.03489443), (-0.02652026, 0.022142828, 0.0349518), (-0.01551883, 0.037829366, 0.035030037), (-0.01792045, 0.04122855, 0.0063862507), (0.013199936, 0.030007776, -0.015367795), (0.022037033, 0.025845509, -0.016160559), (0.013732031, 0.02842091, -0.016656036), (0.0170756, 0.00086324237, -0.017819107), (0.017406361, 0.02684272, 0.032589156), (0.022935841, 0.024692215, 0.032688253), (0.027257316, 0.023443537, 0.020129217), (0.008267268, -0.030119624, 0.023373287), (0.0018389814, -0.045277208, 0.010057996), (0.019958984, 0.008242593, -0.017276686), (0.0013284576, -0.045884207, 0.007836172), (0.0006237907, -0.046508547, 0.030534234), (0.00905103, -0.026425615, 0.031316567), (0.0020546957, 0.031880796, 0.03395042), (0.025725747, 0.024527458, -0.0110336775), (0.026674889, 0.02397249, 0.009379975), (0.022152076, 0.015040961, -0.017041989), (0.024093509, 0.01335004, 0.031504326), (0.027357984, 0.022567725, 0.02672167), (0.026466364, 0.023833746, 0.00036229394), (0.004190267, -0.04114096, 0.030534234), (0.020620508, 0.002892347, 0.030456001), (0.025855174, 0.023400178, -0.008133833), (0.007871791, -0.030587878, 0.030977555)]
        uniform token subdivisionScheme = "none"
        token visibility = "invisible"
    }
}

