#usda 1.0
(
    defaultPrim = "Object"
    metersPerUnit = 1
    subLayers = [
        @./configuration/appearance.usda@
    ]
    upAxis = "Z"
)

def Xform "Object" (
    prepend apiSchemas = ["PhysicsRigidBodyAPI", "PhysicsMassAPI"]
)
{
    custom string crossEmbodiment:objectName = "YcbApple"
    float physics:mass = 0.068

    def Material "physicsMaterial" (
        apiSchemas = ["PhysicsMaterialAPI", "PhysxMaterialAPI"]
    )
    {
        float physics:dynamicFriction = 0.5
        float physics:restitution = 0
        float physics:staticFriction = 0.5
        token physxMaterial:frictionCombineMode = "max"
        token physxMaterial:restitutionCombineMode = "average"
    }

    def Mesh "hull0" (
        prepend apiSchemas = ["PhysicsCollisionAPI", "PhysicsMeshCollisionAPI", "MaterialBindingAPI"]
    )
    {
        int[] faceVertexCounts = [3, 3, 3, 3, 3, 3, 3, 3, 3, 3, 3, 3, 3, 3, 3, 3, 3, 3, 3, 3, 3, 3, 3, 3, 3, 3, 3, 3, 3, 3, 3, 3, 3, 3, 3, 3, 3, 3, 3, 3, 3, 3, 3, 3, 3, 3, 3, 3, 3, 3, 3, 3, 3, 3, 3, 3, 3, 3, 3, 3, 3, 3, 3, 3, 3, 3, 3, 3, 3, 3, 3, 3, 3, 3, 3, 3, 3, 3, 3, 3, 3, 3, 3, 3, 3, 3, 3, 3, 3, 3, 3, 3, 3, 3, 3, 3, 3, 3, 3, 3, 3, 3, 3, 3, 3, 3, 3, 3, 3, 3, 3, 3, 3, 3, 3, 3, 3, 3, 3, 3, 3, 3, 3, 3]
        int[] faceVertexIndices = [0, 1, 2, 0, 2, 3, 0, 3, 4, 0, 4, 5, 0, 5, 6, 0, 6, 7, 0, 7, 1, 1, 8, 2, 1, 7, 9, 1, 9, 8, 2, 10, 3, 2, 8, 11, 2, 11, 10, 3, 10, 12, 3, 12, 13, 3, 13, 4, 4, 14, 15, 4, 15, 5, 4, 13, 14, 5, 16, 6, 5, 15, 16, 6, 16, 17, 6, 17, 7, 7, 17, 18, 7, 18, 9, 8, 9, 11, 9, 18, 19, 9, 19, 11, 10, 11, 20, 10, 20, 21, 10, 21, 22, 10, 22, 23, 10, 23, 12, 11, 19, 24, 11, 24, 20, 12, 23, 13, 13, 25, 14, 13, 23, 26, 13, 26, 25, 14, 27, 15, 14, 25, 27, 15, 27, 28, 15, 28, 16, 16, 29, 30, 16, 30, 17, 16, 28, 29, 17, 30, 31, 17, 31, 18, 18, 31, 19, 19, 31, 32, 19, 32, 33, 19, 33, 34, 19, 34, 24, 20, 24, 21, 21, 35, 22, 21, 24, 36, 21, 36, 37, 21, 37, 35, 22, 35, 38, 22, 38, 23, 23, 38, 26, 24, 34, 36, 25, 26, 39, 25, 39, 27, 26, 38, 40, 26, 40, 39, 27, 39, 41, 27, 41, 42, 27, 42, 28, 28, 42, 29, 29, 42, 43, 29, 43, 30, 30, 43, 44, 30, 44, 31, 31, 44, 45, 31, 45, 32, 32, 45, 46, 32, 46, 33, 33, 46, 47, 33, 47, 48, 33, 48, 34, 34, 48, 36, 35, 37, 49, 35, 49, 38, 36, 50, 37, 36, 48, 50, 37, 50, 49, 38, 49, 40, 39, 40, 41, 40, 49, 51, 40, 51, 41, 41, 51, 52, 41, 52, 42, 42, 53, 54, 42, 54, 43, 42, 52, 53, 43, 55, 44, 43, 54, 55, 44, 55, 45, 45, 56, 46, 45, 55, 56, 46, 56, 47, 47, 57, 58, 47, 58, 48, 47, 56, 59, 47, 59, 57, 48, 58, 60, 48, 60, 50, 49, 50, 61, 49, 61, 51, 50, 60, 61, 51, 61, 62, 51, 62, 52, 52, 62, 53, 53, 62, 63, 53, 63, 54, 54, 63, 59, 54, 59, 55, 55, 59, 56, 57, 59, 63, 57, 63, 62, 57, 62, 58, 58, 62, 60, 60, 62, 61]
        rel material:binding:physics = </Object/physicsMaterial>
        uniform token physics:approximation = "convexHull"
        point3f[] points = [(0.010568058, 0.03623668, 0.003039661), (0.0069385213, 0.03518237, 0.01735954), (0.023684049, 0.027737673, 0.017071772), (0.026072096, 0.028096283, 0.0044990554), (0.02022248, 0.03061371, -0.0099030435), (-0.003037228, 0.035246924, -0.012808128), (-0.011734971, 0.034931347, -0.0029418003), (-0.009675555, 0.034938518, 0.013296531), (0.009742831, 0.026023528, 0.029445795), (-0.0050747343, 0.027099349, 0.029027844), (0.034441207, 0.011248881, 0.013193757), (0.019630944, 0.01652759, 0.031802747), (0.0331559, 0.016047055, -0.0065046414), (0.029161217, 0.01733087, -0.019769372), (0.01838215, 0.025478445, -0.024914935), (0.0018264976, 0.029559402, -0.024901234), (-0.019403005, 0.02849075, -0.018166093), (-0.023207812, 0.0300758, 0.0022791317), (-0.019914208, 0.028404685, 0.020888122), (-0.024347063, 0.01802657, 0.028301574), (0.027883211, 0.0025131917, 0.02955542), (0.02974545, -0.015259417, 0.02372469), (0.036624774, -0.007893611, 0.0054651336), (0.035697307, 0.0002826502, -0.012958864), (0.021478577, -0.010769647, 0.033522505), (0.024334008, 0.009161782, -0.031485636), (0.03166611, -0.0022204332, -0.024860121), (0.0064346218, 0.019511208, -0.034582566), (-0.011457461, 0.021849329, -0.032081723), (-0.02295221, 0.019597273, -0.02746374), (-0.028166475, 0.024581922, -0.0086629), (-0.030649459, 0.023032738, 0.012631925), (-0.031467382, 0.0060060327, 0.026362566), (-0.02648681, -0.01646434, 0.027972694), (-0.012202356, -0.02606786, 0.029843185), (0.031987436, -0.019828083, 0.0020735832), (0.011393285, -0.025967449, 0.029192282), (0.024195252, -0.026684666, 0.015715152), (0.031198725, -0.016320897, -0.015267859), (0.022479074, -0.006911025, -0.0342948), (0.023611022, -0.019053489, -0.027532252), (0.010305154, -0.016371101, -0.036473613), (-0.019432219, 0.009168955, -0.03484978), (-0.03169377, 0.009907687, -0.019529564), (-0.034804802, 0.01723046, 0.0019022928), (-0.037981562, 0.0051382016, 0.006705276), (-0.034987375, -0.005476593, 0.021669205), (-0.02924, -0.023952072, 0.013536339), (-0.01355339, -0.03268059, 0.019236885), (0.02399077, -0.027975652, -0.00684037), (0.013167887, -0.033849653, 0.011316414), (0.0077856565, -0.030629354, -0.023592575), (-0.0010581444, -0.023607811, -0.033883702), (-0.013589906, -0.02330658, -0.030293455), (-0.026954195, -0.0069899186, -0.02836815), (-0.036404137, 0.0027283563, -0.008464203), (-0.036579404, -0.008180497, 0.008116709), (-0.023879679, -0.027559672, -0.005997622), (-0.0130714, -0.03500437, 0.002916332), (-0.033957668, -0.010497103, -0.009101404), (-0.0014963178, -0.03703409, 0.004917004), (0.00807047, -0.03491113, -0.01048543), (-0.009909249, -0.03248694, -0.018159242), (-0.02449312, -0.021900838, -0.019865293)]
        uniform token subdivisionScheme = "none"
        token visibility = "invisible"
    }
}
