#usda 1.0
(
    defaultPrim = "Object"
    metersPerUnit = 1
    subLayers = [
        @./configuration/appearance.usda@
    ]
    upAxis = "Z"
)

def Xform "Object" (
    prepend apiSchemas = ["PhysicsRigidBodyAPI", "PhysicsMassAPI"]
)
{
    custom string crossEmbodiment:objectName = "YcbApple"
    float physics:mass = 0.068

    def Material "physicsMaterial" (
        apiSchemas = ["PhysicsMaterialAPI", "PhysxMaterialAPI"]
    )
    {
        float physics:dynamicFriction = 0.5
        float physics:restitution = 0
        float physics:staticFriction = 0.5
        token physxMaterial:frictionCombineMode = "max"
        token physxMaterial:restitutionCombineMode = "average"
    }

    def Mesh "hull0" (
        prepend apiSchemas = ["PhysicsCollisionAPI", "MaterialBindingAPI", "PhysicsMeshCollisionAPI", "NewtonSDFCollisionAPI"]
    )
    {
        int[] faceVertexCounts = [3, 3, 3, 3, 3, 3, 3, 3, 3, 3, 3, 3, 3, 3, 3, 3, 3, 3, 3, 3, 3, 3, 3, 3, 3, 3, 3, 3, 3, 3, 3, 3, 3, 3, 3, 3, 3, 3, 3, 3, 3, 3, 3, 3, 3, 3, 3, 3, 3, 3, 3, 3, 3, 3, 3, 3, 3, 3, 3, 3, 3, 3, 3, 3, 3, 3, 3, 3, 3, 3, 3, 3, 3, 3, 3, 3, 3, 3, 3, 3, 3, 3, 3, 3, 3, 3, 3, 3, 3, 3, 3, 3, 3, 3, 3, 3, 3, 3, 3, 3, 3, 3, 3, 3, 3, 3, 3, 3, 3, 3, 3, 3, 3, 3, 3, 3, 3, 3, 3, 3, 3, 3, 3, 3]
        int[] faceVertexIndices = [0, 1, 2, 0, 2, 9, 0, 9, 28, 0, 28, 34, 0, 34, 45, 0, 45, 30, 0, 30, 11, 0, 11, 10, 0, 10, 3, 0, 3, 4, 0, 4, 1, 1, 5, 6, 1, 6, 2, 1, 4, 7, 1, 7, 8, 1, 8, 5, 2, 6, 9, 3, 10, 4, 4, 10, 11, 4, 11, 12, 4, 12, 7, 5, 13, 14, 5, 14, 15, 5, 15, 9, 5, 9, 6, 5, 8, 13, 7, 16, 17, 7, 17, 8, 7, 12, 11, 7, 11, 18, 7, 18, 19, 7, 19, 16, 8, 17, 20, 8, 20, 21, 8, 21, 22, 8, 22, 23, 8, 23, 24, 8, 24, 25, 8, 25, 26, 8, 26, 27, 8, 27, 13, 9, 15, 28, 11, 29, 18, 11, 30, 29, 13, 31, 32, 13, 32, 33, 13, 33, 14, 13, 27, 31, 14, 34, 15, 14, 33, 34, 15, 34, 28, 16, 19, 35, 16, 35, 29, 16, 29, 36, 16, 36, 17, 17, 36, 37, 17, 37, 38, 17, 38, 20, 18, 35, 19, 18, 29, 35, 20, 39, 40, 20, 40, 41, 20, 41, 21, 20, 38, 39, 21, 42, 22, 21, 41, 43, 21, 43, 42, 22, 44, 23, 22, 42, 44, 23, 44, 45, 23, 45, 24, 24, 45, 46, 24, 46, 47, 24, 47, 25, 25, 47, 48, 25, 48, 26, 26, 48, 49, 26, 49, 50, 26, 50, 51, 26, 51, 27, 27, 51, 52, 27, 52, 53, 27, 53, 54, 27, 54, 31, 29, 37, 36, 29, 30, 55, 29, 55, 37, 30, 56, 43, 30, 43, 40, 30, 40, 57, 30, 57, 55, 30, 45, 56, 31, 58, 59, 31, 59, 32, 31, 54, 60, 31, 60, 58, 32, 59, 33, 33, 59, 61, 33, 61, 62, 33, 62, 45, 33, 45, 34, 37, 55, 38, 38, 55, 39, 39, 57, 40, 39, 55, 57, 40, 43, 41, 42, 43, 56, 42, 56, 44, 44, 56, 45, 45, 62, 63, 45, 63, 46, 46, 63, 47, 47, 63, 49, 47, 49, 48, 49, 63, 50, 50, 62, 52, 50, 52, 51, 50, 63, 62, 52, 62, 61, 52, 61, 53, 53, 61, 60, 53, 60, 54, 58, 60, 59, 59, 60, 61]
        rel material:binding:physics = </Object/physicsMaterial>
        custom int newton:sdfMaxResolution = 64
        uniform token physics:approximation = "none"
        point3f[] points = [(-0.0016620655, 0.0016204723, -0.028845044), (-0.0087013915, 0.0027846724, -0.033689383), (-0.0016620655, 0.011815193, -0.035715815), (-0.0016620655, 0.0016204723, 0.026980817), (-0.00870277, 0.0016204723, 0.02809297), (-0.008376786, 0.017774204, -0.03587957), (-0.00835611, 0.013078474, -0.036493637), (-0.00870277, 0.014104671, 0.032186773), (-0.0084925685, 0.036613736, 0.006545905), (-0.0016620655, 0.016560461, -0.036145665), (-0.0016620655, 0.009798189, 0.031183792), (-0.0016620655, 0.013588035, 0.03258251), (-0.00870277, 0.010948234, 0.03138166), (-0.007967411, 0.02460371, -0.031342264), (-0.0066269473, 0.022176228, -0.03377808), (-0.005406402, 0.018230684, -0.035824984), (-0.008382299, 0.022162074, 0.032207243), (-0.008544947, 0.028075084, 0.029048191), (-0.0022265073, 0.018046677, 0.033210225), (-0.0073216446, 0.018435922, 0.032753084), (-0.008490501, 0.031797696, 0.024463128), (-0.008380921, 0.035559233, 0.014972321), (-0.0072237803, 0.036507577, 0.010598772), (-0.0036930908, 0.03749839, 0.0057476126), (-0.0075180624, 0.036928672, 0.0037211787), (-0.007819925, 0.03673405, -0.0008297688), (-0.007875749, 0.03589894, -0.007980282), (-0.0077551417, 0.034281798, -0.015239965), (-0.0016620655, 0.01975936, -0.035156332), (-0.0023629656, 0.023864143, 0.032357354), (-0.0016620655, 0.03487982, 0.020137338), (-0.007140389, 0.03026548, -0.024410088), (-0.0062761526, 0.027579678, -0.028190035), (-0.0017358082, 0.02524066, -0.03137638), (-0.0016620655, 0.022579627, -0.033743966), (-0.0043023294, 0.021404812, 0.032869074), (-0.0077999383, 0.025463592, 0.030917693), (-0.0037668333, 0.027512444, 0.03022857), (-0.007400212, 0.02998947, 0.027383374), (-0.0052354843, 0.032562036, 0.024272086), (-0.0059439656, 0.033927936, 0.021263136), (-0.008343016, 0.03446934, 0.018690862), (-0.004761326, 0.036139563, 0.015026906), (-0.005115567, 0.035042595, 0.018588519), (-0.0022595879, 0.037204683, 0.010673826), (-0.0016620655, 0.03776732, 0.0032708603), (-0.002416722, 0.03761516, -0.00044768018), (-0.0047454746, 0.03724361, -0.0023171848), (-0.0076379804, 0.03652527, -0.003709079), (-0.005263052, 0.03680482, -0.0055308226), (-0.0033278235, 0.036546502, -0.008867274), (-0.0066434876, 0.03536815, -0.011999036), (-0.0049053654, 0.035074443, -0.014155107), (-0.0049060546, 0.033949167, -0.01745062), (-0.006993593, 0.032342643, -0.020507326), (-0.0024291272, 0.030803347, 0.027240094), (-0.0018515909, 0.03584232, 0.01728532), (-0.002484262, 0.033351142, 0.023466969), (-0.0031748244, 0.030368099, -0.02466254), (-0.0024422219, 0.02820247, -0.027767012), (-0.0031555274, 0.03228956, -0.021257857), (-0.0024794377, 0.034561347, -0.01624977), (-0.0022203045, 0.03579632, -0.012503938), (-0.0025607613, 0.03711622, -0.006056194)]
        uniform token subdivisionScheme = "none"
        token visibility = "invisible"
    }

    def Mesh "hull1" (
        prepend apiSchemas = ["PhysicsCollisionAPI", "MaterialBindingAPI", "PhysicsMeshCollisionAPI", "NewtonSDFCollisionAPI"]
    )
    {
        int[] faceVertexCounts = [3, 3, 3, 3, 3, 3, 3, 3, 3, 3, 3, 3, 3, 3, 3, 3, 3, 3, 3, 3, 3, 3, 3, 3, 3, 3, 3, 3, 3, 3, 3, 3, 3, 3, 3, 3, 3, 3, 3, 3, 3, 3, 3, 3, 3, 3, 3, 3, 3, 3, 3, 3, 3, 3, 3, 3, 3, 3, 3, 3, 3, 3, 3, 3, 3, 3, 3, 3, 3, 3, 3, 3, 3, 3, 3, 3, 3, 3, 3, 3, 3, 3, 3, 3, 3, 3, 3, 3, 3, 3, 3, 3, 3, 3, 3, 3, 3, 3, 3, 3, 3, 3, 3, 3, 3, 3, 3, 3, 3, 3, 3, 3, 3, 3, 3, 3, 3, 3, 3, 3, 3, 3, 3, 3]
        int[] faceVertexIndices = [0, 1, 2, 0, 2, 3, 0, 3, 4, 0, 4, 5, 0, 5, 1, 1, 6, 7, 1, 7, 2, 1, 5, 6, 2, 7, 8, 2, 8, 9, 2, 9, 10, 2, 10, 3, 3, 11, 12, 3, 12, 13, 3, 13, 4, 3, 10, 11, 4, 13, 5, 5, 13, 14, 5, 14, 15, 5, 15, 6, 6, 16, 17, 6, 17, 18, 6, 18, 19, 6, 19, 20, 6, 20, 7, 6, 15, 21, 6, 21, 22, 6, 22, 16, 7, 20, 23, 7, 23, 24, 7, 24, 25, 7, 25, 8, 8, 25, 26, 8, 26, 27, 8, 27, 9, 9, 27, 28, 9, 28, 29, 9, 29, 30, 9, 30, 31, 9, 31, 32, 9, 32, 10, 10, 32, 33, 10, 33, 11, 11, 33, 34, 11, 34, 12, 12, 34, 35, 12, 35, 14, 12, 14, 13, 14, 35, 36, 14, 36, 15, 15, 36, 37, 15, 37, 38, 15, 38, 21, 16, 22, 39, 16, 39, 17, 17, 40, 18, 17, 39, 41, 17, 41, 40, 18, 40, 42, 18, 42, 43, 18, 43, 19, 19, 43, 20, 20, 43, 44, 20, 44, 23, 21, 38, 45, 21, 45, 39, 21, 39, 22, 23, 44, 24, 24, 44, 46, 24, 46, 26, 24, 26, 25, 26, 46, 47, 26, 47, 27, 27, 47, 28, 28, 47, 48, 28, 48, 29, 29, 48, 30, 30, 48, 49, 30, 49, 31, 31, 50, 32, 31, 49, 50, 32, 50, 51, 32, 51, 33, 33, 51, 52, 33, 52, 34, 34, 52, 35, 35, 52, 53, 35, 53, 36, 36, 53, 37, 37, 53, 54, 37, 54, 38, 38, 54, 45, 39, 45, 55, 39, 55, 41, 40, 56, 42, 40, 41, 57, 40, 57, 56, 41, 55, 57, 42, 56, 58, 42, 58, 59, 42, 59, 43, 43, 59, 44, 44, 59, 46, 45, 54, 55, 46, 59, 58, 46, 58, 47, 47, 58, 48, 48, 58, 56, 48, 56, 49, 49, 60, 50, 49, 56, 60, 50, 60, 61, 50, 61, 62, 50, 62, 51, 51, 62, 52, 52, 62, 63, 52, 63, 53, 53, 63, 54, 54, 63, 55, 55, 63, 57, 56, 57, 60, 57, 63, 61, 57, 61, 60, 61, 63, 62]
        rel material:binding:physics = </Object/physicsMaterial>
        custom int newton:sdfMaxResolution = 64
        uniform token physics:approximation = "none"
        point3f[] points = [(-0.011440344, 0.0016133962, 0.029187368), (-0.008702771, 0.012775575, 0.031753734), (-0.01896577, 0.0016133962, 0.031189404), (-0.02408422, 0.0025482916, -0.033520665), (-0.013325326, 0.0028743402, -0.035845175), (-0.008702771, 0.012985177, -0.036496844), (-0.010587753, 0.03546923, 0.012277563), (-0.009671361, 0.021475753, 0.032082926), (-0.027859984, 0.0029741512, 0.030396651), (-0.038328882, 0.0025482916, 0.005566044), (-0.032192543, 0.002668065, -0.022334797), (-0.028231181, 0.006001746, -0.028535733), (-0.022300739, 0.009841137, -0.033816267), (-0.016463095, 0.01034019, -0.03655059), (-0.014035818, 0.018431522, -0.034514964), (-0.009987458, 0.027461076, -0.027413785), (-0.01174484, 0.035602313, 0.0057004085), (-0.020853654, 0.03160323, 0.0054719886), (-0.019699464, 0.031167386, 0.01465582), (-0.0112344455, 0.03232519, 0.021689815), (-0.01078495, 0.027710602, 0.02864991), (-0.01072985, 0.034823786, -0.009791848), (-0.011277946, 0.035542425, -0.0026100515), (-0.015056608, 0.02298955, 0.030396651), (-0.022544336, 0.017030843, 0.030275723), (-0.025641507, 0.011517959, 0.030578043), (-0.032021444, 0.011451418, 0.025996204), (-0.034219623, 0.0036162671, 0.025263917), (-0.037134096, 0.0048572486, 0.01804853), (-0.03825638, 0.0045278734, 0.011390756), (-0.038091086, 0.008553577, 0.0060363207), (-0.037096392, 0.008320685, -0.0032684389), (-0.034979414, 0.0060449974, -0.013560779), (-0.030655557, 0.011837353, -0.021555483), (-0.026528899, 0.013723778, -0.027575023), (-0.02116105, 0.018308422, -0.030725878), (-0.017536085, 0.024573216, -0.027796725), (-0.015943998, 0.028432567, -0.023268633), (-0.010967649, 0.032345153, -0.018229954), (-0.018713472, 0.032408364, -0.0044710035), (-0.027648287, 0.027025236, 0.0063117687), (-0.023495527, 0.029889805, -0.0023547586), (-0.026647795, 0.026506219, 0.01522687), (-0.01799718, 0.028139789, 0.023980735), (-0.020694153, 0.022873105, 0.028186351), (-0.016341295, 0.03223869, -0.012485862), (-0.029974064, 0.01759311, 0.02459881), (-0.035275213, 0.013557427, 0.01912345), (-0.0366034, 0.013926727, 0.011404193), (-0.036229305, 0.015447179, 0.004605336), (-0.034112323, 0.015590241, -0.008931913), (-0.033013232, 0.014019883, -0.014407278), (-0.02818188, 0.019110236, -0.020332765), (-0.021894744, 0.024293747, -0.0238464), (-0.019769063, 0.028748635, -0.018216519), (-0.02395082, 0.028013362, -0.010813019), (-0.032995835, 0.021292765, 0.0072724763), (-0.029002573, 0.025301835, -0.002791444), (-0.032389738, 0.020128306, 0.016550364), (-0.026813094, 0.023282329, 0.0220526), (-0.034527022, 0.018015644, -0.0013067134), (-0.03121815, 0.02163545, -0.0073531275), (-0.029715966, 0.021292765, -0.01329205), (-0.025450107, 0.024569888, -0.01718863)]
        uniform token subdivisionScheme = "none"
        token visibility = "invisible"
    }

    def Mesh "hull2" (
        prepend apiSchemas = ["PhysicsCollisionAPI", "MaterialBindingAPI", "PhysicsMeshCollisionAPI", "NewtonSDFCollisionAPI"]
    )
    {
        int[] faceVertexCounts = [3, 3, 3, 3, 3, 3, 3, 3, 3, 3, 3, 3, 3, 3, 3, 3, 3, 3, 3, 3, 3, 3, 3, 3, 3, 3, 3, 3, 3, 3, 3, 3, 3, 3, 3, 3, 3, 3, 3, 3, 3, 3, 3, 3, 3, 3, 3, 3, 3, 3, 3, 3, 3, 3, 3, 3, 3, 3, 3, 3, 3, 3, 3, 3, 3, 3, 3, 3, 3, 3, 3, 3, 3, 3, 3, 3, 3, 3, 3, 3, 3, 3, 3, 3, 3, 3, 3, 3, 3, 3, 3, 3, 3, 3, 3, 3, 3, 3, 3, 3, 3, 3, 3, 3, 3, 3, 3, 3, 3, 3, 3, 3, 3, 3, 3, 3, 3, 3, 3, 3, 3, 3, 3, 3]
        int[] faceVertexIndices = [0, 1, 2, 0, 2, 3, 0, 3, 4, 0, 4, 5, 0, 5, 6, 0, 6, 7, 0, 7, 1, 1, 7, 8, 1, 8, 9, 1, 9, 10, 1, 10, 2, 2, 10, 11, 2, 11, 3, 3, 11, 12, 3, 12, 13, 3, 13, 4, 4, 13, 14, 4, 14, 15, 4, 15, 16, 4, 16, 5, 5, 16, 17, 5, 17, 18, 5, 18, 19, 5, 19, 20, 5, 20, 6, 6, 20, 21, 6, 21, 7, 7, 21, 22, 7, 22, 8, 8, 23, 9, 8, 22, 24, 8, 24, 25, 8, 25, 23, 9, 26, 10, 9, 23, 27, 9, 27, 26, 10, 26, 11, 11, 26, 28, 11, 28, 12, 12, 28, 29, 12, 29, 13, 13, 29, 14, 14, 30, 31, 14, 31, 15, 14, 29, 30, 15, 31, 32, 15, 32, 16, 16, 32, 17, 17, 32, 33, 17, 33, 18, 18, 33, 34, 18, 34, 35, 18, 35, 19, 19, 35, 36, 19, 36, 20, 20, 37, 21, 20, 36, 37, 21, 37, 38, 21, 38, 39, 21, 39, 40, 21, 40, 22, 22, 41, 24, 22, 40, 42, 22, 42, 43, 22, 43, 41, 23, 25, 44, 23, 44, 27, 24, 41, 45, 24, 45, 25, 25, 45, 44, 26, 27, 28, 27, 44, 46, 27, 46, 28, 28, 46, 29, 29, 46, 30, 30, 46, 47, 30, 47, 48, 30, 48, 49, 30, 49, 31, 31, 49, 50, 31, 50, 32, 32, 50, 33, 33, 51, 34, 33, 50, 52, 33, 52, 51, 34, 53, 54, 34, 54, 35, 34, 51, 53, 35, 54, 36, 36, 54, 37, 37, 54, 55, 37, 55, 38, 38, 55, 56, 38, 56, 39, 39, 57, 58, 39, 58, 40, 39, 56, 57, 40, 59, 42, 40, 58, 59, 41, 43, 45, 42, 59, 60, 42, 60, 61, 42, 61, 62, 42, 62, 43, 43, 62, 45, 44, 45, 47, 44, 47, 46, 45, 62, 48, 45, 48, 47, 48, 62, 63, 48, 63, 49, 49, 63, 52, 49, 52, 50, 51, 52, 63, 51, 63, 61, 51, 61, 60, 51, 60, 53, 53, 57, 56, 53, 56, 54, 53, 60, 57, 54, 56, 55, 57, 60, 58, 58, 60, 59, 61, 63, 62]
        rel material:binding:physics = </Object/physicsMaterial>
        custom int newton:sdfMaxResolution = 64
        uniform token physics:approximation = "none"
        point3f[] points = [(0.010680131, -0.00049860234, -0.03495203), (0.004968059, 0.013684978, -0.036204055), (0.018662592, 0.0006749268, -0.036127545), (0.027107665, 0.0015260163, -0.0314255), (0.034994982, 0.0016759884, -0.016547276), (0.037101332, 0.0018709514, 0.011164197), (0.008816571, -0.00049860234, 0.031613927), (0.0040001897, -0.00049860234, -0.02927619), (0.0050435206, 0.03020062, -0.024344606), (0.008882189, 0.021907179, -0.033414826), (0.012205755, 0.01558587, -0.03580063), (0.02343304, 0.011229189, -0.03228105), (0.027977107, 0.012376475, -0.027057322), (0.032327596, 0.005530263, -0.02257786), (0.03394181, 0.008919626, -0.016435985), (0.036743708, 0.0041280272, -0.00627372), (0.037518006, 0.003543137, 0.0033251331), (0.03593004, 0.008687168, 0.01275705), (0.034099292, 0.011371663, 0.01872503), (0.03376136, 0.0028832613, 0.023329701), (0.020549119, 0.001672239, 0.03485528), (0.0040001897, 0.013430026, 0.033255473), (0.0045874733, 0.03780419, 0.0034086015), (0.011752989, 0.029424513, -0.023398628), (0.0052994317, 0.03577957, -0.011448754), (0.009144663, 0.032742642, -0.018014926), (0.017307576, 0.018922742, -0.032663614), (0.01714681, 0.024231741, -0.027759848), (0.02393502, 0.017846694, -0.0280659), (0.029581474, 0.016152013, -0.02139539), (0.030759323, 0.020025035, -0.011567), (0.034538936, 0.014224876, -0.0063780556), (0.036258135, 0.010760528, 0.0025600074), (0.033000186, 0.017310545, 0.013334372), (0.02992925, 0.01813539, 0.022397637), (0.0301786, 0.010441839, 0.02702317), (0.028141154, 0.0033444248, 0.03117572), (0.017343665, 0.010775526, 0.034695297), (0.010181431, 0.01924143, 0.03367281), (0.0049450924, 0.024291731, 0.032184295), (0.004912283, 0.03672064, 0.01311179), (0.007428744, 0.036863115, -0.0045487084), (0.014965004, 0.034992214, 0.009021844), (0.011336313, 0.036533177, 0.0010436667), (0.017885016, 0.029630726, -0.01836271), (0.017494587, 0.03263016, -0.009097731), (0.02475525, 0.022750773, -0.021548416), (0.023688953, 0.026657537, -0.01599082), (0.026215257, 0.027088704, -0.006816264), (0.030201567, 0.023384402, -0.002357666), (0.03335453, 0.018592805, 0.004611936), (0.0269469, 0.026721273, 0.012270152), (0.030021116, 0.023841815, 0.0068447124), (0.02274077, 0.025210308, 0.02438001), (0.024692914, 0.016946863, 0.029798493), (0.017917827, 0.01972884, 0.031947803), (0.013724819, 0.02557024, 0.030021075), (0.009656484, 0.029893178, 0.026842326), (0.008711582, 0.033556238, 0.021096924), (0.01229434, 0.034827247, 0.015024605), (0.018751178, 0.030999219, 0.018578961), (0.021687597, 0.031535365, 0.009230515), (0.019246595, 0.03312507, 0.0012592932), (0.025982313, 0.028415956, 0.004055481)]
        uniform token subdivisionScheme = "none"
        token visibility = "invisible"
    }

    def Mesh "hull3" (
        prepend apiSchemas = ["PhysicsCollisionAPI", "MaterialBindingAPI", "PhysicsMeshCollisionAPI", "NewtonSDFCollisionAPI"]
    )
    {
        int[] faceVertexCounts = [3, 3, 3, 3, 3, 3, 3, 3, 3, 3, 3, 3, 3, 3, 3, 3, 3, 3, 3, 3, 3, 3, 3, 3, 3, 3, 3, 3, 3, 3, 3, 3, 3, 3, 3, 3, 3, 3, 3, 3, 3, 3, 3, 3, 3, 3, 3, 3, 3, 3, 3, 3, 3, 3, 3, 3, 3, 3, 3, 3, 3, 3, 3, 3, 3, 3, 3, 3, 3, 3, 3, 3, 3, 3, 3, 3, 3, 3, 3, 3, 3, 3, 3, 3, 3, 3, 3, 3, 3, 3, 3, 3, 3, 3, 3, 3, 3, 3, 3, 3, 3, 3, 3, 3, 3, 3, 3, 3, 3, 3, 3, 3, 3, 3, 3, 3, 3, 3, 3, 3, 3, 3, 3, 3]
        int[] faceVertexIndices = [0, 1, 2, 0, 2, 3, 0, 3, 4, 0, 4, 5, 0, 5, 6, 0, 6, 7, 0, 7, 8, 0, 8, 28, 0, 28, 29, 0, 29, 9, 0, 9, 1, 1, 9, 2, 2, 10, 3, 2, 9, 29, 2, 29, 11, 2, 11, 12, 2, 12, 13, 2, 13, 14, 2, 14, 10, 3, 10, 15, 3, 15, 4, 4, 15, 16, 4, 16, 17, 4, 17, 5, 5, 17, 18, 5, 18, 6, 6, 19, 20, 6, 20, 7, 6, 18, 19, 7, 21, 22, 7, 22, 23, 7, 23, 24, 7, 24, 8, 7, 20, 25, 7, 25, 21, 8, 24, 26, 8, 26, 27, 8, 27, 11, 8, 11, 28, 10, 14, 30, 10, 30, 15, 11, 29, 28, 11, 27, 12, 12, 27, 31, 12, 31, 32, 12, 32, 33, 12, 33, 34, 12, 34, 35, 12, 35, 13, 13, 36, 37, 13, 37, 38, 13, 38, 14, 13, 35, 36, 14, 38, 30, 15, 30, 39, 15, 39, 16, 16, 39, 40, 16, 40, 41, 16, 41, 17, 17, 41, 18, 18, 41, 19, 19, 42, 43, 19, 43, 20, 19, 41, 42, 20, 43, 25, 21, 25, 44, 21, 44, 45, 21, 45, 46, 21, 46, 22, 22, 46, 23, 23, 46, 47, 23, 47, 48, 23, 48, 24, 24, 49, 26, 24, 48, 49, 25, 43, 44, 26, 31, 27, 26, 49, 50, 26, 50, 51, 26, 51, 31, 30, 38, 39, 31, 51, 32, 32, 51, 52, 32, 52, 33, 33, 52, 53, 33, 53, 34, 34, 53, 54, 34, 54, 35, 35, 54, 36, 36, 54, 37, 37, 55, 38, 37, 54, 56, 37, 56, 57, 37, 57, 55, 38, 55, 40, 38, 40, 39, 40, 55, 42, 40, 42, 41, 42, 55, 57, 42, 57, 58, 42, 58, 43, 43, 58, 44, 44, 58, 45, 45, 59, 60, 45, 60, 46, 45, 58, 59, 46, 60, 47, 47, 61, 50, 47, 50, 49, 47, 49, 48, 47, 60, 61, 50, 61, 62, 50, 62, 51, 51, 62, 52, 52, 63, 53, 52, 62, 63, 53, 59, 56, 53, 56, 54, 53, 63, 59, 56, 59, 58, 56, 58, 57, 59, 63, 60, 60, 63, 61, 61, 63, 62]
        rel material:binding:physics = </Object/physicsMaterial>
        custom int newton:sdfMaxResolution = 64
        uniform token physics:approximation = "none"
        point3f[] points = [(-0.0016655215, -0.018519819, 0.03239984), (-0.0016655215, -0.012036799, 0.030320983), (-0.01853946, -0.0047200215, 0.031229222), (-0.018442662, -0.016744517, 0.032043274), (-0.015829122, -0.024219805, 0.03065064), (-0.0046835397, -0.028245935, 0.029688578), (-0.005150244, -0.03605409, 0.014672346), (-0.0031036607, -0.03710659, -0.005416573), (-0.0016655215, -0.015672997, -0.036330365), (-0.0016655215, -0.0047200215, 0.026587106), (-0.0257509, -0.007687311, 0.031094668), (-0.0106054945, -0.0047200215, -0.03503192), (-0.03359844, -0.006248049, -0.016167441), (-0.03698291, -0.007262507, 0.010003321), (-0.03583516, -0.0074336966, 0.01861478), (-0.02491429, -0.017816039, 0.02962803), (-0.020841867, -0.025636876, 0.027475163), (-0.0109512005, -0.030912057, 0.025685595), (-0.005585834, -0.034361213, 0.020747462), (-0.012662449, -0.03448485, 0.014564703), (-0.0055581783, -0.036852974, 0.008294485), (-0.009378236, -0.035515156, -0.00847095), (-0.0044069747, -0.035660986, -0.013018877), (-0.0043309196, -0.03288708, -0.02132086), (-0.0027579542, -0.021712191, -0.035375033), (-0.0062461337, -0.03700831, 0.0012774908), (-0.019832404, -0.012058991, -0.034836818), (-0.017281089, -0.005499887, -0.035899792), (-0.0016655215, -0.009903268, -0.034217868), (-0.0016655215, -0.0047200215, -0.029972687), (-0.03241958, -0.010188584, 0.02514738), (-0.025111342, -0.0076904814, -0.031957358), (-0.02962627, -0.008454494, -0.024859633), (-0.030663393, -0.012803983, -0.018804701), (-0.033014193, -0.013412658, -0.010489261), (-0.035645023, -0.007636589, -0.0066948365), (-0.036657944, -0.008045542, 0.0019838994), (-0.034134284, -0.016354587, 0.0103868), (-0.033325333, -0.016681114, 0.016818482), (-0.030151745, -0.017660702, 0.02431987), (-0.027192496, -0.024625588, 0.020182334), (-0.018950852, -0.030398486, 0.020707095), (-0.021488337, -0.030918397, 0.012290739), (-0.01588789, -0.03430732, 0.004970999), (-0.015248333, -0.03432951, -0.0014674119), (-0.018819483, -0.031787027, -0.0069504897), (-0.0112485085, -0.033337243, -0.015070827), (-0.011376421, -0.027922574, -0.026972132), (-0.0048010806, -0.028445655, -0.029185545), (-0.00956146, -0.021813639, -0.033847842), (-0.01643065, -0.019099962, -0.033060703), (-0.024658466, -0.0147409635, -0.029246096), (-0.027278922, -0.017432448, -0.02177162), (-0.029003998, -0.02010491, -0.01262867), (-0.033951063, -0.01588857, -0.0007004538), (-0.028914116, -0.024841158, 0.012290739), (-0.030338427, -0.021766083, -0.002846591), (-0.028243443, -0.025770022, 0.005711047), (-0.023984341, -0.029187478, 0.0004499833), (-0.021744162, -0.028252276, -0.012258647), (-0.01598123, -0.02957741, -0.019544749), (-0.017243061, -0.025107456, -0.026225356), (-0.022093326, -0.020206356, -0.027254695), (-0.023635175, -0.022679096, -0.021219946)]
        uniform token subdivisionScheme = "none"
        token visibility = "invisible"
    }

    def Mesh "hull4" (
        prepend apiSchemas = ["PhysicsCollisionAPI", "MaterialBindingAPI", "PhysicsMeshCollisionAPI", "NewtonSDFCollisionAPI"]
    )
    {
        int[] faceVertexCounts = [3, 3, 3, 3, 3, 3, 3, 3, 3, 3, 3, 3, 3, 3, 3, 3, 3, 3, 3, 3, 3, 3, 3, 3, 3, 3, 3, 3, 3, 3, 3, 3, 3, 3, 3, 3, 3, 3, 3, 3, 3, 3, 3, 3, 3, 3, 3, 3, 3, 3, 3, 3, 3, 3, 3, 3, 3, 3, 3, 3, 3, 3, 3, 3, 3, 3, 3, 3, 3, 3, 3, 3, 3, 3, 3, 3, 3, 3, 3, 3, 3, 3, 3, 3, 3, 3, 3, 3, 3, 3, 3, 3, 3, 3, 3, 3, 3, 3, 3, 3, 3, 3, 3, 3, 3, 3, 3, 3, 3, 3, 3, 3, 3, 3, 3, 3, 3, 3, 3, 3, 3, 3, 3, 3]
        int[] faceVertexIndices = [0, 1, 2, 0, 2, 3, 0, 3, 4, 0, 4, 5, 0, 5, 6, 0, 6, 7, 0, 7, 8, 0, 8, 1, 1, 9, 2, 1, 8, 10, 1, 10, 11, 1, 11, 12, 1, 12, 13, 1, 13, 9, 2, 9, 14, 2, 14, 15, 2, 15, 16, 2, 16, 3, 3, 17, 4, 3, 16, 17, 4, 17, 5, 5, 17, 18, 5, 18, 6, 6, 19, 20, 6, 20, 21, 6, 21, 7, 6, 18, 19, 7, 21, 22, 7, 22, 8, 8, 23, 24, 8, 24, 10, 8, 22, 25, 8, 25, 23, 9, 13, 26, 9, 26, 14, 10, 24, 27, 10, 27, 28, 10, 28, 29, 10, 29, 12, 10, 12, 11, 12, 29, 30, 12, 30, 31, 12, 31, 13, 13, 31, 32, 13, 32, 26, 14, 26, 33, 14, 33, 15, 15, 33, 34, 15, 34, 35, 15, 35, 16, 16, 35, 17, 17, 35, 36, 17, 36, 37, 17, 37, 18, 18, 38, 39, 18, 39, 19, 18, 37, 38, 19, 39, 40, 19, 40, 20, 20, 40, 41, 20, 41, 25, 20, 25, 22, 20, 22, 21, 23, 42, 24, 23, 25, 41, 23, 41, 43, 23, 43, 42, 24, 42, 44, 24, 44, 27, 26, 32, 33, 27, 44, 28, 28, 44, 45, 28, 45, 46, 28, 46, 47, 28, 47, 29, 29, 48, 49, 29, 49, 50, 29, 50, 30, 29, 47, 48, 30, 50, 51, 30, 51, 52, 30, 52, 31, 31, 52, 53, 31, 53, 32, 32, 53, 33, 33, 53, 34, 34, 54, 55, 34, 55, 36, 34, 36, 35, 34, 53, 54, 36, 55, 37, 37, 55, 38, 38, 56, 39, 38, 55, 56, 39, 56, 57, 39, 57, 40, 40, 57, 58, 40, 58, 41, 41, 58, 43, 42, 43, 45, 42, 45, 44, 43, 58, 45, 45, 58, 46, 46, 58, 59, 46, 59, 48, 46, 48, 47, 48, 59, 60, 48, 60, 49, 49, 60, 61, 49, 61, 62, 49, 62, 50, 50, 62, 51, 51, 54, 52, 51, 62, 61, 51, 61, 63, 51, 63, 54, 52, 54, 53, 54, 63, 55, 55, 63, 56, 56, 60, 57, 56, 63, 61, 56, 61, 60, 57, 60, 59, 57, 59, 58]
        rel material:binding:physics = </Object/physicsMaterial>
        custom int newton:sdfMaxResolution = 64
        uniform token physics:approximation = "none"
        point3f[] points = [(0.037333615, -0.007870544, 0.0011129146), (0.0132108815, -0.0075578974, 0.03391906), (0.027866235, -0.010190554, 0.030207261), (0.034730084, -0.009901283, 0.017634597), (0.036436506, -0.010663907, 0.006582931), (0.034951497, -0.015093549, 0.00031055263), (0.034333065, -0.01545879, -0.0062688165), (0.03639451, -0.0083088325, -0.007217697), (0.024392316, -0.008440319, -0.03357006), (0.020521378, -0.009503902, 0.034477223), (-0.0016391621, -0.010520732, -0.034504984), (-0.0016582498, -0.009389946, 0.028958367), (-0.0016582498, -0.01583864, 0.03175617), (0.0011972351, -0.024151525, 0.03248876), (0.020666445, -0.015660403, 0.032921337), (0.023785334, -0.020136796, 0.02840718), (0.030381963, -0.01641426, 0.022267364), (0.03368791, -0.016282773, 0.0104272915), (0.030878235, -0.021971766, -0.0016709329), (0.03105384, -0.020513725, -0.00863404), (0.02969863, -0.017799255, -0.019301968), (0.034783527, -0.010903505, -0.012227227), (0.0320922, -0.010187632, -0.02133927), (0.020555736, -0.016022721, -0.033339817), (0.01554337, -0.0101058185, -0.036800437), (0.028034205, -0.01097071, -0.028337263), (0.010114896, -0.021740934, 0.03299809), (0.001716414, -0.017629782, -0.036591124), (0.001712596, -0.027590632, -0.030828074), (-0.0003450321, -0.03650251, -0.010894609), (0.0005100867, -0.035824627, 0.01741133), (0.0005062687, -0.031158306, 0.027186194), (0.006423381, -0.026930276, 0.030960783), (0.01756664, -0.026132591, 0.027800174), (0.02123525, -0.028227614, 0.0190021), (0.027976941, -0.021606525, 0.01978353), (0.027056925, -0.024540141, 0.01463446), (0.02821744, -0.024870317, 0.006255009), (0.025999479, -0.027427007, 0.00019891965), (0.025228346, -0.027619854, -0.005703674), (0.025564287, -0.02544886, -0.014355231), (0.024606096, -0.021562696, -0.024151023), (0.014329406, -0.019274827, -0.034923606), (0.018872222, -0.023093786, -0.029348936), (0.008671884, -0.021013374, -0.035600383), (0.013126898, -0.0263605, -0.029237304), (0.0093017705, -0.029834673, -0.026292983), (0.002491365, -0.0325696, -0.02269282), (0.003926742, -0.03483409, -0.016148336), (0.0017927638, -0.037218384, -0.00450362), (0.0013537527, -0.03708982, 0.010399384), (0.008820767, -0.035082456, 0.015499616), (0.0069120205, -0.032969903, 0.023334857), (0.012580995, -0.029539559, 0.02660012), (0.014699704, -0.032379672, 0.017962517), (0.021559736, -0.030050896, 0.010266819), (0.019009652, -0.03219559, 0.00024775916), (0.019616632, -0.03095085, -0.009652691), (0.020647356, -0.02702378, -0.020536909), (0.01176787, -0.032186825, -0.018667055), (0.013065817, -0.03412114, -0.009220114), (0.011725878, -0.035628855, 0.00049195625), (0.0033579355, -0.03740539, 0.0028641573), (0.014375217, -0.034261394, 0.0074132015)]
        uniform token subdivisionScheme = "none"
        token visibility = "invisible"
    }

    def Mesh "hull5" (
        prepend apiSchemas = ["PhysicsCollisionAPI", "MaterialBindingAPI", "PhysicsMeshCollisionAPI", "NewtonSDFCollisionAPI"]
    )
    {
        int[] faceVertexCounts = [3, 3, 3, 3, 3, 3, 3, 3, 3, 3, 3, 3, 3, 3, 3, 3, 3, 3, 3, 3, 3, 3, 3, 3, 3, 3, 3, 3, 3, 3, 3, 3, 3, 3, 3, 3, 3, 3, 3, 3, 3, 3, 3, 3, 3, 3, 3, 3, 3, 3, 3, 3, 3, 3, 3, 3, 3, 3, 3, 3, 3, 3, 3, 3, 3, 3, 3, 3, 3, 3, 3, 3, 3, 3, 3, 3, 3, 3, 3, 3, 3, 3, 3, 3, 3, 3, 3, 3, 3, 3, 3, 3]
        int[] faceVertexIndices = [0, 1, 6, 0, 6, 2, 0, 2, 15, 0, 15, 3, 0, 3, 4, 0, 4, 5, 0, 5, 1, 1, 5, 4, 1, 4, 16, 1, 16, 27, 1, 27, 38, 1, 38, 46, 1, 46, 47, 1, 47, 45, 1, 45, 44, 1, 44, 43, 1, 43, 42, 1, 42, 31, 1, 31, 30, 1, 30, 19, 1, 19, 22, 1, 22, 18, 1, 18, 17, 1, 17, 6, 2, 7, 8, 2, 8, 9, 2, 9, 10, 2, 10, 11, 2, 11, 12, 2, 12, 13, 2, 13, 14, 2, 14, 15, 2, 6, 7, 3, 16, 4, 3, 15, 27, 3, 27, 16, 6, 17, 7, 7, 17, 18, 7, 18, 8, 8, 18, 9, 9, 19, 20, 9, 20, 21, 9, 21, 10, 9, 18, 22, 9, 22, 19, 10, 21, 11, 11, 21, 23, 11, 23, 24, 11, 24, 12, 12, 24, 13, 13, 15, 14, 13, 24, 25, 13, 25, 26, 13, 26, 15, 15, 26, 28, 15, 28, 29, 15, 29, 27, 19, 30, 20, 20, 30, 31, 20, 31, 32, 20, 32, 21, 21, 32, 23, 23, 32, 33, 23, 33, 34, 23, 34, 24, 24, 34, 25, 25, 34, 26, 26, 34, 35, 26, 35, 28, 27, 29, 36, 27, 36, 37, 27, 37, 38, 28, 35, 39, 28, 39, 40, 28, 40, 29, 29, 40, 41, 29, 41, 36, 31, 42, 32, 32, 42, 33, 33, 42, 43, 33, 43, 44, 33, 44, 45, 33, 45, 39, 33, 39, 35, 33, 35, 34, 36, 41, 37, 37, 41, 46, 37, 46, 38, 39, 41, 40, 39, 45, 47, 39, 47, 41, 41, 47, 46]
        rel material:binding:physics = </Object/physicsMaterial>
        custom int newton:sdfMaxResolution = 64
        uniform token physics:approximation = "none"
        point3f[] points = [(-0.006077107, -0.004870916, -0.032044534), (-0.0015874818, -0.004870916, -0.029973863), (-0.006077107, -0.004870916, 0.027075153), (-0.006077107, 0.0016127689, -0.030643964), (-0.0015874818, 0.00068997365, -0.029110583), (-0.0015874818, -0.000069079564, -0.029273579), (-0.0015874818, -0.004870916, 0.026592199), (-0.002248574, -0.0035774792, 0.028427426), (-0.002248574, -0.0031998563, 0.028880196), (-0.002248574, -0.002796213, 0.029254487), (-0.0030032918, -0.002693398, 0.02918808), (-0.003425705, -0.0021742461, 0.02932693), (-0.003834492, -0.0017439468, 0.029061306), (-0.0038213057, -0.0009925095, 0.029067341), (-0.0042441585, -0.0009925095, 0.028687015), (-0.006077107, 0.0016127689, 0.026978564), (-0.0015874818, 0.0016127689, -0.028850993), (-0.0015874818, -0.003226512, 0.028711163), (-0.0015874818, -0.0031421024, 0.02881379), (-0.0015874818, -0.0023970117, 0.029351078), (-0.002248574, -0.0024185902, 0.029429559), (-0.0030032918, -0.0023157755, 0.029381262), (-0.0015874818, -0.0026889553, 0.029194117), (-0.0030032918, -0.0017439468, 0.029489927), (-0.0034577928, -0.0017439468, 0.029339002), (-0.0034441666, -0.0009925095, 0.029332966), (-0.0034059251, -0.0005749034, 0.029314855), (-0.0015874818, 0.0016127689, 0.026990635), (-0.00262879, 0.00014099288, 0.029302781), (-0.0026454933, 0.0009025847, 0.028554203), (-0.0015874818, -0.0023119675, 0.029387299), (-0.0015874818, -0.0017439468, 0.02954426), (-0.002248574, -0.0017439468, 0.029610666), (-0.002248574, -0.0009925095, 0.029628778), (-0.0030032918, -0.0009925095, 0.029489927), (-0.0029294465, -0.00028930648, 0.02936919), (-0.0025013187, 0.0009025847, 0.028554203), (-0.0019984667, 0.00088608364, 0.028530056), (-0.0015874818, 0.00085815863, 0.028457612), (-0.002248574, -0.00023726436, 0.029453704), (-0.002248574, 0.0001536861, 0.029308818), (-0.0018173697, 0.00015812877, 0.029314855), (-0.0015874818, -0.0011613292, 0.029568406), (-0.0015874818, -0.0009925095, 0.029568406), (-0.0015874818, -0.00037308165, 0.029429559), (-0.0015874818, -0.00023916831, 0.029399374), (-0.0015874818, 0.00029838856, 0.029121675), (-0.0015874818, -0.00006209831, 0.029357115)]
        uniform token subdivisionScheme = "none"
        token visibility = "invisible"
    }

    def Mesh "hull6" (
        prepend apiSchemas = ["PhysicsCollisionAPI", "MaterialBindingAPI", "PhysicsMeshCollisionAPI", "NewtonSDFCollisionAPI"]
    )
    {
        int[] faceVertexCounts = [3, 3, 3, 3, 3, 3, 3, 3, 3, 3, 3, 3, 3, 3, 3, 3, 3, 3, 3, 3, 3, 3, 3, 3, 3, 3, 3, 3, 3, 3, 3, 3, 3, 3, 3, 3, 3, 3, 3, 3, 3, 3, 3, 3, 3, 3, 3, 3, 3, 3, 3, 3, 3, 3, 3, 3, 3, 3, 3, 3, 3, 3, 3, 3, 3, 3, 3, 3, 3, 3, 3, 3, 3, 3, 3, 3, 3, 3, 3, 3, 3, 3, 3, 3, 3, 3, 3, 3, 3, 3, 3, 3, 3, 3, 3, 3, 3, 3, 3, 3, 3, 3, 3, 3, 3, 3, 3, 3, 3, 3, 3, 3, 3, 3, 3, 3, 3, 3, 3, 3, 3, 3, 3, 3]
        int[] faceVertexIndices = [0, 1, 2, 0, 2, 3, 0, 3, 4, 0, 4, 5, 0, 5, 1, 1, 6, 7, 1, 7, 2, 1, 5, 6, 2, 7, 8, 2, 8, 3, 3, 8, 9, 3, 9, 10, 3, 10, 4, 4, 10, 11, 4, 11, 5, 5, 11, 12, 5, 12, 13, 5, 13, 14, 5, 14, 15, 5, 15, 16, 5, 16, 6, 6, 17, 18, 6, 18, 19, 6, 19, 7, 6, 16, 17, 7, 9, 8, 7, 19, 9, 9, 19, 20, 9, 20, 21, 9, 21, 22, 9, 22, 23, 9, 23, 10, 10, 23, 11, 11, 23, 24, 11, 24, 12, 12, 24, 25, 12, 25, 26, 12, 26, 27, 12, 27, 13, 13, 27, 28, 13, 28, 29, 13, 29, 30, 13, 30, 31, 13, 31, 14, 14, 31, 32, 14, 32, 33, 14, 33, 34, 14, 34, 35, 14, 35, 60, 14, 60, 63, 14, 63, 61, 14, 61, 36, 14, 36, 15, 15, 36, 37, 15, 37, 38, 15, 38, 22, 15, 22, 39, 15, 39, 40, 15, 40, 16, 16, 40, 41, 16, 41, 42, 16, 42, 43, 16, 43, 44, 16, 44, 17, 17, 45, 46, 17, 46, 18, 17, 44, 45, 18, 20, 19, 18, 46, 20, 20, 46, 45, 20, 45, 21, 21, 44, 43, 21, 43, 42, 21, 42, 22, 21, 45, 44, 22, 42, 47, 22, 47, 39, 22, 38, 23, 23, 38, 48, 23, 48, 49, 23, 49, 50, 23, 50, 51, 23, 51, 24, 24, 51, 25, 25, 51, 26, 26, 50, 27, 26, 51, 50, 27, 52, 28, 27, 50, 52, 28, 52, 49, 28, 49, 29, 29, 49, 53, 29, 53, 30, 30, 53, 54, 30, 54, 31, 31, 54, 55, 31, 55, 32, 32, 56, 33, 32, 55, 57, 32, 57, 56, 33, 58, 34, 33, 56, 58, 34, 59, 48, 34, 48, 35, 34, 58, 59, 35, 48, 60, 36, 61, 62, 36, 62, 37, 37, 62, 48, 37, 48, 38, 39, 47, 40, 40, 47, 41, 41, 47, 42, 48, 59, 54, 48, 54, 49, 48, 62, 60, 49, 52, 50, 49, 54, 53, 54, 59, 58, 54, 58, 57, 54, 57, 55, 56, 57, 58, 60, 62, 63, 61, 63, 62]
        rel material:binding:physics = </Object/physicsMaterial>
        custom int newton:sdfMaxResolution = 64
        uniform token physics:approximation = "none"
        point3f[] points = [(0.037736274, -0.0018746267, 0.0031898734), (0.037637502, -0.0012615254, 0.007541441), (0.037480824, -0.0055670436, 0.006350784), (0.03751148, -0.006607521, 0.0026795922), (0.03767837, -0.0038665158, 0.0009786538), (0.03765453, -0.00071401475, -0.0015727537), (0.03655439, -0.0012767148, 0.015550025), (0.037092537, -0.0026099342, 0.01221902), (0.03703464, -0.006030322, 0.010539344), (0.03630916, -0.0066047595, 0.014657032), (0.037307117, -0.0071294857, -0.0013955726), (0.037392266, -0.003956962, -0.0041737715), (0.03690521, -0.0010751095, -0.008468641), (0.032610245, -0.001339544, -0.02342981), (0.015852734, -0.00049860065, -0.036647517), (0.0153554585, -0.00049860065, 0.034848586), (0.024432443, -0.0006214972, 0.03420365), (0.033979457, -0.0015121512, 0.02389171), (0.03560412, -0.001871865, 0.019384222), (0.03624104, -0.004016339, 0.016471365), (0.03537932, -0.0064128195, 0.018710935), (0.02793381, -0.0063417056, 0.03146797), (0.016254643, -0.007420156, 0.03481315), (0.036874555, -0.0073545654, -0.0055203475), (0.036755346, -0.005118265, -0.008107191), (0.0361627, -0.0027928979, -0.011799645), (0.035467878, -0.0025705798, -0.014740851), (0.03443586, -0.0022205317, -0.018482914), (0.03248763, -0.004244181, -0.023344764), (0.031043487, -0.003010383, -0.026349755), (0.02893858, -0.0013989208, -0.029999685), (0.026527133, -0.0013084747, -0.032777883), (0.021326173, -0.0023310008, -0.03596714), (0.017845243, -0.0040957383, -0.036938094), (0.014016902, -0.003972842, -0.03690266), (0.011533929, -0.00049860065, -0.035456862), (0.010791421, -0.00049860065, 0.03287833), (0.00863883, -0.0075520286, 0.03213417), (0.013230116, -0.0075520286, 0.034054816), (0.01829824, -0.0019436696, 0.035280906), (0.021203557, -0.0011524374, 0.035181686), (0.022644294, -0.0035862015, 0.03468558), (0.023080261, -0.006626853, 0.03425326), (0.027347978, -0.002400734, 0.03234679), (0.030535992, -0.0028094684, 0.029270926), (0.032814607, -0.0054821204, 0.02553595), (0.034647033, -0.005212163, 0.021538744), (0.019640204, -0.0063078743, 0.03501868), (0.0034514945, -0.0075520286, -0.03406776), (0.03169744, -0.0070058987, -0.024223583), (0.034497168, -0.0063983207, -0.016930807), (0.035658613, -0.0064052255, -0.01255798), (0.033063244, -0.006414891, -0.021289462), (0.029306427, -0.0068381242, -0.028475927), (0.026339803, -0.006865741, -0.032203816), (0.024459692, -0.0030352387, -0.034492996), (0.019575492, -0.0064404374, -0.03659082), (0.022933803, -0.0066116634, -0.035230067), (0.016482845, -0.0068740267, -0.03712236), (0.01288611, -0.0071115345, -0.036881395), (0.0029405947, -0.00049860065, -0.029220087), (0.007896323, -0.00049860065, 0.03108526), (0.0030802416, -0.0075520286, 0.029384322), (0.0039113043, -0.00049860065, 0.028434632)]
        uniform token subdivisionScheme = "none"
        token visibility = "invisible"
    }

    def Mesh "hull7" (
        prepend apiSchemas = ["PhysicsCollisionAPI", "MaterialBindingAPI", "PhysicsMeshCollisionAPI", "NewtonSDFCollisionAPI"]
    )
    {
        int[] faceVertexCounts = [3, 3, 3, 3, 3, 3, 3, 3, 3, 3, 3, 3, 3, 3, 3, 3, 3, 3, 3, 3, 3, 3, 3, 3, 3, 3, 3, 3, 3, 3, 3, 3, 3, 3, 3, 3, 3, 3, 3, 3, 3, 3, 3, 3, 3, 3, 3, 3, 3, 3, 3, 3, 3, 3, 3, 3, 3, 3, 3, 3, 3, 3, 3, 3, 3, 3, 3, 3, 3, 3, 3, 3, 3, 3, 3, 3, 3, 3, 3, 3, 3, 3, 3, 3, 3, 3, 3, 3, 3, 3, 3, 3, 3, 3, 3, 3, 3, 3, 3, 3, 3, 3, 3, 3, 3, 3, 3, 3, 3, 3, 3, 3, 3, 3, 3, 3, 3, 3, 3, 3, 3, 3, 3, 3]
        int[] faceVertexIndices = [0, 1, 2, 0, 2, 3, 0, 3, 9, 0, 9, 19, 0, 19, 10, 0, 10, 4, 0, 4, 5, 0, 5, 1, 1, 5, 11, 1, 11, 20, 1, 20, 17, 1, 17, 15, 1, 15, 14, 1, 14, 12, 1, 12, 6, 1, 6, 2, 2, 6, 3, 3, 6, 7, 3, 7, 8, 3, 8, 9, 4, 10, 11, 4, 11, 5, 6, 12, 7, 7, 12, 8, 8, 13, 9, 8, 12, 14, 8, 14, 15, 8, 15, 13, 9, 16, 17, 9, 17, 18, 9, 18, 19, 9, 13, 16, 10, 19, 20, 10, 20, 11, 13, 15, 21, 13, 21, 22, 13, 22, 23, 13, 23, 24, 13, 24, 25, 13, 25, 16, 15, 26, 27, 15, 27, 21, 15, 17, 26, 16, 28, 29, 16, 29, 30, 16, 30, 17, 16, 25, 28, 17, 20, 18, 17, 30, 31, 17, 31, 32, 17, 32, 26, 18, 20, 19, 21, 33, 22, 21, 27, 33, 22, 33, 23, 23, 33, 34, 23, 34, 35, 23, 35, 24, 24, 35, 36, 24, 36, 37, 24, 37, 25, 25, 38, 39, 25, 39, 40, 25, 40, 41, 25, 41, 42, 25, 42, 28, 25, 37, 43, 25, 43, 44, 25, 44, 38, 26, 45, 46, 26, 46, 47, 26, 47, 48, 26, 48, 49, 26, 49, 27, 26, 32, 50, 26, 50, 38, 26, 38, 45, 27, 49, 35, 27, 35, 34, 27, 34, 33, 28, 51, 52, 28, 52, 29, 28, 42, 53, 28, 53, 51, 29, 52, 30, 30, 52, 31, 31, 54, 55, 31, 55, 32, 31, 52, 51, 31, 51, 53, 31, 53, 54, 32, 55, 56, 32, 56, 57, 32, 57, 50, 35, 49, 36, 36, 58, 59, 36, 59, 37, 36, 49, 58, 37, 47, 43, 37, 59, 48, 37, 48, 47, 38, 60, 45, 38, 50, 61, 38, 61, 39, 38, 44, 60, 39, 61, 40, 40, 61, 41, 41, 61, 50, 41, 50, 57, 41, 57, 62, 41, 62, 42, 42, 62, 63, 42, 63, 54, 42, 54, 53, 43, 47, 46, 43, 46, 60, 43, 60, 44, 45, 60, 46, 48, 59, 58, 48, 58, 49, 54, 63, 55, 55, 63, 56, 56, 63, 62, 56, 62, 57]
        rel material:binding:physics = </Object/physicsMaterial>
        custom int newton:sdfMaxResolution = 64
        uniform token physics:approximation = "none"
        point3f[] points = [(-0.005927078, -0.004795468, 0.027071452), (-0.005927078, 0.0016127689, 0.026978698), (-0.011138795, 0.0016127689, 0.029145155), (-0.013182295, -0.004795468, 0.02979443), (-0.006620918, -0.004795468, -0.032522675), (-0.006196376, 0.0016127689, -0.03085311), (-0.013806433, 0.0016127689, 0.03009919), (-0.01667684, -0.004791077, 0.030854471), (-0.021286596, -0.0047929594, 0.03157), (-0.017703341, -0.004795468, -0.03592143), (-0.0092853885, -0.004795468, -0.03438437), (-0.009241032, 0.0016127689, -0.033748347), (-0.016949305, 0.0016127689, 0.030894224), (-0.024793811, -0.004791077, 0.03149712), (-0.020285439, 0.0016127689, 0.031364616), (-0.023703944, 0.0016127689, 0.03147062), (-0.020687802, -0.0047860593, -0.03547091), (-0.016021019, 0.0016127689, -0.036040682), (-0.014775909, -0.0047929594, -0.03611356), (-0.012095597, -0.004795468, -0.03565642), (-0.013090418, 0.0016127689, -0.035947926), (-0.02635891, 0.0011435676, 0.031159231), (-0.026935525, -0.0029387353, 0.031020101), (-0.03082293, -0.0032975364, 0.029006025), (-0.03316424, -0.004658095, 0.026322799), (-0.03718154, -0.0046549584, -0.0003504583), (-0.038040128, 0.0015701144, 0.013509565), (-0.034238264, 0.0012966226, 0.025494643), (-0.027005225, -0.0045715314, -0.030753732), (-0.02412215, -0.0031488724, -0.033708595), (-0.021904398, 0.0013223409, -0.034874637), (-0.029929493, 0.0012113132, -0.02712972), (-0.035239425, 0.0012307587, -0.013865968), (-0.029165952, 0.00017881927, 0.030145569), (-0.031567458, -0.00007899064, 0.028529007), (-0.033747192, -0.0013749398, 0.026064415), (-0.035667133, -0.0036883282, 0.021989886), (-0.037187878, -0.0044881036, 0.014708736), (-0.03803696, 0.0007283119, 0.0015311127), (-0.037568063, -0.00048734632, -0.0016821336), (-0.036709476, -0.0037560742, -0.0048755044), (-0.03569248, -0.0037968473, -0.010149203), (-0.029679202, -0.004516331, -0.026705705), (-0.03762826, -0.004446076, 0.008500877), (-0.037672613, -0.0036607282, 0.0036975697), (-0.038293585, 0.0010632764, 0.008573754), (-0.03801478, -0.0016986135, 0.009494663), (-0.037650436, -0.003247982, 0.01189963), (-0.03752371, 0.00023276491, 0.016908318), (-0.035980787, 0.0010018034, 0.022453653), (-0.036243748, 0.0010174855, -0.009851067), (-0.027822629, -0.00024647292, -0.03018396), (-0.025291221, 0.0010018034, -0.032953314), (-0.029862957, -0.0018171684, -0.027036967), (-0.031523105, -0.00046978265, -0.023956226), (-0.033031177, 0.000996158, -0.02050447), (-0.034010157, -0.00029790934, -0.017655613), (-0.034700826, -0.0027561986, -0.014508617), (-0.036836203, -0.00025337294, 0.01986318), (-0.036912244, -0.003709656, 0.01763047), (-0.038195368, -0.00016555452, 0.0051286235), (-0.036921747, 0.000045209767, -0.0062999334), (-0.033642642, -0.0036381464, -0.017688738), (-0.03229615, -0.0035722828, -0.02146513)]
        uniform token subdivisionScheme = "none"
        token visibility = "invisible"
    }

    def Mesh "hull8" (
        prepend apiSchemas = ["PhysicsCollisionAPI", "MaterialBindingAPI", "PhysicsMeshCollisionAPI", "NewtonSDFCollisionAPI"]
    )
    {
        int[] faceVertexCounts = [3, 3, 3, 3, 3, 3, 3, 3, 3, 3, 3, 3, 3, 3, 3, 3, 3, 3, 3, 3, 3, 3, 3, 3, 3, 3, 3, 3, 3, 3, 3, 3, 3, 3, 3, 3, 3, 3, 3, 3, 3, 3, 3, 3, 3, 3, 3, 3, 3, 3, 3, 3, 3, 3, 3, 3, 3, 3, 3, 3, 3, 3, 3, 3, 3, 3, 3, 3, 3, 3, 3, 3, 3, 3, 3, 3, 3, 3, 3, 3, 3, 3, 3, 3, 3, 3, 3, 3, 3, 3, 3, 3, 3, 3, 3, 3, 3, 3, 3, 3, 3, 3, 3, 3, 3, 3, 3, 3, 3, 3, 3, 3, 3, 3, 3, 3, 3, 3, 3, 3, 3, 3, 3, 3]
        int[] faceVertexIndices = [0, 1, 2, 0, 2, 3, 0, 3, 7, 0, 7, 17, 0, 17, 18, 0, 18, 8, 0, 8, 4, 0, 4, 1, 1, 4, 5, 1, 5, 10, 1, 10, 19, 1, 19, 11, 1, 11, 6, 1, 6, 2, 2, 6, 3, 3, 6, 7, 4, 8, 9, 4, 9, 10, 4, 10, 5, 6, 11, 7, 7, 11, 12, 7, 12, 13, 7, 13, 14, 7, 14, 15, 7, 15, 16, 7, 16, 17, 8, 18, 9, 9, 18, 19, 9, 19, 10, 11, 20, 12, 11, 19, 21, 11, 21, 20, 12, 20, 22, 12, 22, 23, 12, 23, 13, 13, 23, 24, 13, 24, 25, 13, 25, 26, 13, 26, 14, 14, 27, 28, 14, 28, 29, 14, 29, 30, 14, 30, 15, 14, 26, 27, 15, 30, 31, 15, 31, 32, 15, 32, 33, 15, 33, 34, 15, 34, 35, 15, 35, 36, 15, 36, 37, 15, 37, 38, 15, 38, 16, 16, 38, 39, 16, 39, 40, 16, 40, 41, 16, 41, 42, 16, 42, 43, 16, 43, 17, 17, 43, 44, 17, 44, 19, 17, 19, 18, 19, 44, 45, 19, 45, 21, 20, 25, 46, 20, 46, 22, 20, 21, 47, 20, 47, 25, 21, 45, 48, 21, 48, 49, 21, 49, 50, 21, 50, 51, 21, 51, 47, 22, 46, 23, 23, 46, 24, 24, 46, 25, 25, 47, 27, 25, 27, 26, 27, 47, 52, 27, 52, 53, 27, 53, 28, 28, 53, 54, 28, 54, 29, 29, 54, 30, 30, 54, 53, 30, 53, 31, 31, 53, 52, 31, 52, 32, 32, 52, 33, 33, 52, 47, 33, 47, 34, 34, 47, 35, 35, 47, 36, 36, 47, 55, 36, 55, 37, 37, 55, 56, 37, 56, 57, 37, 57, 38, 38, 57, 50, 38, 50, 49, 38, 49, 58, 38, 58, 59, 38, 59, 39, 39, 59, 60, 39, 60, 61, 39, 61, 62, 39, 62, 40, 40, 45, 63, 40, 63, 41, 40, 62, 45, 41, 63, 42, 42, 44, 43, 42, 63, 44, 44, 63, 45, 45, 62, 61, 45, 61, 60, 45, 60, 48, 47, 51, 56, 47, 56, 55, 48, 60, 59, 48, 59, 58, 48, 58, 49, 50, 57, 51, 51, 57, 56]
        rel material:binding:physics = </Object/physicsMaterial>
        custom int newton:sdfMaxResolution = 64
        uniform token physics:approximation = "none"
        point3f[] points = [(0.00400019, 0.0033211897, -0.029732807), (-0.0016615116, 0.0033211897, -0.028364021), (-0.0016615116, 0.008468009, -0.03366033), (0.00400019, 0.009774171, -0.035001602), (0.00400019, 0.0040114927, 0.03009484), (-0.0016615116, 0.005104473, 0.028595366), (-0.0016615116, 0.010860383, -0.035352394), (0.00400019, 0.012877152, -0.03637039), (0.00400019, 0.008789474, 0.032082673), (-0.0016454397, 0.011709726, 0.03196574), (-0.0016615116, 0.008258211, 0.030404363), (-0.0016615116, 0.013716345, -0.036287848), (0.0036876213, 0.015915839, -0.036535464), (0.0034864473, 0.024104731, -0.032552917), (0.0036920554, 0.029380137, -0.025922216), (0.0036787544, 0.037389684, -0.00512217), (0.0039735883, 0.022142103, 0.03320384), (0.00400019, 0.016078264, 0.033733472), (0.00400019, 0.013185081, 0.033410188), (-0.0016615116, 0.015438717, 0.03298373), (-0.0016398976, 0.016565537, -0.03615028), (-0.0015767191, 0.036844887, 0.01307787), (0.0030863155, 0.018477404, -0.03578573), (0.0032908148, 0.0213266, -0.0344307), (-0.0011294801, 0.02296776, -0.033474613), (-0.0013361966, 0.026253467, -0.030276194), (0.003138964, 0.02747165, -0.028680421), (-0.0010313867, 0.028791348, -0.027043382), (-0.0003242282, 0.030950237, -0.023659246), (0.003294694, 0.03155933, -0.022276705), (0.0034260396, 0.033528723, -0.018500507), (0.0030791105, 0.034936402, -0.015109493), (0.0030647013, 0.03669938, -0.008987786), (-0.00073710684, 0.036807664, -0.008650749), (-0.00031924038, 0.037338927, -0.005294128), (0.0023625307, 0.03773822, -0.0019925334), (0.0026484977, 0.03789049, 0.0010683197), (0.003083544, 0.037856653, 0.0058281184), (0.0036272139, 0.03677044, 0.013696919), (0.003408859, 0.03201953, 0.025603293), (0.0025542837, 0.027803268, 0.030356213), (0.0024096377, 0.025218014, 0.031986378), (0.00075424387, 0.022406043, 0.03300437), (0.0031057124, 0.019228619, 0.033637173), (-0.0016398976, 0.019174477, 0.033265743), (-0.0015977785, 0.02865261, 0.029578965), (-0.0014198805, 0.019773416, -0.035152923), (-0.0015196364, 0.037700996, -0.0003211012), (-0.001007002, 0.035054836, 0.019763598), (-0.0005132103, 0.036080137, 0.016647719), (-0.00012527061, 0.03685504, 0.013394272), (-0.0010984449, 0.037359226, 0.010319663), (-0.0005547753, 0.035569176, -0.0134793315), (-0.00013469208, 0.033873875, -0.018067172), (0.000089204514, 0.032395136, -0.021038609), (-0.0006013279, 0.037839733, 0.003234991), (-0.00030206025, 0.037785593, 0.0071418784), (0.0023935658, 0.03744044, 0.010195853), (0.0027427115, 0.035420287, 0.018738728), (0.0032808392, 0.034147963, 0.021833973), (-0.0006362426, 0.03332569, 0.023684245), (-0.0007276855, 0.030909631, 0.027240332), (0.0022045837, 0.030182105, 0.02812076), (-0.0009925928, 0.026388822, 0.0312504)]
        uniform token subdivisionScheme = "none"
        token visibility = "invisible"
    }

    def Mesh "hull9" (
        prepend apiSchemas = ["PhysicsCollisionAPI", "MaterialBindingAPI", "PhysicsMeshCollisionAPI", "NewtonSDFCollisionAPI"]
    )
    {
        int[] faceVertexCounts = [3, 3, 3, 3, 3, 3, 3, 3, 3, 3, 3, 3, 3, 3, 3, 3, 3, 3, 3, 3, 3, 3, 3, 3, 3, 3, 3, 3, 3, 3, 3, 3, 3, 3, 3, 3, 3, 3, 3, 3, 3, 3, 3, 3, 3, 3, 3, 3, 3, 3, 3, 3, 3, 3, 3, 3, 3, 3, 3, 3]
        int[] faceVertexIndices = [0, 1, 2, 0, 2, 3, 0, 3, 4, 0, 4, 5, 0, 5, 6, 0, 6, 7, 0, 7, 8, 0, 8, 9, 0, 9, 10, 0, 10, 11, 0, 11, 12, 0, 12, 19, 0, 19, 13, 0, 13, 14, 0, 14, 1, 1, 14, 26, 1, 26, 25, 1, 25, 24, 1, 24, 23, 1, 23, 22, 1, 22, 21, 1, 21, 30, 1, 30, 31, 1, 31, 28, 1, 28, 27, 1, 27, 15, 1, 15, 2, 2, 15, 16, 2, 16, 4, 2, 4, 3, 4, 17, 6, 4, 6, 5, 4, 16, 18, 4, 18, 17, 6, 17, 18, 6, 18, 28, 6, 28, 31, 6, 31, 29, 6, 29, 19, 6, 19, 12, 6, 12, 11, 6, 11, 10, 6, 10, 9, 6, 9, 8, 6, 8, 7, 13, 20, 21, 13, 21, 22, 13, 22, 23, 13, 23, 24, 13, 24, 25, 13, 25, 26, 13, 26, 14, 13, 19, 20, 15, 27, 16, 16, 27, 18, 18, 27, 28, 19, 29, 20, 20, 29, 30, 20, 30, 21, 29, 31, 30]
        rel material:binding:physics = </Object/physicsMaterial>
        custom int newton:sdfMaxResolution = 64
        uniform token physics:approximation = "none"
        point3f[] points = [(0.0029371881, -0.004156233, 0.02790487), (0.0029371881, -0.00042315267, 0.027757466), (-0.0009280435, -0.0009910075, 0.029390706), (-0.0009866145, -0.0017452243, 0.029361226), (-0.001492705, -0.0017452243, 0.02952632), (-0.001492705, -0.0022823846, 0.029373018), (-0.0017375137, -0.0023134449, 0.029390706), (-0.0017375137, -0.0026890913, 0.029190237), (-0.0017375137, -0.0031425715, 0.028806986), (-0.0017375137, -0.0032266171, 0.028706752), (-0.0017375137, -0.0035375853, 0.028252745), (-0.0017375137, -0.0036885014, 0.02796973), (-0.0017375137, -0.004156233, 0.026819974), (0.0029371881, -0.004156233, -0.030661799), (0.0029371881, -0.00042315267, -0.029217236), (-0.0010136121, -0.00042315267, 0.02933764), (-0.001492705, -0.0009910075, 0.029549904), (-0.0017375137, -0.0017452243, 0.02953811), (-0.0017375137, -0.0009910075, 0.029573489), (-0.0017375137, -0.004156233, -0.029476669), (-0.001012697, -0.0009910075, -0.029529734), (-0.0005638048, -0.00042315267, -0.02956511), (0.00001641464, -0.00042315267, -0.029588694), (0.0007696017, -0.00042315267, -0.029576903), (0.0013987827, -0.00042315267, -0.029559214), (0.0016481673, -0.00042315267, -0.029512044), (0.0025418336, -0.00042315267, -0.02933516), (-0.0015796464, -0.00042315267, 0.029449668), (-0.0017375137, -0.00042315267, 0.029455565), (-0.0017375137, -0.00082182046, -0.029329265), (-0.0013252284, -0.00042315267, -0.029400019), (-0.0017375137, -0.00042315267, -0.029293885)]
        uniform token subdivisionScheme = "none"
        token visibility = "invisible"
    }

    def Mesh "hull10" (
        prepend apiSchemas = ["PhysicsCollisionAPI", "MaterialBindingAPI", "PhysicsMeshCollisionAPI", "NewtonSDFCollisionAPI"]
    )
    {
        int[] faceVertexCounts = [3, 3, 3, 3, 3, 3, 3, 3, 3, 3, 3, 3, 3, 3, 3, 3, 3, 3, 3, 3, 3, 3]
        int[] faceVertexIndices = [0, 1, 2, 0, 2, 3, 0, 3, 10, 0, 10, 11, 0, 11, 4, 0, 4, 12, 0, 12, 8, 0, 8, 7, 0, 7, 6, 0, 6, 5, 0, 5, 1, 1, 5, 2, 2, 5, 6, 2, 6, 7, 2, 7, 8, 2, 8, 12, 2, 12, 9, 2, 9, 11, 2, 11, 10, 2, 10, 3, 4, 11, 12, 9, 12, 11]
        rel material:binding:physics = </Object/physicsMaterial>
        custom int newton:sdfMaxResolution = 64
        uniform token physics:approximation = "none"
        point3f[] points = [(0.0009147348, -0.00057328655, -0.029567482), (0.0009147348, -0.00042003873, -0.029567482), (0.00400019, 0.0033208076, -0.029742345), (0.0013992252, -0.00057328655, -0.029555826), (0.0009147348, -0.00057328655, 0.026965398), (0.0009147348, -0.00006284187, -0.029520852), (0.0009147348, 0.0005192709, -0.029404277), (0.0009147348, 0.001273692, -0.029147813), (0.0009147348, 0.0033208076, -0.028390078), (0.00400019, 0.0033208076, 0.029803993), (0.00400019, -0.00057328655, -0.029281875), (0.00400019, -0.00057328655, 0.028510014), (0.0009147348, 0.0033208076, 0.028282693)]
        uniform token subdivisionScheme = "none"
        token visibility = "invisible"
    }

    def Mesh "hull11" (
        prepend apiSchemas = ["PhysicsCollisionAPI", "MaterialBindingAPI", "PhysicsMeshCollisionAPI", "NewtonSDFCollisionAPI"]
    )
    {
        int[] faceVertexCounts = [3, 3, 3, 3, 3, 3, 3, 3, 3, 3, 3, 3, 3, 3, 3, 3, 3, 3, 3, 3, 3, 3, 3, 3, 3, 3, 3, 3, 3, 3, 3, 3, 3, 3, 3, 3, 3, 3, 3, 3, 3, 3, 3, 3, 3, 3, 3, 3, 3, 3, 3, 3, 3, 3, 3, 3, 3, 3, 3, 3, 3, 3, 3, 3, 3, 3, 3, 3, 3, 3, 3, 3]
        int[] faceVertexIndices = [0, 1, 6, 0, 6, 14, 0, 14, 25, 0, 25, 31, 0, 31, 37, 0, 37, 36, 0, 36, 35, 0, 35, 26, 0, 26, 16, 0, 16, 15, 0, 15, 7, 0, 7, 2, 0, 2, 3, 0, 3, 4, 0, 4, 1, 1, 4, 5, 1, 5, 6, 2, 7, 8, 2, 8, 9, 2, 9, 10, 2, 10, 11, 2, 11, 3, 3, 11, 12, 3, 12, 4, 4, 13, 5, 4, 12, 13, 5, 13, 23, 5, 23, 22, 5, 22, 30, 5, 30, 32, 5, 32, 24, 5, 24, 14, 5, 14, 6, 7, 15, 8, 8, 15, 16, 8, 16, 9, 9, 17, 26, 9, 26, 35, 9, 35, 34, 9, 34, 33, 9, 33, 29, 9, 29, 20, 9, 20, 19, 9, 19, 18, 9, 18, 10, 9, 16, 17, 10, 18, 11, 11, 18, 19, 11, 19, 20, 11, 20, 21, 11, 21, 12, 12, 21, 22, 12, 22, 23, 12, 23, 13, 14, 24, 25, 16, 26, 17, 20, 27, 28, 20, 28, 21, 20, 29, 24, 20, 24, 32, 20, 32, 27, 21, 28, 30, 21, 30, 22, 24, 31, 25, 24, 29, 33, 24, 33, 34, 24, 34, 35, 24, 35, 36, 24, 36, 37, 24, 37, 31, 27, 32, 28, 28, 32, 30]
        rel material:binding:physics = </Object/physicsMaterial>
        custom int newton:sdfMaxResolution = 64
        uniform token physics:approximation = "none"
        point3f[] points = [(0.000015591506, -0.00049860065, -0.029588763), (0.00076978974, -0.00049860065, -0.0295772), (-0.00053597434, -0.00049860065, -0.029571421), (0.000015591506, -0.0003886732, -0.0295772), (0.00076978974, -0.00037783012, -0.029571421), (0.0010653286, -0.00042045498, -0.02956564), (0.0010653286, -0.00049860065, -0.02956564), (-0.00056400645, -0.00049860065, -0.02956564), (-0.0014930719, -0.00023537321, -0.029334428), (-0.0016620655, -0.000066743065, -0.029270843), (-0.00078239024, -0.0002450947, -0.029473154), (0.000015591506, -0.000011405581, -0.029507838), (0.00076978974, -5.62347e-7, -0.029525178), (0.0010653286, -0.00017293151, -0.029536737), (0.0010653286, -0.00049860065, 0.026960516), (-0.00132568, -0.00049860065, -0.029403789), (-0.0014930719, -0.00049860065, -0.029357549), (-0.0016620655, -0.00023537321, -0.029282402), (-0.0016620655, 0.0006915314, -0.029108992), (-0.0016620655, 0.0016442353, -0.028843096), (-0.0016620655, 0.0033211885, -0.028369106), (0.00076978974, 0.0005187884, -0.029421132), (0.0010653286, 0.0005187884, -0.02940957), (0.0010653286, -0.00006337801, -0.029519398), (0.0010653286, 0.0033211885, 0.02828422), (-0.00022281522, -0.00049860065, 0.028729308), (-0.0016620655, -0.00049860065, -0.029299743), (0.0009855038, 0.0033211885, -0.028386446), (0.00076978974, 0.0012733239, -0.029161016), (-0.0016620655, 0.0033211885, 0.027434506), (0.0010653286, 0.0012733239, -0.029149454), (-0.0002906263, -0.00049860065, 0.028804451), (0.0010653286, 0.0033211885, -0.028386446), (-0.0016620655, -0.000059638987, 0.029353587), (-0.0016620655, -0.00037109986, 0.029434511), (-0.0016620655, -0.00049860065, 0.029463414), (-0.001521104, -0.00049860065, 0.029446073), (-0.0010138557, -0.00049860065, 0.029342027)]
        uniform token subdivisionScheme = "none"
        token visibility = "invisible"
    }

    def Mesh "hull12" (
        prepend apiSchemas = ["PhysicsCollisionAPI", "MaterialBindingAPI", "PhysicsMeshCollisionAPI", "NewtonSDFCollisionAPI"]
    )
    {
        int[] faceVertexCounts = [3, 3, 3, 3, 3, 3, 3, 3, 3, 3, 3, 3, 3, 3, 3, 3, 3, 3, 3, 3, 3, 3, 3, 3, 3, 3, 3, 3]
        int[] faceVertexIndices = [0, 1, 2, 0, 2, 3, 0, 3, 7, 0, 7, 4, 0, 4, 9, 0, 9, 15, 0, 15, 14, 0, 14, 13, 0, 13, 12, 0, 12, 11, 0, 11, 10, 0, 10, 5, 0, 5, 1, 1, 5, 2, 2, 5, 10, 2, 10, 6, 2, 6, 8, 2, 8, 7, 2, 7, 3, 4, 7, 8, 4, 8, 9, 6, 10, 11, 6, 11, 12, 6, 12, 13, 6, 13, 14, 6, 14, 15, 6, 15, 8, 8, 15, 9]
        rel material:binding:physics = </Object/physicsMaterial>
        custom int newton:sdfMaxResolution = 64
        uniform token physics:approximation = "none"
        point3f[] points = [(0.0029371881, -0.007551696, 0.029321078), (0.0029371881, -0.0041947914, 0.027934732), (-0.0016620655, -0.0041565653, 0.026833074), (-0.0016620655, -0.007551696, 0.027928539), (0.0029371881, -0.007551696, -0.033906367), (0.0029371881, -0.0041565653, 0.027916163), (-0.0016620655, -0.0041565653, -0.029475), (-0.0016620655, -0.007551696, -0.032482885), (-0.0016620655, -0.0074343593, -0.03238386), (0.0029371881, -0.007135864, -0.033547398), (0.0029371881, -0.0041565653, -0.030657109), (0.0029371881, -0.0051049017, -0.03162879), (0.0029371881, -0.0053183027, -0.03183922), (0.0029371881, -0.0055928645, -0.032105353), (0.0029371881, -0.006227416, -0.03271188), (0.0029371881, -0.0067589227, -0.03321319)]
        uniform token subdivisionScheme = "none"
        token visibility = "invisible"
    }
}

