#usda 1.0
(
    defaultPrim = "Object"
    metersPerUnit = 1
    subLayers = [
        @./configuration/appearance.usda@
    ]
    upAxis = "Z"
)

def Xform "Object" (
    prepend apiSchemas = ["PhysicsRigidBodyAPI", "PhysicsMassAPI"]
)
{
    custom string crossEmbodiment:objectName = "YcbApple"
    float physics:mass = 0.068

    def Material "physicsMaterial" (
        apiSchemas = ["PhysicsMaterialAPI", "PhysxMaterialAPI"]
    )
    {
        float physics:dynamicFriction = 0.5
        float physics:restitution = 0
        float physics:staticFriction = 0.5
        token physxMaterial:frictionCombineMode = "max"
        token physxMaterial:restitutionCombineMode = "average"
    }

    def Mesh "hull0" (
        prepend apiSchemas = ["PhysicsCollisionAPI", "PhysicsMeshCollisionAPI", "MaterialBindingAPI"]
    )
    {
        int[] faceVertexCounts = [3, 3, 3, 3, 3, 3, 3, 3, 3, 3, 3, 3, 3, 3, 3, 3, 3, 3, 3, 3, 3, 3, 3, 3, 3, 3, 3, 3, 3, 3, 3, 3, 3, 3, 3, 3, 3, 3, 3, 3, 3, 3, 3, 3, 3, 3, 3, 3, 3, 3, 3, 3, 3, 3, 3, 3, 3, 3, 3, 3]
        int[] faceVertexIndices = [0, 1, 2, 0, 2, 3, 0, 3, 4, 0, 4, 5, 0, 5, 6, 0, 6, 7, 0, 7, 8, 0, 8, 1, 1, 8, 9, 1, 9, 10, 1, 10, 11, 1, 11, 2, 2, 11, 12, 2, 12, 3, 3, 12, 13, 3, 13, 4, 4, 13, 14, 4, 14, 5, 5, 14, 15, 5, 15, 16, 5, 16, 17, 5, 17, 6, 6, 17, 18, 6, 18, 9, 6, 9, 7, 7, 9, 8, 9, 19, 20, 9, 20, 10, 9, 18, 19, 10, 20, 21, 10, 21, 22, 10, 22, 11, 11, 22, 12, 12, 22, 23, 12, 23, 24, 12, 24, 13, 13, 24, 25, 13, 25, 14, 14, 25, 15, 15, 26, 16, 15, 25, 26, 16, 26, 27, 16, 27, 17, 17, 27, 28, 17, 28, 18, 18, 28, 19, 19, 28, 29, 19, 29, 20, 20, 29, 21, 21, 29, 30, 21, 30, 23, 21, 23, 22, 23, 25, 24, 23, 30, 25, 25, 30, 26, 26, 31, 27, 26, 30, 31, 27, 31, 28, 28, 31, 29, 29, 31, 30]
        rel material:binding:physics = </Object/physicsMaterial>
        uniform token physics:approximation = "convexHull"
        point3f[] points = [(0.0037105326, 0.014296178, -0.035914123), (-0.013009372, 0.0019560806, -0.035392802), (-0.022975987, 0.0066087884, -0.033151794), (-0.011102608, 0.023569798, -0.030924328), (0.00007665865, 0.026671603, -0.029103085), (0.002538711, 0.03770103, -0.0008907759), (0.0031756577, 0.018482555, 0.033252418), (0.001162737, 0.004012174, 0.029034449), (0.001162737, 0.0024718698, -0.029285885), (-0.015904224, 0.0016169309, 0.030286977), (-0.038001444, 0.004708138, 0.0031647014), (-0.032648627, 0.005245124, -0.019529723), (-0.021706173, 0.021188686, -0.026963634), (-0.01274806, 0.031225394, -0.01948233), (-0.004304406, 0.035001963, -0.013030127), (-0.007142095, 0.03679663, 0.0044510798), (-0.0018137735, 0.03663059, 0.012941177), (-0.0020301729, 0.031599868, 0.025209168), (-0.0065296437, 0.021259341, 0.03246028), (-0.028639115, 0.006612321, 0.029278185), (-0.03730325, 0.004722269, 0.016881557), (-0.034959607, 0.01768414, 0.0043427534), (-0.03377145, 0.013561353, -0.011500012), (-0.030382557, 0.023124663, -0.005514968), (-0.023621103, 0.02685531, -0.014431602), (-0.01713729, 0.032977667, -0.0021365318), (-0.017378187, 0.03226757, 0.013448958), (-0.017198535, 0.029112773, 0.023056177), (-0.019897401, 0.021520771, 0.028824568), (-0.033710208, 0.01438803, 0.020239683), (-0.029182155, 0.025555236, 0.008201889), (-0.027573451, 0.0244424, 0.018350737)]
        uniform token subdivisionScheme = "none"
        token visibility = "invisible"
    }

    def Mesh "hull1" (
        prepend apiSchemas = ["PhysicsCollisionAPI", "PhysicsMeshCollisionAPI", "MaterialBindingAPI"]
    )
    {
        int[] faceVertexCounts = [3, 3, 3, 3, 3, 3, 3, 3, 3, 3, 3, 3, 3, 3, 3, 3, 3, 3, 3, 3, 3, 3, 3, 3, 3, 3, 3, 3, 3, 3, 3, 3, 3, 3, 3, 3, 3, 3, 3, 3, 3, 3, 3, 3, 3, 3, 3, 3, 3, 3, 3, 3, 3, 3, 3, 3, 3, 3, 3, 3]
        int[] faceVertexIndices = [0, 1, 2, 0, 2, 3, 0, 3, 4, 0, 4, 1, 1, 4, 5, 1, 5, 6, 1, 6, 7, 1, 7, 8, 1, 8, 2, 2, 8, 9, 2, 9, 10, 2, 10, 11, 2, 11, 3, 3, 11, 12, 3, 12, 13, 3, 13, 4, 4, 13, 5, 5, 13, 14, 5, 14, 6, 6, 15, 7, 6, 14, 16, 6, 16, 15, 7, 15, 17, 7, 17, 8, 8, 17, 9, 9, 18, 19, 9, 19, 10, 9, 17, 18, 10, 20, 21, 10, 21, 11, 10, 19, 20, 11, 21, 12, 12, 22, 13, 12, 21, 22, 13, 23, 14, 13, 22, 23, 14, 23, 16, 15, 24, 25, 15, 25, 17, 15, 16, 26, 15, 26, 27, 15, 27, 24, 16, 23, 26, 17, 25, 28, 17, 28, 18, 18, 28, 19, 19, 28, 29, 19, 29, 27, 19, 27, 20, 20, 30, 31, 20, 31, 21, 20, 27, 30, 21, 31, 22, 22, 31, 23, 23, 31, 30, 23, 30, 26, 24, 27, 29, 24, 29, 25, 25, 29, 28, 26, 30, 27]
        rel material:binding:physics = </Object/physicsMaterial>
        uniform token physics:approximation = "convexHull"
        point3f[] points = [(0.035920247, -0.012180387, 0.002082454), (0.031785306, -0.019979011, -0.0045616413), (0.035589155, -0.00960617, -0.009723226), (0.032554172, -0.01315631, 0.019954188), (0.03368723, -0.016282773, 0.010426676), (0.028216902, -0.024870317, 0.0062511647), (0.025612334, -0.02752343, -0.002745906), (0.025564509, -0.02544886, -0.014354371), (0.030895047, -0.013991982, -0.020318415), (0.026211971, -0.009705515, -0.03095441), (0.0132112, -0.0075578974, 0.033922426), (0.024229115, -0.011385623, 0.03195028), (0.023783986, -0.020136796, 0.028407214), (0.024376268, -0.025650473, 0.018104447), (0.02155833, -0.030050896, 0.010270264), (0.016341833, -0.032537457, -0.009437605), (0.016032817, -0.03357182, 0.0021028554), (0.020748999, -0.023692783, -0.025847228), (0.018048782, -0.01306573, -0.035068717), (0.00003752531, -0.014076717, -0.03555155), (-0.0016620667, -0.012612833, 0.03035896), (0.00696097, -0.023640187, 0.03235831), (0.015072658, -0.027836075, 0.027196724), (0.011758086, -0.0337296, 0.016730746), (0.007487034, -0.032943603, -0.01904672), (0.011213628, -0.028099047, -0.027764969), (0.003355776, -0.03740539, 0.0028645124), (0.000725455, -0.036861908, -0.007703475), (0.011500572, -0.020142639, -0.03525913), (0.0017150446, -0.027590632, -0.0308252), (0.00093146606, -0.036458682, 0.013908534), (0.0037089372, -0.032064103, 0.02525858)]
        uniform token subdivisionScheme = "none"
        token visibility = "invisible"
    }

    def Mesh "hull2" (
        prepend apiSchemas = ["PhysicsCollisionAPI", "PhysicsMeshCollisionAPI", "MaterialBindingAPI"]
    )
    {
        int[] faceVertexCounts = [3, 3, 3, 3, 3, 3, 3, 3, 3, 3, 3, 3, 3, 3, 3, 3, 3, 3, 3, 3, 3, 3, 3, 3, 3, 3, 3, 3]
        int[] faceVertexIndices = [0, 1, 2, 0, 2, 3, 0, 3, 7, 0, 7, 4, 0, 4, 9, 0, 9, 15, 0, 15, 14, 0, 14, 13, 0, 13, 12, 0, 12, 11, 0, 11, 10, 0, 10, 5, 0, 5, 1, 1, 5, 2, 2, 5, 10, 2, 10, 6, 2, 6, 8, 2, 8, 7, 2, 7, 3, 4, 7, 8, 4, 8, 9, 6, 10, 11, 6, 11, 12, 6, 12, 13, 6, 13, 14, 6, 14, 15, 6, 15, 8, 8, 15, 9]
        rel material:binding:physics = </Object/physicsMaterial>
        uniform token physics:approximation = "convexHull"
        point3f[] points = [(0.0029371881, -0.007551696, 0.029321078), (0.0029371881, -0.0041947914, 0.027934732), (-0.0016620655, -0.0041565653, 0.026833074), (-0.0016620655, -0.007551696, 0.027928539), (0.0029371881, -0.007551696, -0.033906367), (0.0029371881, -0.0041565653, 0.027916163), (-0.0016620655, -0.0041565653, -0.029475), (-0.0016620655, -0.007551696, -0.032482885), (-0.0016620655, -0.0074343593, -0.03238386), (0.0029371881, -0.007135864, -0.033547398), (0.0029371881, -0.0041565653, -0.030657109), (0.0029371881, -0.0051049017, -0.03162879), (0.0029371881, -0.0053183027, -0.03183922), (0.0029371881, -0.0055928645, -0.032105353), (0.0029371881, -0.006227416, -0.03271188), (0.0029371881, -0.0067589227, -0.03321319)]
        uniform token subdivisionScheme = "none"
        token visibility = "invisible"
    }

    def Mesh "hull3" (
        prepend apiSchemas = ["PhysicsCollisionAPI", "PhysicsMeshCollisionAPI", "MaterialBindingAPI"]
    )
    {
        int[] faceVertexCounts = [3, 3, 3, 3, 3, 3, 3, 3, 3, 3, 3, 3, 3, 3, 3, 3, 3, 3, 3, 3, 3, 3, 3, 3, 3, 3, 3, 3, 3, 3, 3, 3, 3, 3, 3, 3, 3, 3, 3, 3, 3, 3, 3, 3, 3, 3, 3, 3, 3, 3, 3, 3, 3, 3, 3, 3, 3, 3, 3, 3]
        int[] faceVertexIndices = [0, 1, 2, 0, 2, 3, 0, 3, 4, 0, 4, 5, 0, 5, 1, 1, 6, 2, 1, 5, 7, 1, 7, 8, 1, 8, 6, 2, 6, 9, 2, 9, 10, 2, 10, 11, 2, 11, 3, 3, 11, 12, 3, 12, 4, 4, 12, 13, 4, 13, 5, 5, 13, 14, 5, 14, 15, 5, 15, 16, 5, 16, 7, 6, 8, 17, 6, 17, 9, 7, 16, 18, 7, 18, 8, 8, 18, 19, 8, 19, 17, 9, 17, 10, 10, 20, 11, 10, 17, 20, 11, 20, 21, 11, 21, 22, 11, 22, 12, 12, 23, 24, 12, 24, 25, 12, 25, 13, 12, 22, 23, 13, 25, 26, 13, 26, 14, 14, 26, 15, 15, 26, 27, 15, 27, 16, 16, 27, 18, 17, 19, 20, 18, 27, 28, 18, 28, 19, 19, 29, 20, 19, 28, 30, 19, 30, 29, 20, 29, 21, 21, 29, 22, 22, 29, 23, 23, 30, 24, 23, 29, 30, 24, 30, 31, 24, 31, 25, 25, 31, 26, 26, 31, 27, 27, 31, 28, 28, 31, 30]
        rel material:binding:physics = </Object/physicsMaterial>
        uniform token physics:approximation = "convexHull"
        point3f[] points = [(0.004003428, -0.00049860124, -0.02927619), (0.005299485, 0.035781544, -0.011448754), (0.0049689906, 0.01368384, -0.036204055), (0.014669975, 0.0000889464, -0.03553631), (0.008815039, -0.00049860124, 0.031613927), (0.004003428, 0.013428866, 0.033255473), (0.008772917, 0.031277012, -0.020943271), (0.006984359, 0.037252262, 0.00082804024), (0.017495377, 0.032629482, -0.009097731), (0.014485287, 0.021905812, -0.030792529), (0.024694974, 0.013170197, -0.029923068), (0.027108878, 0.0015264064, -0.0314255), (0.037101477, 0.0018700665, 0.011164197), (0.020550832, 0.0016705211, 0.03485528), (0.017343093, 0.010775663, 0.034695297), (0.009628314, 0.024751168, 0.030681863), (0.008993247, 0.034687746, 0.016833084), (0.021053053, 0.027167873, -0.018564425), (0.019245055, 0.033124648, 0.0012592932), (0.028207287, 0.025235249, -0.0045834873), (0.029581107, 0.016152278, -0.02139539), (0.034065463, 0.004449364, -0.018028837), (0.03674506, 0.0041278754, -0.00627372), (0.036887627, 0.0071506044, 0.0029425703), (0.03400714, 0.013669058, 0.014537707), (0.03146039, 0.0048891003, 0.026216313), (0.021302545, 0.018339878, 0.030876625), (0.02074524, 0.028106473, 0.021479487), (0.025391605, 0.028346665, 0.009453096), (0.03264952, 0.017127829, -0.008972528), (0.0316872, 0.021214796, 0.0057318024), (0.029927803, 0.018136637, 0.022397637)]
        uniform token subdivisionScheme = "none"
        token visibility = "invisible"
    }

    def Mesh "hull4" (
        prepend apiSchemas = ["PhysicsCollisionAPI", "PhysicsMeshCollisionAPI", "MaterialBindingAPI"]
    )
    {
        int[] faceVertexCounts = [3, 3, 3, 3, 3, 3, 3, 3, 3, 3, 3, 3, 3, 3, 3, 3, 3, 3, 3, 3, 3, 3, 3, 3, 3, 3, 3, 3, 3, 3, 3, 3, 3, 3, 3, 3, 3, 3, 3, 3, 3, 3, 3, 3, 3, 3, 3, 3, 3, 3, 3, 3, 3, 3, 3, 3, 3, 3, 3, 3]
        int[] faceVertexIndices = [0, 1, 2, 0, 2, 3, 0, 3, 4, 0, 4, 5, 0, 5, 6, 0, 6, 7, 0, 7, 1, 1, 7, 8, 1, 8, 2, 2, 9, 10, 2, 10, 3, 2, 8, 9, 3, 10, 11, 3, 11, 4, 4, 11, 12, 4, 12, 13, 4, 13, 14, 4, 14, 5, 5, 15, 16, 5, 16, 6, 5, 14, 17, 5, 17, 15, 6, 18, 8, 6, 8, 7, 6, 16, 19, 6, 19, 18, 8, 18, 20, 8, 20, 21, 8, 21, 22, 8, 22, 9, 9, 22, 23, 9, 23, 10, 10, 23, 11, 11, 23, 24, 11, 24, 12, 12, 24, 25, 12, 25, 17, 12, 17, 13, 13, 17, 14, 15, 17, 26, 15, 26, 27, 15, 27, 16, 16, 27, 19, 17, 25, 26, 18, 19, 27, 18, 27, 28, 18, 28, 20, 20, 28, 21, 21, 28, 29, 21, 29, 30, 21, 30, 22, 22, 30, 31, 22, 31, 23, 23, 31, 24, 24, 31, 25, 25, 31, 29, 25, 29, 26, 26, 29, 28, 26, 28, 27, 29, 31, 30]
        rel material:binding:physics = </Object/physicsMaterial>
        uniform token physics:approximation = "convexHull"
        point3f[] points = [(-0.001665507, -0.015276973, 0.031363156), (-0.001665507, -0.0047954684, 0.026587581), (-0.022143504, -0.006240866, 0.031166902), (-0.020006223, -0.021102842, 0.029950107), (-0.007815789, -0.0295823, 0.027686615), (-0.003100687, -0.03710659, -0.005415325), (-0.001665507, -0.012784691, -0.03527249), (-0.001665507, -0.0047954684, -0.029973567), (-0.013941981, -0.005146539, -0.035468746), (-0.035837952, -0.00743324, 0.018613022), (-0.03128805, -0.013923297, 0.024729682), (-0.027195891, -0.024626197, 0.020183073), (-0.020216165, -0.03066081, 0.016499992), (-0.0090134945, -0.03484835, 0.016133647), (-0.0058987737, -0.036932636, 0.004783475), (-0.009068561, -0.034462493, -0.012905784), (-0.0043259254, -0.03288742, -0.021318648), (-0.015566454, -0.034320164, 0.0017545816), (-0.016430315, -0.01909763, -0.033061337), (-0.005475447, -0.02510378, -0.031896878), (-0.022473907, -0.0098749185, -0.03340151), (-0.031873137, -0.008435846, -0.019002821), (-0.03682227, -0.0076546366, 0.005993724), (-0.033731643, -0.016513627, 0.013601937), (-0.028582888, -0.025306199, 0.009002991), (-0.023988247, -0.029190114, 0.00045274643), (-0.020281555, -0.030021928, -0.009608674), (-0.015143127, -0.028048344, -0.023071874), (-0.024418455, -0.018765537, -0.024870891), (-0.029006215, -0.0201034, -0.012631025), (-0.034333937, -0.010523292, -0.0085946815), (-0.03214847, -0.018828794, -0.0017780367)]
        uniform token subdivisionScheme = "none"
        token visibility = "invisible"
    }

    def Mesh "hull5" (
        prepend apiSchemas = ["PhysicsCollisionAPI", "PhysicsMeshCollisionAPI", "MaterialBindingAPI"]
    )
    {
        int[] faceVertexCounts = [3, 3, 3, 3, 3, 3, 3, 3, 3, 3, 3, 3, 3, 3, 3, 3, 3, 3, 3, 3, 3, 3, 3, 3, 3, 3, 3, 3, 3, 3, 3, 3, 3, 3, 3, 3, 3, 3, 3, 3, 3, 3, 3, 3, 3, 3, 3, 3, 3, 3, 3, 3, 3, 3, 3, 3, 3, 3, 3, 3]
        int[] faceVertexIndices = [0, 1, 2, 0, 2, 3, 0, 3, 4, 0, 4, 5, 0, 5, 6, 0, 6, 7, 0, 7, 23, 0, 23, 8, 0, 8, 26, 0, 26, 9, 0, 9, 10, 0, 10, 1, 1, 11, 2, 1, 10, 11, 2, 12, 3, 2, 11, 13, 2, 13, 12, 3, 12, 14, 3, 14, 4, 4, 14, 15, 4, 15, 16, 4, 16, 17, 4, 17, 18, 4, 18, 5, 5, 18, 6, 6, 18, 17, 6, 17, 19, 6, 19, 20, 6, 20, 21, 6, 21, 31, 6, 31, 22, 6, 22, 23, 6, 23, 7, 8, 23, 22, 8, 22, 24, 8, 24, 25, 8, 25, 26, 9, 26, 25, 9, 25, 10, 10, 20, 27, 10, 27, 28, 10, 28, 13, 10, 13, 11, 10, 25, 24, 10, 24, 20, 12, 13, 29, 12, 29, 14, 13, 28, 29, 14, 29, 15, 15, 29, 30, 15, 30, 20, 15, 20, 16, 16, 20, 17, 17, 20, 19, 20, 30, 27, 20, 24, 31, 20, 31, 21, 22, 31, 24, 27, 30, 28, 28, 30, 29]
        rel material:binding:physics = </Object/physicsMaterial>
        uniform token physics:approximation = "convexHull"
        point3f[] points = [(0.0040001897, 0.0033211885, 0.029803993), (-0.0026272072, 0.00014158207, 0.029295452), (-0.0029277848, -0.00028745027, 0.029368099), (-0.0022473237, -0.0009905867, 0.02962237), (-0.0022473237, -0.0017437767, 0.029604208), (-0.0014924527, -0.0017437767, 0.029519452), (0.002936908, -0.004155892, 0.02791512), (0.0040001897, -0.00049878843, 0.028496312), (0.0040001897, 0.0033211885, -0.029737923), (-0.0016608544, 0.0033211885, 0.027424738), (-0.006002098, 0.0016122096, 0.026970683), (-0.0031304546, -0.00007055059, 0.029180424), (-0.0030021947, -0.0009905867, 0.029489182), (-0.003424179, -0.00078242645, 0.029319666), (-0.0030021947, -0.0017437767, 0.029489182), (-0.003424179, -0.0021736037, 0.029319666), (-0.0030021947, -0.0025041176, 0.029277287), (-0.0022473237, -0.002607403, 0.029337829), (-0.0015766537, -0.0022959574, 0.029374154), (-0.0022473237, -0.0031993089, 0.028871665), (-0.006002098, -0.004795468, 0.027067548), (-0.0016618337, -0.004795468, 0.02658322), (0.002936908, -0.004155892, -0.030658145), (0.0040001897, -0.00049878843, -0.02927176), (-0.006002098, -0.004795468, -0.03204453), (-0.006002098, 0.0016122096, -0.030639982), (-0.0016608544, 0.0033211885, -0.028363647), (-0.004243669, -0.0009905867, 0.028677935), (-0.0038207064, -0.0009905867, 0.029059341), (-0.0034574673, -0.0017437767, 0.029337829), (-0.0038344134, -0.0017437767, 0.029053288), (-0.0016618337, -0.004795468, -0.029967979)]
        uniform token subdivisionScheme = "none"
        token visibility = "invisible"
    }

    def Mesh "hull6" (
        prepend apiSchemas = ["PhysicsCollisionAPI", "PhysicsMeshCollisionAPI", "MaterialBindingAPI"]
    )
    {
        int[] faceVertexCounts = [3, 3, 3, 3, 3, 3, 3, 3, 3, 3, 3, 3, 3, 3, 3, 3, 3, 3, 3, 3, 3, 3, 3, 3, 3, 3, 3, 3, 3, 3, 3, 3, 3, 3, 3, 3, 3, 3, 3, 3, 3, 3, 3, 3, 3, 3, 3, 3, 3, 3, 3, 3, 3, 3, 3, 3, 3, 3, 3, 3]
        int[] faceVertexIndices = [0, 1, 2, 0, 2, 3, 0, 3, 4, 0, 4, 5, 0, 5, 6, 0, 6, 1, 1, 6, 13, 1, 13, 7, 1, 7, 2, 2, 7, 3, 3, 7, 4, 4, 8, 9, 4, 9, 10, 4, 10, 11, 4, 11, 12, 4, 12, 5, 4, 7, 8, 5, 12, 13, 5, 13, 6, 7, 13, 14, 7, 14, 8, 8, 15, 9, 8, 14, 16, 8, 16, 17, 8, 17, 15, 9, 15, 10, 10, 15, 17, 10, 17, 18, 10, 18, 19, 10, 19, 20, 10, 20, 11, 11, 20, 21, 11, 21, 22, 11, 22, 23, 11, 23, 13, 11, 13, 12, 13, 23, 24, 13, 24, 14, 14, 24, 25, 14, 25, 20, 14, 20, 26, 14, 26, 27, 14, 27, 16, 16, 27, 28, 16, 28, 19, 16, 19, 18, 16, 18, 17, 19, 28, 29, 19, 29, 20, 20, 29, 26, 20, 25, 21, 21, 25, 24, 21, 24, 30, 21, 30, 22, 22, 30, 23, 23, 30, 24, 26, 29, 31, 26, 31, 27, 27, 31, 28, 28, 31, 29]
        rel material:binding:physics = </Object/physicsMaterial>
        uniform token physics:approximation = "convexHull"
        point3f[] points = [(-0.0060025253, -0.004795468, 0.027078982), (-0.0060025253, 0.0016127689, 0.026979769), (-0.012469393, 0.0016127689, 0.029618824), (-0.014931157, -0.0047929594, 0.030326538), (-0.021284405, -0.0047929594, 0.03157), (-0.007949844, -0.004795468, -0.033453815), (-0.007719449, 0.0016127689, -0.032302953), (-0.018614337, 0.0016127689, 0.031126851), (-0.025033861, 0.0013781684, 0.031312045), (-0.025867077, -0.0038645924, 0.03125913), (-0.033167157, -0.004658095, 0.026331581), (-0.019195061, -0.004791077, -0.03570263), (-0.013435162, -0.004794214, -0.03588121), (-0.014555581, 0.0016127689, -0.036000267), (-0.03524072, 0.0012307587, -0.0138692865), (-0.030598084, -0.0016233406, 0.02917567), (-0.037781388, 0.00090143963, 0.015206565), (-0.033994056, -0.000038845043, 0.02578261), (-0.036039215, -0.0016572134, 0.021576), (-0.037052326, -0.004099193, 0.016172232), (-0.0356952, -0.0037968473, -0.010152128), (-0.032299228, -0.0035722828, -0.021468958), (-0.027416727, -0.0024086884, -0.030470831), (-0.02385979, -0.0009935569, -0.03381098), (-0.03352064, 0.00034943796, -0.019081246), (-0.034173954, -0.0031971724, -0.016104873), (-0.036585223, 0.00053134764, -0.008081895), (-0.038245335, 0.00044854736, 0.0068528797), (-0.03773089, -0.0034600007, 0.009597756), (-0.03670831, -0.0037560742, -0.0048740273), (-0.030250913, -0.0013987763, -0.02621131), (-0.03761727, -0.0020185236, 0.0008009225)]
        uniform token subdivisionScheme = "none"
        token visibility = "invisible"
    }

    def Mesh "hull7" (
        prepend apiSchemas = ["PhysicsCollisionAPI", "PhysicsMeshCollisionAPI", "MaterialBindingAPI"]
    )
    {
        int[] faceVertexCounts = [3, 3, 3, 3, 3, 3, 3, 3, 3, 3, 3, 3, 3, 3, 3, 3, 3, 3, 3, 3, 3, 3, 3, 3, 3, 3, 3, 3, 3, 3, 3, 3, 3, 3, 3, 3, 3, 3, 3, 3, 3, 3, 3, 3, 3, 3, 3, 3, 3, 3, 3, 3, 3, 3, 3, 3, 3, 3, 3, 3]
        int[] faceVertexIndices = [0, 1, 2, 0, 2, 3, 0, 3, 4, 0, 4, 5, 0, 5, 6, 0, 6, 7, 0, 7, 8, 0, 8, 9, 0, 9, 1, 1, 10, 11, 1, 11, 12, 1, 12, 2, 1, 9, 29, 1, 29, 30, 1, 30, 13, 1, 13, 10, 2, 12, 14, 2, 14, 15, 2, 15, 16, 2, 16, 3, 3, 16, 17, 3, 17, 18, 3, 18, 4, 4, 18, 5, 5, 18, 14, 5, 14, 19, 5, 19, 20, 5, 20, 21, 5, 21, 22, 5, 22, 23, 5, 23, 24, 5, 24, 6, 6, 24, 7, 7, 24, 23, 7, 23, 8, 8, 23, 25, 8, 25, 22, 8, 22, 21, 8, 21, 26, 8, 26, 9, 9, 26, 27, 9, 27, 28, 9, 28, 20, 9, 20, 29, 10, 13, 30, 10, 30, 20, 10, 20, 11, 11, 19, 12, 11, 20, 19, 12, 19, 14, 14, 18, 16, 14, 16, 15, 16, 18, 17, 20, 30, 29, 20, 28, 31, 20, 31, 21, 21, 31, 26, 22, 25, 23, 26, 31, 27, 27, 31, 28]
        rel material:binding:physics = </Object/physicsMaterial>
        uniform token physics:approximation = "convexHull"
        point3f[] points = [(0.03765544, -0.00071401475, -0.0015690369), (0.009342588, -0.00049860065, 0.0319791), (0.023179593, -0.0014955809, 0.034565147), (0.03763845, -0.0012615254, 0.0075420197), (0.0375467, -0.0051527857, 0.004364072), (0.037305437, -0.0071294857, -0.0013928757), (0.03710495, -0.0050961706, -0.005493908), (0.03690446, -0.0010751095, -0.008467509), (0.028939348, -0.0013989208, -0.030001452), (0.015849922, -0.00049860065, -0.03664625), (0.0030799154, -0.0075520286, 0.029386006), (0.008639184, -0.0075520286, 0.03213412), (0.01682857, -0.0012214803, 0.035065446), (0.003909049, -0.00049860065, 0.028434737), (0.021361617, -0.0064673633, 0.03463561), (0.029088864, -0.003590344, 0.030590951), (0.033397637, -0.0034978264, 0.024714213), (0.03550785, -0.004035671, 0.01890794), (0.036686987, -0.005462098, 0.01301711), (0.014742146, -0.007485747, 0.034431264), (0.0034503073, -0.0075520286, -0.03406725), (0.026339814, -0.006865741, -0.03220699), (0.029306341, -0.0068381242, -0.02847942), (0.034468036, -0.004309081, -0.017705401), (0.03573552, -0.004543137, -0.012913817), (0.032089375, -0.0048054997, -0.023814673), (0.025493689, -0.0021722019, -0.03363037), (0.021327637, -0.0023310008, -0.035969794), (0.015523707, -0.0058066226, -0.036921065), (0.011534354, -0.00049860065, -0.035455406), (0.0029405947, -0.00049860065, -0.029219298), (0.022931533, -0.0066116634, -0.035229918)]
        uniform token subdivisionScheme = "none"
        token visibility = "invisible"
    }
}

