#usda 1.0
(
    defaultPrim = "Object"
    metersPerUnit = 1
    subLayers = [
        @./configuration/appearance.usda@
    ]
    upAxis = "Z"
)

def Xform "Object" (
    prepend apiSchemas = ["PhysicsRigidBodyAPI", "PhysicsMassAPI"]
)
{
    custom string crossEmbodiment:objectName = "YcbGelatinBox"
    float physics:mass = 0.097

    def Material "physicsMaterial" (
        apiSchemas = ["PhysicsMaterialAPI", "PhysxMaterialAPI"]
    )
    {
        float physics:dynamicFriction = 0.5
        float physics:restitution = 0
        float physics:staticFriction = 0.5
        token physxMaterial:frictionCombineMode = "max"
        token physxMaterial:restitutionCombineMode = "average"
    }

    def Mesh "hull0" (
        prepend apiSchemas = ["PhysicsCollisionAPI", "PhysicsMeshCollisionAPI", "MaterialBindingAPI"]
    )
    {
        int[] faceVertexCounts = [3, 3, 3, 3, 3, 3, 3, 3, 3, 3, 3, 3, 3, 3, 3, 3, 3, 3, 3, 3, 3, 3, 3, 3, 3, 3, 3, 3, 3, 3, 3, 3, 3, 3, 3, 3, 3, 3, 3, 3, 3, 3, 3, 3, 3, 3, 3, 3, 3, 3, 3, 3, 3, 3, 3, 3, 3, 3, 3, 3, 3, 3, 3, 3, 3, 3, 3, 3, 3, 3, 3, 3, 3, 3, 3, 3, 3, 3, 3, 3, 3, 3, 3, 3, 3, 3, 3, 3, 3, 3, 3, 3, 3, 3, 3, 3, 3, 3, 3, 3, 3, 3, 3, 3, 3, 3, 3, 3, 3, 3, 3, 3, 3, 3, 3, 3, 3, 3, 3, 3, 3, 3, 3, 3]
        int[] faceVertexIndices = [0, 1, 2, 0, 2, 3, 0, 3, 1, 1, 3, 4, 1, 4, 5, 1, 5, 6, 1, 6, 7, 1, 7, 8, 1, 8, 9, 1, 9, 10, 1, 10, 2, 2, 11, 12, 2, 12, 13, 2, 13, 14, 2, 14, 15, 2, 15, 3, 2, 10, 16, 2, 16, 11, 3, 15, 17, 3, 17, 4, 4, 17, 18, 4, 18, 19, 4, 19, 20, 4, 20, 21, 4, 21, 22, 4, 22, 23, 4, 23, 16, 4, 16, 8, 4, 8, 7, 4, 7, 5, 5, 7, 6, 8, 16, 9, 9, 16, 10, 11, 24, 12, 11, 16, 23, 11, 23, 25, 11, 25, 26, 11, 26, 24, 12, 24, 27, 12, 27, 13, 13, 27, 24, 13, 24, 28, 13, 28, 29, 13, 29, 14, 14, 29, 30, 14, 30, 31, 14, 31, 32, 14, 32, 33, 14, 33, 15, 15, 33, 17, 17, 34, 35, 17, 35, 18, 17, 33, 36, 17, 36, 34, 18, 35, 37, 18, 37, 19, 19, 37, 34, 19, 34, 20, 20, 34, 38, 20, 38, 39, 20, 39, 40, 20, 40, 41, 20, 41, 21, 21, 41, 25, 21, 25, 22, 22, 25, 23, 24, 26, 28, 25, 41, 42, 25, 42, 26, 26, 42, 43, 26, 43, 44, 26, 44, 45, 26, 45, 46, 26, 46, 47, 26, 47, 28, 28, 47, 30, 28, 30, 29, 30, 47, 48, 30, 48, 49, 30, 49, 50, 30, 50, 31, 31, 50, 51, 31, 51, 32, 32, 52, 36, 32, 36, 33, 32, 51, 53, 32, 53, 52, 34, 37, 35, 34, 36, 52, 34, 52, 38, 38, 52, 54, 38, 54, 39, 39, 54, 55, 39, 55, 56, 39, 56, 40, 40, 56, 42, 40, 42, 41, 42, 56, 43, 43, 56, 44, 44, 56, 57, 44, 57, 58, 44, 58, 45, 45, 58, 46, 46, 48, 47, 46, 58, 59, 46, 59, 60, 46, 60, 48, 48, 61, 49, 48, 60, 61, 49, 61, 50, 50, 61, 51, 51, 61, 60, 51, 60, 53, 52, 62, 63, 52, 63, 54, 52, 53, 60, 52, 60, 62, 54, 63, 62, 54, 62, 57, 54, 57, 55, 55, 57, 56, 57, 60, 59, 57, 59, 58, 57, 62, 60]
        rel material:binding:physics = </Object/physicsMaterial>
        uniform token physics:approximation = "convexHull"
        point3f[] points = [(0.034352843, 0.015362416, 0.04701499), (0.033730652, 0.012667568, 0.03069115), (0.03220973, 0.0165594, -0.011058198), (0.034311365, 0.016546318, 0.06839435), (-0.017759312, -0.030515406, 0.070578404), (-0.0056058005, -0.021181554, 0.04818098), (-0.00469325, -0.020632118, 0.03570316), (-0.0065183514, -0.0222608, 0.028063327), (-0.011703296, -0.026643198, 0.0130534), (-0.011067276, -0.025747096, 0.002472488), (0.031988513, 0.012713355, -0.00012052936), (-0.019860944, -0.028409239, -0.011937038), (-0.023407444, -0.02154784, -0.013468489), (0.020934207, 0.027633132, -0.013773037), (0.01886714, 0.03493931, -0.0039752545), (0.03124879, 0.020745572, 0.06815071), (-0.016743062, -0.030181821, -0.003827328), (0.031836417, 0.018116131, 0.07390234), (0.011815616, 0.0006584891, 0.07479858), (-0.019888597, -0.023340046, 0.07485079), (-0.029961217, -0.015386322, 0.07457235), (-0.027126778, -0.022784073, 0.07044788), (-0.022764513, -0.02776169, 0.06794187), (-0.019273316, -0.030783582, 0.040001657), (-0.03478667, -0.011173987, -0.011093005), (-0.036273025, -0.011160904, 0.005726817), (-0.03620389, -0.010833859, -0.0023828933), (-0.02644237, -0.014719151, -0.013242248), (-0.028537087, -0.003985545, -0.01084066), (0.015728522, 0.033519935, -0.009613764), (0.015887527, 0.035658807, -0.0021566586), (0.016281582, 0.036018558, 0.020084137), (0.016523547, 0.03603818, 0.05951021), (0.025614485, 0.027293006, 0.06460923), (0.018770356, 0.02848999, 0.07503352), (0.023906909, 0.022328468, 0.07512053), (0.016447501, 0.0353383, 0.065740414), (0.004328555, -0.0033379963, 0.075094424), (0.0021093986, 0.022982558, 0.07300609), (-0.027990937, -0.0045676846, 0.07252751), (-0.033652898, -0.009898512, 0.070543595), (-0.035809834, -0.011952353, 0.06336493), (-0.03578218, -0.011415999, 0.056456015), (-0.027071476, -0.0028605112, 0.055159505), (-0.022266759, 0.0016919503, 0.056786668), (-0.016998854, 0.0066630286, 0.053123377), (-0.008301972, 0.014695246, 0.050321523), (-0.02642854, -0.0018074275, -0.008778431), (0.005496896, 0.027077155, 0.0074758003), (0.010813193, 0.031662323, 0.0073017697), (0.015770001, 0.035802707, 0.008728801), (0.015922094, 0.035985854, 0.032257404), (0.01088924, 0.031054018, 0.07281466), (0.016025791, 0.035985854, 0.048720464), (-0.00999572, 0.012150838, 0.072431795), (-0.020206606, 0.0030132106, 0.07035216), (-0.02753466, -0.0036323366, 0.067811355), (-0.010099419, 0.012765681, 0.06711524), (-0.014261203, 0.009102782, 0.059501506), (-0.008156793, 0.014695246, 0.059806056), (0.0026140665, 0.02440847, 0.05399352), (0.015610996, 0.035783082, 0.017430207), (0.00478483, 0.025782058, 0.07171828), (-0.002722971, 0.018829089, 0.07222296)]
        uniform token subdivisionScheme = "none"
        token visibility = "invisible"
    }
}

