#usda 1.0
(
    defaultPrim = "Object"
    metersPerUnit = 1
    subLayers = [
        @./configuration/appearance.usda@
    ]
    upAxis = "Z"
)

def Xform "Object" (
    prepend apiSchemas = ["PhysicsRigidBodyAPI", "PhysicsMassAPI"]
)
{
    custom string crossEmbodiment:objectName = "YcbTomatoSoupCan"
    float physics:mass = 0.349

    def Material "physicsMaterial" (
        apiSchemas = ["PhysicsMaterialAPI", "PhysxMaterialAPI"]
    )
    {
        float physics:dynamicFriction = 0.5
        float physics:restitution = 0
        float physics:staticFriction = 0.5
        token physxMaterial:frictionCombineMode = "max"
        token physxMaterial:restitutionCombineMode = "average"
    }

    def Mesh "hull0" (
        prepend apiSchemas = ["PhysicsCollisionAPI", "PhysicsMeshCollisionAPI", "MaterialBindingAPI"]
    )
    {
        int[] faceVertexCounts = [3, 3, 3, 3, 3, 3, 3, 3, 3, 3, 3, 3, 3, 3, 3, 3, 3, 3, 3, 3, 3, 3, 3, 3, 3, 3, 3, 3, 3, 3, 3, 3, 3, 3, 3, 3, 3, 3, 3, 3, 3, 3, 3, 3, 3, 3, 3, 3, 3, 3, 3, 3, 3, 3, 3, 3, 3, 3, 3, 3, 3, 3, 3, 3, 3, 3, 3, 3, 3, 3, 3, 3, 3, 3, 3, 3, 3, 3, 3, 3, 3, 3, 3, 3, 3, 3, 3, 3, 3, 3, 3, 3, 3, 3, 3, 3, 3, 3, 3, 3, 3, 3, 3, 3, 3, 3, 3, 3, 3, 3, 3, 3, 3, 3, 3, 3, 3, 3, 3, 3, 3, 3, 3, 3]
        int[] faceVertexIndices = [0, 1, 2, 0, 2, 3, 0, 3, 4, 0, 4, 5, 0, 5, 6, 0, 6, 7, 0, 7, 1, 1, 8, 2, 1, 7, 8, 2, 8, 9, 2, 9, 3, 3, 10, 4, 3, 9, 11, 3, 11, 12, 3, 12, 13, 3, 13, 14, 3, 14, 15, 3, 15, 10, 4, 16, 17, 4, 17, 18, 4, 18, 19, 4, 19, 20, 4, 20, 21, 4, 21, 5, 4, 10, 22, 4, 22, 16, 5, 21, 23, 5, 23, 24, 5, 24, 25, 5, 25, 26, 5, 26, 6, 6, 26, 7, 7, 27, 28, 7, 28, 8, 7, 26, 29, 7, 29, 30, 7, 30, 27, 8, 28, 31, 8, 31, 9, 9, 31, 11, 10, 32, 22, 10, 15, 33, 10, 33, 34, 10, 34, 35, 10, 35, 32, 11, 31, 36, 11, 36, 12, 12, 36, 37, 12, 37, 13, 13, 37, 36, 13, 36, 38, 13, 38, 14, 14, 38, 39, 14, 39, 40, 14, 40, 15, 15, 40, 41, 15, 41, 33, 16, 22, 42, 16, 42, 43, 16, 43, 17, 17, 43, 44, 17, 44, 45, 17, 45, 18, 18, 45, 19, 19, 46, 20, 19, 45, 47, 19, 47, 46, 20, 46, 21, 21, 46, 23, 22, 32, 48, 22, 48, 49, 22, 49, 50, 22, 50, 42, 23, 46, 47, 23, 47, 24, 24, 47, 29, 24, 29, 25, 25, 29, 26, 27, 30, 36, 27, 36, 31, 27, 31, 28, 29, 42, 51, 29, 51, 39, 29, 39, 30, 29, 47, 44, 29, 44, 52, 29, 52, 42, 30, 39, 38, 30, 38, 36, 32, 35, 53, 32, 53, 54, 32, 54, 48, 33, 41, 34, 34, 41, 55, 34, 55, 53, 34, 53, 35, 39, 51, 40, 40, 51, 55, 40, 55, 41, 42, 52, 43, 42, 50, 56, 42, 56, 51, 43, 52, 44, 44, 47, 45, 48, 54, 57, 48, 57, 58, 48, 58, 59, 48, 59, 49, 49, 59, 60, 49, 60, 50, 50, 61, 56, 50, 60, 61, 51, 56, 58, 51, 58, 62, 51, 62, 53, 51, 53, 55, 53, 62, 54, 54, 62, 57, 56, 61, 63, 56, 63, 58, 57, 62, 58, 58, 63, 59, 59, 63, 61, 59, 61, 60]
        rel material:binding:physics = </Object/physicsMaterial>
        uniform token physics:approximation = "convexHull"
        point3f[] points = [(0.009399861, -0.025461873, 0.04265788), (0.02102587, -0.021849079, 0.041634783), (0.028748445, -0.015564252, 0.042151205), (0.033981122, -0.00854772, 0.04271634), (-0.024797333, -0.008005475, 0.04290147), (-0.0047290134, -0.024547238, 0.042482488), (0.0041412483, -0.024592973, -0.054594234), (0.018594328, -0.021156572, -0.05473065), (0.02721171, -0.017955357, -0.031374943), (0.030868746, -0.014381763, -0.02504152), (0.021304686, 0.036582813, 0.042735822), (0.03376066, -0.009893535, -0.012384422), (0.034648985, -0.008077338, -0.0030401906), (0.037430666, 0.00036340425, 0.041975815), (0.037638158, 0.013325039, 0.04189787), (0.03152364, 0.027403831, 0.04235582), (-0.028337656, 0.013011452, 0.042755317), (-0.02853218, 0.002578119, 0.042531203), (-0.025705108, -0.007071243, 0.0027086064), (-0.022709448, -0.012624363, -0.018902974), (-0.021717377, -0.013989777, -0.0074540977), (-0.017068274, -0.017739767, 0.042472746), (-0.022819681, 0.026685193, 0.04271634), (-0.016627355, -0.018869992, -0.02925081), (-0.014020743, -0.020241935, -0.037357587), (-0.010986178, -0.02147016, -0.04882595), (-0.004469649, -0.023384351, -0.055607583), (0.02973403, -0.012794223, -0.054672185), (0.026764307, -0.017713636, -0.041917652), (-0.012295969, -0.019751955, -0.056640416), (0.03630243, 0.0001086138, -0.05541271), (0.030531572, -0.013983244, -0.04519154), (0.013056899, 0.04004535, 0.042609155), (0.024053948, 0.03460329, -0.035282176), (0.019618819, 0.037072793, -0.04581514), (0.015190171, 0.03916991, -0.029494403), (0.036218137, -0.00307953, -0.047286443), (0.03585503, -0.0049806577, -0.005973052), (0.037709486, 0.0038978017, -0.047539778), (0.037067555, 0.010169561, -0.0553445), (0.03359856, 0.021177804, -0.055159375), (0.027503496, 0.030343719, -0.05421423), (-0.024985373, 0.020054115, -0.056046054), (-0.028350621, 0.009640381, -0.045727443), (-0.025179895, -0.005784226, -0.053415243), (-0.025030762, -0.007626555, -0.040582757), (-0.019804567, -0.016263291, -0.018435275), (-0.020005574, -0.01395058, -0.05412654), (0.0040245345, 0.04124743, 0.042277873), (-0.013489045, 0.035909902, 0.042229153), (-0.018384548, 0.030761836, -0.053756274), (0.0073314304, 0.039679494, -0.05557835), (-0.027397458, 0.009006673, -0.05549066), (0.012369583, 0.039770957, -0.049050055), (0.006851606, 0.0412801, -0.000009892409), (0.019599365, 0.036321487, -0.05437013), (-0.008081298, 0.037249185, -0.0550327), (0.004718334, 0.041038375, -0.035808336), (0.0013012085, 0.04069212, -0.046146426), (-0.0049689254, 0.03984282, 0.042092737), (-0.012860086, 0.035824973, -0.033645228), (-0.011783725, 0.036230028, -0.047325417), (0.0059178947, 0.040829316, -0.044187937), (-0.0050078304, 0.039339773, -0.035993464)]
        uniform token subdivisionScheme = "none"
        token visibility = "invisible"
    }
}

