#usda 1.0
(
    defaultPrim = "Object"
    metersPerUnit = 1
    subLayers = [
        @./configuration/appearance.usda@
    ]
    upAxis = "Z"
)

def Xform "Object" (
    prepend apiSchemas = ["PhysicsRigidBodyAPI", "PhysicsMassAPI"]
)
{
    custom string crossEmbodiment:objectName = "YcbPottedMeatCan"
    float physics:mass = 0.37

    def Material "physicsMaterial" (
        apiSchemas = ["PhysicsMaterialAPI", "PhysxMaterialAPI"]
    )
    {
        float physics:dynamicFriction = 0.5
        float physics:restitution = 0
        float physics:staticFriction = 0.5
        token physxMaterial:frictionCombineMode = "max"
        token physxMaterial:restitutionCombineMode = "average"
    }

    def Mesh "hull0" (
        prepend apiSchemas = ["PhysicsCollisionAPI", "PhysicsMeshCollisionAPI", "MaterialBindingAPI"]
    )
    {
        int[] faceVertexCounts = [3, 3, 3, 3, 3, 3, 3, 3, 3, 3, 3, 3, 3, 3, 3, 3, 3, 3, 3, 3, 3, 3, 3, 3, 3, 3, 3, 3, 3, 3, 3, 3, 3, 3, 3, 3, 3, 3, 3, 3, 3, 3, 3, 3, 3, 3, 3, 3, 3, 3, 3, 3, 3, 3, 3, 3, 3, 3, 3, 3, 3, 3, 3, 3, 3, 3, 3, 3, 3, 3, 3, 3, 3, 3, 3, 3, 3, 3, 3, 3, 3, 3, 3, 3, 3, 3, 3, 3, 3, 3, 3, 3, 3, 3, 3, 3, 3, 3, 3, 3, 3, 3, 3, 3, 3, 3, 3, 3, 3, 3, 3, 3, 3, 3, 3, 3, 3, 3, 3, 3, 3, 3, 3, 3]
        int[] faceVertexIndices = [0, 1, 2, 0, 2, 3, 0, 3, 4, 0, 4, 5, 0, 5, 6, 0, 6, 1, 1, 7, 2, 1, 6, 8, 1, 8, 9, 1, 9, 10, 1, 10, 7, 2, 7, 11, 2, 11, 3, 3, 12, 4, 3, 11, 12, 4, 12, 5, 5, 12, 6, 6, 13, 14, 6, 14, 15, 6, 15, 16, 6, 16, 17, 6, 17, 18, 6, 18, 8, 6, 12, 13, 7, 19, 11, 7, 10, 20, 7, 20, 21, 7, 21, 19, 8, 22, 9, 8, 18, 22, 9, 23, 24, 9, 24, 25, 9, 25, 26, 9, 26, 27, 9, 27, 10, 9, 22, 23, 10, 27, 20, 11, 19, 12, 12, 19, 28, 12, 28, 13, 13, 28, 29, 13, 29, 14, 14, 29, 15, 15, 29, 30, 15, 30, 16, 16, 31, 17, 16, 30, 32, 16, 32, 31, 17, 31, 33, 17, 33, 34, 17, 34, 35, 17, 35, 36, 17, 36, 18, 18, 36, 37, 18, 37, 38, 18, 38, 39, 18, 39, 23, 18, 23, 22, 19, 21, 40, 19, 40, 28, 20, 27, 41, 20, 41, 21, 21, 41, 42, 21, 42, 40, 23, 39, 43, 23, 43, 44, 23, 44, 45, 23, 45, 24, 24, 45, 46, 24, 46, 47, 24, 47, 25, 25, 47, 26, 26, 47, 27, 27, 47, 46, 27, 46, 41, 28, 31, 32, 28, 32, 48, 28, 48, 29, 28, 40, 42, 28, 42, 49, 28, 49, 31, 29, 48, 32, 29, 32, 30, 31, 49, 50, 31, 50, 33, 33, 50, 35, 33, 35, 34, 35, 50, 36, 36, 50, 37, 37, 51, 52, 37, 52, 38, 37, 50, 51, 38, 52, 53, 38, 53, 39, 39, 53, 54, 39, 54, 43, 41, 46, 55, 41, 55, 56, 41, 56, 49, 41, 49, 42, 43, 57, 44, 43, 54, 57, 44, 58, 45, 44, 57, 58, 45, 59, 46, 45, 58, 59, 46, 59, 55, 49, 56, 60, 49, 60, 50, 50, 60, 51, 51, 61, 62, 51, 62, 52, 51, 60, 61, 52, 62, 53, 53, 62, 55, 53, 55, 57, 53, 57, 54, 55, 58, 57, 55, 62, 61, 55, 61, 63, 55, 63, 56, 55, 59, 58, 56, 63, 60, 60, 63, 61]
        rel material:binding:physics = </Object/physicsMaterial>
        uniform token physics:approximation = "convexHull"
        point3f[] points = [(-0.01764195, 0.056530878, 0.03295482), (-0.006837213, 0.05177052, 0.03299569), (-0.012580886, 0.055384222, 0.03264418), (-0.016978843, 0.051805265, -0.04590627), (-0.021952143, 0.052943233, -0.04363371), (-0.024097487, 0.055870682, 0.032774974), (-0.031508677, 0.05224829, 0.03346165), (-0.006798207, 0.04749662, -0.04588992), (0.013923875, 0.03696824, 0.03327363), (0.04338336, 0.017136311, 0.032407112), (0.021900656, 0.03239899, 0.031238135), (-0.011537468, 0.049920235, -0.046887234), (-0.025872273, 0.051049516, -0.046257783), (-0.03361502, 0.046306532, -0.045252297), (-0.03563359, 0.047592174, 0.03321641), (-0.04048012, 0.040972847, 0.033142835), (-0.048895724, 0.025119465, 0.03311831), (-0.048573922, 0.017987616, 0.0333799), (-0.0010252788, -0.019886764, 0.033502523), (-0.007461313, 0.0465237, -0.048612084), (0.024426311, 0.02604895, -0.049306937), (0.012431884, 0.03380625, -0.04938051), (0.021140033, 0.03183435, 0.03320006), (0.041169755, -0.018453443, 0.032979343), (0.050726287, -0.0008366456, 0.032112826), (0.04917579, 0.01041274, 0.031810366), (0.042720255, 0.013235944, -0.04815431), (0.038234532, 0.016528236, -0.04937233), (-0.036501482, 0.041198704, -0.048366852), (-0.03773018, 0.041111834, -0.045644682), (-0.04433199, 0.03523957, 0.032783147), (-0.04598976, 0.022904336, -0.047680173), (-0.04482932, 0.029176194, -0.046870884), (-0.043200806, 0.012523629, -0.04700985), (-0.04670162, 0.012732111, 0.03316736), (-0.04129925, 0.006851158, 0.033208236), (-0.027939605, -0.0025392557, 0.033298153), (0.012919463, -0.030397773, 0.032121), (0.017902514, -0.03210038, 0.03228449), (0.025362462, -0.03221331, 0.032210924), (0.0011883269, 0.04055588, -0.049184315), (0.029731164, 0.02110617, -0.050009955), (0.011681014, 0.032972317, -0.04975654), (0.032490857, -0.029060008, 0.031973857), (0.03804925, -0.023561275, 0.031867586), (0.049029518, -0.007412541, 0.031859413), (0.04439752, -0.0045806495, -0.049200665), (0.045909014, 0.0061127814, -0.048816454), (-0.041367512, 0.03450119, -0.047312316), (-0.027705567, 0.0016217137, -0.049282413), (-0.038217757, 0.0076850895, -0.04809708), (-0.0003524208, -0.018019106, -0.048579387), (0.015484125, -0.027340025, -0.046143338), (0.022261465, -0.028252136, -0.04597167), (0.027546812, -0.027131543, -0.045146026), (0.036576767, -0.014613885, -0.04961757), (-0.009323863, -0.010122819, -0.049503125), (0.032637134, -0.024099855, -0.046625644), (0.037005834, -0.018905157, -0.047034375), (0.04252522, -0.010392109, -0.048424073), (-0.015906172, -0.0068218405, -0.049200665), (0.0026510619, -0.01841001, -0.04938051), (0.0076731197, -0.02251886, -0.048513994), (-0.0031998786, -0.014283788, -0.04947043)]
        uniform token subdivisionScheme = "none"
        token visibility = "invisible"
    }
}

