# https://github.com/mikedh/trimesh
v -0.00260012 -0.09266224 -0.02462844
v -0.01261221 -0.09265498 -0.02302144
v -0.00875143 -0.09239718 -0.02585378
v -0.00492667 -0.08994620 -0.02822912
v -0.00427360 -0.08291644 -0.02855052
v -0.00260012 -0.06418008 -0.02866602
v -0.00260012 -0.09193240 -0.02166554
v -0.00537565 -0.08856276 0.02263734
v -0.00792069 -0.09245527 0.02024694
v -0.01261461 -0.09265498 0.01721373
v -0.01582712 -0.09263319 -0.02140943
v -0.01399277 -0.09032020 -0.02516578
v -0.00892190 -0.08971381 -0.02749592
v -0.00636486 -0.05556717 -0.02817388
v -0.00260012 -0.05923093 -0.02842497
v -0.00260012 -0.06521494 -0.01584018
v -0.00617518 -0.06522220 0.02247665
v -0.00893871 -0.08090845 0.02176354
v -0.00909477 -0.08994620 0.02163799
v -0.00260012 -0.05878067 -0.01587533
v -0.00260012 -0.05556717 -0.01604105
v -0.01231449 -0.09087938 0.02011135
v -0.01582712 -0.09263319 0.01560673
v -0.02241781 -0.09242985 -0.01422816
v -0.01964708 -0.09174721 -0.01933540
v -0.01790877 -0.09000066 -0.02249415
v -0.02241781 -0.09243348 0.00842547
v -0.01754863 -0.05556717 -0.02304153
v -0.01429290 -0.05556717 -0.02518085
v -0.01293154 -0.06360274 -0.02592408
v -0.00839369 -0.06440884 -0.02767671
v -0.01090511 -0.05556717 -0.02683304
v -0.00316435 -0.05556717 -0.02767169
v -0.00657855 -0.05556717 0.02233101
v -0.00927004 -0.06682714 0.02166813
v -0.01019922 -0.08613357 0.02135677
v -0.01491955 -0.09047633 0.01873536
v -0.01747660 -0.09048723 0.01694255
v -0.01927013 -0.09203770 0.01385410
v -0.02606490 -0.09128606 -0.00692135
v -0.02566154 -0.09024032 -0.01075303
v -0.02242982 -0.09016406 -0.01762294
v -0.02644906 -0.09134779 -0.00333574
v -0.02105166 -0.05556717 -0.01965177
v -0.02172633 -0.09025121 0.01272418
v -0.02566394 -0.09024394 0.00495536
v -0.02606730 -0.09128606 0.00111866
v -0.01146934 -0.05556717 0.02076419
v -0.01019922 -0.07004790 0.02136681
v -0.01341894 -0.06360274 0.01990043
v -0.01632412 -0.05556717 0.01810260
v -0.02045381 -0.05556717 0.01449690
v -0.02711893 -0.08291644 -0.00418945
v -0.02691245 -0.05556717 -0.00689122
v -0.02592084 -0.05556717 -0.01107945
v -0.02556310 -0.06360274 -0.01192313
v -0.02415132 -0.08936159 -0.01489607
v -0.02435060 -0.05556717 -0.01471528
v -0.02705170 -0.08291644 -0.00032764
v -0.02435780 -0.05556717 0.00890757
v -0.02415612 -0.08936159 0.00909338
v -0.02590884 -0.05556717 0.00534204
v -0.02712854 -0.05949236 -0.00313486
v -0.02691245 -0.05556717 0.00106342
f 1 2 3
f 1 3 4
f 1 4 5
f 1 5 6
f 1 6 15
f 1 15 21
f 1 21 20
f 1 20 16
f 1 16 7
f 1 7 8
f 1 8 9
f 1 9 10
f 1 10 2
f 2 10 11
f 2 11 3
f 3 11 12
f 3 12 13
f 3 13 4
f 4 13 5
f 5 13 14
f 5 14 6
f 6 14 15
f 7 16 8
f 8 17 18
f 8 18 19
f 8 19 9
f 8 16 20
f 8 20 21
f 8 21 17
f 9 19 22
f 9 22 23
f 9 23 10
f 10 23 11
f 11 24 25
f 11 25 26
f 11 26 12
f 11 23 27
f 11 27 24
f 12 28 29
f 12 29 30
f 12 30 13
f 12 26 28
f 13 31 14
f 13 30 32
f 13 32 31
f 14 31 32
f 14 32 29
f 14 29 28
f 14 28 44
f 14 44 58
f 14 58 55
f 14 55 54
f 14 54 64
f 14 64 62
f 14 62 60
f 14 60 52
f 14 52 51
f 14 51 48
f 14 48 34
f 14 34 21
f 14 21 33
f 14 33 15
f 15 33 21
f 17 34 35
f 17 35 18
f 17 21 34
f 18 35 36
f 18 36 19
f 19 36 22
f 22 36 37
f 22 37 38
f 22 38 23
f 23 39 27
f 23 38 39
f 24 40 41
f 24 41 42
f 24 42 25
f 24 27 43
f 24 43 40
f 25 42 26
f 26 42 44
f 26 44 28
f 27 39 45
f 27 45 46
f 27 46 47
f 27 47 43
f 29 32 30
f 34 48 35
f 35 49 36
f 35 48 49
f 36 49 50
f 36 50 37
f 37 51 38
f 37 50 51
f 38 51 52
f 38 52 45
f 38 45 39
f 40 43 53
f 40 53 41
f 41 53 54
f 41 54 55
f 41 55 56
f 41 56 57
f 41 57 42
f 42 57 58
f 42 58 44
f 43 47 59
f 43 59 53
f 45 52 60
f 45 60 61
f 45 61 46
f 46 59 47
f 46 61 62
f 46 62 59
f 48 51 50
f 48 50 49
f 53 59 63
f 53 63 54
f 54 63 64
f 55 58 56
f 56 58 57
f 59 64 63
f 59 62 64
f 60 62 61
