# https://github.com/mikedh/trimesh
v -0.00537424 -0.09266224 0.01882780
v -0.00537424 -0.09203407 0.01571867
v 0.02119620 -0.09266224 -0.00275009
v 0.01878309 -0.09266224 0.00837188
v 0.00992921 -0.09265861 0.01721919
v 0.00510301 -0.09265135 0.01963210
v -0.00133485 -0.09202681 0.02191179
v -0.00395270 -0.09159834 0.02216565
v -0.00455817 -0.08895854 0.02268341
v -0.00536546 -0.05556717 0.02263315
v -0.00537424 -0.05756063 0.00951550
v 0.01747856 -0.09168911 -0.00275009
v -0.00537424 -0.06440884 0.00950293
v 0.02268501 -0.09241896 0.00112563
v 0.02039183 -0.09263319 0.00595647
v 0.02448386 -0.06360274 -0.00275009
v 0.02450726 -0.08291644 -0.00201868
v 0.02412702 -0.09089754 -0.00103090
v 0.01636707 -0.09259326 0.01279051
v 0.01314668 -0.09263319 0.01560808
v 0.00590737 -0.09219384 0.02104214
v 0.00155209 -0.09174358 0.02211286
v 0.00308770 -0.08835215 0.02256277
v -0.00012977 -0.08291644 0.02289957
v -0.00375088 -0.08291644 0.02284679
v -0.00455817 -0.06521857 0.02274122
v -0.00133485 -0.06360274 0.02292722
v -0.00133485 -0.06038561 0.02281663
v 0.00372242 -0.05556717 0.02239437
v 0.01177194 -0.05556717 -0.00275009
v 0.01174561 -0.05876252 -0.00275009
v 0.01173392 -0.06183804 -0.00275009
v 0.01172807 -0.06513142 -0.00275009
v 0.02284295 -0.09164917 0.00386026
v 0.01993553 -0.09212848 0.00988749
v 0.02447216 -0.05936890 -0.00275009
v 0.02442244 -0.05792011 -0.00043773
v 0.02432591 -0.08291644 0.00040176
v 0.02296288 -0.08936159 0.00585844
v 0.01682336 -0.09148940 0.01493196
v 0.01132442 -0.09032020 0.01938327
v 0.00806893 -0.09100284 0.02077823
v 0.00499478 -0.09010960 0.02207516
v 0.00601852 -0.08613357 0.02186655
v 0.00510008 -0.08090845 0.02213549
v 0.00498601 -0.06683077 0.02215057
v 0.00107825 -0.06521494 0.02283171
v 0.00747223 -0.05557443 0.02134375
v 0.01006376 -0.05556717 0.02023030
v 0.02201226 -0.05556717 -0.00275009
v 0.02149747 -0.08936159 0.00911586
v 0.01906097 -0.09025121 0.01274024
v 0.02409484 -0.05556717 0.00078380
v 0.02297165 -0.05556717 0.00600171
v 0.02169052 -0.05556717 0.00892987
v 0.01480806 -0.09050175 0.01695780
v 0.01251781 -0.05556717 0.01892582
v 0.01073358 -0.06440884 0.01991863
v 0.00749856 -0.08412195 0.02138397
v 0.00747808 -0.07894041 0.02139653
v 0.00713879 -0.06924180 0.02151215
v 0.00747808 -0.06602467 0.02138899
v 0.01852862 -0.05556717 0.01366770
v 0.01490751 -0.05556717 0.01724936
f 1 2 3
f 1 3 4
f 1 4 5
f 1 5 6
f 1 6 7
f 1 7 8
f 1 8 9
f 1 9 10
f 1 10 11
f 1 11 13
f 1 13 2
f 2 12 3
f 2 13 12
f 3 14 15
f 3 15 4
f 3 12 33
f 3 33 32
f 3 32 31
f 3 31 30
f 3 30 50
f 3 50 36
f 3 36 16
f 3 16 17
f 3 17 18
f 3 18 14
f 4 15 19
f 4 19 20
f 4 20 5
f 5 20 21
f 5 21 6
f 6 21 7
f 7 21 22
f 7 22 8
f 8 22 9
f 9 22 23
f 9 23 24
f 9 24 25
f 9 25 10
f 10 26 27
f 10 27 28
f 10 28 29
f 10 29 49
f 10 49 57
f 10 57 64
f 10 64 63
f 10 63 55
f 10 55 54
f 10 54 53
f 10 53 50
f 10 50 30
f 10 30 11
f 10 25 26
f 11 30 31
f 11 31 32
f 11 32 13
f 12 13 33
f 13 32 33
f 14 18 34
f 14 34 35
f 14 35 15
f 15 35 19
f 16 36 37
f 16 37 17
f 17 37 38
f 17 38 18
f 18 39 34
f 18 38 39
f 19 35 40
f 19 40 20
f 20 40 21
f 21 40 41
f 21 41 42
f 21 42 43
f 21 43 22
f 22 43 23
f 23 43 44
f 23 44 45
f 23 45 46
f 23 46 29
f 23 29 47
f 23 47 24
f 24 47 27
f 24 27 25
f 25 27 26
f 27 47 29
f 27 29 28
f 29 46 48
f 29 48 49
f 34 39 35
f 35 39 51
f 35 51 52
f 35 52 40
f 36 50 53
f 36 53 37
f 37 53 54
f 37 54 38
f 38 54 39
f 39 54 55
f 39 55 51
f 40 52 56
f 40 56 41
f 41 56 57
f 41 57 58
f 41 58 59
f 41 59 42
f 42 59 43
f 43 59 44
f 44 59 60
f 44 60 61
f 44 61 45
f 45 61 46
f 46 61 48
f 48 61 62
f 48 62 49
f 49 62 60
f 49 60 59
f 49 59 58
f 49 58 57
f 51 55 63
f 51 63 52
f 52 63 56
f 56 63 64
f 56 64 57
f 60 62 61
