# https://github.com/mikedh/trimesh
v -0.04476779 0.01243106 0.00514942
v -0.04550707 0.01239778 -0.01089647
v -0.04535921 -0.02255804 -0.00261392
v -0.04273260 0.00799169 0.01610216
v 0.03977966 0.01020805 0.01610216
v 0.03400458 0.01242440 -0.01571765
v -0.02217194 0.01242440 -0.01676842
v -0.03756634 0.01242440 -0.01565584
v -0.04546359 -0.01866445 -0.01089647
v -0.03084325 -0.02747661 -0.03290702
v -0.03295672 -0.03785288 -0.03087347
v -0.04367192 -0.03110398 -0.00922760
v -0.04302831 -0.03317391 -0.00190929
v -0.03701841 -0.01550964 0.02442179
v -0.04221946 -0.00273732 0.01610216
v -0.02622493 -0.01202870 0.02843944
v -0.01564019 -0.01170922 0.02967564
v -0.00137645 -0.01170922 0.03023811
v 0.03622242 -0.01246798 0.02248714
v 0.03898819 -0.00285712 0.01610216
v 0.04133649 -0.00685721 0.00390086
v 0.04173657 0.00214132 0.00429026
v 0.04193661 0.00986861 0.00492072
v 0.04334559 0.00987526 -0.00864658
v 0.01380921 -0.01170922 0.02968182
v 0.02536806 -0.01189559 0.02786461
v 0.03266518 -0.00464751 -0.02646024
v -0.01023041 0.00065044 -0.02589158
v -0.03910578 -0.03697432 -0.01892559
v 0.03160410 -0.01294719 -0.02775207
v -0.00331597 -0.05222922 -0.03052116
v -0.01313534 -0.05407951 -0.02726995
v -0.02325912 -0.05408616 -0.02100241
v -0.02876457 -0.05416603 -0.01055651
v -0.03267840 -0.05272175 -0.00103159
v -0.03723584 -0.03324046 0.01324035
v -0.02290252 -0.05399964 0.01494631
v -0.01569238 -0.05556374 0.01842003
v -0.00751682 -0.05258197 0.02405093
v -0.00095898 -0.04185962 0.02754938
v 0.03958831 -0.02616544 0.00271410
v 0.04064070 -0.01632164 0.00369688
v 0.03210855 -0.01869107 0.02468139
v 0.03503957 -0.03431204 0.01031674
v 0.04331080 -0.00239122 -0.00873312
v 0.04087553 -0.00579895 -0.01878343
v 0.00432904 -0.05284155 0.02410038
v 0.03831849 -0.01306034 -0.02321521
v 0.03325660 -0.01351292 -0.02741211
v 0.03391760 -0.02177267 -0.02662712
v 0.00580760 -0.05358033 -0.02893264
v 0.01748821 -0.05437902 -0.02235605
v -0.02734690 -0.05477836 0.00431498
v 0.02468966 -0.05475839 -0.01042671
v 0.02066276 -0.05401961 0.01452600
v 0.01297426 -0.05399298 0.02031760
v 0.03796190 -0.03395263 0.00089689
v 0.04130170 -0.02551318 -0.01005585
v 0.04239757 -0.01530331 -0.01084084
v 0.02787291 -0.05318764 0.00314677
v 0.03950134 -0.02237834 -0.01997018
v 0.03034297 -0.04238542 -0.02153398
v 0.02775115 -0.05091139 -0.01711456
v 0.03488302 -0.03823891 -0.01666334
f 1 2 3
f 1 3 4
f 1 4 5
f 1 5 6
f 1 6 7
f 1 7 8
f 1 8 2
f 2 9 3
f 2 8 10
f 2 10 11
f 2 11 9
f 3 9 12
f 3 12 13
f 3 13 14
f 3 14 15
f 3 15 4
f 4 15 14
f 4 14 16
f 4 16 17
f 4 17 18
f 4 18 5
f 5 19 20
f 5 20 21
f 5 21 22
f 5 22 23
f 5 23 24
f 5 24 6
f 5 18 25
f 5 25 26
f 5 26 19
f 6 24 27
f 6 27 28
f 6 28 7
f 7 28 8
f 8 28 10
f 9 11 29
f 9 29 12
f 10 28 27
f 10 27 30
f 10 30 31
f 10 31 11
f 11 31 32
f 11 32 33
f 11 33 34
f 11 34 29
f 12 29 35
f 12 35 13
f 13 35 36
f 13 36 14
f 14 36 37
f 14 37 38
f 14 38 39
f 14 39 16
f 16 39 40
f 16 40 17
f 17 40 18
f 18 40 25
f 19 41 42
f 19 42 20
f 19 26 43
f 19 43 44
f 19 44 41
f 20 42 21
f 21 45 22
f 21 42 45
f 22 45 23
f 23 45 24
f 24 45 46
f 24 46 27
f 25 40 26
f 26 40 47
f 26 47 43
f 27 46 48
f 27 48 49
f 27 49 30
f 29 34 35
f 30 49 50
f 30 50 51
f 30 51 31
f 31 51 32
f 32 51 52
f 32 52 38
f 32 38 33
f 33 38 53
f 33 53 34
f 34 53 35
f 35 53 37
f 35 37 36
f 37 53 38
f 38 54 55
f 38 55 56
f 38 56 47
f 38 47 39
f 38 52 54
f 39 47 40
f 41 44 57
f 41 57 58
f 41 58 42
f 42 58 59
f 42 59 45
f 43 55 44
f 43 47 56
f 43 56 55
f 44 55 60
f 44 60 57
f 45 59 46
f 46 59 61
f 46 61 48
f 48 61 50
f 48 50 49
f 50 61 62
f 50 62 51
f 51 62 52
f 52 62 63
f 52 63 54
f 54 60 55
f 54 63 60
f 57 60 64
f 57 64 58
f 58 64 61
f 58 61 59
f 60 63 64
f 61 64 62
f 62 64 63
