# https://github.com/mikedh/trimesh
v -0.00696747 0.06954344 -0.00240928
v 0.01112042 0.05970462 0.00824985
v 0.03678557 0.06461285 -0.00335350
v 0.00588282 0.06857074 -0.00373764
v 0.01409815 0.06797817 -0.00474930
v -0.01621969 0.06850366 -0.00507480
v -0.02950423 0.06850366 -0.00346493
v -0.03853489 0.06785519 -0.00352358
v -0.03523812 0.05947542 0.00834955
v -0.01178855 0.05983320 0.00870143
v 0.01979659 0.04830612 0.01317915
v 0.03004138 0.04756821 0.01317915
v 0.03245192 0.05502000 0.00806218
v 0.03542078 0.05948660 -0.01071373
v 0.03985191 0.04499670 0.01317915
v 0.04243084 0.04556690 0.00615028
v 0.04293599 0.04376685 -0.01066681
v 0.01393863 0.06256682 -0.01133832
v -0.01159358 0.06376873 -0.01097764
v -0.02951309 0.06346685 -0.01115358
v -0.04424220 0.04548864 -0.01236758
v -0.04272675 0.05702131 0.00183971
v -0.03787908 0.06246061 -0.01147614
v -0.04417129 0.04203946 0.00993009
v -0.03272124 0.04813282 0.01317915
v -0.02305250 0.04856886 0.01317915
v -0.01177083 0.04885956 0.01317915
v 0.00910869 0.04873098 0.01317915
v 0.03493335 0.04353765 -0.01571633
v 0.01454126 0.05029065 -0.01588348
v 0.04033048 0.02173571 0.01317915
v 0.04211180 0.03731571 0.00751969
v 0.04241311 0.02979124 0.00514448
v 0.04393742 0.03139564 -0.00726820
v 0.04246629 0.02978565 -0.01221509
v 0.04333478 0.01906917 -0.00943815
v 0.00581192 0.06165002 -0.01216524
v -0.04528794 0.02415069 -0.01247607
v -0.04555381 0.03527527 -0.01173125
v -0.04659956 0.03501812 -0.00648526
v -0.03754232 0.04990493 -0.01559317
v -0.03940339 0.03320688 -0.01568701
v -0.00978568 0.05069315 -0.01596265
v -0.02115597 0.05039128 -0.01593333
v -0.04499548 0.02315004 0.00533801
v -0.04341801 0.03298886 0.01317915
v 0.03606772 0.02978565 -0.01593039
v 0.02319970 0.04104999 -0.01646408
v 0.00367612 0.05069315 -0.01592746
v 0.04000257 0.01307084 0.01317915
v 0.04208521 0.01778341 0.00547584
v 0.03705144 0.01243355 -0.01495685
v -0.04600578 0.02173571 -0.01094831
v -0.04344459 0.01430069 -0.01381030
v -0.04586399 0.01352924 -0.00581668
v -0.04477393 0.01449076 0.00549050
v -0.03133872 0.04478427 -0.01622363
v -0.03553944 0.02485506 -0.01620897
v -0.03635477 0.01243355 -0.01584536
v -0.01964939 0.04264880 -0.01649048
v -0.04323190 0.02171894 0.01317915
v 0.03204425 0.02012572 -0.01616498
v -0.02236124 0.01251740 -0.01677785
v -0.04299261 0.01305966 0.01317915
f 1 2 3
f 1 3 4
f 1 4 5
f 1 5 6
f 1 6 7
f 1 7 8
f 1 8 9
f 1 9 10
f 1 10 2
f 2 11 12
f 2 12 13
f 2 13 3
f 2 10 11
f 3 14 5
f 3 5 4
f 3 13 15
f 3 15 16
f 3 16 17
f 3 17 14
f 5 18 19
f 5 19 6
f 5 14 18
f 6 20 8
f 6 8 7
f 6 19 20
f 8 21 22
f 8 22 9
f 8 20 23
f 8 23 21
f 9 22 24
f 9 24 25
f 9 25 10
f 10 25 26
f 10 26 27
f 10 27 28
f 10 28 11
f 11 28 27
f 11 27 26
f 11 26 25
f 11 25 46
f 11 46 61
f 11 61 64
f 11 64 50
f 11 50 31
f 11 31 15
f 11 15 12
f 12 15 13
f 14 17 29
f 14 29 30
f 14 30 18
f 15 31 32
f 15 32 16
f 16 32 33
f 16 33 34
f 16 34 17
f 17 35 29
f 17 34 36
f 17 36 35
f 18 30 37
f 18 37 19
f 19 37 20
f 20 37 23
f 21 38 39
f 21 39 40
f 21 40 22
f 21 23 41
f 21 41 42
f 21 42 38
f 22 40 24
f 23 37 43
f 23 43 44
f 23 44 41
f 24 40 45
f 24 45 46
f 24 46 25
f 29 35 47
f 29 47 48
f 29 48 30
f 30 48 49
f 30 49 37
f 31 50 51
f 31 51 32
f 32 51 33
f 33 51 34
f 34 51 36
f 35 36 52
f 35 52 47
f 36 51 50
f 36 50 52
f 37 49 43
f 38 53 39
f 38 42 54
f 38 54 53
f 39 53 40
f 40 53 55
f 40 55 56
f 40 56 45
f 41 44 57
f 41 57 58
f 41 58 42
f 42 58 59
f 42 59 54
f 43 49 60
f 43 60 44
f 44 60 57
f 45 56 61
f 45 61 46
f 47 52 62
f 47 62 48
f 48 62 63
f 48 63 60
f 48 60 49
f 50 64 52
f 52 64 59
f 52 59 63
f 52 63 62
f 53 54 55
f 54 59 55
f 55 64 56
f 55 59 64
f 56 64 61
f 57 60 63
f 57 63 58
f 58 63 59
