# https://github.com/mikedh/trimesh
v -0.00260012 -0.09266224 -0.02463309
v 0.00510008 -0.09264772 -0.02543652
v 0.01073858 -0.09266224 -0.02222027
v 0.02119567 -0.09266224 -0.00275241
v -0.00260012 -0.09193240 -0.02166855
v -0.00260012 -0.05829774 -0.02826377
v -0.00236928 -0.09157655 -0.02808834
v 0.00057336 -0.09218657 -0.02750357
v 0.00919695 -0.09264772 -0.02382713
v 0.00590672 -0.09219384 -0.02683998
v 0.01395186 -0.09265135 -0.02060833
v 0.01877842 -0.09266224 -0.01417583
v 0.02039169 -0.09263319 -0.01176046
v 0.02268424 -0.09241532 -0.00692973
v 0.02404279 -0.09121344 -0.00438215
v 0.02450713 -0.08291644 -0.00367279
v 0.02448856 -0.06370441 -0.00283123
v 0.02201558 -0.05556717 -0.00275241
v 0.01747824 -0.09168911 -0.00275241
v -0.00260012 -0.06521494 -0.01584370
v -0.00260012 -0.05556717 -0.02714508
v 0.00187088 -0.05556717 -0.02831208
v -0.00145120 -0.06033114 -0.02860447
v -0.00145120 -0.06435438 -0.02869600
v -0.00236928 -0.08211034 -0.02872651
v 0.00297470 -0.09149304 -0.02801969
v 0.00268547 -0.08855550 -0.02843412
v 0.01234389 -0.09261504 -0.02222027
v 0.00751468 -0.09016406 -0.02708660
v 0.00964272 -0.09087938 -0.02591197
v 0.01202018 -0.09159471 -0.02437884
v 0.01639565 -0.09200501 -0.02078376
v 0.01636646 -0.09258962 -0.01859468
v 0.01906233 -0.09234271 -0.01648695
v 0.02080562 -0.09191424 -0.01489027
v 0.02284079 -0.09164917 -0.00966545
v 0.02295754 -0.08936159 -0.01166130
v 0.02432139 -0.08291644 -0.00620003
v 0.02426833 -0.05556717 -0.00678226
v 0.02444876 -0.05902758 -0.00423977
v 0.01177341 -0.05556717 -0.00275241
v 0.01172830 -0.06428901 -0.00275241
v 0.01174422 -0.05876252 -0.00275241
v -0.00260012 -0.05878067 -0.01587675
v -0.00260012 -0.05556717 -0.01604456
v 0.00511069 -0.05556717 -0.02782138
v 0.00471533 -0.06360274 -0.02797393
v 0.00268547 -0.08131150 -0.02843666
v 0.00027352 -0.08251338 -0.02869091
v 0.00497537 -0.09008055 -0.02786715
v 0.01438171 -0.09162012 -0.02285335
v 0.00672662 -0.06521494 -0.02739424
v 0.00832397 -0.05556717 -0.02680438
v 0.01139928 -0.06360274 -0.02534245
v 0.01246595 -0.08936159 -0.02470683
v 0.01834856 -0.09034199 -0.01943878
v 0.01976283 -0.09016406 -0.01764633
v 0.02149020 -0.08936159 -0.01491569
v 0.02168655 -0.05556717 -0.01473009
v 0.02324942 -0.05556717 -0.01117823
v 0.01522019 -0.08936159 -0.02265758
v 0.01163013 -0.05556717 -0.02519244
v 0.01478238 -0.05556717 -0.02313811
v 0.01841224 -0.05556717 -0.01962947
f 1 2 3
f 1 3 12
f 1 12 4
f 1 4 5
f 1 5 20
f 1 20 44
f 1 44 45
f 1 45 21
f 1 21 6
f 1 6 7
f 1 7 8
f 1 8 2
f 2 9 3
f 2 8 10
f 2 10 9
f 3 9 11
f 3 11 12
f 4 12 13
f 4 13 14
f 4 14 15
f 4 15 16
f 4 16 17
f 4 17 18
f 4 18 41
f 4 41 43
f 4 43 42
f 4 42 19
f 4 19 5
f 5 19 20
f 6 21 22
f 6 22 23
f 6 23 24
f 6 24 25
f 6 25 7
f 7 26 8
f 7 25 27
f 7 27 26
f 8 26 10
f 9 10 28
f 9 28 11
f 10 26 29
f 10 29 30
f 10 30 31
f 10 31 28
f 11 28 32
f 11 32 33
f 11 33 12
f 12 33 34
f 12 34 13
f 13 34 35
f 13 35 14
f 14 35 36
f 14 36 15
f 15 36 37
f 15 37 38
f 15 38 16
f 16 38 39
f 16 39 40
f 16 40 17
f 17 40 18
f 18 40 39
f 18 39 60
f 18 60 59
f 18 59 64
f 18 64 63
f 18 63 62
f 18 62 53
f 18 53 46
f 18 46 22
f 18 22 21
f 18 21 45
f 18 45 41
f 19 42 20
f 20 42 43
f 20 43 44
f 22 46 47
f 22 47 48
f 22 48 49
f 22 49 24
f 22 24 23
f 24 49 25
f 25 49 27
f 26 27 50
f 26 50 29
f 27 49 48
f 27 48 47
f 27 47 50
f 28 31 51
f 28 51 32
f 29 50 52
f 29 52 53
f 29 53 54
f 29 54 55
f 29 55 30
f 30 55 31
f 31 55 51
f 32 34 33
f 32 51 56
f 32 56 35
f 32 35 34
f 35 56 57
f 35 57 58
f 35 58 37
f 35 37 36
f 37 59 60
f 37 60 38
f 37 58 59
f 38 60 39
f 41 45 44
f 41 44 43
f 46 53 52
f 46 52 47
f 47 52 50
f 51 55 61
f 51 61 56
f 53 62 54
f 54 62 55
f 55 62 63
f 55 63 61
f 56 61 64
f 56 64 57
f 57 64 59
f 57 59 58
f 61 63 64
