# https://github.com/mikedh/trimesh
v -0.00054350 0.05671254 0.02640208
v 0.01788688 0.05595626 0.02997125
v 0.03409051 0.05312843 0.02686169
v 0.03004782 0.04756484 0.01318499
v 0.01980141 0.04830798 0.01318499
v 0.00913594 0.04872886 0.01318499
v -0.01178415 0.04886039 0.01318499
v -0.02306588 0.04856445 0.01318499
v -0.03272890 0.04813041 0.01318499
v -0.02532552 0.05660732 0.02975202
v 0.00562735 0.05458180 0.03214237
v 0.02875777 0.04761088 0.02993087
v 0.02907823 0.03481332 0.02979625
v 0.03900418 0.02695459 0.02372905
v 0.03970261 0.04193550 0.02294060
v 0.04035174 0.04321789 0.01338691
v -0.04344367 0.03457657 0.01318499
v -0.04322181 0.04574320 0.01399460
v -0.04147984 0.04980738 0.02404058
v -0.03354236 0.04865652 0.03011163
v -0.01632807 0.05286538 0.03200583
v -0.00318111 0.05175397 0.03272890
v 0.00538906 0.03932469 0.03266928
v 0.01448511 0.03218936 0.03195968
v 0.02589009 0.01257214 0.03018471
v 0.02612017 0.00418730 0.02970202
v 0.03744298 -0.01047136 0.01953297
v 0.03963688 0.02655344 0.02285791
v 0.04031066 0.02524475 0.01699262
v 0.03854404 -0.00247453 0.01928681
v -0.04297531 0.01274970 0.01399844
v -0.04318895 0.02219990 0.01773492
v -0.04359157 0.04103454 0.02125024
v -0.04321360 0.03514872 0.02254637
v -0.04208789 0.04022565 0.02397520
v -0.03151280 0.02649425 0.03019048
v -0.02628689 0.04425037 0.03119239
v -0.01179237 0.04264574 0.03256159
v -0.00208827 0.04165929 0.03282890
v 0.00232418 0.03158434 0.03266159
v 0.00888944 0.01324292 0.03194045
v 0.01475627 0.02089121 0.03170968
v 0.01313755 0.00039933 0.03106162
v 0.02289094 -0.00398709 0.02946934
v 0.01208579 -0.00953095 0.03012894
v -0.02592535 -0.00872205 0.02897511
v -0.04123333 -0.00764353 0.01855221
v 0.03931643 0.01176982 0.02063487
v -0.04193998 0.00243142 0.02097333
v -0.03081437 0.01311797 0.02973664
v -0.02658269 0.03530655 0.03102700
v -0.02466817 0.02333761 0.03104623
v -0.02078982 0.02427145 0.03150200
v -0.01401092 0.03436613 0.03230006
v -0.01024760 0.01181586 0.03198660
v -0.00232656 0.01393344 0.03231160
v -0.00059281 0.00316797 0.03179814
v 0.00465776 -0.00742652 0.03078278
v -0.00399458 -0.00878124 0.03064816
v -0.01675535 -0.00769615 0.03013279
v -0.02687028 0.00081364 0.02975972
v -0.02060905 0.01599183 0.03128854
v -0.00862067 0.00323373 0.03163853
v -0.01839050 0.00316797 0.03091162
f 1 2 3
f 1 3 4
f 1 4 5
f 1 5 6
f 1 6 7
f 1 7 8
f 1 8 9
f 1 9 10
f 1 10 2
f 2 10 11
f 2 11 12
f 2 12 3
f 3 12 13
f 3 13 14
f 3 14 15
f 3 15 16
f 3 16 4
f 4 16 17
f 4 17 9
f 4 9 8
f 4 8 7
f 4 7 6
f 4 6 5
f 9 17 18
f 9 18 10
f 10 18 19
f 10 19 20
f 10 20 21
f 10 21 11
f 11 22 23
f 11 23 24
f 11 24 12
f 11 21 22
f 12 25 13
f 12 24 25
f 13 25 26
f 13 26 14
f 14 27 28
f 14 28 15
f 14 26 27
f 15 28 29
f 15 29 16
f 16 29 30
f 16 30 27
f 16 27 31
f 16 31 17
f 17 31 32
f 17 32 33
f 17 33 18
f 18 33 19
f 19 33 34
f 19 34 35
f 19 35 20
f 20 35 36
f 20 36 37
f 20 37 21
f 21 37 38
f 21 38 22
f 22 39 23
f 22 38 39
f 23 39 40
f 23 40 41
f 23 41 24
f 24 41 42
f 24 42 25
f 25 42 43
f 25 43 26
f 26 43 44
f 26 44 27
f 27 30 28
f 27 44 45
f 27 45 46
f 27 46 47
f 27 47 31
f 28 30 48
f 28 48 29
f 29 48 30
f 31 47 49
f 31 49 32
f 32 49 34
f 32 34 33
f 34 49 35
f 35 49 50
f 35 50 36
f 36 51 37
f 36 50 52
f 36 52 51
f 37 53 54
f 37 54 38
f 37 51 53
f 38 54 55
f 38 55 56
f 38 56 39
f 39 56 40
f 40 56 41
f 41 43 42
f 41 56 57
f 41 57 43
f 43 57 58
f 43 58 45
f 43 45 44
f 45 58 59
f 45 59 46
f 46 59 60
f 46 60 61
f 46 61 50
f 46 50 49
f 46 49 47
f 50 61 52
f 51 52 53
f 52 62 53
f 52 61 62
f 53 62 55
f 53 55 54
f 55 63 56
f 55 62 64
f 55 64 63
f 56 63 57
f 57 63 59
f 57 59 58
f 59 63 60
f 60 63 64
f 60 64 61
f 61 64 62
