# https://github.com/mikedh/trimesh
v 0.00274312 -0.01446252 -0.00406843
v 0.00601197 -0.01372078 -0.00120925
v 0.00377352 -0.01059830 0.00843666
v -0.00325852 -0.01059830 0.00108012
v -0.00015960 -0.01407937 -0.00644430
v 0.00012156 -0.01389271 -0.03610954
v 0.00411183 -0.01413668 -0.03126624
v 0.00624523 -0.01401060 -0.02893616
v 0.00748727 -0.01394674 -0.02155419
v 0.00862426 -0.01268268 0.00075452
v 0.00377352 -0.00160253 0.00843666
v 0.01081019 -0.01012510 0.00028138
v 0.01127672 -0.00370329 0.00040857
v -0.00325852 -0.00160253 0.00108012
v -0.00298508 -0.00622158 -0.03793596
v -0.00238106 -0.01174119 -0.03858207
v 0.00206803 -0.01362418 -0.03932485
v 0.00735596 -0.01368476 -0.02910914
v 0.01059237 -0.01194586 -0.02453547
v 0.01090906 -0.01205557 -0.01702122
v 0.01097085 -0.01177066 -0.01328699
v 0.01011347 -0.00064303 -0.00081752
v 0.00605986 0.00150522 -0.00116855
v 0.00269523 0.00226169 -0.00410913
v 0.01156561 -0.00701735 -0.00101593
v 0.01193327 -0.00988113 -0.01401959
v 0.01251258 -0.00558464 -0.01474711
v 0.01236273 -0.00321371 -0.01842029
v 0.01184985 -0.00199387 -0.01369908
v -0.00016887 0.00189819 -0.00644939
v -0.00183110 0.00074875 -0.03887206
v -0.00263441 -0.00274706 -0.03942660
v -0.00182955 -0.00715816 -0.04105969
v 0.00017408 -0.01158073 -0.04175668
v 0.00700683 -0.01176411 -0.03911626
v 0.00717676 -0.01293156 -0.03368789
v 0.00548827 -0.01068672 -0.04216876
v 0.01166756 -0.00870221 -0.02487124
v 0.01252340 -0.00761663 -0.01909184
v 0.00874939 -0.00993843 -0.03586026
v 0.01095385 -0.00043017 -0.01305806
v 0.01090288 -0.00014526 -0.01690930
v 0.00777615 0.00161656 -0.02196119
v 0.00625296 0.00180649 -0.02893616
v 0.00437600 0.00194731 -0.02997401
v 0.00010765 0.00169188 -0.03632322
v 0.01180814 -0.00536359 -0.02499334
v 0.01103419 -0.00143552 -0.02484581
v 0.00155361 0.00087810 -0.04035253
v 0.00012928 -0.00233935 -0.04260629
v 0.00206340 -0.00875788 -0.04338468
v 0.00754752 -0.00557645 -0.04078496
v 0.00366075 -0.00435006 -0.04353730
v 0.01055220 -0.00874642 -0.02962297
v 0.00980296 -0.00744143 -0.03301634
v 0.00735596 0.00148393 -0.02910914
v 0.00568755 0.00170989 -0.03328598
v 0.00561804 0.00110078 -0.03749335
v 0.01028958 -0.00304506 -0.03037084
v 0.00874939 -0.00226240 -0.03586026
v 0.00825196 -0.00001100 -0.03336229
v 0.00534460 -0.00100980 -0.04219929
v 0.00753362 -0.00180229 -0.03963519
v 0.00687398 0.00128908 -0.03323002
f 1 2 3
f 1 3 4
f 1 4 5
f 1 5 6
f 1 6 7
f 1 7 8
f 1 8 9
f 1 9 2
f 2 10 3
f 2 9 10
f 3 11 14
f 3 14 4
f 3 10 12
f 3 12 13
f 3 13 11
f 4 14 15
f 4 15 16
f 4 16 5
f 5 16 6
f 6 16 17
f 6 17 7
f 7 17 8
f 8 17 18
f 8 18 9
f 9 18 19
f 9 19 20
f 9 20 10
f 10 20 21
f 10 21 12
f 11 13 22
f 11 22 23
f 11 23 24
f 11 24 14
f 12 25 13
f 12 21 26
f 12 26 25
f 13 25 27
f 13 27 28
f 13 28 29
f 13 29 22
f 14 24 30
f 14 30 31
f 14 31 32
f 14 32 15
f 15 32 33
f 15 33 16
f 16 33 34
f 16 34 17
f 17 35 36
f 17 36 18
f 17 34 37
f 17 37 35
f 18 36 19
f 19 38 39
f 19 39 26
f 19 26 20
f 19 36 35
f 19 35 40
f 19 40 38
f 20 26 21
f 22 29 41
f 22 41 42
f 22 42 23
f 23 42 43
f 23 43 24
f 24 44 45
f 24 45 46
f 24 46 30
f 24 43 44
f 25 26 39
f 25 39 27
f 27 39 28
f 28 39 47
f 28 47 48
f 28 48 42
f 28 42 29
f 29 42 41
f 30 46 31
f 31 46 49
f 31 49 50
f 31 50 32
f 32 50 33
f 33 50 51
f 33 51 34
f 34 51 37
f 35 37 52
f 35 52 40
f 37 51 53
f 37 53 52
f 38 47 39
f 38 40 54
f 38 54 47
f 40 52 55
f 40 55 54
f 42 48 56
f 42 56 43
f 43 56 44
f 44 56 57
f 44 57 45
f 45 57 46
f 46 57 58
f 46 58 49
f 47 54 55
f 47 55 59
f 47 59 48
f 48 59 60
f 48 60 61
f 48 61 56
f 49 62 50
f 49 58 62
f 50 62 53
f 50 53 51
f 52 53 62
f 52 62 63
f 52 63 60
f 52 60 55
f 55 60 59
f 56 61 64
f 56 64 57
f 57 64 58
f 58 64 61
f 58 61 63
f 58 63 62
f 60 63 61
