# https://github.com/mikedh/trimesh
v 0.01028870 -0.00728688 -0.01634872
v 0.00840140 -0.01274031 -0.02166969
v 0.01017089 -0.00630649 -0.02501939
v 0.01018267 -0.00519055 -0.00752382
v 0.00964075 -0.00708449 0.00726790
v 0.00953943 -0.01014821 -0.00214019
v 0.00878781 -0.01206815 -0.01203025
v 0.00728928 -0.01355730 -0.03014758
v 0.00813751 -0.01247850 0.00411098
v 0.00361128 -0.01552180 0.00520506
v 0.00701125 0.00063052 -0.03150673
v 0.00865351 -0.00071752 -0.01989121
v 0.00923078 -0.00189102 -0.01531248
v 0.00903757 -0.00222895 0.00072754
v 0.00818934 -0.00157722 0.00836679
v 0.00321073 -0.01500561 0.01151407
v 0.00015477 -0.01399551 -0.03569989
v 0.00243084 -0.01564249 -0.01792959
v 0.00045165 -0.01588573 -0.02366505
v -0.00202941 -0.01524885 0.01322507
v -0.00584878 -0.01612712 -0.00042919
v -0.00003844 -0.01611412 -0.01250741
v 0.00243084 -0.01569448 -0.01250741
v 0.00280312 0.00142152 -0.03436965
v 0.00069433 0.00258016 -0.02360240
v 0.00243084 0.00233321 -0.01805008
v 0.00288794 0.00230907 -0.01150972
v 0.00359008 0.00222737 0.00476164
v 0.00809274 -0.00022175 -0.00810218
v 0.00217166 0.00142337 0.01238162
v -0.00546001 -0.01178034 -0.03479860
v -0.00194694 0.00055811 -0.03601317
v -0.00667580 -0.01466581 -0.03002708
v 0.00017126 -0.01605841 -0.01791995
v -0.00746983 -0.01533797 -0.02303849
v -0.00759000 -0.01609555 -0.01299902
v -0.00472959 0.00081434 0.01250693
v -0.00714468 -0.01472894 0.01142249
v -0.01181227 -0.01461754 0.00498817
v -0.00792222 -0.01613454 -0.00659361
v -0.00708813 0.00183373 -0.02762686
v -0.00619749 0.00283454 -0.02088408
v 0.00003696 0.00279741 -0.01431480
v 0.00243084 0.00239448 -0.01249295
v -0.00510894 0.00282897 -0.00089189
v 0.00026551 0.00270085 -0.00739851
v -0.00586292 -0.00186502 -0.03467811
v -0.00852304 -0.00933679 -0.03010420
v -0.01083210 -0.01478465 -0.01647885
v -0.01176750 -0.00985484 -0.01990085
v -0.01209266 -0.01474937 -0.00362949
v -0.01068366 0.00064166 0.00819328
v -0.01263458 0.00053397 0.00171558
v -0.01378204 -0.00571788 -0.00864681
v -0.01298094 -0.01238009 -0.01002525
v -0.00897543 -0.00255204 -0.02875467
v -0.01052580 0.00139367 -0.01857543
v -0.00974355 0.00197670 -0.01253632
v -0.00792222 0.00283454 -0.00659361
v -0.01025719 -0.00811316 -0.02523628
v -0.01300921 -0.00884288 -0.01501848
v -0.01240367 -0.00449425 -0.01745726
v -0.01207381 0.00145308 -0.00315715
f 1 2 3
f 1 3 4
f 1 4 5
f 1 5 6
f 1 6 7
f 1 7 2
f 2 8 3
f 2 7 9
f 2 9 10
f 2 10 8
f 3 8 11
f 3 11 12
f 3 12 13
f 3 13 4
f 4 14 5
f 4 13 14
f 5 15 16
f 5 16 9
f 5 9 6
f 5 14 15
f 6 9 7
f 8 17 11
f 8 10 18
f 8 18 19
f 8 19 17
f 9 16 10
f 10 16 20
f 10 20 21
f 10 21 22
f 10 22 23
f 10 23 18
f 11 17 24
f 11 24 25
f 11 25 26
f 11 26 27
f 11 27 28
f 11 28 29
f 11 29 12
f 12 29 13
f 13 29 14
f 14 29 15
f 15 30 16
f 15 29 28
f 15 28 30
f 16 30 20
f 17 31 32
f 17 32 24
f 17 19 33
f 17 33 31
f 18 34 19
f 18 23 34
f 19 35 33
f 19 34 36
f 19 36 35
f 20 37 38
f 20 38 21
f 20 30 37
f 21 38 39
f 21 39 40
f 21 40 22
f 22 40 36
f 22 36 34
f 22 34 23
f 24 32 41
f 24 41 42
f 24 42 25
f 25 42 43
f 25 43 44
f 25 44 26
f 26 44 27
f 27 44 28
f 28 45 30
f 28 44 43
f 28 43 46
f 28 46 45
f 30 45 37
f 31 47 32
f 31 33 48
f 31 48 47
f 32 47 41
f 33 35 49
f 33 49 50
f 33 50 48
f 35 36 49
f 36 40 51
f 36 51 49
f 37 45 52
f 37 52 38
f 38 52 39
f 39 52 53
f 39 53 54
f 39 54 55
f 39 55 51
f 39 51 40
f 41 47 56
f 41 56 57
f 41 57 42
f 42 57 58
f 42 58 59
f 42 59 45
f 42 45 43
f 43 45 46
f 45 59 52
f 47 48 56
f 48 60 56
f 48 50 60
f 49 51 55
f 49 55 50
f 50 55 61
f 50 61 62
f 50 62 60
f 52 59 63
f 52 63 53
f 53 63 54
f 54 63 57
f 54 57 62
f 54 62 61
f 54 61 55
f 56 60 62
f 56 62 57
f 57 63 58
f 58 63 59
