# https://github.com/mikedh/trimesh
v 0.01085481 -0.00639067 0.00045125
v 0.00668257 0.00086388 -0.00149628
v 0.00501014 -0.00160293 0.00770846
v 0.00501014 -0.01059654 0.00770846
v 0.00676000 -0.01304695 -0.00199743
v 0.00889700 -0.01127839 -0.00567045
v 0.00967349 -0.00840017 -0.01255973
v 0.01048316 -0.00660867 -0.00599398
v 0.00964030 -0.00320922 -0.01255973
v 0.00987259 -0.00246672 -0.00556895
v 0.00827094 -0.00051458 -0.01248995
v 0.00665824 0.00029512 -0.02022295
v 0.00106576 0.00203418 -0.03300555
v 0.00083790 0.00226529 -0.01377138
v 0.00013663 0.00227840 -0.00745938
v -0.00317948 -0.00160293 0.00125055
v -0.00317948 -0.01059654 0.00125055
v -0.00161987 -0.01376323 -0.00747841
v 0.00665824 -0.01249622 -0.02022295
v 0.00827094 -0.01168652 -0.01248995
v -0.00081241 -0.01443689 -0.01208395
v 0.00083790 -0.01446639 -0.01377138
v 0.00134671 -0.01410252 -0.03579679
v 0.00831740 -0.00990321 -0.02174544
v 0.00746348 -0.00609891 -0.03442654
v 0.00826209 -0.00561375 -0.02842538
v 0.00831740 -0.00229790 -0.02174544
v 0.00638614 -0.00025397 -0.02871085
v 0.00095957 0.00178176 -0.03749056
v 0.00067862 0.00219645 -0.02024832
v -0.00071950 0.00172111 -0.04339657
v -0.00185436 0.00191453 -0.04297788
v -0.00068410 0.00224398 -0.01209664
v -0.00399579 0.00064588 -0.00777656
v -0.00500677 -0.00275356 -0.00816353
v -0.00511517 -0.00742984 -0.00819525
v -0.01082489 -0.01245689 -0.05062207
v 0.00430223 -0.01210121 -0.03899402
v 0.00595475 -0.01161932 -0.03324661
v -0.00515941 -0.01404351 -0.04848423
v 0.00069190 -0.01440411 -0.01971545
v -0.00158447 -0.01414186 -0.04151883
v -0.00072171 -0.01392058 -0.04339657
v 0.00011008 -0.01365177 -0.04371375
v 0.00632419 -0.00112760 -0.03322124
v 0.00503226 -0.00732330 -0.04097961
v 0.00310542 -0.00322070 -0.04483025
v 0.00486634 -0.00182421 -0.03988215
v 0.00151705 0.00046558 -0.04423394
v 0.00011008 0.00145067 -0.04371375
v -0.00520144 0.00025906 -0.05462496
v -0.00870559 0.00136380 -0.05056497
v -0.01174517 -0.00447459 -0.05100269
v -0.01004619 -0.00935903 -0.05466302
v -0.00654647 -0.01334690 -0.05323568
v 0.00151705 -0.01266669 -0.04423394
v -0.00034563 -0.01253720 -0.04845251
v 0.00248379 -0.00946557 -0.04561687
v -0.00170393 -0.00486797 -0.05466302
v 0.00264086 -0.00139641 -0.04465262
v -0.00047615 -0.00059162 -0.04923279
v -0.00690042 -0.00721840 -0.05709901
v -0.00849986 -0.00227167 -0.05585564
v -0.00272598 -0.01037362 -0.05477086
f 1 2 3
f 1 3 4
f 1 4 5
f 1 5 6
f 1 6 7
f 1 7 8
f 1 8 9
f 1 9 10
f 1 10 2
f 2 10 11
f 2 11 12
f 2 12 13
f 2 13 14
f 2 14 15
f 2 15 3
f 3 15 16
f 3 16 17
f 3 17 4
f 4 17 18
f 4 18 5
f 5 19 20
f 5 20 6
f 5 18 21
f 5 21 22
f 5 22 23
f 5 23 19
f 6 20 7
f 7 20 24
f 7 24 25
f 7 25 26
f 7 26 8
f 8 26 9
f 9 26 27
f 9 27 11
f 9 11 10
f 11 27 28
f 11 28 12
f 12 28 29
f 12 29 13
f 13 30 14
f 13 29 31
f 13 31 32
f 13 32 30
f 14 30 32
f 14 32 33
f 14 33 15
f 15 34 16
f 15 33 34
f 16 34 35
f 16 35 36
f 16 36 17
f 17 36 37
f 17 37 18
f 18 37 21
f 19 23 38
f 19 38 39
f 19 39 20
f 20 39 24
f 21 37 40
f 21 40 22
f 22 41 23
f 22 40 41
f 23 42 43
f 23 43 44
f 23 44 38
f 23 41 42
f 24 39 25
f 25 45 26
f 25 39 38
f 25 38 46
f 25 46 47
f 25 47 48
f 25 48 45
f 26 45 27
f 27 45 28
f 28 45 49
f 28 49 50
f 28 50 29
f 29 50 31
f 31 50 51
f 31 51 52
f 31 52 32
f 32 52 33
f 33 52 34
f 34 52 53
f 34 53 35
f 35 53 36
f 36 53 37
f 37 53 54
f 37 54 55
f 37 55 40
f 38 44 56
f 38 56 57
f 38 57 58
f 38 58 46
f 40 55 44
f 40 44 43
f 40 43 42
f 40 42 41
f 44 55 57
f 44 57 56
f 45 48 49
f 46 58 59
f 46 59 47
f 47 59 60
f 47 60 48
f 48 60 49
f 49 60 61
f 49 61 51
f 49 51 50
f 51 59 62
f 51 62 63
f 51 63 52
f 51 61 59
f 52 63 53
f 53 63 54
f 54 63 62
f 54 62 55
f 55 62 64
f 55 64 57
f 57 64 58
f 58 64 59
f 59 64 62
f 59 61 60
