# https://github.com/mikedh/trimesh
v 0.01150521 -0.00619318 -0.00112353
v 0.01043819 -0.00121596 -0.00236883
v 0.00414436 -0.00158269 0.00792607
v 0.00496323 -0.01052394 0.00793816
v 0.01037277 -0.01000029 -0.00528260
v 0.01020132 -0.01030902 -0.00978624
v 0.01090515 -0.00691298 -0.00913336
v 0.01118713 -0.00492414 -0.00580248
v 0.00712659 0.00122318 -0.00328165
v 0.01053745 -0.00289266 -0.00990714
v 0.00956066 -0.00185730 -0.01526919
v 0.00920198 -0.00054562 -0.01159978
v 0.00851169 0.00044197 -0.00680598
v 0.00085306 0.00265256 -0.00959279
v -0.00327064 0.00156262 -0.00750117
v -0.00315333 -0.00172596 0.00171769
v -0.00314882 -0.01044036 0.00172978
v -0.00296158 -0.01371018 -0.00755558
v 0.00063199 -0.01477283 -0.00834749
v 0.00575052 -0.01386881 -0.00301566
v 0.00900572 -0.01196014 -0.01033030
v 0.01017200 -0.00892912 -0.01399366
v 0.00914333 -0.01117040 -0.01524501
v 0.00858613 -0.01002929 -0.02497167
v 0.01044496 -0.00698121 -0.01355237
v 0.01041112 -0.00450625 -0.01341333
v 0.00612951 0.00090251 -0.02488703
v 0.00255398 0.00175877 -0.03410590
v 0.00963059 -0.00455742 -0.01997232
v 0.00771988 -0.00238266 -0.02999519
v 0.00791163 -0.00068720 -0.02301908
v 0.00811466 0.00016054 -0.01572258
v -0.00466250 0.00211185 -0.04541034
v -0.01015550 0.00112255 -0.04742337
v -0.01154060 -0.00279032 -0.04808834
v -0.01096761 -0.01172816 -0.04780422
v -0.00668149 -0.01408543 -0.04719970
v 0.00120498 -0.01475748 -0.01289949
v 0.00218627 -0.01379717 -0.03654209
v 0.00642728 -0.01276864 -0.02655550
v 0.00784170 -0.01206589 -0.02029272
v 0.00945689 -0.00817349 -0.02158638
v 0.00689875 -0.01132221 -0.03134326
v 0.00821392 -0.00754580 -0.03067225
v 0.00911175 -0.00612666 -0.02538878
v 0.00499932 -0.00120402 -0.03746096
v -0.00039442 0.00173830 -0.04213386
v 0.00590392 -0.00519705 -0.03744887
v -0.00244499 0.00103897 -0.04897698
v -0.00640176 0.00110720 -0.05031296
v -0.00888095 -0.00212851 -0.05222927
v -0.01106461 -0.00669636 -0.04966008
v -0.00883583 -0.01044377 -0.05213859
v -0.00375790 -0.01059046 -0.05273706
v -0.00078243 -0.01244114 -0.04788280
v -0.00154265 -0.01421336 -0.04230313
v 0.00396389 -0.00987407 -0.04055608
v 0.00114858 -0.00208245 -0.04625666
v 0.00243667 -0.00950735 -0.04414085
v 0.00361649 -0.00502478 -0.04229104
v -0.00348269 -0.00169185 -0.05252548
v -0.00632055 -0.00555184 -0.05381915
v -0.00094034 -0.00527893 -0.05131645
v -0.00042149 -0.00884554 -0.05013160
f 1 2 3
f 1 3 4
f 1 4 5
f 1 5 6
f 1 6 7
f 1 7 8
f 1 8 2
f 2 9 3
f 2 8 10
f 2 10 11
f 2 11 12
f 2 12 13
f 2 13 9
f 3 9 14
f 3 14 15
f 3 15 16
f 3 16 17
f 3 17 4
f 4 17 18
f 4 18 19
f 4 19 20
f 4 20 5
f 5 20 21
f 5 21 6
f 6 22 7
f 6 21 23
f 6 23 24
f 6 24 22
f 7 22 25
f 7 25 26
f 7 26 8
f 8 26 10
f 9 13 27
f 9 27 28
f 9 28 14
f 10 26 29
f 10 29 11
f 11 29 30
f 11 30 31
f 11 31 12
f 12 31 32
f 12 32 13
f 13 32 27
f 14 28 33
f 14 33 34
f 14 34 15
f 15 34 16
f 16 34 35
f 16 35 17
f 17 35 36
f 17 36 18
f 18 36 37
f 18 37 19
f 19 37 38
f 19 38 20
f 20 38 39
f 20 39 40
f 20 40 21
f 21 41 23
f 21 40 41
f 22 24 42
f 22 42 25
f 23 41 43
f 23 43 24
f 24 43 44
f 24 44 42
f 25 42 45
f 25 45 26
f 26 45 29
f 27 32 31
f 27 31 46
f 27 46 28
f 28 46 47
f 28 47 33
f 29 45 30
f 30 45 44
f 30 44 48
f 30 48 46
f 30 46 31
f 33 47 49
f 33 49 50
f 33 50 34
f 34 50 51
f 34 51 35
f 35 51 52
f 35 52 36
f 36 52 53
f 36 53 37
f 37 53 54
f 37 54 55
f 37 55 56
f 37 56 38
f 38 56 39
f 39 43 40
f 39 56 55
f 39 55 43
f 40 43 41
f 42 44 45
f 43 55 57
f 43 57 44
f 44 57 48
f 46 48 58
f 46 58 49
f 46 49 47
f 48 57 59
f 48 59 60
f 48 60 58
f 49 58 61
f 49 61 50
f 50 61 51
f 51 53 52
f 51 61 62
f 51 62 53
f 53 62 54
f 54 62 61
f 54 61 63
f 54 63 64
f 54 64 55
f 55 64 59
f 55 59 57
f 58 63 61
f 58 60 63
f 59 64 60
f 60 64 63
