# https://github.com/mikedh/trimesh
v 0.02844157 -0.01180864 -0.02621639
v 0.04090676 -0.00410033 -0.01523452
v 0.03346322 -0.01899514 -0.02184237
v 0.02805845 -0.01842242 -0.02386552
v 0.00552717 -0.01255953 -0.02384211
v 0.01474948 -0.01001413 -0.02487542
v 0.02831386 -0.00320096 -0.02598565
v 0.04085658 -0.01524280 -0.01507066
v 0.03360917 0.00093107 -0.02122037
v 0.03178934 0.00078047 -0.00397844
v 0.03526025 -0.00170129 -0.00060764
v 0.03670608 -0.00782721 0.00114130
v 0.02958638 -0.01979269 -0.01036558
v 0.02841877 -0.01974391 -0.01597356
v 0.00457392 -0.01920937 -0.02016365
v -0.00260508 -0.01708609 -0.02115015
v -0.00089015 -0.01165803 -0.02291246
v 0.00322843 -0.00670512 -0.02359800
v 0.00787607 -0.00709753 -0.02414976
v -0.00219459 -0.00354671 -0.02240083
v 0.02805389 0.00099046 -0.02335054
v 0.03520096 -0.01513038 0.00025847
v 0.02896609 -0.01912028 -0.00429279
v 0.02958638 0.00169257 -0.01046925
v 0.02821352 0.00165439 -0.01590333
v 0.02842333 -0.00038193 -0.00066449
v 0.02773462 0.00154621 -0.00593806
v 0.01189887 0.00166711 -0.00366410
v 0.01370502 -0.00005103 0.00173654
v 0.02181902 -0.00211492 0.00258593
v 0.02887943 -0.00634240 0.00301397
v 0.02357500 -0.00804569 0.00442516
v 0.02890679 -0.01379404 0.00231506
v 0.02206075 -0.01971421 -0.00554012
v 0.01608585 -0.01978633 -0.00482783
v 0.01077686 -0.01986693 -0.00495825
v 0.02444615 -0.01987542 -0.01193729
v -0.00040668 -0.01989027 -0.00485459
v -0.00568831 -0.01871090 -0.00141021
v -0.00562901 0.00001049 0.00041898
v -0.00198022 0.00095864 -0.01928417
v 0.00456936 0.00110925 -0.02016700
v 0.02151343 -0.01354163 0.00414760
v 0.01342680 -0.01548037 0.00459905
v 0.02118048 -0.01760790 0.00133191
v 0.01352258 -0.01854757 0.00094066
v 0.01091825 -0.01973542 -0.00302873
v 0.02463315 0.00176681 -0.01090398
v 0.02004935 0.00164378 -0.00526256
v -0.00099049 0.00177741 -0.00449008
v 0.00439604 0.00177954 -0.00466398
v 0.00563207 -0.00022708 0.00296381
v -0.00209881 -0.00070647 0.00431815
v 0.01383729 -0.00455002 0.00545512
v 0.01889086 -0.00656724 0.00508728
v 0.01097755 -0.01051048 0.00648175
v 0.00524894 -0.01987542 -0.00457369
v 0.00561382 -0.01864939 0.00168638
v -0.00215810 -0.01724518 0.00397037
v -0.00112276 -0.00966838 0.00794644
v -0.00076700 -0.00492758 0.00738464
v 0.00590573 -0.01397010 0.00618413
v -0.00065754 -0.01403586 0.00694657
v 0.00595134 -0.00626179 0.00690310
f 1 2 3
f 1 3 4
f 1 4 5
f 1 5 6
f 1 6 7
f 1 7 2
f 2 8 3
f 2 7 9
f 2 9 10
f 2 10 11
f 2 11 12
f 2 12 8
f 3 8 13
f 3 13 14
f 3 14 15
f 3 15 4
f 4 15 16
f 4 16 5
f 5 16 17
f 5 17 18
f 5 18 19
f 5 19 6
f 6 19 7
f 7 19 18
f 7 18 20
f 7 20 21
f 7 21 9
f 8 12 22
f 8 22 23
f 8 23 13
f 9 24 10
f 9 21 25
f 9 25 24
f 10 26 11
f 10 24 27
f 10 27 28
f 10 28 29
f 10 29 26
f 11 26 30
f 11 30 31
f 11 31 12
f 12 31 32
f 12 32 33
f 12 33 22
f 13 23 34
f 13 34 35
f 13 35 36
f 13 36 37
f 13 37 14
f 14 37 38
f 14 38 15
f 15 38 16
f 16 38 39
f 16 39 20
f 16 20 17
f 17 20 18
f 20 39 40
f 20 40 41
f 20 41 42
f 20 42 21
f 21 42 25
f 22 33 43
f 22 43 44
f 22 44 45
f 22 45 23
f 23 45 46
f 23 46 47
f 23 47 34
f 24 25 48
f 24 48 49
f 24 49 27
f 25 42 50
f 25 50 48
f 26 29 30
f 27 49 28
f 28 51 50
f 28 50 52
f 28 52 29
f 28 49 51
f 29 52 30
f 30 52 53
f 30 53 54
f 30 54 31
f 31 54 55
f 31 55 32
f 32 55 56
f 32 56 43
f 32 43 33
f 34 47 35
f 35 47 36
f 36 47 57
f 36 57 38
f 36 38 37
f 38 57 47
f 38 47 58
f 38 58 39
f 39 58 59
f 39 59 60
f 39 60 40
f 40 60 61
f 40 61 53
f 40 53 50
f 40 50 41
f 41 50 42
f 43 56 62
f 43 62 44
f 44 62 63
f 44 63 59
f 44 59 58
f 44 58 45
f 45 58 46
f 46 58 47
f 48 50 51
f 48 51 49
f 50 53 52
f 53 61 54
f 54 61 64
f 54 64 55
f 55 64 56
f 56 64 60
f 56 60 63
f 56 63 62
f 59 63 60
f 60 64 61
