# https://github.com/mikedh/trimesh
v 0.02870895 -0.00816130 -0.01771192
v 0.02731389 -0.00311863 -0.01658710
v 0.02000315 -0.00441345 -0.00468733
v 0.01641675 -0.00838700 0.00081674
v 0.01996867 -0.01089348 -0.00468390
v 0.02679349 -0.01236451 -0.01611385
v 0.02671511 -0.01206159 -0.02097663
v 0.02804121 -0.00568847 -0.02130242
v 0.02471187 0.00019167 -0.01840807
v 0.02176187 0.00158152 -0.01492730
v 0.01775852 0.00106478 -0.00519144
v 0.01328805 -0.00208120 0.00370423
v 0.01637599 -0.00421547 0.00055611
v 0.01404358 -0.01115878 0.00336816
v 0.01036626 -0.00485694 0.00879678
v 0.01036313 -0.00950759 0.00879335
v 0.00983959 -0.01386919 0.00750049
v 0.02158317 -0.01611433 -0.01331209
v 0.02289673 -0.01590447 -0.01860697
v 0.01800931 -0.01620343 -0.00680666
v 0.02117876 -0.01322178 -0.02483463
v 0.02545172 -0.00938484 -0.02381955
v 0.02441718 -0.00297807 -0.02376811
v 0.02090289 0.00043519 -0.02294507
v 0.01811904 0.00174782 -0.02018103
v 0.01739486 0.00241503 -0.01034915
v 0.01335389 0.00275358 -0.00644658
v 0.00766079 0.00228040 0.00219533
v 0.01085532 -0.00144765 0.00664316
v 0.00138772 -0.01144388 0.00883107
v 0.00118708 -0.00382940 0.00869047
v 0.00862636 -0.01648060 0.00452384
v 0.01654215 -0.01737747 -0.01134366
v 0.01882127 -0.01623114 -0.02088747
v 0.01638853 -0.01459579 -0.02421392
v 0.01613774 -0.01031537 -0.02595945
v 0.02065209 -0.00779503 -0.02620293
v 0.02019438 -0.00234848 -0.02583599
v 0.01623492 -0.00127738 -0.02489293
v 0.01199645 0.00108655 -0.01923454
v 0.01529443 0.00225070 -0.01686830
v 0.00881759 0.00273972 -0.00498911
v 0.01240086 0.00248234 -0.01331895
v -0.00331787 -0.00320377 -0.00105911
v 0.00386748 0.00241305 -0.00520516
v -0.00324263 -0.01269316 -0.00124772
v 0.00708709 -0.01720721 0.00082702
v 0.01169235 -0.01747251 -0.00573671
v 0.01239772 -0.01718147 -0.01331552
v 0.01529443 -0.01695181 -0.01686487
v 0.01176446 -0.01581934 -0.01900477
v 0.01260149 -0.00983823 -0.02309253
v 0.01610639 -0.00643289 -0.02601431
v 0.01294948 -0.00438771 -0.02345947
v 0.00208054 -0.00216831 -0.01129222
v 0.00722189 0.00205074 -0.01268452
v 0.00050052 0.00047280 -0.00796577
v 0.00939129 0.00253580 -0.00964271
v -0.00068450 -0.00435010 -0.00813381
v 0.00019957 -0.00800687 -0.00935808
v 0.00066667 -0.01322178 -0.00934436
v 0.00303671 -0.01693003 -0.00568184
v 0.00938815 -0.01723690 -0.00964614
v 0.00813730 -0.01673600 -0.01370303
f 1 2 3
f 1 3 4
f 1 4 5
f 1 5 6
f 1 6 7
f 1 7 8
f 1 8 2
f 2 8 9
f 2 9 10
f 2 10 11
f 2 11 3
f 3 11 12
f 3 12 13
f 3 13 4
f 4 14 5
f 4 13 15
f 4 15 16
f 4 16 14
f 5 14 17
f 5 17 6
f 6 18 19
f 6 19 7
f 6 17 20
f 6 20 18
f 7 21 22
f 7 22 8
f 7 19 21
f 8 22 23
f 8 23 9
f 9 23 24
f 9 24 25
f 9 25 10
f 10 25 26
f 10 26 11
f 11 26 27
f 11 27 28
f 11 28 29
f 11 29 12
f 12 29 15
f 12 15 13
f 14 16 17
f 15 30 16
f 15 29 31
f 15 31 30
f 16 30 17
f 17 30 32
f 17 32 20
f 18 33 19
f 18 20 33
f 19 33 34
f 19 34 21
f 20 32 33
f 21 34 35
f 21 35 36
f 21 36 37
f 21 37 22
f 22 37 23
f 23 37 38
f 23 38 24
f 24 38 39
f 24 39 25
f 25 39 40
f 25 40 41
f 25 41 26
f 26 41 27
f 27 42 28
f 27 41 43
f 27 43 42
f 28 44 31
f 28 31 29
f 28 42 45
f 28 45 44
f 30 31 46
f 30 46 47
f 30 47 32
f 31 44 46
f 32 47 48
f 32 48 33
f 33 49 50
f 33 50 34
f 33 48 49
f 34 50 51
f 34 51 35
f 35 51 52
f 35 52 36
f 36 53 37
f 36 52 53
f 37 53 38
f 38 53 39
f 39 53 54
f 39 54 55
f 39 55 40
f 40 56 41
f 40 55 57
f 40 57 56
f 41 56 43
f 42 43 58
f 42 58 45
f 43 56 58
f 44 45 57
f 44 57 59
f 44 59 46
f 45 58 56
f 45 56 57
f 46 59 60
f 46 60 61
f 46 61 62
f 46 62 47
f 47 62 48
f 48 62 63
f 48 63 49
f 49 63 64
f 49 64 50
f 50 64 51
f 51 64 61
f 51 61 52
f 52 60 54
f 52 54 53
f 52 61 60
f 54 60 55
f 55 60 59
f 55 59 57
f 61 64 62
f 62 64 63
