# https://github.com/mikedh/trimesh
v -0.00933262 0.00350352 -0.01212058
v -0.00855710 0.00509809 -0.01184051
v -0.00927150 0.00207432 -0.01209776
v -0.01043477 0.00300284 -0.00933237
v -0.01029569 0.00392833 -0.00927843
v -0.00989529 0.00476583 -0.00913321
v -0.00745916 0.00014899 -0.01144012
v -0.00855710 0.00090759 -0.01183844
v -0.01447883 0.00476431 0.00345314
v -0.01385505 0.00542884 0.00368134
v 0.00014427 0.01432721 -0.00867059
v 0.00243077 0.01544690 -0.00783869
v 0.00656123 0.00615861 -0.00633671
v -0.01447883 0.00123834 0.00345314
v -0.01487924 0.00207432 0.00330792
v -0.01496564 0.00335938 0.00327680
v -0.01385294 0.00392833 0.00048859
v -0.00658881 0.00000031 -0.01112272
v -0.00848756 0.00014899 -0.00862080
v -0.00927361 0.00057533 -0.00890709
v 0.00655913 0.00350352 -0.00633671
v 0.00655913 0.00000182 -0.00633256
v 0.00094718 0.00350200 0.00906897
v -0.00183667 0.01536194 0.00805659
v -0.00377967 0.01536194 0.00734709
v -0.00545925 0.01432569 0.00673509
v -0.00088203 0.01432721 -0.00585126
v 0.00092189 0.01496291 -0.00838637
v 0.00228958 0.01550000 -0.00629522
v 0.00377317 0.01536194 -0.00734909
v 0.00545697 0.01432721 -0.00673710
v -0.00275549 0.01536194 0.00452984
v 0.00605546 0.01349882 -0.00651927
v 0.00656334 0.01149915 -0.00633463
v -0.01346097 0.00036292 0.00382241
v -0.01219865 0.00000334 0.00428296
v -0.00761510 0.00000031 -0.00830546
v -0.00319593 0.00000031 -0.00988628
v -0.01243678 0.00036292 0.00100516
v 0.00094928 0.00000334 0.00906690
v 0.00572460 0.00000182 -0.00404432
v -0.00319593 0.00000031 -0.00653586
v -0.00015288 0.01432569 0.00866858
v 0.00094928 0.01125033 0.00906897
v -0.00265223 0.01549848 0.00727240
v -0.00093050 0.01496140 0.00838437
v 0.00467934 0.01496291 -0.00701924
v 0.00228958 0.01542718 -0.00469780
v 0.00177538 0.01550000 -0.00488451
v -0.00467952 0.01496140 0.00701723
v -0.00178609 0.01549848 0.00488459
v -0.00366166 0.01496140 0.00419998
v 0.00378581 0.01487340 -0.00415427
v 0.00035922 0.01478388 0.00566255
v 0.00064371 0.01432569 0.00648615
v 0.00489851 0.01412997 -0.00469366
v 0.00643058 0.01253388 -0.00638027
v 0.00089660 0.01371426 0.00722262
v 0.00044562 0.01349730 0.00888434
v 0.00109048 0.01303000 0.00778690
v 0.00568667 0.01326365 -0.00516873
v 0.00614397 0.01227747 -0.00544257
v 0.00124010 0.01163418 0.00822048
v 0.00082284 0.01253388 0.00902126
f 1 2 3
f 1 3 4
f 1 4 5
f 1 5 6
f 1 6 2
f 2 7 8
f 2 8 3
f 2 6 9
f 2 9 10
f 2 10 11
f 2 11 12
f 2 12 13
f 2 13 7
f 3 14 15
f 3 15 4
f 3 8 14
f 4 15 16
f 4 16 17
f 4 17 5
f 5 17 6
f 6 17 9
f 7 18 19
f 7 19 20
f 7 20 8
f 7 13 21
f 7 21 22
f 7 22 18
f 8 20 14
f 9 16 10
f 9 17 16
f 10 16 23
f 10 23 24
f 10 24 25
f 10 25 26
f 10 26 27
f 10 27 11
f 11 27 28
f 11 28 12
f 12 29 30
f 12 30 31
f 12 31 13
f 12 28 32
f 12 32 29
f 13 31 33
f 13 33 34
f 13 34 22
f 13 22 21
f 14 35 36
f 14 36 15
f 14 20 35
f 15 36 23
f 15 23 16
f 18 37 19
f 18 22 38
f 18 38 42
f 18 42 37
f 19 37 36
f 19 36 35
f 19 35 39
f 19 39 20
f 20 39 35
f 22 34 40
f 22 40 41
f 22 41 42
f 22 42 38
f 23 43 24
f 23 36 40
f 23 40 44
f 23 44 43
f 24 45 25
f 24 43 46
f 24 46 47
f 24 47 30
f 24 30 48
f 24 48 29
f 24 29 49
f 24 49 45
f 25 50 26
f 25 45 51
f 25 51 49
f 25 49 32
f 25 32 52
f 25 52 50
f 26 50 52
f 26 52 27
f 27 52 28
f 28 52 32
f 29 48 30
f 29 32 49
f 30 47 31
f 31 47 53
f 31 53 54
f 31 54 55
f 31 55 56
f 31 56 33
f 33 57 34
f 33 56 58
f 33 58 59
f 33 59 60
f 33 60 61
f 33 61 57
f 34 44 40
f 34 57 62
f 34 62 63
f 34 63 44
f 36 37 42
f 36 42 40
f 40 42 41
f 43 44 64
f 43 64 59
f 43 59 58
f 43 58 56
f 43 56 55
f 43 55 54
f 43 54 46
f 44 63 64
f 45 49 51
f 46 54 53
f 46 53 47
f 57 61 60
f 57 60 64
f 57 64 62
f 59 64 60
f 62 64 63
