# https://github.com/mikedh/trimesh
v 0.02560540 -0.00823671 -0.00097264
v 0.02546120 -0.01291399 -0.00184055
v 0.02470342 0.00160689 -0.00627827
v 0.02411130 -0.00101888 -0.00172335
v 0.02308047 -0.00549121 0.00103241
v 0.02062303 -0.00754881 0.00313248
v 0.02308047 -0.00960235 0.00103241
v 0.02488443 -0.01632303 -0.00523615
v 0.02189010 -0.01336853 0.00082969
v 0.02409289 0.00208375 -0.00972454
v 0.02103720 0.00192548 -0.00386460
v 0.01781278 0.00120917 0.00074416
v 0.01349616 0.00008500 0.00569819
v 0.01747223 -0.00162763 0.00416827
v 0.01756427 -0.00534917 0.00533075
v 0.01244385 -0.00677772 0.00922682
v 0.01753973 -0.00941566 0.00536560
v 0.01802140 -0.01466924 0.00273021
v 0.01226591 -0.01528408 0.00639505
v 0.01750905 -0.01688511 -0.00043099
v 0.01630948 -0.01724428 -0.00103916
v 0.02412357 -0.01715499 -0.00952182
v 0.01101111 -0.01313923 0.00911913
v 0.02291480 0.00103669 -0.01410841
v 0.01970878 0.00080333 -0.01714291
v 0.00008611 0.00253220 -0.00622442
v 0.00295772 0.00281426 -0.00199259
v 0.00130102 0.00262555 0.00623034
v 0.01567748 0.00215275 -0.00059571
v 0.00385970 0.00163733 0.00966078
v 0.00721604 0.00105292 0.00882138
v 0.00504700 -0.00176765 0.01268894
v 0.01187014 -0.00226074 0.00864083
v 0.00628338 -0.00828744 0.01351250
v 0.00624964 -0.01614243 0.00931868
v 0.00991892 -0.01717326 0.00400989
v 0.00921329 -0.01750604 0.00254649
v -0.00026671 -0.01757909 -0.00700680
v 0.01657946 -0.01583399 -0.01786511
v 0.02176124 -0.01566557 -0.01568901
v 0.00297919 -0.01791594 -0.00195775
v 0.00414808 -0.01209217 0.01337313
v 0.01472027 -0.01091524 -0.01863799
v 0.01465585 -0.00588487 -0.01867600
v 0.01534921 -0.00024170 -0.01814069
v -0.00104290 0.00079522 -0.01137800
v -0.00525521 0.00218521 -0.00021877
v -0.00573688 0.00223797 0.00477644
v 0.00568513 0.00216289 0.00633486
v 0.00981461 0.00211419 0.00379133
v -0.00470605 0.00207158 0.00870418
v -0.00026364 0.00211622 0.01042415
v 0.00124886 -0.00014024 0.01302470
v 0.00428614 -0.00629883 0.01367721
v 0.00016280 -0.01679177 0.01118119
v 0.00334735 -0.01764200 0.00568869
v -0.00103984 -0.01589892 -0.01136216
v -0.00525521 -0.01728892 -0.00026628
v -0.00128834 -0.01168227 -0.01297127
v -0.00564791 -0.01733356 0.00547963
v -0.00404644 -0.01706368 0.00985083
v -0.00130061 -0.00770912 -0.01300611
v -0.00129754 -0.00353507 -0.01297444
f 1 2 3
f 1 3 4
f 1 4 5
f 1 5 6
f 1 6 7
f 1 7 2
f 2 8 3
f 2 7 9
f 2 9 8
f 3 10 11
f 3 11 12
f 3 12 4
f 3 8 10
f 4 12 13
f 4 13 14
f 4 14 5
f 5 14 15
f 5 15 6
f 6 15 16
f 6 16 17
f 6 17 7
f 7 17 9
f 8 9 18
f 8 18 19
f 8 19 20
f 8 20 21
f 8 21 22
f 8 22 10
f 9 17 23
f 9 23 18
f 10 22 24
f 10 24 25
f 10 25 26
f 10 26 27
f 10 27 28
f 10 28 29
f 10 29 11
f 11 29 12
f 12 29 30
f 12 30 31
f 12 31 13
f 13 31 32
f 13 32 33
f 13 33 14
f 14 33 15
f 15 33 16
f 16 33 34
f 16 34 17
f 17 34 23
f 18 23 19
f 19 23 35
f 19 35 20
f 20 35 36
f 20 36 21
f 21 36 37
f 21 37 22
f 22 38 39
f 22 39 40
f 22 40 24
f 22 37 41
f 22 41 38
f 23 34 42
f 23 42 35
f 24 40 25
f 25 40 39
f 25 39 43
f 25 43 44
f 25 44 45
f 25 45 46
f 25 46 26
f 26 47 48
f 26 48 27
f 26 46 47
f 27 48 28
f 28 49 50
f 28 50 29
f 28 48 51
f 28 51 52
f 28 52 49
f 29 50 30
f 30 52 53
f 30 53 31
f 30 50 49
f 30 49 52
f 31 53 32
f 32 53 54
f 32 54 34
f 32 34 33
f 34 54 42
f 35 42 55
f 35 55 36
f 36 55 56
f 36 56 37
f 37 56 41
f 38 57 39
f 38 41 58
f 38 58 57
f 39 57 59
f 39 59 43
f 41 56 60
f 41 60 58
f 42 53 61
f 42 61 55
f 42 54 53
f 43 59 44
f 44 59 62
f 44 62 63
f 44 63 45
f 45 63 46
f 46 63 47
f 47 63 62
f 47 62 58
f 47 58 48
f 48 60 51
f 48 58 60
f 51 61 53
f 51 53 52
f 51 60 61
f 55 61 56
f 56 61 60
f 57 58 59
f 58 62 59
