# https://github.com/mikedh/trimesh
v 0.01152521 -0.00620331 -0.00176748
v 0.00530727 -0.00169969 0.00775912
v 0.00513455 -0.01048874 0.00788001
v 0.01041581 -0.01086205 -0.00236592
v 0.01113105 -0.00739144 -0.00695996
v 0.01075018 -0.00631070 -0.01156610
v 0.01006594 -0.00466574 -0.01750209
v 0.00999951 -0.00190254 -0.01114296
v 0.00981572 -0.00076386 -0.00610160
v -0.00309624 -0.00197414 0.00192589
v 0.00658053 0.00148795 -0.00286159
v -0.00026628 0.00255164 -0.00717153
v -0.00314717 -0.01037453 0.00171432
v -0.00265337 -0.01395935 -0.00766720
v 0.00116420 -0.01477416 -0.00869482
v 0.00662925 -0.01357752 -0.00257144
v 0.00802208 -0.01303033 -0.00565429
v 0.00881261 -0.01149617 -0.01811866
v 0.01026080 -0.01064897 -0.00825355
v 0.00913148 -0.00840569 -0.02536032
v 0.00989986 -0.00740337 -0.01966612
v 0.00866203 -0.00422083 -0.02945265
v 0.00704112 -0.00028486 -0.02951310
v 0.00769878 -0.00010246 -0.02271875
v -0.00390670 0.00095952 -0.00789086
v -0.01102367 -0.00267644 -0.04840308
v -0.01109674 -0.00890173 -0.04787719
v 0.00176872 0.00219537 -0.03315206
v 0.00121070 0.00264028 -0.01214035
v -0.00865651 0.00128681 -0.04756286
v -0.00826014 -0.01379400 -0.04739965
v -0.00153069 -0.01433096 -0.04252150
v 0.00127491 -0.01447415 -0.03350266
v 0.00465846 -0.01335932 -0.03439729
v 0.00730463 -0.01251383 -0.02168509
v 0.00740870 -0.01121491 -0.02997855
v 0.00628159 -0.00674879 -0.03737738
v 0.00610444 -0.00287759 -0.03708723
v 0.00395651 0.00087088 -0.03683334
v -0.00873180 -0.00107751 -0.05169145
v -0.01003606 -0.00607206 -0.05133481
v -0.00832878 -0.01008304 -0.05238660
v 0.00082097 0.00218003 -0.03686357
v -0.00212192 0.00188513 -0.04527792
v -0.00403956 0.00071917 -0.05101444
v -0.00449572 -0.01234848 -0.05177608
v -0.00072244 -0.01276952 -0.04794972
v -0.00009135 -0.01383662 -0.04340404
v 0.00130813 -0.01425425 -0.03718999
v 0.00287368 -0.01357752 -0.03802417
v 0.00214959 -0.01289908 -0.04185052
v 0.00470053 -0.01107001 -0.03894298
v 0.00229352 -0.00937050 -0.04530210
v 0.00419345 -0.00670618 -0.04201373
v 0.00142992 -0.00547203 -0.04781674
v -0.00050101 -0.00398389 -0.05133481
v 0.00292904 -0.00110137 -0.04277538
v -0.00040357 -0.00038372 -0.04868719
v 0.00006366 0.00180331 -0.04203187
v -0.00386684 -0.00336170 -0.05360765
v -0.00712860 -0.00545328 -0.05358952
v -0.00385134 -0.00764201 -0.05387362
v -0.00075344 -0.00898355 -0.05141944
f 1 2 3
f 1 3 4
f 1 4 5
f 1 5 6
f 1 6 7
f 1 7 8
f 1 8 9
f 1 9 2
f 2 10 3
f 2 9 11
f 2 11 12
f 2 12 10
f 3 10 13
f 3 13 14
f 3 14 15
f 3 15 16
f 3 16 4
f 4 16 17
f 4 17 18
f 4 18 19
f 4 19 5
f 5 19 20
f 5 20 21
f 5 21 6
f 6 21 7
f 7 21 22
f 7 22 8
f 8 22 23
f 8 23 24
f 8 24 9
f 9 24 11
f 10 12 25
f 10 25 26
f 10 26 27
f 10 27 13
f 11 24 28
f 11 28 29
f 11 29 12
f 12 29 30
f 12 30 25
f 13 27 14
f 14 27 31
f 14 31 15
f 15 31 32
f 15 32 33
f 15 33 16
f 16 33 34
f 16 34 17
f 17 34 35
f 17 35 18
f 18 35 36
f 18 36 20
f 18 20 19
f 20 36 37
f 20 37 22
f 20 22 21
f 22 37 38
f 22 38 23
f 23 38 39
f 23 39 24
f 24 39 28
f 25 30 26
f 26 30 40
f 26 40 41
f 26 41 27
f 27 41 42
f 27 42 31
f 28 39 43
f 28 43 29
f 29 43 44
f 29 44 30
f 30 44 45
f 30 45 40
f 31 42 46
f 31 46 32
f 32 46 47
f 32 47 48
f 32 48 49
f 32 49 33
f 33 49 34
f 34 36 35
f 34 49 50
f 34 50 51
f 34 51 52
f 34 52 36
f 36 52 37
f 37 52 53
f 37 53 54
f 37 54 38
f 38 54 55
f 38 55 56
f 38 56 57
f 38 57 39
f 39 57 58
f 39 58 59
f 39 59 43
f 40 60 61
f 40 61 41
f 40 45 60
f 41 61 42
f 42 61 62
f 42 62 46
f 43 59 44
f 44 59 58
f 44 58 45
f 45 58 56
f 45 56 60
f 46 62 63
f 46 63 47
f 47 63 53
f 47 53 52
f 47 52 51
f 47 51 48
f 48 51 50
f 48 50 49
f 53 63 55
f 53 55 54
f 55 63 56
f 56 58 57
f 56 63 62
f 56 62 60
f 60 62 61
