# https://github.com/mikedh/trimesh
v 0.01008920 -0.00606291 0.00320521
v 0.00872225 -0.00119568 0.00679073
v 0.00849245 -0.01220777 0.00665633
v 0.00888098 -0.01149282 -0.00211307
v 0.00937848 -0.00926441 -0.01782313
v 0.00986888 -0.00675372 -0.00922172
v 0.00930030 -0.00452716 -0.02168225
v 0.00853983 -0.00132938 -0.01312403
v 0.00364299 0.00139486 0.01108664
v 0.00442478 -0.01466460 0.01200342
v 0.00717526 0.00005409 -0.02263263
v 0.00340372 0.00227880 0.00076206
v 0.00386094 -0.01550212 0.00654594
v 0.00787413 -0.01287444 -0.01440561
v 0.00859906 -0.01020405 -0.02547896
v 0.00837163 -0.00252344 -0.02842130
v -0.00851976 0.00229365 0.01022266
v -0.00376743 0.00101788 0.01285300
v -0.00219437 -0.01521799 0.01317939
v 0.00328763 0.00123330 -0.03326439
v 0.00025997 0.00270405 -0.00854013
v -0.00286245 0.00283219 -0.00305865
v 0.00180934 0.00236608 -0.01591277
v -0.00114962 0.00282476 -0.01935910
v -0.00814308 -0.01612607 -0.00124429
v -0.00273925 -0.01613164 -0.00299625
v 0.00032868 -0.01599980 -0.00854013
v 0.00346768 -0.01557268 0.00112686
v 0.00655456 -0.01366367 -0.03119564
v -0.00708411 -0.01442691 0.01147543
v -0.00803410 0.00283404 -0.00951931
v -0.01250451 0.00122773 -0.00638018
v -0.01123707 0.00144314 0.00047407
v -0.01121812 -0.01419849 0.00613795
v -0.00743710 0.00192039 -0.02924688
v -0.00485719 0.00280990 -0.02387100
v 0.00106782 0.00236050 -0.02305502
v 0.00211495 -0.01402579 -0.03420997
v -0.00107144 -0.00027831 -0.03585634
v -0.00164001 0.00283590 -0.01985349
v -0.00359922 0.00283590 -0.01739114
v -0.01173694 -0.01532384 -0.00587619
v -0.00803410 -0.01613536 -0.00952411
v -0.00753897 -0.01613350 -0.01591277
v -0.00100036 -0.01600908 -0.02150465
v 0.00298439 -0.01561539 -0.00422983
v 0.00180934 -0.01566553 -0.01615757
v -0.00754134 0.00283219 -0.01590797
v -0.01239554 0.00085261 -0.01316243
v -0.01403730 -0.00345009 -0.00958171
v -0.01411311 -0.00826719 -0.00700897
v -0.01310152 -0.01380852 -0.00456582
v -0.00651553 -0.00128481 -0.03480036
v -0.00965454 -0.00349280 -0.02965967
v -0.01084380 -0.00122539 -0.02380860
v -0.00758635 -0.01498587 -0.02919408
v -0.00519597 -0.01261260 -0.03516035
v -0.01223444 -0.01430806 -0.01341203
v -0.00857425 -0.01517157 -0.02325661
v -0.01207098 -0.00081499 -0.01803433
v -0.01379565 -0.00744825 -0.01293204
v -0.01027523 -0.00902114 -0.02785971
v -0.01237895 -0.00842503 -0.01995428
f 1 2 3
f 1 3 4
f 1 4 5
f 1 5 6
f 1 6 7
f 1 7 8
f 1 8 2
f 2 9 10
f 2 10 3
f 2 8 11
f 2 11 12
f 2 12 9
f 3 10 13
f 3 13 14
f 3 14 4
f 4 14 5
f 5 14 15
f 5 15 7
f 5 7 6
f 7 15 16
f 7 16 8
f 8 16 11
f 9 12 17
f 9 17 18
f 9 18 10
f 10 18 19
f 10 19 13
f 11 16 20
f 11 20 12
f 12 21 22
f 12 22 17
f 12 20 23
f 12 23 24
f 12 24 21
f 13 25 26
f 13 26 27
f 13 27 28
f 13 28 29
f 13 29 14
f 13 19 25
f 14 29 15
f 15 29 16
f 16 29 20
f 17 30 18
f 17 22 31
f 17 31 32
f 17 32 33
f 17 33 34
f 17 34 30
f 18 30 19
f 19 30 25
f 20 35 36
f 20 36 37
f 20 37 23
f 20 29 38
f 20 38 39
f 20 39 35
f 21 24 22
f 22 24 40
f 22 40 41
f 22 41 31
f 23 37 24
f 24 37 40
f 25 30 34
f 25 34 42
f 25 42 43
f 25 43 26
f 26 43 44
f 26 44 45
f 26 45 27
f 27 46 28
f 27 45 47
f 27 47 46
f 28 46 29
f 29 46 47
f 29 47 45
f 29 45 38
f 31 41 48
f 31 48 32
f 32 48 49
f 32 49 50
f 32 50 33
f 33 50 51
f 33 51 34
f 34 51 52
f 34 52 42
f 35 39 53
f 35 53 54
f 35 54 55
f 35 55 49
f 35 49 48
f 35 48 36
f 36 48 40
f 36 40 37
f 38 56 57
f 38 57 39
f 38 45 56
f 39 57 53
f 40 48 41
f 42 52 58
f 42 58 59
f 42 59 44
f 42 44 43
f 44 59 56
f 44 56 45
f 49 55 60
f 49 60 50
f 50 61 51
f 50 60 61
f 51 61 52
f 52 61 58
f 53 57 54
f 54 62 63
f 54 63 55
f 54 57 62
f 55 63 60
f 56 59 58
f 56 58 62
f 56 62 57
f 58 63 62
f 58 61 63
f 60 63 61
