# https://github.com/mikedh/trimesh
v 0.01013975 -0.00820590 0.00583547
v 0.00973762 -0.00316501 0.00401224
v 0.00890482 -0.00665000 0.00940617
v 0.00407931 -0.01463001 0.01068007
v 0.00834327 -0.01260437 0.00480310
v 0.00980425 -0.00937003 -0.00234777
v 0.00913800 -0.00471905 -0.02189190
v 0.00958058 -0.00525563 -0.00966912
v 0.00392940 0.00220264 0.00562237
v 0.00458613 0.00116662 0.01115363
v 0.00871208 -0.00169267 -0.00334226
v -0.00073669 0.00092896 0.01334151
v -0.00090087 -0.01536711 0.01338414
v 0.00333930 -0.01559548 0.00088196
v 0.00815767 -0.01280675 -0.00083236
v 0.00815291 -0.01252267 -0.01023740
v 0.00843131 -0.01155535 -0.01976558
v 0.00882868 -0.00685980 -0.02788252
v 0.00622081 0.00045737 -0.02952107
v 0.00335596 0.00228991 0.00094826
v -0.00065817 0.00282835 -0.00951758
v -0.00194545 0.00283206 -0.00422783
v -0.00702318 0.00283206 -0.00195945
v -0.01102303 0.00168834 0.00555133
v 0.00659438 0.00033483 -0.02328892
v -0.00647591 0.00077300 0.01177401
v -0.00657822 -0.01389662 0.01156564
v -0.01231744 -0.01405258 0.00206114
v -0.00704222 -0.01613206 -0.00197365
v -0.00194783 -0.01613206 -0.00422783
v -0.00065817 -0.01612835 -0.00952232
v 0.00274920 -0.01562519 -0.00625944
v 0.00678473 -0.01375551 -0.01874741
v 0.00733439 -0.01330805 -0.02008287
v 0.00755805 -0.01243727 -0.02541050
v 0.00104551 -0.01414727 -0.03451246
v 0.00145716 0.00092525 -0.03443196
v -0.00042974 0.00263896 -0.02071745
v 0.00180218 0.00235675 -0.01492098
v 0.00274920 0.00232147 -0.00625470
v -0.00753952 0.00283391 -0.01590127
v -0.01177731 0.00162893 -0.01345293
v -0.01233648 0.00140056 -0.00855150
v -0.01244593 0.00102180 -0.00091286
v -0.01416865 -0.00529648 -0.00810161
v -0.01269102 -0.01448704 -0.00724919
v -0.01001652 -0.01541909 -0.01264313
v -0.00754190 -0.01613391 -0.01590127
v -0.00032267 -0.01593896 -0.02063694
v 0.00180218 -0.01565489 -0.01504411
v -0.00799637 -0.01490108 -0.02909012
v -0.00749907 -0.01185613 -0.03371214
v -0.00592388 -0.00035029 -0.03499550
v -0.00770132 0.00177375 -0.02892911
v -0.00854365 0.00223792 -0.02065115
v -0.00999987 -0.00259501 -0.02913748
v -0.01346672 -0.00342309 -0.01543244
v -0.01369038 -0.00878889 -0.01442847
v -0.01181776 -0.01293300 -0.01897472
v -0.00871497 -0.01501062 -0.02415555
v -0.01133235 -0.00903398 -0.02505059
v -0.00770370 -0.00511081 -0.03419044
v -0.01211995 -0.00505140 -0.02182086
f 1 2 3
f 1 3 4
f 1 4 5
f 1 5 6
f 1 6 7
f 1 7 8
f 1 8 2
f 2 9 10
f 2 10 3
f 2 8 7
f 2 7 11
f 2 11 9
f 3 10 12
f 3 12 13
f 3 13 4
f 4 13 14
f 4 14 5
f 5 14 15
f 5 15 16
f 5 16 6
f 6 16 17
f 6 17 18
f 6 18 7
f 7 18 19
f 7 19 11
f 9 20 21
f 9 21 22
f 9 22 23
f 9 23 24
f 9 24 12
f 9 12 10
f 9 11 25
f 9 25 19
f 9 19 20
f 11 19 25
f 12 26 13
f 12 24 26
f 13 26 27
f 13 27 28
f 13 28 29
f 13 29 30
f 13 30 14
f 14 30 31
f 14 31 32
f 14 32 33
f 14 33 15
f 15 33 34
f 15 34 16
f 16 34 17
f 17 34 35
f 17 35 18
f 18 35 36
f 18 36 37
f 18 37 19
f 19 37 38
f 19 38 39
f 19 39 40
f 19 40 20
f 20 40 21
f 21 40 39
f 21 39 38
f 21 38 41
f 21 41 22
f 22 41 23
f 23 41 24
f 24 28 27
f 24 27 26
f 24 41 42
f 24 42 43
f 24 43 44
f 24 44 28
f 28 44 45
f 28 45 46
f 28 46 29
f 29 46 47
f 29 47 48
f 29 48 30
f 30 48 31
f 31 48 49
f 31 49 32
f 32 49 50
f 32 50 33
f 33 50 49
f 33 49 36
f 33 36 35
f 33 35 34
f 36 51 52
f 36 52 53
f 36 53 37
f 36 49 51
f 37 53 54
f 37 54 38
f 38 54 41
f 41 54 55
f 41 55 42
f 42 55 54
f 42 54 56
f 42 56 57
f 42 57 43
f 43 45 44
f 43 57 45
f 45 57 58
f 45 58 46
f 46 58 59
f 46 59 51
f 46 51 60
f 46 60 47
f 47 60 51
f 47 51 48
f 48 51 49
f 51 59 61
f 51 61 52
f 52 61 56
f 52 56 62
f 52 62 53
f 53 62 56
f 53 56 54
f 56 61 63
f 56 63 57
f 57 63 58
f 58 63 61
f 58 61 59
