# https://github.com/mikedh/trimesh
v 0.00983761 -0.00763590 -0.00288708
v 0.00939927 -0.00657202 -0.00888773
v 0.00929570 -0.00480446 -0.00909349
v 0.00930534 -0.00421032 -0.00821780
v 0.00981593 -0.00307032 0.00241494
v 0.00969069 -0.01002358 0.00339112
v 0.00832269 -0.01019997 -0.01388348
v 0.00748454 -0.00876104 -0.02403770
v 0.00675960 -0.00575322 -0.02963160
v 0.00848646 -0.00459651 -0.01585977
v 0.00599852 -0.00075876 -0.02424346
v 0.00446433 0.00217665 0.00742026
v 0.00531693 0.00044994 0.01218154
v 0.00751585 -0.00020918 -0.00446141
v 0.00462329 -0.01539867 0.01029617
v 0.00790843 -0.01214205 -0.00810295
v 0.00734726 -0.01154235 -0.02018560
v 0.00545903 -0.01253010 -0.02740648
v 0.00284585 -0.01416026 -0.03248359
v -0.00081742 0.00067088 -0.03445988
v -0.00117869 0.00255912 -0.01911372
v 0.00623696 0.00013802 -0.01508936
v 0.00372012 0.00223049 0.00143397
v 0.00073363 0.00256841 -0.00693536
v -0.00317530 0.00282277 -0.00185347
v -0.00842815 0.00280421 -0.00069067
v -0.00553078 0.00073215 0.01227725
v 0.00027361 0.00074701 0.01348791
v 0.00038922 -0.01469499 0.01337306
v 0.00390075 -0.01553606 0.00338155
v 0.00537955 -0.01399131 -0.01741497
v 0.00606355 -0.01351600 -0.01767337
v -0.00317530 -0.01612092 -0.00185826
v 0.00681981 -0.01266192 -0.01885531
v -0.00260209 -0.01346030 -0.03539778
v 0.00328178 -0.01554349 -0.00176734
v 0.00073363 -0.01569017 -0.01481660
v -0.00191568 -0.01594639 -0.02088903
v -0.00962757 -0.01548593 -0.02357353
v -0.00876052 -0.00121179 -0.03427804
v -0.00973354 0.00193157 -0.02620539
v -0.00856062 0.00283391 -0.01530948
v -0.00317289 0.00283391 -0.00356658
v 0.00122495 0.00238645 -0.01187848
v -0.01238044 0.00055391 0.00247236
v -0.00977208 0.00099394 0.00921471
v -0.01248882 0.00119447 -0.01763509
v -0.00650139 -0.01413241 0.01177480
v -0.01083661 -0.01430508 0.00768345
v 0.00131648 -0.01575886 -0.00782541
v -0.01041273 -0.01522228 -0.00002552
v -0.00856062 -0.01613391 -0.01530469
v -0.01041995 -0.01434407 -0.02890425
v -0.00874607 -0.01192297 -0.03428761
v -0.01248641 -0.01466528 -0.01483574
v -0.01173738 -0.00945915 -0.02905259
v -0.01173497 -0.00363290 -0.02905259
v -0.01358708 -0.00051182 -0.00624151
v -0.01476722 -0.00447026 -0.00968207
v -0.01456491 -0.00850296 -0.00619365
v -0.01416270 -0.00426417 -0.01652970
v -0.01276579 -0.01474140 -0.00770578
v -0.01454083 -0.00879818 -0.01371600
v -0.01300664 -0.00524635 -0.02359267
f 1 2 3
f 1 3 4
f 1 4 5
f 1 5 6
f 1 6 7
f 1 7 2
f 2 7 8
f 2 8 9
f 2 9 10
f 2 10 3
f 3 10 4
f 4 10 11
f 4 11 5
f 5 12 13
f 5 13 6
f 5 11 14
f 5 14 12
f 6 13 15
f 6 15 16
f 6 16 17
f 6 17 7
f 7 17 8
f 8 17 18
f 8 18 9
f 9 19 20
f 9 20 11
f 9 11 10
f 9 18 19
f 11 20 21
f 11 21 22
f 11 22 14
f 12 14 22
f 12 22 23
f 12 23 24
f 12 24 25
f 12 25 26
f 12 26 27
f 12 27 28
f 12 28 13
f 13 28 29
f 13 29 15
f 15 30 31
f 15 31 32
f 15 32 16
f 15 29 33
f 15 33 30
f 16 32 34
f 16 34 17
f 17 34 18
f 18 34 19
f 19 35 20
f 19 34 32
f 19 32 31
f 19 31 36
f 19 36 37
f 19 37 38
f 19 38 39
f 19 39 35
f 20 35 40
f 20 40 41
f 20 41 21
f 21 42 43
f 21 43 24
f 21 24 44
f 21 44 22
f 21 41 42
f 22 44 23
f 23 44 24
f 24 43 25
f 25 43 26
f 26 45 46
f 26 46 27
f 26 43 42
f 26 42 47
f 26 47 45
f 27 29 28
f 27 46 48
f 27 48 29
f 29 48 49
f 29 49 33
f 30 33 50
f 30 50 36
f 30 36 31
f 33 49 51
f 33 51 52
f 33 52 38
f 33 38 50
f 35 39 53
f 35 53 54
f 35 54 40
f 36 50 37
f 37 50 38
f 38 52 39
f 39 52 55
f 39 55 53
f 40 54 56
f 40 56 57
f 40 57 41
f 41 57 47
f 41 47 42
f 45 49 46
f 45 47 58
f 45 58 59
f 45 59 60
f 45 60 49
f 46 49 48
f 47 57 61
f 47 61 59
f 47 59 58
f 49 60 62
f 49 62 51
f 51 62 52
f 52 62 55
f 53 56 54
f 53 55 63
f 53 63 56
f 55 62 63
f 56 64 57
f 56 63 64
f 57 64 61
f 59 61 63
f 59 63 60
f 60 63 62
f 61 64 63
