#usda 1.0
(
    defaultPrim = "Object"
    metersPerUnit = 1
    subLayers = [
        @./configuration/appearance.usda@
    ]
    upAxis = "Z"
)

def Xform "Object" (
    prepend apiSchemas = ["PhysicsRigidBodyAPI", "PhysicsMassAPI"]
)
{
    custom string crossEmbodiment:objectName = "YcbMediumClamp"
    float physics:mass = 0.059

    def Material "physicsMaterial" (
        apiSchemas = ["PhysicsMaterialAPI", "PhysxMaterialAPI"]
    )
    {
        float physics:dynamicFriction = 0.5
        float physics:restitution = 0
        float physics:staticFriction = 0.5
        token physxMaterial:frictionCombineMode = "max"
        token physxMaterial:restitutionCombineMode = "average"
    }

    def Mesh "hull0" (
        prepend apiSchemas = ["PhysicsCollisionAPI", "PhysicsMeshCollisionAPI", "MaterialBindingAPI"]
    )
    {
        int[] faceVertexCounts = [3, 3, 3, 3, 3, 3, 3, 3, 3, 3, 3, 3, 3, 3, 3, 3, 3, 3, 3, 3, 3, 3, 3, 3, 3, 3, 3, 3, 3, 3, 3, 3, 3, 3, 3, 3, 3, 3, 3, 3, 3, 3, 3, 3, 3, 3, 3, 3, 3, 3, 3, 3, 3, 3, 3, 3, 3, 3, 3, 3, 3, 3, 3, 3, 3, 3, 3, 3, 3, 3, 3, 3, 3, 3, 3, 3, 3, 3, 3, 3, 3, 3, 3, 3, 3, 3, 3, 3, 3, 3, 3, 3, 3, 3, 3, 3, 3, 3, 3, 3, 3, 3, 3, 3, 3, 3, 3, 3, 3, 3, 3, 3, 3, 3, 3, 3, 3, 3, 3, 3, 3, 3, 3, 3]
        int[] faceVertexIndices = [0, 1, 2, 0, 2, 3, 0, 3, 4, 0, 4, 5, 0, 5, 6, 0, 6, 7, 0, 7, 8, 0, 8, 1, 1, 8, 9, 1, 9, 10, 1, 10, 11, 1, 11, 12, 1, 12, 2, 2, 12, 13, 2, 13, 3, 3, 13, 14, 3, 14, 4, 4, 14, 15, 4, 15, 16, 4, 16, 5, 5, 17, 18, 5, 18, 6, 5, 16, 17, 6, 18, 7, 7, 18, 19, 7, 19, 20, 7, 20, 8, 8, 21, 9, 8, 20, 21, 9, 21, 22, 9, 22, 10, 10, 22, 23, 10, 23, 24, 10, 24, 11, 11, 24, 25, 11, 25, 12, 12, 25, 13, 13, 25, 26, 13, 26, 27, 13, 27, 14, 14, 27, 28, 14, 28, 15, 15, 28, 29, 15, 29, 16, 16, 29, 17, 17, 29, 30, 17, 30, 19, 17, 19, 18, 19, 30, 31, 19, 31, 32, 19, 32, 33, 19, 33, 20, 20, 33, 34, 20, 34, 35, 20, 35, 21, 21, 35, 34, 21, 34, 36, 21, 36, 22, 22, 36, 34, 22, 34, 37, 22, 37, 38, 22, 38, 39, 22, 39, 23, 23, 39, 40, 23, 40, 41, 23, 41, 42, 23, 42, 24, 24, 42, 43, 24, 43, 25, 25, 43, 26, 26, 43, 44, 26, 44, 45, 26, 45, 27, 27, 45, 28, 28, 45, 46, 28, 46, 47, 28, 47, 29, 29, 47, 48, 29, 48, 30, 30, 48, 49, 30, 49, 31, 31, 50, 51, 31, 51, 32, 31, 49, 50, 32, 34, 33, 32, 51, 52, 32, 52, 34, 34, 52, 53, 34, 53, 37, 37, 53, 54, 37, 54, 40, 37, 40, 38, 38, 40, 39, 40, 54, 55, 40, 55, 56, 40, 56, 41, 41, 57, 42, 41, 56, 55, 41, 55, 57, 42, 44, 43, 42, 57, 44, 44, 57, 45, 45, 58, 59, 45, 59, 60, 45, 60, 49, 45, 49, 47, 45, 47, 46, 45, 57, 58, 47, 49, 48, 49, 61, 50, 49, 60, 61, 50, 61, 51, 51, 61, 62, 51, 62, 52, 52, 63, 53, 52, 62, 60, 52, 60, 59, 52, 59, 63, 53, 63, 54, 54, 63, 58, 54, 58, 55, 55, 58, 57, 58, 63, 59, 60, 62, 61]
        rel material:binding:physics = </Object/physicsMaterial>
        uniform token physics:approximation = "convexHull"
        point3f[] points = [(-0.03192582, 0.045391, 0.04453595), (-0.032521453, 0.04480627, 0.039560836), (-0.034328714, 0.045243055, 0.043060236), (-0.033819623, 0.04509159, 0.04539232), (-0.032943998, 0.044482205, 0.047166232), (-0.03044438, 0.044397667, 0.04714839), (-0.029365117, 0.045024663, 0.045162935), (-0.027685128, 0.04470412, 0.042665184), (-0.028866211, 0.0447006, 0.04007058), (-0.030011654, 0.044320174, 0.038492918), (-0.033152718, 0.042900622, 0.036798015), (-0.034786887, 0.04403133, 0.038760535), (-0.034949798, 0.044795703, 0.040786773), (-0.036303967, 0.044792183, 0.04261166), (-0.037754864, 0.04371431, 0.046164583), (-0.035071976, 0.04250611, 0.04895799), (-0.032455273, 0.043133106, 0.048825454), (-0.029426206, 0.0422701, 0.048986025), (-0.02751204, 0.044101782, 0.045899518), (0.0129858125, 0.02002931, 0.047681075), (-0.026890952, 0.0439644, 0.04048857), (-0.027792037, 0.04385521, 0.038903262), (-0.028917117, 0.042675186, 0.036703713), (-0.03262836, 0.04124507, 0.035436995), (-0.03512798, 0.04287244, 0.03717013), (-0.0364516, 0.043823507, 0.03951241), (-0.03902249, 0.043175373, 0.041217506), (-0.038976673, 0.04367556, 0.043401767), (-0.034063987, 0.04056171, 0.049799066), (-0.031834185, 0.040174242, 0.05013805), (0.007645492, 0.016225057, 0.053043596), (0.009737838, 0.014421559, 0.05277343), (0.0129858125, 0.017757325, 0.04699547), (0.0129858125, 0.019518554, 0.045805212), (0.011820003, 0.016087681, 0.03304629), (-0.025251694, 0.04245679, 0.039237145), (-0.027247315, 0.04228419, 0.03720581), (0.006291322, 0.013572646, 0.028677775), (0.0040004314, 0.01489709, 0.028761884), (-0.03068874, 0.04078715, 0.035256036), (0.002193173, 0.014477918, 0.028654838), (-0.033885803, 0.038543344, 0.03511331), (-0.03598833, 0.041199274, 0.036257688), (-0.038355585, 0.042361688, 0.038643293), (-0.037586864, 0.041157007, 0.037384223), (-0.004995132, 0.00940558, 0.037728302), (-0.0039260495, 0.015770659, 0.053843893), (0.0010731824, 0.013474018, 0.054687522), (0.0029313492, 0.013572646, 0.05452695), (0.0064338665, 0.012987918, 0.05393055), (0.008572031, 0.013090069, 0.052365635), (0.009737838, 0.012984396, 0.04965634), (0.007533494, 0.009412625, 0.03070911), (0.007915308, 0.012121393, 0.028884223), (0.004937151, 0.010282671, 0.028744042), (-0.0063391207, 0.013488106, 0.029501015), (-0.000494805, 0.014636428, 0.028886769), (-0.03584579, 0.03932885, 0.035875376), (-0.005407492, 0.009655674, 0.030482274), (0.00065573177, 0.00940558, 0.030176427), (0.00083900295, 0.00940558, 0.037728302), (0.0069429534, 0.009412625, 0.036142994), (0.0074316757, 0.009412625, 0.032918856), (0.006708773, 0.009454894, 0.029042242)]
        uniform token subdivisionScheme = "none"
        token visibility = "invisible"
    }

    def Mesh "hull1" (
        prepend apiSchemas = ["PhysicsCollisionAPI", "PhysicsMeshCollisionAPI", "MaterialBindingAPI"]
    )
    {
        int[] faceVertexCounts = [3, 3, 3, 3, 3, 3, 3, 3, 3, 3, 3, 3, 3, 3, 3, 3, 3, 3, 3, 3, 3, 3, 3, 3, 3, 3, 3, 3, 3, 3, 3, 3, 3, 3, 3, 3, 3, 3, 3, 3, 3, 3, 3, 3, 3, 3, 3, 3, 3, 3, 3, 3, 3, 3, 3, 3, 3, 3, 3, 3, 3, 3, 3, 3, 3, 3, 3, 3, 3, 3, 3, 3, 3, 3, 3, 3, 3, 3, 3, 3, 3, 3, 3, 3, 3, 3, 3, 3, 3, 3, 3, 3, 3, 3, 3, 3, 3, 3, 3, 3, 3, 3, 3, 3, 3, 3, 3, 3, 3, 3, 3, 3, 3, 3, 3, 3, 3, 3, 3, 3, 3, 3, 3, 3]
        int[] faceVertexIndices = [0, 1, 2, 0, 2, 3, 0, 3, 4, 0, 4, 1, 1, 5, 2, 1, 4, 6, 1, 6, 7, 1, 7, 5, 2, 8, 9, 2, 9, 10, 2, 10, 3, 2, 5, 8, 3, 10, 6, 3, 6, 4, 5, 7, 11, 5, 11, 12, 5, 12, 13, 5, 13, 14, 5, 14, 15, 5, 15, 8, 6, 16, 17, 6, 17, 18, 6, 18, 19, 6, 19, 7, 6, 10, 16, 7, 19, 20, 7, 20, 41, 7, 41, 27, 7, 27, 26, 7, 26, 11, 8, 21, 9, 8, 15, 22, 8, 22, 21, 9, 21, 23, 9, 23, 24, 9, 24, 25, 9, 25, 10, 10, 25, 16, 11, 26, 12, 12, 26, 27, 12, 27, 28, 12, 28, 13, 13, 28, 29, 13, 29, 30, 13, 30, 14, 14, 30, 15, 15, 30, 31, 15, 31, 22, 16, 32, 17, 16, 25, 33, 16, 33, 32, 17, 32, 34, 17, 34, 35, 17, 35, 18, 18, 36, 19, 18, 35, 36, 19, 36, 37, 19, 37, 20, 20, 37, 38, 20, 38, 39, 20, 39, 40, 20, 40, 41, 21, 42, 23, 21, 22, 43, 21, 43, 42, 22, 31, 44, 22, 44, 30, 22, 30, 43, 23, 42, 45, 23, 45, 46, 23, 46, 24, 24, 47, 33, 24, 33, 25, 24, 46, 47, 27, 41, 48, 27, 48, 28, 28, 48, 49, 28, 49, 50, 28, 50, 51, 28, 51, 29, 29, 51, 50, 29, 50, 52, 29, 52, 43, 29, 43, 30, 30, 44, 31, 32, 33, 34, 33, 47, 53, 33, 53, 36, 33, 36, 34, 34, 36, 35, 36, 53, 37, 37, 53, 38, 38, 53, 39, 39, 53, 54, 39, 54, 55, 39, 55, 40, 40, 55, 56, 40, 56, 41, 41, 56, 57, 41, 57, 48, 42, 58, 45, 42, 43, 52, 42, 52, 58, 45, 58, 50, 45, 50, 59, 45, 59, 60, 45, 60, 46, 46, 60, 54, 46, 54, 47, 47, 54, 53, 48, 57, 61, 48, 61, 49, 49, 61, 59, 49, 59, 50, 50, 58, 52, 54, 62, 55, 54, 60, 62, 55, 62, 56, 56, 62, 60, 56, 60, 59, 56, 59, 63, 56, 63, 57, 57, 63, 61, 59, 61, 63]
        rel material:binding:physics = </Object/physicsMaterial>
        uniform token physics:approximation = "convexHull"
        point3f[] points = [(0.036193945, 0.009425423, 0.048742563), (0.033087596, 0.00037960295, 0.047866397), (0.04447243, 0.008344355, 0.04819046), (0.036519904, 0.013282598, 0.048044432), (0.03550442, 0.012028173, 0.04831048), (0.033087596, -0.0012407958, 0.04740831), (0.033022124, 0.021167893, 0.045349922), (0.032942727, 0.017373322, 0.04570799), (0.046234556, 0.009160574, 0.04773237), (0.04717342, 0.010595577, 0.047316294), (0.044494722, 0.0145370215, 0.04688021), (0.032942727, 0.016277807, 0.044525765), (0.03294551, 0.013386129, 0.036464244), (0.033087596, -0.0024711431, 0.0356901), (0.03331883, -0.0022448164, 0.037364416), (0.034342673, -0.00085556007, 0.0468302), (0.03837117, 0.019496933, 0.044833824), (0.034908224, 0.021273833, 0.04454577), (0.03317814, 0.022126168, 0.044195704), (0.03297198, 0.02150979, 0.039116748), (0.032942727, 0.020255366, 0.032475494), (0.04715253, 0.009931046, 0.04544394), (0.041984566, 0.0042078844, 0.045942035), (0.045968495, 0.008975179, 0.031093232), (0.04607018, 0.013545039, 0.045175888), (0.04581248, 0.013838782, 0.04659616), (0.032942727, 0.014823541, 0.03798453), (0.032942727, 0.015644575, 0.030943204), (0.033087596, -0.0023339023, 0.034081798), (0.040474575, 0.0022094736, 0.032639526), (0.040870182, 0.002430984, 0.034557886), (0.040506613, 0.0030690313, 0.045471944), (0.038184516, 0.01970159, 0.044423748), (0.041392554, 0.017994514, 0.04372962), (0.035983607, 0.020804327, 0.04427372), (0.034618482, 0.021476083, 0.044199705), (0.033796623, 0.021560352, 0.041875266), (0.034078006, 0.020447984, 0.03616019), (0.035076775, 0.01932117, 0.032859568), (0.03421452, 0.019453594, 0.031539317), (0.032990087, 0.019831607, 0.03123726), (0.032942727, 0.018466428, 0.03059914), (0.04585984, 0.008284162, 0.030017028), (0.044790033, 0.0062785274, 0.031637333), (0.04152767, 0.0037046704, 0.04464979), (0.045291506, 0.008907762, 0.02869278), (0.04462984, 0.011202324, 0.029858999), (0.04037707, 0.016511356, 0.032649525), (0.03329097, 0.010229602, 0.029690966), (0.03488733, 0.007296995, 0.029768981), (0.043575354, 0.0059486693, 0.029474927), (0.03797278, 0.00076965446, 0.032705538), (0.044799782, 0.0064205835, 0.030097045), (0.037701152, 0.018054707, 0.032907575), (0.03975998, 0.016508948, 0.030893195), (0.036030967, 0.018281033, 0.030853188), (0.042378783, 0.0121292975, 0.028306706), (0.03396378, 0.011214362, 0.02922488), (0.045184247, 0.007540175, 0.029106857), (0.043885987, 0.010049024, 0.02832271), (0.043671466, 0.011638122, 0.028484741), (0.034770317, 0.009642119, 0.029204875), (0.038390677, 0.01673046, 0.030365095), (0.04025309, 0.010848388, 0.028502744)]
        uniform token subdivisionScheme = "none"
        token visibility = "invisible"
    }

    def Mesh "hull2" (
        prepend apiSchemas = ["PhysicsCollisionAPI", "PhysicsMeshCollisionAPI", "MaterialBindingAPI"]
    )
    {
        int[] faceVertexCounts = [3, 3, 3, 3, 3, 3, 3, 3, 3, 3, 3, 3, 3, 3, 3, 3, 3, 3, 3, 3, 3, 3, 3, 3, 3, 3, 3, 3, 3, 3, 3, 3, 3, 3, 3, 3, 3, 3, 3, 3, 3, 3, 3, 3, 3, 3, 3, 3, 3, 3, 3, 3, 3, 3, 3, 3, 3, 3, 3, 3, 3, 3, 3, 3, 3, 3, 3, 3, 3, 3, 3, 3, 3, 3, 3, 3, 3, 3, 3, 3, 3, 3, 3, 3, 3, 3, 3, 3, 3, 3, 3, 3, 3, 3, 3, 3, 3, 3, 3, 3, 3, 3, 3, 3, 3, 3, 3, 3, 3, 3, 3, 3, 3, 3, 3, 3, 3, 3, 3, 3, 3, 3, 3, 3]
        int[] faceVertexIndices = [0, 1, 2, 0, 2, 3, 0, 3, 4, 0, 4, 5, 0, 5, 17, 0, 17, 18, 0, 18, 6, 0, 6, 7, 0, 7, 1, 1, 7, 8, 1, 8, 2, 2, 8, 3, 3, 8, 9, 3, 9, 10, 3, 10, 11, 3, 11, 12, 3, 12, 13, 3, 13, 4, 4, 13, 14, 4, 14, 15, 4, 15, 16, 4, 16, 17, 4, 17, 5, 6, 18, 19, 6, 19, 20, 6, 20, 7, 7, 20, 21, 7, 21, 22, 7, 22, 8, 8, 23, 24, 8, 24, 25, 8, 25, 26, 8, 26, 9, 8, 22, 27, 8, 27, 28, 8, 28, 23, 9, 26, 29, 9, 29, 30, 9, 30, 31, 9, 31, 32, 9, 32, 10, 10, 32, 11, 11, 32, 12, 12, 33, 13, 12, 32, 31, 12, 31, 34, 12, 34, 35, 12, 35, 36, 12, 36, 33, 13, 33, 14, 14, 33, 37, 14, 37, 15, 15, 38, 16, 15, 37, 39, 15, 39, 18, 15, 18, 38, 16, 38, 17, 17, 38, 18, 18, 39, 37, 18, 37, 19, 19, 40, 41, 19, 41, 42, 19, 42, 20, 19, 37, 40, 20, 42, 21, 21, 42, 43, 21, 43, 22, 22, 43, 44, 22, 44, 45, 22, 45, 27, 23, 46, 47, 23, 47, 48, 23, 48, 24, 23, 28, 46, 24, 48, 49, 24, 49, 25, 25, 49, 26, 26, 49, 50, 26, 50, 29, 27, 45, 28, 28, 45, 51, 28, 51, 52, 28, 52, 46, 29, 50, 30, 30, 50, 53, 30, 53, 47, 30, 47, 52, 30, 52, 54, 30, 54, 55, 30, 55, 56, 30, 56, 34, 30, 34, 31, 33, 36, 40, 33, 40, 37, 34, 56, 35, 35, 56, 36, 36, 56, 57, 36, 57, 58, 36, 58, 40, 40, 59, 60, 40, 60, 41, 40, 58, 59, 41, 60, 43, 41, 43, 42, 43, 60, 44, 44, 60, 61, 44, 61, 54, 44, 54, 51, 44, 51, 45, 46, 52, 47, 47, 53, 49, 47, 49, 48, 49, 53, 50, 51, 54, 52, 54, 61, 55, 55, 61, 62, 55, 62, 56, 56, 62, 57, 57, 63, 58, 57, 62, 63, 58, 63, 59, 59, 63, 60, 60, 63, 61, 61, 63, 62]
        rel material:binding:physics = </Object/physicsMaterial>
        uniform token physics:approximation = "convexHull"
        point3f[] points = [(0.0016180819, 0.003098952, 0.048168935), (0.0016180819, -0.0021444703, 0.051136177), (0.0016180819, -0.0021444703, 0.048168935), (-0.003924263, -0.0021512317, 0.03614359), (-0.007951512, -0.0015122844, 0.036800776), (-0.0033671896, 0.003098952, 0.048168935), (-0.0010253544, 0.003098952, 0.056144264), (0.0015471184, 0.001455945, 0.05534455), (0.0016109865, -0.006492014, 0.049584262), (-0.003924263, -0.00933854, 0.038804013), (-0.0043677925, -0.0060221, 0.03690173), (-0.007837969, -0.0076110153, 0.037129372), (-0.027548423, -0.02238455, 0.040421247), (-0.014955731, -0.008527178, 0.03806171), (-0.012312295, -0.005525142, 0.038035974), (-0.010736878, -0.0032972791, 0.051371735), (-0.0073625045, -0.00021072627, 0.050492845), (-0.003601374, 0.003098952, 0.051500402), (-0.0033210632, 0.003098952, 0.055912662), (-0.029617047, -0.023425799, 0.05619375), (-0.027580356, -0.024450142, 0.056365963), (-0.026409438, -0.026556296, 0.055744406), (-0.024738219, -0.027888283, 0.05444389), (-0.013554178, -0.021221599, 0.046715997), (-0.007880547, -0.015866615, 0.04494832), (-0.0039278115, -0.012032934, 0.043978374), (-0.0042081224, -0.011319612, 0.040904243), (-0.022935716, -0.028236493, 0.052587137), (-0.022105427, -0.028561037, 0.050330527), (-0.0065499586, -0.012208728, 0.039710615), (-0.024450812, -0.029118847, 0.043697286), (-0.021722218, -0.022607675, 0.040454898), (-0.008753412, -0.009865924, 0.037606426), (-0.020253247, -0.013953156, 0.039285026), (-0.027023284, -0.027513029, 0.0416802), (-0.029883165, -0.025193889, 0.041201163), (-0.032913357, -0.028202685, 0.042911433), (-0.0199481, -0.012688784, 0.05313941), (-0.008952115, -0.0016576536, 0.051419243), (-0.016914358, -0.009581947, 0.05286822), (-0.03461296, -0.029311547, 0.05172606), (-0.033363983, -0.02817902, 0.05447556), (-0.03043314, -0.026258798, 0.055991843), (-0.029819297, -0.02912899, 0.0543944), (-0.027747126, -0.030518446, 0.052252606), (-0.025554314, -0.029903162, 0.052363455), (-0.019536505, -0.026637435, 0.04757905), (-0.01799657, -0.024964001, 0.04509876), (-0.012695504, -0.020156689, 0.044512834), (-0.0057941843, -0.013260118, 0.041769274), (-0.013479665, -0.019696916, 0.04217111), (-0.023978896, -0.030072195, 0.049055744), (-0.022499282, -0.029024187, 0.046537843), (-0.01701016, -0.023206053, 0.043182623), (-0.025124978, -0.030687481, 0.0470921), (-0.027353272, -0.030849751, 0.045435272), (-0.029599305, -0.028875437, 0.042414583), (-0.03226403, -0.030014727, 0.04433468), (-0.03427943, -0.029815268, 0.04540756), (-0.034630705, -0.03034265, 0.048887488), (-0.031274073, -0.030883558, 0.051187642), (-0.029003201, -0.03143799, 0.04799672), (-0.029599305, -0.030822704, 0.045080945), (-0.032739494, -0.03094779, 0.04731182)]
        uniform token subdivisionScheme = "none"
        token visibility = "invisible"
    }

    def Mesh "hull3" (
        prepend apiSchemas = ["PhysicsCollisionAPI", "PhysicsMeshCollisionAPI", "MaterialBindingAPI"]
    )
    {
        int[] faceVertexCounts = [3, 3, 3, 3, 3, 3, 3, 3, 3, 3, 3, 3, 3, 3, 3, 3, 3, 3, 3, 3, 3, 3, 3, 3, 3, 3, 3, 3, 3, 3, 3, 3, 3, 3, 3, 3, 3, 3, 3, 3, 3, 3, 3, 3, 3, 3, 3, 3, 3, 3, 3, 3, 3, 3, 3, 3, 3, 3, 3, 3, 3, 3, 3, 3, 3, 3, 3, 3, 3, 3, 3, 3, 3, 3, 3, 3, 3, 3, 3, 3, 3, 3, 3, 3, 3, 3, 3, 3, 3, 3, 3, 3, 3, 3, 3, 3, 3, 3, 3, 3, 3, 3, 3, 3, 3, 3, 3, 3, 3, 3, 3, 3, 3, 3, 3, 3, 3, 3, 3, 3, 3, 3, 3, 3]
        int[] faceVertexIndices = [0, 1, 2, 0, 2, 3, 0, 3, 4, 0, 4, 5, 0, 5, 6, 0, 6, 7, 0, 7, 1, 1, 7, 8, 1, 8, 2, 2, 8, 9, 2, 9, 10, 2, 10, 11, 2, 11, 3, 3, 11, 12, 3, 12, 4, 4, 13, 5, 4, 12, 13, 5, 13, 14, 5, 14, 15, 5, 15, 16, 5, 16, 6, 6, 16, 17, 6, 17, 18, 6, 18, 19, 6, 19, 20, 6, 20, 34, 6, 34, 57, 6, 57, 35, 6, 35, 21, 6, 21, 7, 7, 21, 22, 7, 22, 23, 7, 23, 9, 7, 9, 8, 9, 23, 24, 9, 24, 10, 10, 24, 25, 10, 25, 11, 11, 25, 26, 11, 26, 27, 11, 27, 49, 11, 49, 62, 11, 62, 50, 11, 50, 28, 11, 28, 12, 12, 28, 29, 12, 29, 30, 12, 30, 18, 12, 18, 31, 12, 31, 14, 12, 14, 13, 14, 31, 15, 15, 31, 17, 15, 17, 16, 17, 31, 18, 18, 30, 32, 18, 32, 19, 19, 33, 20, 19, 32, 33, 20, 33, 34, 21, 35, 36, 21, 36, 37, 21, 37, 38, 21, 38, 39, 21, 39, 22, 22, 39, 40, 22, 40, 41, 22, 41, 23, 23, 41, 24, 24, 41, 25, 25, 42, 43, 25, 43, 44, 25, 44, 26, 25, 41, 42, 26, 44, 27, 27, 44, 43, 27, 43, 40, 27, 40, 38, 27, 38, 37, 27, 37, 45, 27, 45, 46, 27, 46, 47, 27, 47, 48, 27, 48, 49, 28, 50, 51, 28, 51, 52, 28, 52, 29, 29, 52, 30, 30, 52, 53, 30, 53, 32, 32, 54, 33, 32, 53, 55, 32, 55, 54, 33, 56, 35, 33, 35, 57, 33, 57, 34, 33, 54, 56, 35, 56, 58, 35, 58, 36, 36, 58, 37, 37, 58, 46, 37, 46, 45, 38, 40, 39, 40, 43, 42, 40, 42, 41, 46, 58, 59, 46, 59, 47, 47, 59, 60, 47, 60, 61, 47, 61, 48, 48, 61, 51, 48, 51, 50, 48, 50, 62, 48, 62, 49, 51, 61, 53, 51, 53, 52, 53, 61, 55, 54, 63, 56, 54, 55, 63, 55, 61, 60, 55, 60, 59, 55, 59, 63, 56, 63, 58, 58, 63, 59]
        rel material:binding:physics = </Object/physicsMaterial>
        uniform token physics:approximation = "convexHull"
        point3f[] points = [(0.0098267635, 0.01298086, 0.048799913), (0.009682879, 0.01298086, 0.04974602), (0.008549589, 0.009535187, 0.054154314), (0.008869691, 0.009405336, 0.044876277), (0.008826041, 0.009405336, 0.043888923), (0.009699046, 0.012964629, 0.047083), (0.0008445107, 0.014947166, 0.037727624), (0.0006618262, 0.014918181, 0.0540976), (0.0069232127, 0.012788403, 0.053747), (0.006182775, 0.012713043, 0.054280635), (0.0049541015, 0.009525912, 0.05500246), (0.001615665, 0.003102954, 0.055840295), (0.001426514, 0.003173676, 0.030047916), (0.008468755, 0.009405336, 0.042092092), (0.0069587794, 0.009641849, 0.036139607), (0.006745378, 0.011052813, 0.036139607), (0.005658972, 0.01298086, 0.036139607), (0.0011823958, 0.009350846, 0.030254152), (-0.0041267686, 0.009404177, 0.029885506), (-0.0022336405, 0.014879922, 0.0380344), (-0.0028528273, 0.014947166, 0.041194968), (-0.0037048154, 0.014947166, 0.050658617), (-0.00088048284, 0.013499102, 0.05480396), (0.00048884185, 0.013965172, 0.05463897), (0.0030270233, 0.012166976, 0.054919966), (0.001615665, 0.0069787567, 0.055773266), (-0.0005102639, 0.003134257, 0.056116134), (-0.0036013483, 0.003102954, 0.05567015), (-0.004328853, 0.003102954, 0.033218794), (-0.001737321, 0.003233964, 0.030267041), (-0.0042561023, 0.0056814123, 0.03020775), (0.001615665, 0.008274942, 0.030225795), (-0.0050337235, 0.009328817, 0.030027293), (-0.0034315975, 0.013999954, 0.037727624), (-0.0030791617, 0.014947166, 0.04222099), (-0.0040362347, 0.014947166, 0.049276836), (-0.0060522296, 0.009965316, 0.046301883), (-0.006200964, 0.008946222, 0.046667952), (-0.003674099, 0.009949085, 0.054577097), (-0.0027331938, 0.012135672, 0.054832317), (-0.0031971796, 0.009746194, 0.055417508), (0.0005551256, 0.011418018, 0.055296347), (-0.0001966286, 0.009368236, 0.05559023), (-0.0025585922, 0.0032362826, 0.056221828), (-0.0014350028, 0.0031644013, 0.056190893), (-0.005997263, 0.0078981435, 0.046825208), (-0.0065307654, 0.0076639494, 0.041911636), (-0.006312514, 0.0060071973, 0.03990599), (-0.0057725445, 0.0045255115, 0.039818343), (-0.004598838, 0.003102954, 0.036650043), (-0.004529321, 0.003102954, 0.034708846), (-0.004690988, 0.0041985665, 0.031084253), (-0.0036352992, 0.003275701, 0.030643422), (-0.0050482736, 0.0067097805, 0.030326335), (-0.005785478, 0.009095782, 0.03077232), (-0.005756378, 0.007863362, 0.030870281), (-0.005660994, 0.011045857, 0.03860155), (-0.0032472964, 0.014947166, 0.043285683), (-0.0066374666, 0.008691159, 0.04191937), (-0.006563099, 0.0069625257, 0.039877634), (-0.0056545273, 0.0067874594, 0.03132658), (-0.0053101755, 0.005603734, 0.031027537), (-0.0046004546, 0.003102954, 0.03573745), (-0.0066892, 0.008490587, 0.039343998)]
        uniform token subdivisionScheme = "none"
        token visibility = "invisible"
    }

    def Mesh "hull4" (
        prepend apiSchemas = ["PhysicsCollisionAPI", "PhysicsMeshCollisionAPI", "MaterialBindingAPI"]
    )
    {
        int[] faceVertexCounts = [3, 3, 3, 3, 3, 3, 3, 3, 3, 3, 3, 3, 3, 3, 3, 3, 3, 3, 3, 3, 3, 3, 3, 3, 3, 3, 3, 3, 3, 3, 3, 3, 3, 3, 3, 3, 3, 3, 3, 3, 3, 3, 3, 3, 3, 3, 3, 3, 3, 3, 3, 3, 3, 3, 3, 3, 3, 3, 3, 3, 3, 3, 3, 3, 3, 3, 3, 3, 3, 3, 3, 3, 3, 3, 3, 3, 3, 3, 3, 3, 3, 3, 3, 3, 3, 3, 3, 3, 3, 3, 3, 3, 3, 3, 3, 3, 3, 3, 3, 3, 3, 3, 3, 3, 3, 3, 3, 3, 3, 3, 3, 3, 3, 3, 3, 3, 3, 3, 3, 3, 3, 3, 3, 3]
        int[] faceVertexIndices = [0, 1, 2, 0, 2, 3, 0, 3, 4, 0, 4, 5, 0, 5, 6, 0, 6, 7, 0, 7, 8, 0, 8, 9, 0, 9, 10, 0, 10, 11, 0, 11, 1, 1, 12, 13, 1, 13, 2, 1, 11, 14, 1, 14, 15, 1, 15, 12, 2, 13, 12, 2, 12, 33, 2, 33, 37, 2, 37, 16, 2, 16, 3, 3, 16, 4, 4, 17, 5, 4, 16, 17, 5, 18, 19, 5, 19, 20, 5, 20, 6, 5, 17, 21, 5, 21, 18, 6, 20, 22, 6, 22, 7, 7, 22, 8, 8, 22, 23, 8, 23, 24, 8, 24, 25, 8, 25, 9, 9, 25, 26, 9, 26, 27, 9, 27, 28, 9, 28, 10, 10, 28, 29, 10, 29, 11, 11, 29, 14, 12, 15, 30, 12, 30, 31, 12, 31, 32, 12, 32, 33, 14, 29, 34, 14, 34, 35, 14, 35, 36, 14, 36, 15, 15, 36, 30, 16, 37, 17, 17, 37, 38, 17, 38, 21, 18, 39, 19, 18, 21, 38, 18, 38, 39, 19, 39, 40, 19, 40, 41, 19, 41, 20, 20, 41, 42, 20, 42, 22, 22, 42, 43, 22, 43, 44, 22, 44, 23, 23, 44, 24, 24, 44, 26, 24, 26, 25, 26, 45, 27, 26, 44, 43, 26, 43, 45, 27, 45, 46, 27, 46, 47, 27, 47, 35, 27, 35, 34, 27, 34, 28, 28, 34, 29, 30, 36, 48, 30, 48, 31, 31, 48, 49, 31, 49, 32, 32, 49, 50, 32, 50, 51, 32, 51, 33, 33, 51, 37, 35, 47, 48, 35, 48, 36, 37, 51, 52, 37, 52, 38, 38, 52, 53, 38, 53, 39, 39, 53, 54, 39, 54, 40, 40, 54, 41, 41, 54, 55, 41, 55, 56, 41, 56, 42, 42, 57, 46, 42, 46, 43, 42, 56, 55, 42, 55, 57, 43, 46, 45, 46, 57, 47, 47, 57, 58, 47, 58, 48, 48, 58, 59, 48, 59, 49, 49, 60, 61, 49, 61, 50, 49, 59, 62, 49, 62, 60, 50, 61, 51, 51, 61, 63, 51, 63, 52, 52, 63, 53, 53, 63, 61, 53, 61, 54, 54, 61, 62, 54, 62, 58, 54, 58, 55, 55, 58, 57, 58, 62, 59, 60, 62, 61]
        rel material:binding:physics = </Object/physicsMaterial>
        uniform token physics:approximation = "convexHull"
        point3f[] points = [(0.0015537776, 0.01608461, 0.029323293), (0.0008468454, 0.01608461, 0.044192407), (0.0008437035, 0.021166023, 0.033523574), (0.0008437035, 0.02324243, 0.03458362), (0.008927864, 0.026013004, 0.03309994), (0.016327085, 0.027089264, 0.032226067), (0.01865525, 0.026431633, 0.031697944), (0.021649498, 0.025102673, 0.031063437), (0.024002798, 0.024253234, 0.031015944), (0.032935277, 0.018473087, 0.030599905), (0.032935277, 0.015567029, 0.030998847), (0.02817527, 0.013056768, 0.03206459), (0.0008437035, 0.020719992, 0.04873084), (0.0008437035, 0.020139998, 0.045089073), (0.029708523, 0.01462473, 0.045818567), (0.012987225, 0.017882437, 0.04783987), (0.0008437035, 0.024059901, 0.03599511), (0.010913558, 0.026796985, 0.033128433), (0.015340524, 0.02760989, 0.0340403), (0.017737808, 0.027468316, 0.03415998), (0.02053726, 0.026600609, 0.032499626), (0.014212574, 0.027211048, 0.032761786), (0.023085358, 0.025495423, 0.031889815), (0.028084153, 0.022800965, 0.03164665), (0.031078404, 0.021079252, 0.031488974), (0.032328885, 0.019806616, 0.030926656), (0.032866154, 0.020304404, 0.032503426), (0.03294156, 0.021408066, 0.03871361), (0.03294156, 0.015305195, 0.038438153), (0.032935277, 0.013394717, 0.03646814), (0.0070175766, 0.02014913, 0.0483129), (0.0026377407, 0.021796253, 0.04845538), (0.00091596803, 0.023035398, 0.048081134), (0.0008437035, 0.024629239, 0.045991443), (0.03294156, 0.016282506, 0.044528656), (0.03294156, 0.017378557, 0.045710284), (0.0149415, 0.018821692, 0.047733486), (0.0008437035, 0.024732755, 0.04064563), (0.0128772585, 0.027535297, 0.034393646), (0.016374215, 0.02817466, 0.038970076), (0.01826251, 0.02800873, 0.03897957), (0.019676374, 0.0273511, 0.034969263), (0.023789147, 0.026504703, 0.03905936), (0.0253821, 0.024699265, 0.03321012), (0.02556119, 0.024365883, 0.032159574), (0.03246399, 0.020875266, 0.034108687), (0.02876909, 0.024610972, 0.04363959), (0.032322604, 0.021930214, 0.045144167), (0.02564288, 0.025079839, 0.04573498), (0.01337054, 0.026755882, 0.04660505), (0.010904132, 0.026524495, 0.046705738), (0.011519949, 0.027975239, 0.045432925), (0.0121451905, 0.028150303, 0.042811308), (0.016016036, 0.028608514, 0.043595895), (0.019676374, 0.028431928, 0.043945443), (0.021049391, 0.028106157, 0.043385025), (0.021819163, 0.027130367, 0.03839636), (0.026337245, 0.025996258, 0.044555254), (0.024832264, 0.02653515, 0.045117572), (0.022642346, 0.027032942, 0.045493715), (0.017521016, 0.027978282, 0.045636192), (0.013942368, 0.02806201, 0.045776773), (0.019541271, 0.02796915, 0.045493715), (0.012632188, 0.028269043, 0.044431772)]
        uniform token subdivisionScheme = "none"
        token visibility = "invisible"
    }

    def Mesh "hull5" (
        prepend apiSchemas = ["PhysicsCollisionAPI", "PhysicsMeshCollisionAPI", "MaterialBindingAPI"]
    )
    {
        int[] faceVertexCounts = [3, 3, 3, 3, 3, 3, 3, 3, 3, 3, 3, 3, 3, 3, 3, 3, 3, 3, 3, 3, 3, 3, 3, 3, 3, 3, 3, 3, 3, 3, 3, 3, 3, 3, 3, 3, 3, 3, 3, 3, 3, 3, 3, 3, 3, 3, 3, 3, 3, 3, 3, 3, 3, 3, 3, 3, 3, 3, 3, 3, 3, 3, 3, 3, 3, 3, 3, 3, 3, 3, 3, 3, 3, 3, 3, 3, 3, 3, 3, 3, 3, 3, 3, 3, 3, 3, 3, 3, 3, 3, 3, 3, 3, 3, 3, 3, 3, 3, 3, 3, 3, 3, 3, 3, 3, 3, 3, 3, 3, 3, 3, 3, 3, 3, 3, 3, 3, 3, 3, 3, 3, 3, 3, 3]
        int[] faceVertexIndices = [0, 1, 2, 0, 2, 3, 0, 3, 4, 0, 4, 5, 0, 5, 6, 0, 6, 7, 0, 7, 8, 0, 8, 9, 0, 9, 1, 1, 10, 11, 1, 11, 2, 1, 9, 12, 1, 12, 10, 2, 11, 13, 2, 13, 3, 3, 13, 14, 3, 14, 15, 3, 15, 16, 3, 16, 4, 4, 17, 5, 4, 16, 33, 4, 33, 21, 4, 21, 20, 4, 20, 17, 5, 18, 19, 5, 19, 6, 5, 17, 20, 5, 20, 21, 5, 21, 22, 5, 22, 18, 6, 19, 18, 6, 18, 34, 6, 34, 23, 6, 23, 9, 6, 9, 8, 6, 8, 7, 9, 23, 24, 9, 24, 12, 10, 12, 25, 10, 25, 26, 10, 26, 11, 11, 26, 27, 11, 27, 13, 12, 24, 28, 12, 28, 25, 13, 29, 14, 13, 27, 30, 13, 30, 29, 14, 29, 15, 15, 29, 31, 15, 31, 32, 15, 32, 33, 15, 33, 16, 18, 22, 35, 18, 35, 34, 21, 33, 36, 21, 36, 37, 21, 37, 35, 21, 35, 22, 23, 34, 38, 23, 38, 39, 23, 39, 40, 23, 40, 41, 23, 41, 24, 24, 41, 42, 24, 42, 43, 24, 43, 28, 25, 28, 26, 26, 28, 44, 26, 44, 27, 27, 44, 30, 28, 43, 45, 28, 45, 46, 28, 46, 44, 29, 30, 47, 29, 47, 31, 30, 44, 47, 31, 47, 48, 31, 48, 49, 31, 49, 50, 31, 50, 32, 32, 50, 36, 32, 36, 33, 34, 35, 51, 34, 51, 38, 35, 37, 51, 36, 50, 52, 36, 52, 51, 36, 51, 37, 38, 53, 54, 38, 54, 39, 38, 51, 53, 39, 54, 53, 39, 53, 55, 39, 55, 56, 39, 56, 40, 40, 56, 57, 40, 57, 41, 41, 57, 42, 42, 57, 56, 42, 56, 43, 43, 56, 58, 43, 58, 45, 44, 46, 48, 44, 48, 47, 45, 58, 55, 45, 55, 59, 45, 59, 46, 46, 59, 60, 46, 60, 48, 48, 60, 61, 48, 61, 49, 49, 52, 50, 49, 61, 62, 49, 62, 52, 51, 52, 62, 51, 62, 53, 53, 62, 63, 53, 63, 55, 55, 63, 59, 55, 58, 56, 59, 63, 60, 60, 63, 61, 61, 63, 62]
        rel material:binding:physics = </Object/physicsMaterial>
        uniform token physics:approximation = "convexHull"
        point3f[] points = [(0.0060399715, 0.008980585, 0.029024636), (0.004385235, 0.0047725225, 0.029461943), (-0.002505562, 0.003068362, 0.030459631), (0.0016234, 0.009401392, 0.030349648), (0.0071352497, 0.009405579, 0.03848303), (0.030660093, 0.0062945434, 0.04688089), (0.0330831, 0.0052686967, 0.042544484), (0.029304782, 0.004695061, 0.033243205), (0.0330831, 0.002419357, 0.03274567), (0.0330831, 0.000047349396, 0.032908026), (0.0023089345, 0.002693614, 0.02993853), (0.0000041222916, 0.0023774856, 0.030221337), (0.006177867, 0.0018813113, 0.030268472), (-0.005649562, 0.0000096655995, 0.03197842), (-0.0043257726, 0.0030997652, 0.03321964), (-0.0045621633, 0.0030997652, 0.03545069), (0.0016234, 0.009405579, 0.03848303), (0.008466919, 0.009405579, 0.042091466), (0.0330831, 0.00414864, 0.047182027), (0.0330831, 0.005015376, 0.045074053), (0.008853025, 0.009405579, 0.044382744), (0.004917115, 0.009405579, 0.055006415), (0.008557536, 0.008886375, 0.054425083), (0.0330831, -0.0023204708, 0.038061436), (0.03286247, -0.001993875, 0.033546966), (0.0033687542, -0.000028018845, 0.030883843), (0.000886649, -0.000607936, 0.03124783), (-0.0022100725, -0.00063724595, 0.031669427), (0.01973095, -0.009576763, 0.035778012), (-0.0068787946, -0.00095128064, 0.033756454), (-0.0039120875, -0.009518144, 0.039032936), (-0.0071664043, -0.0014872327, 0.037011374), (-0.003427487, 0.0030997652, 0.04781835), (0.0016234, 0.009405579, 0.05512687), (0.0330831, 0.00036975788, 0.047865484), (0.009282468, 0.005547141, 0.05483097), (0.0016430992, 0.0069665774, 0.055776283), (0.0038415361, 0.007265957, 0.055511806), (0.031601712, -0.0021257692, 0.047917858), (0.029218107, -0.004512432, 0.046742104), (0.029726347, -0.0044140345, 0.043125812), (0.03260638, -0.0028250196, 0.0358042), (0.028193746, -0.0058983704, 0.035364274), (0.025120664, -0.007656964, 0.035432357), (0.017146407, -0.009886609, 0.03612367), (0.022110619, -0.009162237, 0.036880445), (0.018600212, -0.010110621, 0.03880774), (-0.0039120875, -0.0113772275, 0.04152061), (-0.0039120875, -0.011982267, 0.04492741), (-0.0039120875, -0.011337449, 0.047938805), (-0.0039120875, -0.0075941575, 0.048556797), (0.0062527237, 0.0030892973, 0.055318028), (0.0020449648, 0.0022204684, 0.055739623), (0.024234196, -0.0069619017, 0.04875581), (0.02760277, -0.005088161, 0.04828708), (0.024494227, -0.007910285, 0.041250892), (0.025459489, -0.007648591, 0.03820284), (0.029277204, -0.0050295414, 0.038085002), (0.024368152, -0.008215946, 0.03782576), (0.020172212, -0.009423932, 0.042932037), (0.018911459, -0.009218763, 0.046922788), (0.017942257, -0.008942413, 0.048797708), (0.015341957, -0.008293408, 0.049999647), (0.021492062, -0.008264098, 0.048496567)]
        uniform token subdivisionScheme = "none"
        token visibility = "invisible"
    }
}

