# https://github.com/mikedh/trimesh
v 0.07452774 -0.01197714 0.04022344
v 0.07452774 -0.01385129 0.03907013
v 0.08349845 -0.00886397 0.03796178
v 0.08475524 -0.00711810 0.03817985
v 0.08634478 -0.00186797 0.03829451
v 0.08634849 0.00778752 0.03829676
v 0.07452774 0.01113847 0.03779767
v 0.07487163 -0.01578489 0.03672079
v 0.07452774 -0.01792812 0.01725838
v 0.07498915 -0.02015270 0.02910399
v 0.07499533 -0.01810646 0.03323388
v 0.07621625 -0.01630740 0.03506839
v 0.07764127 -0.01701451 0.03299332
v 0.07918504 -0.01788745 0.03039894
v 0.08115558 -0.01760898 0.02817999
v 0.08618644 -0.00501242 0.03797077
v 0.08287005 -0.01552833 0.02790347
v 0.08660207 -0.00340421 0.03789209
v 0.08716367 -0.00142681 0.03686917
v 0.08707584 0.00822555 0.03686917
v 0.08570525 0.00962726 0.03798202
v 0.08374956 0.01114473 0.03761556
v 0.07452774 0.01113847 0.01924352
v 0.07501512 -0.01715531 0.03474240
v 0.08431610 -0.01371675 0.01725838
v 0.07525881 -0.02081288 0.01735056
v 0.07494338 -0.02073779 0.02188512
v 0.08285397 -0.01071936 0.01725838
v 0.07518212 -0.02044994 0.02744035
v 0.07751509 -0.01967087 0.02819123
v 0.07642406 -0.01894811 0.03085307
v 0.07505347 -0.01886050 0.03184676
v 0.07674692 -0.01805640 0.03217049
v 0.07913185 -0.01906701 0.02800464
v 0.08060016 -0.01843499 0.02451548
v 0.08104301 -0.01824100 0.02282935
v 0.08160461 -0.01775291 0.02282935
v 0.08205487 -0.01704267 0.02547095
v 0.08335248 -0.01503085 0.02524388
v 0.08367534 -0.01479619 0.02222909
v 0.08374090 -0.01505588 0.01953803
v 0.08281068 -0.01606335 0.02524388
v 0.08696575 -0.00142681 0.01933794
v 0.08668743 -0.00384537 0.01918057
v 0.08671340 0.00800654 0.01923677
v 0.08570525 0.00962726 0.01904343
v 0.08440146 0.01096013 0.01950880
v 0.08442496 -0.01199278 0.01725838
v 0.08329311 -0.01605397 0.01780244
v 0.08192004 -0.01781548 0.01744273
v 0.07822637 -0.01998687 0.01744273
v 0.07671352 -0.02041239 0.01931771
v 0.07512769 -0.02075656 0.02019674
v 0.07556682 -0.02049061 0.02447501
v 0.07733449 -0.01997123 0.02568228
v 0.07811256 -0.01972406 0.02502356
v 0.07908608 -0.01935798 0.02392645
v 0.08000022 -0.01917026 0.01816215
v 0.08094158 -0.01847566 0.01969090
v 0.08191757 -0.01762463 0.02063513
v 0.08285397 -0.01634807 0.02238646
v 0.08301849 -0.01629489 0.02019674
v 0.07842676 -0.01985546 0.01925026
v 0.07826842 -0.01978976 0.02238871
f 1 2 3
f 1 3 4
f 1 4 5
f 1 5 6
f 1 6 7
f 1 7 23
f 1 23 9
f 1 9 2
f 2 8 3
f 2 9 10
f 2 10 11
f 2 11 8
f 3 8 12
f 3 12 13
f 3 13 14
f 3 14 15
f 3 15 4
f 4 16 5
f 4 15 17
f 4 17 16
f 5 16 18
f 5 18 6
f 6 18 19
f 6 19 20
f 6 20 21
f 6 21 7
f 7 21 22
f 7 22 23
f 8 11 24
f 8 24 12
f 9 25 26
f 9 26 27
f 9 27 10
f 9 23 28
f 9 28 48
f 9 48 25
f 10 27 29
f 10 29 30
f 10 30 31
f 10 31 32
f 10 32 11
f 11 32 31
f 11 31 33
f 11 33 24
f 12 24 33
f 12 33 13
f 13 33 14
f 14 33 31
f 14 31 34
f 14 34 15
f 15 34 35
f 15 35 36
f 15 36 37
f 15 37 38
f 15 38 17
f 16 19 18
f 16 17 39
f 16 39 40
f 16 40 41
f 16 41 25
f 16 25 19
f 17 42 39
f 17 38 42
f 19 43 20
f 19 25 44
f 19 44 43
f 20 45 46
f 20 46 21
f 20 43 45
f 21 46 47
f 21 47 22
f 22 47 23
f 23 47 46
f 23 46 28
f 25 48 44
f 25 41 49
f 25 49 50
f 25 50 26
f 26 50 51
f 26 51 52
f 26 52 53
f 26 53 27
f 27 54 29
f 27 53 52
f 27 52 54
f 28 46 48
f 29 54 55
f 29 55 30
f 30 55 34
f 30 34 31
f 34 55 56
f 34 56 57
f 34 57 35
f 35 57 58
f 35 58 36
f 36 58 59
f 36 59 50
f 36 50 60
f 36 60 37
f 37 60 38
f 38 60 61
f 38 61 42
f 39 42 41
f 39 41 40
f 41 42 61
f 41 61 62
f 41 62 49
f 43 44 48
f 43 48 45
f 45 48 46
f 49 62 50
f 50 59 58
f 50 58 51
f 50 62 60
f 51 58 63
f 51 63 52
f 52 63 64
f 52 64 55
f 52 55 54
f 55 64 56
f 56 64 57
f 57 64 63
f 57 63 58
f 60 62 61
