# https://github.com/mikedh/trimesh
v 0.08438539 -0.00950643 0.00548541
v 0.08448647 -0.00939239 0.00067772
v 0.08461466 -0.00932978 0.00883841
v 0.08391642 -0.00949972 0.01104624
v 0.07979682 -0.00928730 0.01236423
v 0.07954254 -0.00907711 -0.01247896
v 0.08466572 -0.00910171 -0.00967533
v 0.08487103 -0.00888929 0.00306867
v 0.08504715 -0.00778694 0.00680082
v 0.08423532 -0.00751861 0.01267373
v 0.08285552 -0.00888929 0.01290071
v 0.07967385 -0.00741799 0.01316379
v 0.07452774 0.00406616 0.01244934
v 0.07452774 0.00418243 -0.01271625
v 0.08115266 -0.00766172 -0.01313924
v 0.08421969 -0.00806420 -0.01251765
v 0.08493772 -0.00800830 -0.01009575
v 0.08492313 -0.00832358 -0.00614436
v 0.08499921 -0.00822743 -0.00241479
v 0.08515866 -0.00732185 0.00006644
v 0.08512218 -0.00493379 0.00526617
v 0.08503464 -0.00416683 0.00745852
v 0.08451461 -0.00370398 0.01201345
v 0.08273150 -0.00186151 0.01317669
v 0.08397374 -0.00172287 0.01229201
v 0.07483830 0.01013917 0.01317411
v 0.07469970 0.01265692 0.01236938
v 0.07452774 0.01333667 -0.00000062
v 0.07576477 0.01022637 -0.01283231
v 0.07848268 0.00562690 -0.01317277
v 0.07468198 0.01280002 -0.01227520
v 0.08339222 -0.00204933 -0.01279620
v 0.08455004 -0.00482646 -0.01251765
v 0.08499921 -0.00449553 -0.01009575
v 0.08505444 -0.00712955 -0.00833671
v 0.08517429 -0.00537428 -0.00016312
v 0.08502839 -0.00378448 -0.00224972
v 0.08475847 -0.00321653 0.00921498
v 0.08495023 -0.00322547 0.00008191
v 0.08228234 0.00068531 0.01265310
v 0.08146217 0.00069202 0.01317153
v 0.08023348 0.00298393 0.01316895
v 0.08446667 -0.00219020 0.00519911
v 0.08389349 -0.00117729 0.00680082
v 0.08210726 0.00141425 0.01184838
v 0.08110263 0.00296604 0.01229459
v 0.07591380 0.01098438 0.01244418
v 0.08414569 -0.00147244 -0.00000062
v 0.08411860 -0.00150598 -0.00527774
v 0.07939247 0.00566715 -0.01184963
v 0.07764375 0.00831011 -0.01240158
v 0.08420301 -0.00160213 0.00306867
v 0.07860253 0.00668006 -0.01251507
v 0.08228234 0.00068531 -0.01265435
v 0.08455630 -0.00243840 -0.01009575
v 0.08477202 -0.00318299 -0.00811747
v 0.08508987 -0.00460509 -0.00587096
v 0.07860253 0.00668229 0.01251640
v 0.07687153 0.00935433 0.01253961
v 0.07764375 0.00831235 0.01240034
v 0.07937476 0.00563361 0.01235133
v 0.08251891 0.00077252 -0.01184963
v 0.08110263 0.00296604 -0.01229583
v 0.07937476 0.00564031 -0.01235258
f 1 2 3
f 1 3 4
f 1 4 5
f 1 5 6
f 1 6 2
f 2 6 7
f 2 7 3
f 3 7 8
f 3 8 9
f 3 9 10
f 3 10 4
f 4 10 11
f 4 11 5
f 5 11 12
f 5 12 13
f 5 13 6
f 6 14 15
f 6 15 16
f 6 16 7
f 6 13 14
f 7 17 18
f 7 18 19
f 7 19 8
f 7 16 17
f 8 19 20
f 8 20 9
f 9 20 21
f 9 21 22
f 9 22 23
f 9 23 10
f 10 24 11
f 10 23 25
f 10 25 24
f 11 24 12
f 12 24 26
f 12 26 13
f 13 26 27
f 13 27 28
f 13 28 14
f 14 29 30
f 14 30 15
f 14 28 31
f 14 31 29
f 15 30 32
f 15 32 33
f 15 33 16
f 16 33 17
f 17 34 35
f 17 35 20
f 17 20 19
f 17 19 18
f 17 33 34
f 20 35 36
f 20 36 21
f 21 36 37
f 21 37 22
f 22 38 23
f 22 37 39
f 22 39 38
f 23 38 25
f 24 25 40
f 24 40 41
f 24 41 42
f 24 42 26
f 25 38 43
f 25 43 44
f 25 44 45
f 25 45 46
f 25 46 40
f 26 42 47
f 26 47 27
f 27 47 28
f 28 48 49
f 28 49 50
f 28 50 51
f 28 51 31
f 28 47 44
f 28 44 52
f 28 52 48
f 29 31 51
f 29 51 30
f 30 51 53
f 30 53 54
f 30 54 32
f 32 54 55
f 32 55 33
f 33 55 34
f 34 55 56
f 34 56 37
f 34 37 57
f 34 57 35
f 35 57 36
f 36 57 37
f 37 56 39
f 38 39 43
f 39 56 55
f 39 55 48
f 39 48 52
f 39 52 43
f 40 58 59
f 40 59 42
f 40 42 41
f 40 46 58
f 42 59 47
f 43 52 44
f 44 47 60
f 44 60 46
f 44 46 45
f 46 60 61
f 46 61 58
f 47 59 58
f 47 58 60
f 48 55 49
f 49 55 62
f 49 62 50
f 50 62 63
f 50 63 64
f 50 64 51
f 51 64 53
f 53 64 63
f 53 63 54
f 54 63 62
f 54 62 55
f 58 61 60
