# https://github.com/mikedh/trimesh
v 0.07452774 -0.02130573 -0.00087906
v 0.07513758 -0.02118556 0.00228074
v 0.07484946 -0.02104536 0.01247745
v 0.07452774 -0.01793032 0.01725388
v 0.07452774 -0.01789497 -0.01849410
v 0.07516201 -0.02097585 -0.01283237
v 0.07527400 -0.02107482 -0.00734910
v 0.07605284 -0.02095464 -0.00397586
v 0.07824887 -0.02035732 -0.00085806
v 0.07580545 -0.02099117 0.00592692
v 0.07561303 -0.02078028 0.01614813
v 0.07575353 -0.02092637 0.00958010
v 0.07918959 -0.01962097 0.01627760
v 0.08439509 -0.01297618 0.01697394
v 0.08284250 -0.01072826 0.01725388
v 0.07953167 -0.00927088 -0.01216402
v 0.08288017 -0.01079895 -0.01849410
v 0.07919773 -0.01951023 -0.01839963
v 0.07579731 -0.02071076 -0.01723789
v 0.07770114 -0.02031373 -0.01365819
v 0.07864185 -0.02018413 -0.00501863
v 0.07862251 -0.02013700 0.00800895
v 0.07727863 -0.02043508 0.01404160
v 0.08005089 -0.01931701 0.01346423
v 0.08254624 -0.01733771 0.01432853
v 0.08427496 -0.01411899 0.01427954
v 0.08466285 -0.01346511 0.01117924
v 0.08476771 -0.01240360 0.01118624
v 0.08469747 -0.00927088 -0.00614537
v 0.08375166 -0.00927088 -0.00014772
v 0.08405607 -0.00927088 -0.01195057
v 0.08440324 -0.01324244 -0.01736736
v 0.08295958 -0.01641168 -0.01838213
v 0.08228357 -0.01754506 -0.01624061
v 0.08018630 -0.01922276 -0.01426355
v 0.07989411 -0.01948902 -0.01111076
v 0.07852070 -0.02016174 -0.00846185
v 0.08086333 -0.01903661 -0.00855633
v 0.08052940 -0.01916856 0.01096929
v 0.08096819 -0.01889876 0.01096929
v 0.08203006 -0.01815299 0.00921268
v 0.08305834 -0.01701961 0.00965708
v 0.08368854 -0.01605470 0.01030793
v 0.08419453 -0.01503677 0.01009098
v 0.08468423 -0.01399293 0.00208128
v 0.08492857 -0.01284187 -0.00093154
v 0.08474837 -0.01278885 -0.01048440
v 0.08463638 -0.00927088 -0.00874879
v 0.08363763 -0.01574249 -0.01537280
v 0.08477077 -0.01328132 -0.00630984
v 0.08400211 -0.01524059 -0.01283587
v 0.08287203 -0.01724581 -0.01009599
v 0.08199239 -0.01811765 -0.01092880
v 0.08140801 -0.01873382 -0.00480867
v 0.08160247 -0.01861954 -0.00144943
v 0.08234058 -0.01801515 0.00219326
v 0.08302983 -0.01708440 -0.00680323
v 0.08423118 -0.01524766 -0.00066910
v 0.08412428 -0.01540907 -0.00433278
v 0.08484305 -0.01311874 -0.00351047
f 1 2 3
f 1 3 4
f 1 4 5
f 1 5 6
f 1 6 7
f 1 7 8
f 1 8 2
f 2 8 9
f 2 9 10
f 2 10 3
f 3 11 4
f 3 10 12
f 3 12 11
f 4 11 13
f 4 13 14
f 4 14 15
f 4 15 16
f 4 16 5
f 5 16 17
f 5 17 18
f 5 18 19
f 5 19 6
f 6 19 20
f 6 20 7
f 7 20 8
f 8 20 21
f 8 21 9
f 9 22 10
f 9 21 22
f 10 22 23
f 10 23 12
f 11 23 13
f 11 12 23
f 13 24 25
f 13 25 14
f 13 23 22
f 13 22 24
f 14 25 26
f 14 26 27
f 14 27 28
f 14 28 15
f 15 28 29
f 15 29 30
f 15 30 16
f 16 31 17
f 16 30 29
f 16 29 48
f 16 48 31
f 17 32 33
f 17 33 18
f 17 31 32
f 18 33 34
f 18 34 35
f 18 35 36
f 18 36 20
f 18 20 19
f 20 36 37
f 20 37 21
f 21 37 36
f 21 36 38
f 21 38 39
f 21 39 22
f 22 39 24
f 24 39 40
f 24 40 25
f 25 40 41
f 25 41 42
f 25 42 43
f 25 43 26
f 26 43 44
f 26 44 27
f 27 44 45
f 27 45 46
f 27 46 28
f 28 46 29
f 29 47 48
f 29 46 47
f 31 48 32
f 32 49 33
f 32 48 47
f 32 47 50
f 32 50 51
f 32 51 49
f 33 49 34
f 34 49 52
f 34 52 53
f 34 53 35
f 35 53 38
f 35 38 36
f 38 53 54
f 38 54 39
f 39 54 55
f 39 55 40
f 40 55 41
f 41 56 42
f 41 55 56
f 42 56 57
f 42 57 58
f 42 58 43
f 43 58 44
f 44 58 45
f 45 58 59
f 45 59 50
f 45 50 60
f 45 60 46
f 46 60 50
f 46 50 47
f 49 51 59
f 49 59 52
f 50 59 51
f 52 59 57
f 52 57 56
f 52 56 53
f 53 56 55
f 53 55 54
f 57 59 58
