# https://github.com/mikedh/trimesh
v -0.00650124 0.01924796 0.01332973
v -0.00669480 0.01512135 0.01331935
v 0.00664099 0.01501320 0.01320003
v 0.00647383 0.01925365 0.01319744
v -0.00500385 0.04198130 0.01030519
v -0.00715404 0.02900952 0.01189528
v -0.00850715 0.01324872 0.00686561
v -0.00416981 -0.00295604 0.01316890
v 0.00150128 -0.00474329 0.01315334
v 0.00550958 -0.00045161 0.01316372
v -0.00822562 0.02628880 0.00828710
v -0.00870423 0.01976023 0.00642724
v 0.00886332 0.02279969 0.00201493
v 0.00823692 0.02932257 0.00366987
v 0.00692076 0.03661955 0.00522364
v 0.00508025 0.04122997 0.00675926
v 0.00075874 0.04183900 0.00999132
v -0.00326363 0.04710967 0.00887592
v -0.00645022 0.04333596 0.00659065
v -0.00810949 0.03146272 0.00674889
v -0.00892417 0.01142163 0.00314849
v -0.00580445 -0.00358784 -0.01161626
v 0.00040331 -0.00666714 -0.01188603
v 0.00617294 -0.00319510 -0.01088217
v -0.00909133 0.02208251 0.00047672
v -0.00911245 0.01602067 0.00224839
v 0.00873312 0.02183207 -0.00457110
v 0.00856596 0.02610097 -0.00336232
v 0.00785157 0.03232219 -0.00437655
v 0.00704393 0.03820189 -0.00137017
v 0.00562923 0.04350672 -0.00040522
v 0.00399283 0.04671124 0.00335600
v 0.00150832 0.04816836 0.00649727
v -0.00315982 0.05086631 0.00574503
v -0.00588715 0.04683647 0.00317702
v -0.00709422 0.04073478 0.00077503
v -0.00810421 0.03387607 0.00237808
v -0.00876229 0.02781992 0.00071277
v -0.00901215 0.01220142 -0.00259711
v -0.00864968 0.01879261 -0.00692640
v -0.00800216 0.02361932 -0.01009621
v -0.00616165 0.01924796 -0.01317003
v 0.00663395 0.01927072 -0.01300143
v -0.00876405 0.02591883 -0.00415607
v 0.00559228 0.03827020 -0.00770978
v 0.00465795 0.04423528 -0.00544007
v 0.00317111 0.04841312 -0.00099664
v 0.00032413 0.05113383 0.00234177
v -0.00319149 0.04958564 -0.00724027
v -0.00566545 0.04778701 -0.00116006
v -0.00114687 0.05148103 -0.00170738
v -0.00656811 0.04313105 -0.00531556
v -0.00780860 0.03531042 -0.00497575
v -0.00833296 0.03167332 -0.00296545
v -0.00820451 0.02893552 -0.00793545
v -0.00687427 0.03728550 -0.00992760
v -0.00605783 0.02867939 -0.01188084
v -0.00244543 0.03808806 -0.01129461
v 0.00161741 0.04073478 -0.01010918
v 0.00085552 0.04588592 -0.00884333
v 0.00143618 0.04898799 -0.00593552
v -0.00438096 0.04441173 -0.00977456
v -0.00576398 0.03333534 -0.01126348
f 1 2 3
f 1 3 4
f 1 4 5
f 1 5 6
f 1 6 2
f 2 7 8
f 2 8 9
f 2 9 10
f 2 10 3
f 2 6 11
f 2 11 12
f 2 12 7
f 3 10 13
f 3 13 14
f 3 14 4
f 4 14 15
f 4 15 16
f 4 16 17
f 4 17 5
f 5 17 18
f 5 18 19
f 5 19 6
f 6 20 11
f 6 19 20
f 7 21 8
f 7 12 21
f 8 21 22
f 8 22 23
f 8 23 9
f 9 23 24
f 9 24 10
f 10 24 13
f 11 20 12
f 12 20 25
f 12 25 26
f 12 26 21
f 13 27 28
f 13 28 14
f 13 24 27
f 14 28 29
f 14 29 30
f 14 30 15
f 15 30 31
f 15 31 32
f 15 32 16
f 16 32 33
f 16 33 17
f 17 33 18
f 18 33 34
f 18 34 19
f 19 34 35
f 19 35 36
f 19 36 37
f 19 37 20
f 20 38 25
f 20 37 38
f 21 39 22
f 21 26 39
f 22 39 40
f 22 40 41
f 22 41 42
f 22 42 23
f 23 42 43
f 23 43 24
f 24 43 27
f 25 38 44
f 25 44 39
f 25 39 26
f 27 43 29
f 27 29 28
f 29 45 46
f 29 46 30
f 29 43 45
f 30 46 31
f 31 46 47
f 31 47 32
f 32 47 48
f 32 48 33
f 33 48 34
f 34 49 50
f 34 50 35
f 34 48 51
f 34 51 49
f 35 50 36
f 36 52 53
f 36 53 37
f 36 50 52
f 37 53 54
f 37 54 38
f 38 54 44
f 39 44 40
f 40 44 55
f 40 55 41
f 41 55 56
f 41 56 42
f 42 57 58
f 42 58 43
f 42 56 57
f 43 58 59
f 43 59 45
f 44 54 55
f 45 59 60
f 45 60 46
f 46 60 61
f 46 61 47
f 47 61 48
f 48 61 51
f 49 51 61
f 49 61 60
f 49 60 62
f 49 62 52
f 49 52 50
f 52 56 53
f 52 62 56
f 53 56 55
f 53 55 54
f 56 63 57
f 56 62 63
f 57 63 58
f 58 63 62
f 58 62 60
f 58 60 59
