# https://github.com/mikedh/trimesh
v 0.08243254 -0.01051834 -0.01849615
v 0.08431906 -0.01319835 -0.01850035
v 0.08416071 -0.01135741 -0.01850035
v 0.07452774 0.00955355 -0.01852137
v 0.07452774 -0.01789463 -0.01850035
v 0.07498917 -0.02083450 -0.01850035
v 0.07690537 -0.02038366 -0.01850035
v 0.08013780 -0.01906870 -0.01864118
v 0.08319828 -0.01611631 -0.01866641
v 0.08337023 -0.01565294 -0.02019665
v 0.08372898 -0.01458219 -0.02277157
v 0.08618578 -0.00501117 -0.03797094
v 0.08716553 -0.00142948 -0.03665090
v 0.08666947 -0.00384337 -0.01931802
v 0.08685131 -0.00164864 -0.01929070
v 0.08646535 0.00867691 -0.01927178
v 0.08433266 0.01056794 -0.01911203
v 0.07452774 0.01113776 -0.01924655
v 0.07452774 -0.02064665 -0.02611160
v 0.07559533 -0.02064665 -0.02027442
v 0.07666290 -0.02017389 -0.02551884
v 0.07779729 -0.01998604 -0.02173319
v 0.07846777 -0.01984202 -0.01912884
v 0.07852097 -0.01958842 -0.02436696
v 0.07946979 -0.01905305 -0.02590351
v 0.08043222 -0.01878066 -0.02065278
v 0.08187834 -0.01773496 -0.01941892
v 0.08286923 -0.01636677 -0.02211575
v 0.08331085 -0.01503303 -0.02590351
v 0.08354837 -0.01473873 -0.02436696
v 0.08475574 -0.00711824 -0.03817903
v 0.08676967 -0.00099116 -0.03811387
v 0.08664473 -0.00329234 -0.03774813
v 0.08287665 -0.01547448 -0.02812739
v 0.08707646 0.00822607 -0.03687161
v 0.08570456 0.00962869 -0.03798145
v 0.08374877 0.01114402 -0.03761571
v 0.07452774 0.01113463 -0.03780068
v 0.07501514 -0.01993595 -0.02967655
v 0.07496195 -0.02043375 -0.02809797
v 0.07452774 -0.01443817 -0.03851745
v 0.07492484 -0.01785706 -0.03367450
v 0.07700804 -0.01993595 -0.02773012
v 0.07913207 -0.01907183 -0.02800758
v 0.08086767 -0.01811066 -0.02645212
v 0.08111631 -0.01812005 -0.02391924
v 0.08158268 -0.01774122 -0.02326973
v 0.08204782 -0.01729977 -0.02326973
v 0.08277150 -0.01599733 -0.02634282
v 0.08256738 -0.01646070 -0.02470328
v 0.08166062 -0.01713383 -0.02820517
v 0.08349889 -0.00886212 -0.03796253
v 0.07452774 -0.01255027 -0.03996992
v 0.08634907 0.00778775 -0.03829675
v 0.07565223 -0.01893720 -0.03134342
v 0.07789873 -0.01931917 -0.02905437
v 0.07610623 -0.01594724 -0.03559781
v 0.07477887 -0.01604117 -0.03644280
v 0.07671362 -0.01810127 -0.03213586
v 0.08036542 -0.01791028 -0.02916157
v 0.07935351 -0.01723089 -0.03117526
v 0.07800511 -0.01720584 -0.03245536
v 0.07854571 -0.01821398 -0.03053415
v 0.07699691 -0.01686458 -0.03368712
f 1 2 3
f 1 3 4
f 1 4 5
f 1 5 6
f 1 6 7
f 1 7 2
f 2 7 8
f 2 8 9
f 2 9 10
f 2 10 11
f 2 11 12
f 2 12 13
f 2 13 14
f 2 14 15
f 2 15 16
f 2 16 3
f 3 16 17
f 3 17 4
f 4 17 18
f 4 18 38
f 4 38 53
f 4 53 41
f 4 41 19
f 4 19 5
f 5 19 6
f 6 19 20
f 6 20 7
f 7 20 21
f 7 21 22
f 7 22 23
f 7 23 8
f 8 23 24
f 8 24 25
f 8 25 26
f 8 26 27
f 8 27 9
f 9 28 10
f 9 27 28
f 10 28 29
f 10 29 11
f 11 29 30
f 11 30 12
f 12 31 32
f 12 32 33
f 12 33 13
f 12 30 29
f 12 29 34
f 12 34 31
f 13 15 14
f 13 33 32
f 13 32 35
f 13 35 15
f 15 35 16
f 16 35 36
f 16 36 17
f 17 36 37
f 17 37 18
f 18 37 38
f 19 39 40
f 19 40 21
f 19 21 20
f 19 41 42
f 19 42 39
f 21 40 43
f 21 43 22
f 22 43 24
f 22 24 23
f 24 43 44
f 24 44 25
f 25 44 45
f 25 45 46
f 25 46 26
f 26 46 27
f 27 46 47
f 27 47 48
f 27 48 28
f 28 49 29
f 28 48 50
f 28 50 49
f 29 49 34
f 31 34 51
f 31 51 52
f 31 52 53
f 31 53 32
f 32 54 35
f 32 53 54
f 34 49 51
f 35 54 36
f 36 38 37
f 36 54 38
f 38 54 53
f 39 55 56
f 39 56 40
f 39 42 55
f 40 56 43
f 41 53 52
f 41 52 57
f 41 57 58
f 41 58 42
f 42 58 59
f 42 59 55
f 43 56 44
f 44 56 60
f 44 60 45
f 45 60 51
f 45 51 48
f 45 48 47
f 45 47 46
f 48 51 49
f 48 49 50
f 51 60 52
f 52 60 61
f 52 61 62
f 52 62 57
f 55 59 56
f 56 59 63
f 56 63 60
f 57 62 64
f 57 64 58
f 58 64 59
f 59 64 62
f 59 62 63
f 60 63 61
f 61 63 62
