# https://github.com/mikedh/trimesh
v 0.07171725 -0.01736071 -0.02945923
v 0.07424239 -0.01950463 0.01681147
v 0.07386433 -0.02135218 -0.00490939
v 0.07222370 -0.02042673 -0.01824348
v 0.06996248 -0.02120623 -0.02410647
v 0.06660989 -0.02101163 -0.02822012
v 0.04757860 -0.02047090 -0.02854812
v 0.02348275 -0.01740545 -0.02897179
v 0.06961296 -0.01615622 -0.01761025
v 0.07155318 -0.02147464 0.01006014
v 0.07283002 -0.02149421 0.00224738
v 0.06964863 -0.01731709 0.01708024
v 0.02643589 -0.02127557 0.01697091
v 0.05754364 -0.02159319 0.01664747
v 0.06854298 -0.02154118 0.01554502
v 0.07011941 -0.02173131 -0.00395272
v 0.07124646 -0.02151938 -0.01045349
v 0.06592511 -0.02165078 -0.01458993
v 0.06366390 -0.02141984 -0.02280814
v 0.06089623 -0.02108265 -0.02791035
v 0.05362753 -0.02086345 -0.02781468
v 0.04567404 -0.02126662 -0.02474424
v 0.03455343 -0.02108265 -0.02336847
v 0.03585167 -0.01975291 -0.02836135
v 0.02940328 -0.01914675 -0.02783290
v 0.02273377 -0.01943473 -0.02372836
v 0.00295350 -0.01694412 -0.01573792
v 0.00433733 -0.01744850 0.01553591
v 0.06725902 -0.02185433 0.00150938
v 0.01334652 -0.01925355 0.01708024
v 0.01994470 -0.02088470 0.01508036
v 0.02056529 -0.02118778 0.01016492
v 0.01953811 -0.02122804 0.00230660
v 0.03764210 -0.02149869 0.00920826
v 0.05969072 -0.02182469 0.00525860
v 0.03687885 -0.02141704 0.01584113
v 0.05669479 -0.02170726 0.01143136
v 0.06309324 -0.02164128 0.01542202
v 0.04575964 -0.02154118 0.01426036
v 0.06422028 -0.02178107 0.00937681
v 0.06540439 -0.02184035 -0.00476361
v 0.06023998 -0.02174193 -0.01115960
v 0.05777190 -0.02152385 -0.01939603
v 0.05178717 -0.02143102 -0.02117725
v 0.04553138 -0.02132086 -0.02326369
v 0.02834044 -0.02120008 -0.02005203
v 0.02168520 -0.02065655 -0.01822070
v 0.00176939 -0.01817544 -0.00681816
v 0.00138420 -0.01778793 0.00857048
v 0.00341715 -0.01870052 0.00965014
v 0.06133848 -0.02186887 0.00054360
v 0.00725480 -0.01991004 0.00384182
v 0.01191989 -0.02053856 0.00214716
v 0.02050822 -0.02109160 -0.01281782
v 0.03764210 -0.02152832 0.00087160
v 0.01522968 -0.02088638 -0.00292772
v 0.01704864 -0.02095516 -0.00763360
v 0.05255755 -0.02174976 0.00043427
v 0.05917000 -0.02182469 -0.00469528
v 0.04904803 -0.02142655 -0.02062603
v 0.00742599 -0.01995030 -0.00289583
v 0.00206185 -0.01864572 0.00139549
v 0.04641589 -0.02165917 0.00043427
f 1 2 3
f 1 3 4
f 1 4 5
f 1 5 6
f 1 6 7
f 1 7 8
f 1 8 9
f 1 9 2
f 2 10 11
f 2 11 3
f 2 9 12
f 2 12 13
f 2 13 14
f 2 14 15
f 2 15 10
f 3 11 16
f 3 16 17
f 3 17 5
f 3 5 4
f 5 18 19
f 5 19 6
f 5 17 18
f 6 19 20
f 6 20 7
f 7 20 21
f 7 21 22
f 7 22 23
f 7 23 24
f 7 24 8
f 8 24 25
f 8 25 26
f 8 26 27
f 8 27 9
f 9 27 28
f 9 28 12
f 10 15 29
f 10 29 11
f 11 29 16
f 12 30 13
f 12 28 30
f 13 30 31
f 13 31 32
f 13 32 33
f 13 33 34
f 13 34 35
f 13 35 36
f 13 36 14
f 14 37 38
f 14 38 15
f 14 36 39
f 14 39 37
f 15 38 40
f 15 40 29
f 16 29 41
f 16 41 18
f 16 18 17
f 18 41 42
f 18 42 43
f 18 43 19
f 19 43 44
f 19 44 22
f 19 22 20
f 20 22 21
f 22 45 46
f 22 46 23
f 22 44 45
f 23 46 26
f 23 26 25
f 23 25 24
f 26 47 27
f 26 46 47
f 27 48 49
f 27 49 28
f 27 47 48
f 28 49 50
f 28 50 30
f 29 40 51
f 29 51 41
f 30 50 31
f 31 50 52
f 31 52 32
f 32 52 53
f 32 53 33
f 33 54 46
f 33 46 55
f 33 55 34
f 33 53 56
f 33 56 57
f 33 57 54
f 34 55 58
f 34 58 35
f 35 51 40
f 35 40 37
f 35 37 36
f 35 58 51
f 36 37 39
f 37 40 38
f 41 51 59
f 41 59 42
f 42 59 46
f 42 46 60
f 42 60 43
f 43 60 44
f 44 60 45
f 45 60 46
f 46 54 47
f 46 59 55
f 47 54 61
f 47 61 48
f 48 61 62
f 48 62 49
f 49 62 50
f 50 62 52
f 51 58 59
f 52 62 61
f 52 61 53
f 53 61 56
f 54 57 61
f 55 59 63
f 55 63 58
f 56 61 57
f 58 63 59
