# https://github.com/mikedh/trimesh
v 0.01718812 -0.00659813 -0.01332494
v 0.01226969 -0.00837314 -0.00729259
v -0.00201222 -0.00478958 -0.01321342
v -0.00425207 0.00298626 -0.01321342
v 0.01501177 0.00664040 -0.01320045
v 0.01925478 0.00647454 -0.01319786
v 0.03866295 -0.00491486 -0.01080152
v 0.03340392 -0.00717157 -0.00980304
v 0.02697302 -0.00794439 -0.00963187
v 0.02118867 -0.00845607 -0.00818733
v 0.01669743 -0.00884425 -0.00532417
v 0.01281811 -0.00902598 -0.00258031
v -0.00362861 -0.00580413 0.01161619
v -0.00532581 -0.00158185 -0.01298519
v 0.01138645 -0.00899599 0.00191932
v -0.00701147 -0.00076492 0.01086150
v -0.00586845 0.00376438 0.01159026
v -0.00277423 0.00652042 0.01087966
v -0.00044779 0.00550940 -0.01316414
v 0.02245292 0.00887064 -0.00243767
v 0.02999797 0.00794608 -0.00550052
v 0.03661937 0.00692095 -0.00522302
v 0.04207467 0.00494478 -0.00673241
v 0.04702197 0.00023022 -0.00839221
v 0.04164171 -0.00014031 -0.01020243
v 0.04711433 -0.00412439 -0.00875010
v 0.04018119 -0.00707629 -0.00523080
v 0.03097357 -0.00827257 -0.00550830
v 0.02091735 -0.00899952 -0.00385887
v 0.01645497 -0.00915479 0.00161588
v 0.01931251 -0.00860075 0.00739926
v 0.02446185 -0.00792674 0.01038690
v 0.01924324 -0.00616055 0.01316967
v 0.01926633 0.00663334 0.01300109
v 0.02372871 0.00869949 0.00385662
v 0.02607246 0.00878242 0.00012984
v 0.03145849 0.00825486 -0.00061448
v 0.03819535 0.00704446 0.00136951
v 0.04240372 0.00600697 -0.00146513
v 0.04668714 0.00365498 -0.00471212
v 0.04970055 0.00185879 -0.00200456
v 0.05138620 -0.00307632 -0.00461875
v 0.04626573 -0.00599469 -0.00311715
v 0.03515308 -0.00794615 -0.00170372
v 0.04257113 -0.00678516 0.00004426
v 0.02669593 -0.00876661 -0.00280594
v 0.02247023 -0.00893423 0.00373991
v 0.02818531 -0.00849312 0.00557347
v 0.03210504 -0.00784205 0.00840811
v 0.03014229 -0.00608115 0.01198187
v 0.04081620 0.00143709 0.01022092
v 0.03807989 0.00590110 0.00709323
v 0.03248605 0.00776611 0.00480063
v 0.04478212 0.00452308 0.00449979
v 0.05078006 0.00077896 0.00267141
v 0.05195194 -0.00320512 0.00037622
v 0.04687764 -0.00588530 0.00251321
v 0.03914786 -0.00735154 0.00268438
v 0.03334620 -0.00815612 0.00325234
v 0.03642887 -0.00758444 0.00645265
v 0.04335046 -0.00573355 0.00829918
v 0.03724284 -0.00478605 0.01086150
v 0.05039328 -0.00239349 0.00660826
v 0.04765697 0.00081072 0.00735776
f 1 2 3
f 1 3 4
f 1 4 5
f 1 5 6
f 1 6 7
f 1 7 8
f 1 8 9
f 1 9 10
f 1 10 2
f 2 10 11
f 2 11 12
f 2 12 3
f 3 13 14
f 3 14 4
f 3 12 15
f 3 15 13
f 4 14 16
f 4 16 17
f 4 17 18
f 4 18 19
f 4 19 5
f 5 19 20
f 5 20 21
f 5 21 6
f 6 21 22
f 6 22 23
f 6 23 24
f 6 24 25
f 6 25 7
f 7 25 26
f 7 26 8
f 8 26 27
f 8 27 28
f 8 28 9
f 9 28 10
f 10 28 29
f 10 29 11
f 11 29 12
f 12 29 30
f 12 30 15
f 13 17 16
f 13 16 14
f 13 15 31
f 13 31 32
f 13 32 33
f 13 33 17
f 15 30 31
f 17 33 34
f 17 34 18
f 18 34 35
f 18 35 20
f 18 20 19
f 20 35 36
f 20 36 37
f 20 37 21
f 21 37 22
f 22 37 38
f 22 38 39
f 22 39 23
f 23 39 40
f 23 40 24
f 24 41 42
f 24 42 26
f 24 26 25
f 24 40 41
f 26 42 43
f 26 43 27
f 27 44 28
f 27 43 45
f 27 45 44
f 28 46 29
f 28 44 46
f 29 46 47
f 29 47 30
f 30 47 31
f 31 47 48
f 31 48 32
f 32 48 49
f 32 49 50
f 32 50 33
f 33 50 34
f 34 50 51
f 34 51 52
f 34 52 53
f 34 53 35
f 35 53 36
f 36 53 37
f 37 53 38
f 38 53 52
f 38 52 54
f 38 54 39
f 39 54 40
f 40 54 41
f 41 55 42
f 41 54 55
f 42 55 56
f 42 56 43
f 43 57 45
f 43 56 57
f 44 45 58
f 44 58 59
f 44 59 46
f 45 57 58
f 46 59 48
f 46 48 47
f 48 59 60
f 48 60 49
f 49 60 61
f 49 61 50
f 50 61 62
f 50 62 51
f 51 62 63
f 51 63 64
f 51 64 52
f 52 64 54
f 54 64 55
f 55 63 56
f 55 64 63
f 56 63 57
f 57 61 60
f 57 60 58
f 57 63 61
f 58 60 59
f 61 63 62
