# https://github.com/mikedh/trimesh
v 0.03618731 0.01465000 0.00774105
v 0.03618731 0.01465000 0.00440280
v 0.02770558 0.01465000 0.00774105
v 0.02588721 0.01443928 0.00864416
v 0.03813859 0.01442061 0.00865674
v 0.04164849 0.01451130 0.00384684
v 0.04103229 0.01464467 -0.00004485
v 0.02770558 0.01465000 0.00440280
v 0.02225649 0.01450863 0.00440280
v 0.02283040 0.01444462 0.00835487
v 0.01930239 0.00879776 0.01280000
v 0.03686392 0.00884577 0.01280000
v 0.04211969 0.01404451 0.00824166
v 0.05092160 0.00734137 0.00949697
v 0.05156800 0.00689325 0.00425186
v 0.04205324 0.01408985 -0.00932756
v 0.02354325 0.01381245 -0.01018036
v -0.00179924 0.00673321 -0.01289977
v -0.00294101 0.00631443 -0.00974767
v -0.00140657 0.00528748 0.01279748
v -0.00380489 0.00380975 0.01279748
v -0.00538766 0.00071025 0.01279748
v 0.01349687 -0.00624362 0.01280000
v 0.05473959 -0.00945515 0.01280000
v 0.05368239 0.00410050 0.00949697
v 0.05333201 0.00485270 0.00425186
v 0.05212378 0.00632776 -0.00949862
v 0.03836212 0.00876042 -0.01289977
v 0.03800569 0.01354571 -0.01046714
v 0.01961049 0.00879776 -0.01289977
v -0.00399217 0.00570626 -0.01289977
v -0.00565951 0.00388444 -0.00974767
v -0.00675296 0.00149713 -0.01289977
v -0.00691607 -0.00030069 -0.00987345
v -0.00501311 -0.00207717 0.01279748
v 0.01933259 -0.01254398 0.01280000
v -0.00308600 -0.00441646 0.01279748
v 0.05470938 -0.01014601 0.00950451
v 0.05476375 -0.01004731 0.00425186
v 0.05480000 -0.00657704 -0.01050236
v 0.05472146 0.00077960 0.00949697
v 0.05228085 -0.01253332 0.01280000
v 0.05454023 0.00197993 0.00425186
v 0.05391195 0.00378308 -0.00949359
v 0.05476979 -0.00651036 -0.01289977
v -0.00570784 0.00399647 -0.01289977
v -0.00688586 -0.00121027 -0.01289977
v -0.00581658 -0.00375762 -0.00987345
v -0.00317661 -0.00614760 -0.00999923
v 0.01944737 -0.01258933 0.00950703
v 0.05217211 -0.01258400 0.00950451
v 0.05271581 -0.01217055 0.00950451
v 0.05455835 -0.01031672 -0.01050236
v 0.05476979 -0.01000997 -0.00999420
v 0.05472146 0.00078227 -0.00949862
v 0.05216607 -0.01258666 -0.00999420
v 0.05240772 -0.01246663 -0.01024828
v 0.05243188 -0.01245063 0.00950451
v 0.05472751 -0.01006065 -0.01289977
v -0.00583471 -0.00371761 -0.01289977
v -0.00316453 -0.00615827 -0.01289977
v 0.01955611 -0.01258400 -0.01289977
v 0.01961653 -0.01260000 -0.01050236
v 0.05222648 -0.01255465 -0.01289977
f 1 2 8
f 1 8 3
f 1 3 4
f 1 4 5
f 1 5 6
f 1 6 7
f 1 7 2
f 2 7 8
f 3 8 9
f 3 9 10
f 3 10 4
f 4 10 11
f 4 11 12
f 4 12 5
f 5 12 13
f 5 13 6
f 6 13 14
f 6 14 15
f 6 15 16
f 6 16 7
f 7 16 17
f 7 17 8
f 8 17 9
f 9 17 18
f 9 18 19
f 9 19 10
f 10 19 20
f 10 20 11
f 11 20 21
f 11 21 22
f 11 22 23
f 11 23 36
f 11 36 42
f 11 42 24
f 11 24 12
f 12 24 14
f 12 14 13
f 14 24 25
f 14 25 26
f 14 26 15
f 15 27 16
f 15 26 27
f 16 28 29
f 16 29 17
f 16 27 28
f 17 30 18
f 17 29 30
f 18 31 19
f 18 30 28
f 18 28 45
f 18 45 59
f 18 59 64
f 18 64 62
f 18 62 61
f 18 61 60
f 18 60 47
f 18 47 33
f 18 33 46
f 18 46 31
f 19 31 21
f 19 21 20
f 21 31 32
f 21 32 22
f 22 32 33
f 22 33 34
f 22 34 35
f 22 35 23
f 23 35 37
f 23 37 36
f 24 38 39
f 24 39 40
f 24 40 41
f 24 41 25
f 24 42 38
f 25 41 43
f 25 43 44
f 25 44 26
f 26 44 27
f 27 44 45
f 27 45 28
f 28 30 29
f 31 46 32
f 32 46 33
f 33 47 34
f 34 47 35
f 35 47 48
f 35 48 37
f 36 37 49
f 36 49 50
f 36 50 51
f 36 51 42
f 37 48 49
f 38 42 52
f 38 52 53
f 38 53 54
f 38 54 39
f 39 54 40
f 40 45 55
f 40 55 41
f 40 54 45
f 41 55 43
f 42 51 56
f 42 56 57
f 42 57 58
f 42 58 52
f 43 55 44
f 44 55 45
f 45 54 59
f 47 60 48
f 48 60 61
f 48 61 49
f 49 61 50
f 50 61 62
f 50 62 63
f 50 63 51
f 51 63 56
f 52 58 57
f 52 57 53
f 53 59 54
f 53 57 64
f 53 64 59
f 56 64 57
f 56 63 62
f 56 62 64
