# https://github.com/mikedh/trimesh
v 0.07452774 0.01113498 0.03778856
v 0.06463731 0.01783125 0.03557993
v 0.06749032 0.00679701 0.04386442
v 0.07004340 -0.01516857 0.03950733
v 0.07106024 -0.02127218 0.01797968
v 0.07351090 -0.01801253 -0.03382416
v 0.07452774 0.01113498 -0.03779453
v 0.07206245 0.01611911 -0.00323858
v 0.07148453 0.01579397 0.01111318
v 0.06787803 0.01856385 0.02230240
v 0.05032105 0.01539474 0.03765965
v 0.05828753 0.01313933 0.04164720
v 0.03984538 0.02054351 0.01479995
v 0.02345886 0.01976152 0.02091019
v 0.05713170 0.00240554 0.04340894
v 0.06122833 -0.00669842 0.04348629
v 0.05191581 -0.01167844 0.04203393
v 0.03895290 -0.01478993 0.03753074
v 0.05430795 -0.01873690 0.03392991
v 0.06966299 -0.02008685 0.02952125
v 0.05871914 -0.02138330 0.02317898
v 0.03231782 -0.02126395 0.01932033
v 0.06144047 -0.01886860 -0.03411635
v 0.06866078 -0.01227934 -0.04215162
v 0.06715381 0.01039003 -0.04336336
v 0.06285235 0.01648129 -0.03759687
v 0.06740985 0.01870378 -0.02388965
v 0.04681697 0.02066286 0.00182321
v 0.03389795 0.01258371 0.03646510
v 0.04119142 0.00503137 0.04088235
v 0.04277886 0.02060113 -0.01117072
v 0.02764328 0.02002493 -0.02090758
v 0.00217101 0.01869966 0.00279432
v 0.00672120 0.01813993 0.01697420
v 0.04501738 -0.00362810 0.04184486
v 0.02962575 -0.00723347 0.03798621
v 0.03031340 -0.01604934 0.03364631
v 0.03835304 -0.02050666 0.02640168
v 0.04950172 -0.02125572 0.02341960
v 0.01579963 -0.01982345 0.01707733
v 0.00089082 -0.01659261 -0.01160901
v 0.04664871 -0.01834179 -0.03388432
v 0.02402215 -0.01940364 0.02383211
v 0.05735847 -0.01347701 -0.04184224
v 0.06458610 0.00007193 -0.04393056
v 0.05252299 0.00118317 -0.04295085
v 0.04585133 0.01161240 -0.03997738
v 0.05295460 0.01807819 -0.03513903
v 0.03099373 0.00241377 0.03829560
v 0.00062746 0.01228738 0.02101332
v 0.00113954 0.00171410 0.02460556
v 0.01378057 0.01846919 -0.02199040
v 0.00372188 0.01841157 -0.01056915
v 0.00222954 0.01291297 -0.02132008
v 0.00042994 -0.00880979 0.02265475
v 0.00112491 -0.01584766 0.01405229
v -0.00020649 -0.01706592 -0.00010182
v 0.00092008 -0.01181838 -0.02099352
v 0.03123514 -0.01640329 -0.03333431
v 0.03678022 -0.01171137 -0.03928127
v 0.04287396 -0.00445124 -0.04155005
v 0.03052555 -0.00231930 -0.03837892
v 0.03272017 0.01009370 -0.03679764
v 0.00109565 -0.00092819 -0.02453419
f 1 2 3
f 1 3 4
f 1 4 5
f 1 5 6
f 1 6 7
f 1 7 8
f 1 8 9
f 1 9 10
f 1 10 2
f 2 11 12
f 2 12 3
f 2 10 13
f 2 13 14
f 2 14 11
f 3 15 16
f 3 16 4
f 3 12 15
f 4 16 17
f 4 17 18
f 4 18 19
f 4 19 20
f 4 20 5
f 5 20 21
f 5 21 22
f 5 22 23
f 5 23 6
f 6 23 24
f 6 24 7
f 7 24 25
f 7 25 26
f 7 26 27
f 7 27 8
f 8 27 10
f 8 10 9
f 10 27 28
f 10 28 13
f 11 14 29
f 11 29 12
f 12 30 15
f 12 29 30
f 13 28 31
f 13 31 32
f 13 32 14
f 14 32 33
f 14 33 34
f 14 34 29
f 15 30 35
f 15 35 16
f 16 35 17
f 17 35 36
f 17 36 18
f 18 36 37
f 18 37 19
f 19 37 38
f 19 38 20
f 20 38 39
f 20 39 21
f 21 39 22
f 22 40 41
f 22 41 42
f 22 42 23
f 22 39 38
f 22 38 43
f 22 43 40
f 23 42 44
f 23 44 24
f 24 44 45
f 24 45 25
f 25 45 46
f 25 46 47
f 25 47 48
f 25 48 26
f 26 48 27
f 27 48 31
f 27 31 28
f 29 49 30
f 29 34 50
f 29 50 51
f 29 51 49
f 30 49 36
f 30 36 35
f 31 48 32
f 32 48 52
f 32 52 53
f 32 53 33
f 33 53 54
f 33 54 50
f 33 50 34
f 36 49 51
f 36 51 55
f 36 55 37
f 37 55 56
f 37 56 43
f 37 43 38
f 40 43 56
f 40 56 57
f 40 57 41
f 41 58 59
f 41 59 42
f 41 57 58
f 42 59 44
f 44 60 61
f 44 61 45
f 44 59 60
f 45 61 46
f 46 61 47
f 47 61 62
f 47 62 63
f 47 63 52
f 47 52 48
f 50 54 64
f 50 64 57
f 50 57 55
f 50 55 51
f 52 54 53
f 52 63 54
f 54 63 64
f 55 57 56
f 57 64 58
f 58 64 60
f 58 60 59
f 60 62 61
f 60 64 62
f 62 64 63
