#usda 1.0
(
    defaultPrim = "Object"
    metersPerUnit = 1
    subLayers = [
        @./configuration/appearance.usda@
    ]
    upAxis = "Z"
)

def Xform "Object" (
    prepend apiSchemas = ["PhysicsRigidBodyAPI", "PhysicsMassAPI"]
)
{
    custom string crossEmbodiment:objectName = "YcbTennisBall"
    float physics:mass = 0.059

    def Material "physicsMaterial" (
        apiSchemas = ["PhysicsMaterialAPI", "PhysxMaterialAPI"]
    )
    {
        float physics:dynamicFriction = 0.5
        float physics:restitution = 0
        float physics:staticFriction = 0.5
        token physxMaterial:frictionCombineMode = "max"
        token physxMaterial:restitutionCombineMode = "average"
    }

    def Mesh "hull0" (
        prepend apiSchemas = ["PhysicsCollisionAPI", "PhysicsMeshCollisionAPI", "MaterialBindingAPI"]
    )
    {
        int[] faceVertexCounts = [3, 3, 3, 3, 3, 3, 3, 3, 3, 3, 3, 3, 3, 3, 3, 3, 3, 3, 3, 3, 3, 3, 3, 3, 3, 3, 3, 3, 3, 3, 3, 3, 3, 3, 3, 3, 3, 3, 3, 3, 3, 3, 3, 3, 3, 3, 3, 3, 3, 3, 3, 3, 3, 3, 3, 3, 3, 3, 3, 3, 3, 3, 3, 3, 3, 3, 3, 3, 3, 3, 3, 3, 3, 3, 3, 3, 3, 3, 3, 3, 3, 3, 3, 3, 3, 3, 3, 3, 3, 3, 3, 3, 3, 3, 3, 3, 3, 3, 3, 3, 3, 3, 3, 3, 3, 3, 3, 3, 3, 3, 3, 3, 3, 3, 3, 3, 3, 3, 3, 3, 3, 3, 3, 3]
        int[] faceVertexIndices = [0, 1, 2, 0, 2, 3, 0, 3, 4, 0, 4, 5, 0, 5, 6, 0, 6, 1, 1, 6, 7, 1, 7, 8, 1, 8, 9, 1, 9, 10, 1, 10, 2, 2, 10, 11, 2, 11, 12, 2, 12, 3, 3, 12, 4, 4, 13, 14, 4, 14, 5, 4, 12, 15, 4, 15, 13, 5, 14, 16, 5, 16, 6, 6, 16, 17, 6, 17, 18, 6, 18, 7, 7, 18, 19, 7, 19, 20, 7, 20, 8, 8, 20, 21, 8, 21, 22, 8, 22, 9, 9, 22, 23, 9, 23, 24, 9, 24, 10, 10, 24, 11, 11, 25, 26, 11, 26, 27, 11, 27, 12, 11, 24, 25, 12, 27, 15, 13, 15, 28, 13, 28, 29, 13, 29, 30, 13, 30, 14, 14, 30, 31, 14, 31, 16, 15, 27, 28, 16, 31, 17, 17, 32, 18, 17, 31, 32, 18, 32, 33, 18, 33, 19, 19, 33, 34, 19, 34, 20, 20, 35, 21, 20, 34, 35, 21, 35, 36, 21, 36, 37, 21, 37, 22, 22, 37, 23, 23, 38, 24, 23, 37, 39, 23, 39, 38, 24, 38, 25, 25, 40, 26, 25, 38, 41, 25, 41, 40, 26, 40, 42, 26, 42, 43, 26, 43, 27, 27, 43, 28, 28, 43, 44, 28, 44, 29, 29, 45, 46, 29, 46, 30, 29, 44, 45, 30, 46, 31, 31, 47, 32, 31, 46, 47, 32, 47, 33, 33, 47, 48, 33, 48, 49, 33, 49, 34, 34, 49, 35, 35, 50, 36, 35, 49, 50, 36, 50, 51, 36, 51, 39, 36, 39, 37, 38, 39, 52, 38, 52, 41, 39, 51, 53, 39, 53, 52, 40, 41, 54, 40, 54, 42, 41, 52, 55, 41, 55, 54, 42, 54, 56, 42, 56, 43, 43, 56, 44, 44, 56, 57, 44, 57, 45, 45, 57, 58, 45, 58, 46, 46, 58, 47, 47, 58, 48, 48, 58, 59, 48, 59, 49, 49, 59, 50, 50, 59, 60, 50, 60, 51, 51, 60, 53, 52, 53, 55, 53, 60, 55, 54, 55, 61, 54, 61, 56, 55, 62, 61, 55, 60, 62, 56, 61, 63, 56, 63, 57, 57, 63, 58, 58, 63, 62, 58, 62, 59, 59, 62, 60, 61, 62, 63]
        rel material:binding:physics = </Object/physicsMaterial>
        uniform token physics:approximation = "convexHull"
        point3f[] points = [(-0.033214368, 0.00024833198, 0.0410828), (-0.028816396, 0.0046716747, 0.05335254), (-0.030358544, 0.019730411, 0.044446778), (-0.033011287, 0.013524817, 0.033997104), (-0.03165953, 0.006389352, 0.02490934), (-0.029914303, -0.009747775, 0.03766861), (-0.023923418, -0.014558565, 0.048250083), (-0.018402157, -0.01129756, 0.058442444), (-0.015901724, -0.00083005923, 0.06556579), (-0.014296116, 0.017702777, 0.06494446), (-0.022685895, 0.023178682, 0.05432533), (-0.019500064, 0.033239365, 0.03719163), (-0.02750272, 0.022687916, 0.027520189), (-0.021733953, -0.0024185877, 0.013254656), (-0.024456505, -0.01067119, 0.02136963), (-0.023460139, 0.015184377, 0.015024513), (-0.02328879, -0.018491143, 0.03367075), (-0.011960686, -0.02501315, 0.036846444), (-0.008781202, -0.023521483, 0.0486392), (-0.0046243905, -0.019182088, 0.057839938), (-0.004167459, -0.010051276, 0.06528965), (0.003746348, -0.00021014584, 0.068848185), (-0.008298885, 0.009392059, 0.06877287), (-0.0016543333, 0.022636257, 0.06542772), (-0.009986995, 0.030210827, 0.057488475), (-0.0072390568, 0.037766024, 0.04407649), (-0.01076124, 0.03511848, 0.025367493), (-0.018935245, 0.02569708, 0.017170932), (-0.014296116, 0.012866159, 0.0078070182), (-0.010075843, -0.0014499731, 0.0062882085), (-0.009314288, -0.014513363, 0.012670983), (-0.007562717, -0.021881295, 0.021149967), (-0.00037238546, -0.026737286, 0.03225863), (0.0067037125, -0.025200417, 0.044967692), (0.006519671, -0.019711597, 0.05647175), (0.016496018, -0.009883382, 0.06032526), (0.015988316, 0.00055183156, 0.0649068), (0.0070971823, 0.010651259, 0.068484165), (0.0016647693, 0.03324582, 0.055185154), (0.013811543, 0.019110497, 0.06313695), (-0.000315269, 0.039231863, 0.03475651), (0.005434457, 0.037733737, 0.045093216), (0.005485228, 0.03178644, 0.01715838), (-0.006826549, 0.027014397, 0.012193999), (-0.0024539642, 0.013182573, 0.004731741), (0.006227742, 0.000028779548, 0.005189894), (0.004279435, -0.012634249, 0.010367659), (0.014147896, -0.020957882, 0.02531101), (0.02237267, -0.016773466, 0.030902997), (0.017568538, -0.019537248, 0.04577731), (0.025520423, -0.006460942, 0.05202201), (0.024035394, 0.00855905, 0.05878135), (0.0151442615, 0.030281859, 0.053001076), (0.023889432, 0.019943506, 0.05420609), (0.0141986655, 0.033387884, 0.027187556), (0.025177725, 0.025864974, 0.0341038), (0.012224973, 0.021461004, 0.01112079), (0.017847775, 0.0061697992, 0.009269344), (0.022569405, -0.007203547, 0.018476358), (0.029867623, -0.005582731, 0.03538412), (0.031619195, 0.0066347346, 0.042463537), (0.02622486, 0.020272836, 0.024068344), (0.031568427, 0.008268465, 0.030790027), (0.025095223, 0.0120718945, 0.017083066)]
        uniform token subdivisionScheme = "none"
        token visibility = "invisible"
    }
}

