#usda 1.0
(
    defaultPrim = "Object"
    metersPerUnit = 1
    subLayers = [
        @./configuration/appearance.usda@
    ]
    upAxis = "Z"
)

def Xform "Object" (
    prepend apiSchemas = ["PhysicsRigidBodyAPI", "PhysicsMassAPI"]
)
{
    custom string crossEmbodiment:objectName = "YcbHammer"
    float physics:mass = 0.09

    def Material "physicsMaterial" (
        apiSchemas = ["PhysicsMaterialAPI", "PhysxMaterialAPI"]
    )
    {
        float physics:dynamicFriction = 0.5
        float physics:restitution = 0
        float physics:staticFriction = 0.5
        token physxMaterial:frictionCombineMode = "max"
        token physxMaterial:restitutionCombineMode = "average"
    }

    def Mesh "hull0" (
        prepend apiSchemas = ["PhysicsCollisionAPI", "PhysicsMeshCollisionAPI", "MaterialBindingAPI"]
    )
    {
        int[] faceVertexCounts = [3, 3, 3, 3, 3, 3, 3, 3, 3, 3, 3, 3, 3, 3, 3, 3, 3, 3, 3, 3, 3, 3, 3, 3, 3, 3, 3, 3, 3, 3, 3, 3, 3, 3, 3, 3, 3, 3, 3, 3, 3, 3, 3, 3, 3, 3, 3, 3, 3, 3, 3, 3, 3, 3, 3, 3, 3, 3, 3, 3, 3, 3, 3, 3, 3, 3, 3, 3, 3, 3, 3, 3, 3, 3, 3, 3, 3, 3, 3, 3, 3, 3, 3, 3, 3, 3, 3, 3, 3, 3, 3, 3, 3, 3, 3, 3, 3, 3, 3, 3, 3, 3, 3, 3, 3, 3, 3, 3, 3, 3, 3, 3, 3, 3, 3, 3]
        int[] faceVertexIndices = [0, 1, 6, 0, 6, 16, 0, 16, 32, 0, 32, 48, 0, 48, 37, 0, 37, 22, 0, 22, 10, 0, 10, 2, 0, 2, 3, 0, 3, 4, 0, 4, 5, 0, 5, 1, 1, 5, 7, 1, 7, 8, 1, 8, 9, 1, 9, 6, 2, 10, 11, 2, 11, 3, 3, 12, 13, 3, 13, 14, 3, 14, 4, 3, 11, 12, 4, 14, 5, 5, 14, 15, 5, 15, 7, 6, 9, 17, 6, 17, 18, 6, 18, 19, 6, 19, 16, 7, 15, 20, 7, 20, 8, 8, 20, 9, 9, 20, 21, 9, 21, 17, 10, 22, 23, 10, 23, 24, 10, 24, 11, 11, 24, 12, 12, 25, 26, 12, 26, 13, 12, 24, 25, 13, 26, 27, 13, 27, 28, 13, 28, 29, 13, 29, 30, 13, 30, 31, 13, 31, 20, 13, 20, 15, 13, 15, 14, 16, 19, 33, 16, 33, 34, 16, 34, 35, 16, 35, 36, 16, 36, 32, 17, 21, 18, 18, 21, 19, 19, 21, 33, 20, 31, 21, 21, 31, 33, 22, 37, 38, 22, 38, 39, 22, 39, 40, 22, 40, 23, 23, 40, 25, 23, 25, 24, 25, 40, 26, 26, 40, 39, 26, 39, 38, 26, 38, 41, 26, 41, 27, 27, 42, 28, 27, 41, 43, 27, 43, 42, 28, 42, 44, 28, 44, 45, 28, 45, 29, 29, 45, 46, 29, 46, 47, 29, 47, 30, 30, 47, 36, 30, 36, 35, 30, 35, 33, 30, 33, 31, 32, 36, 49, 32, 49, 50, 32, 50, 51, 32, 51, 48, 33, 35, 34, 36, 47, 49, 37, 48, 43, 37, 43, 41, 37, 41, 38, 42, 52, 44, 42, 43, 52, 43, 48, 53, 43, 53, 54, 43, 54, 52, 44, 52, 53, 44, 53, 55, 44, 55, 45, 45, 55, 56, 45, 56, 46, 46, 56, 51, 46, 51, 50, 46, 50, 57, 46, 57, 47, 47, 57, 50, 47, 50, 49, 48, 51, 58, 48, 58, 59, 48, 59, 53, 51, 56, 55, 51, 55, 58, 52, 54, 53, 53, 59, 58, 53, 58, 55]
        rel material:binding:physics = </Object/physicsMaterial>
        uniform token physics:approximation = "convexHull"
        point3f[] points = [(-0.06891731, 0.04454117, 0.016041595), (-0.06665384, 0.04454117, 0.023211926), (-0.065765046, 0.04454117, 0.009501746), (0.021905826, -0.18724164, 0.008470302), (-0.027120182, -0.065465175, 0.01562957), (-0.027037228, -0.0637577, 0.020548977), (-0.060361166, 0.04454117, 0.026137576), (-0.025437394, -0.063143015, 0.023864528), (-0.02402717, -0.0607298, 0.025988251), (-0.02227328, -0.05991022, 0.02708606), (-0.059128698, 0.04454117, 0.006620341), (-0.02155039, -0.063211314, 0.0051436904), (0.026302403, -0.18530652, 0.0037831783), (0.047147643, -0.17970604, 0.02152788), (0.020768167, -0.1880157, 0.014407325), (0.021917677, -0.18749207, 0.021243058), (-0.052089434, 0.04454117, 0.026250953), (-0.019310625, -0.061116826, 0.027993066), (-0.013906744, -0.06712711, 0.028571008), (-0.007910332, -0.07486762, 0.028930493), (0.026124641, -0.1859212, 0.025999313), (0.02931246, -0.18020688, 0.028817117), (-0.052895274, 0.04454117, 0.0059483815), (-0.014546678, -0.058908504, 0.002740674), (-0.013776387, -0.06689944, 0.002942539), (0.035308875, -0.18164116, 0.0007247962), (0.04292882, -0.17913687, 0.00068055396), (0.049553316, -0.17624557, 0.00447173), (0.052148603, -0.17396894, 0.0110917725), (0.050916135, -0.17501618, 0.02164402), (0.044054627, -0.17631386, 0.02729622), (0.035178516, -0.18257457, 0.028568244), (-0.041886054, 0.04454117, 0.022432122), (-0.0064171525, -0.07004118, 0.028861362), (-0.008775425, -0.06113959, 0.02861802), (0.0012501967, -0.07318292, 0.027865866), (-0.0042484906, -0.05421866, 0.026942268), (-0.04487241, 0.04454117, 0.0072121075), (0.00023104419, -0.061481085, 0.0035315403), (-0.012804635, -0.04977925, 0.0026826041), (-0.0071163387, -0.068060525, 0.0021793256), (0.0012975996, -0.0607298, 0.0041343668), (0.01458214, -0.079534695, 0.010063095), (-0.0016176517, -0.044816215, 0.0074360934), (0.013124515, -0.074366756, 0.012974918), (0.05039471, -0.16754887, 0.015496839), (0.011394327, -0.07202184, 0.020214379), (0.006843687, -0.06646688, 0.023576941), (-0.038899697, 0.04454117, 0.013215496), (-0.00030223475, -0.04971095, 0.02357141), (0.00053916057, -0.048982434, 0.022183247), (0.0010961385, -0.0455675, 0.017471237), (0.011500982, -0.07172588, 0.010278786), (0.0055164206, -0.056131024, 0.011849456), (0.008313167, -0.064509, 0.010134991), (0.0047816834, -0.053899936, 0.016456386), (0.0074006678, -0.060820863, 0.017584613), (0.004058795, -0.057884026, 0.022432122), (0.0014398058, -0.04600006, 0.0150267435), (0.0016412669, -0.046979006, 0.012413569)]
        uniform token subdivisionScheme = "none"
        token visibility = "invisible"
    }

    def Mesh "hull1" (
        prepend apiSchemas = ["PhysicsCollisionAPI", "PhysicsMeshCollisionAPI", "MaterialBindingAPI"]
    )
    {
        int[] faceVertexCounts = [3, 3, 3, 3, 3, 3, 3, 3, 3, 3, 3, 3, 3, 3, 3, 3, 3, 3, 3, 3, 3, 3, 3, 3, 3, 3, 3, 3, 3, 3, 3, 3, 3, 3, 3, 3, 3, 3, 3, 3, 3, 3, 3, 3, 3, 3, 3, 3, 3, 3, 3, 3, 3, 3, 3, 3, 3, 3, 3, 3, 3, 3, 3, 3, 3, 3, 3, 3, 3, 3, 3, 3, 3, 3, 3, 3, 3, 3, 3, 3, 3, 3, 3, 3, 3, 3, 3, 3, 3, 3, 3, 3, 3, 3, 3, 3, 3, 3, 3, 3, 3, 3, 3, 3, 3, 3, 3, 3, 3, 3, 3, 3, 3, 3, 3, 3, 3, 3]
        int[] faceVertexIndices = [0, 1, 2, 0, 2, 3, 0, 3, 4, 0, 4, 5, 0, 5, 6, 0, 6, 7, 0, 7, 1, 1, 8, 9, 1, 9, 10, 1, 10, 2, 1, 7, 8, 2, 10, 11, 2, 11, 3, 3, 11, 26, 3, 26, 25, 3, 25, 31, 3, 31, 12, 3, 12, 4, 4, 12, 13, 4, 13, 5, 5, 13, 14, 5, 14, 6, 6, 15, 7, 6, 14, 16, 6, 16, 17, 6, 17, 15, 7, 15, 18, 7, 18, 19, 7, 19, 8, 8, 20, 21, 8, 21, 9, 8, 19, 20, 9, 21, 22, 9, 22, 23, 9, 23, 10, 10, 23, 24, 10, 24, 25, 10, 25, 26, 10, 26, 11, 12, 27, 28, 12, 28, 29, 12, 29, 30, 12, 30, 13, 12, 31, 27, 13, 30, 32, 13, 32, 14, 14, 32, 33, 14, 33, 16, 15, 17, 18, 16, 33, 34, 16, 34, 17, 17, 34, 35, 17, 35, 36, 17, 36, 18, 18, 36, 37, 18, 37, 38, 18, 38, 19, 19, 38, 20, 20, 39, 21, 20, 38, 39, 21, 39, 22, 22, 24, 23, 22, 39, 40, 22, 40, 41, 22, 41, 24, 24, 41, 42, 24, 42, 43, 24, 43, 25, 25, 43, 31, 27, 31, 44, 27, 44, 45, 27, 45, 46, 27, 46, 28, 28, 46, 32, 28, 32, 29, 29, 32, 30, 31, 43, 42, 31, 42, 47, 31, 47, 44, 32, 46, 34, 32, 34, 33, 34, 46, 48, 34, 48, 49, 34, 49, 50, 34, 50, 35, 35, 50, 36, 36, 51, 52, 36, 52, 37, 36, 50, 53, 36, 53, 51, 37, 52, 38, 38, 52, 54, 38, 54, 40, 38, 40, 39, 40, 54, 41, 41, 54, 55, 41, 55, 42, 42, 56, 47, 42, 55, 57, 42, 57, 56, 44, 58, 45, 44, 47, 56, 44, 56, 59, 44, 59, 60, 44, 60, 58, 45, 58, 60, 45, 60, 49, 45, 49, 48, 45, 48, 46, 49, 60, 59, 49, 59, 51, 49, 51, 53, 49, 53, 50, 51, 59, 52, 52, 57, 54, 52, 59, 57, 54, 57, 55, 56, 57, 59]
        rel material:binding:physics = </Object/physicsMaterial>
        uniform token physics:approximation = "convexHull"
        point3f[] points = [(-0.124848366, 0.05371175, 0.031943962), (-0.12770711, 0.050163027, 0.02812744), (-0.12537165, 0.048531275, 0.031264987), (-0.10190615, 0.0937228, 0.029804725), (-0.10190615, 0.09965945, 0.030009348), (-0.10857744, 0.092568636, 0.030322481), (-0.120061435, 0.07765735, 0.030418592), (-0.12515512, 0.06108116, 0.029975243), (-0.12733077, 0.05286271, 0.025768079), (-0.12824072, 0.048504744, 0.020035544), (-0.12607281, 0.045758627, 0.024211707), (-0.10190615, 0.08851578, 0.028118137), (-0.10190615, 0.113098174, 0.01981232), (-0.102251574, 0.10576192, 0.029646607), (-0.10736073, 0.101092204, 0.029711714), (-0.12283512, 0.0695384, 0.029876033), (-0.111552194, 0.0990492, 0.028753709), (-0.1177337, 0.08643298, 0.028722705), (-0.12136063, 0.076032236, 0.02740196), (-0.124763295, 0.06412576, 0.02632304), (-0.12654969, 0.05700178, 0.02343042), (-0.12759112, 0.053698484, 0.0070544095), (-0.12791334, 0.051774878, 0.0023573902), (-0.12770453, 0.045334104, 0.010260163), (-0.12649557, 0.048040427, 0.0012536675), (-0.10190615, 0.088429555, 0.007007904), (-0.10190615, 0.08807136, 0.024084592), (-0.10244749, 0.11250782, 0.009705202), (-0.103063576, 0.112375155, 0.015815977), (-0.10318473, 0.11213637, 0.02017816), (-0.1024114, 0.11252772, 0.025482846), (-0.10190615, 0.09922829, 0.0036533335), (-0.1051722, 0.10960915, 0.027907314), (-0.10827326, 0.10488635, 0.028263854), (-0.11043086, 0.10244536, 0.025169712), (-0.11600659, 0.0914609, 0.023631942), (-0.119020015, 0.085265554, 0.0076620765), (-0.1213993, 0.07819463, 0.008644885), (-0.124724634, 0.06689178, 0.005271712), (-0.12676106, 0.057731427, 0.0072497306), (-0.12608312, 0.06060357, 0.002013252), (-0.12751636, 0.052318797, 0.0006770041), (-0.12620427, 0.05256422, 0.00027085922), (-0.10348375, 0.09195838, 0.0032533885), (-0.102210335, 0.103374, 0.004239298), (-0.10361006, 0.10914483, 0.0059444862), (-0.10681424, 0.10780493, 0.00914404), (-0.105167046, 0.09526168, 0.0033277974), (-0.11071958, 0.10231934, 0.007938007), (-0.11349842, 0.097649604, 0.0068373852), (-0.11549619, 0.09368963, 0.008102325), (-0.119976364, 0.08243321, 0.004905871), (-0.12138383, 0.07837373, 0.0040904814), (-0.11729548, 0.08939799, 0.006177012), (-0.124915384, 0.06565802, 0.0023325868), (-0.12438694, 0.06591671, 0.0019326431), (-0.116238594, 0.080808096, 0.0024069955), (-0.1201697, 0.0783273, 0.002868946), (-0.10639149, 0.10375209, 0.0050329855), (-0.1172697, 0.085013494, 0.0032843917), (-0.11032775, 0.0979083, 0.0044997265)]
        uniform token subdivisionScheme = "none"
        token visibility = "invisible"
    }

    def Mesh "hull2" (
        prepend apiSchemas = ["PhysicsCollisionAPI", "PhysicsMeshCollisionAPI", "MaterialBindingAPI"]
    )
    {
        int[] faceVertexCounts = [3, 3, 3, 3, 3, 3, 3, 3, 3, 3, 3, 3, 3, 3, 3, 3, 3, 3, 3, 3, 3, 3, 3, 3, 3, 3, 3, 3, 3, 3, 3, 3, 3, 3, 3, 3, 3, 3, 3, 3, 3, 3, 3, 3, 3, 3, 3, 3, 3, 3, 3, 3, 3, 3, 3, 3, 3, 3, 3, 3, 3, 3, 3, 3, 3, 3, 3, 3, 3, 3, 3, 3, 3, 3, 3, 3, 3, 3, 3, 3, 3, 3, 3, 3, 3, 3, 3, 3, 3, 3, 3, 3, 3, 3, 3, 3, 3, 3, 3, 3, 3, 3, 3, 3, 3, 3, 3, 3, 3, 3, 3, 3, 3, 3, 3, 3, 3, 3, 3, 3, 3, 3, 3, 3]
        int[] faceVertexIndices = [0, 1, 2, 0, 2, 3, 0, 3, 4, 0, 4, 5, 0, 5, 1, 1, 5, 6, 1, 6, 7, 1, 7, 2, 2, 8, 9, 2, 9, 3, 2, 7, 8, 3, 9, 10, 3, 10, 11, 3, 11, 4, 4, 11, 12, 4, 12, 13, 4, 13, 14, 4, 14, 15, 4, 15, 5, 5, 15, 16, 5, 16, 17, 5, 17, 6, 6, 18, 7, 6, 17, 19, 6, 19, 18, 7, 18, 20, 7, 20, 8, 8, 20, 21, 8, 21, 22, 8, 22, 23, 8, 23, 24, 8, 24, 9, 9, 24, 23, 9, 23, 25, 9, 25, 10, 10, 25, 11, 11, 25, 26, 11, 26, 27, 11, 27, 12, 12, 27, 13, 13, 28, 29, 13, 29, 14, 13, 27, 28, 14, 16, 15, 14, 29, 30, 14, 30, 16, 16, 30, 17, 17, 30, 31, 17, 31, 32, 17, 32, 33, 17, 33, 34, 17, 34, 19, 18, 19, 35, 18, 35, 36, 18, 36, 20, 19, 34, 37, 19, 37, 35, 20, 36, 38, 20, 38, 21, 21, 38, 22, 22, 39, 40, 22, 40, 41, 22, 41, 23, 22, 38, 39, 23, 41, 25, 25, 41, 42, 25, 42, 26, 26, 43, 27, 26, 42, 44, 26, 44, 43, 27, 45, 28, 27, 43, 45, 28, 46, 29, 28, 45, 46, 29, 31, 30, 29, 46, 31, 31, 46, 32, 32, 46, 47, 32, 47, 33, 33, 47, 48, 33, 48, 34, 34, 48, 49, 34, 49, 37, 35, 37, 50, 35, 50, 51, 35, 51, 52, 35, 52, 36, 36, 52, 51, 36, 51, 53, 36, 53, 54, 36, 54, 39, 36, 39, 38, 37, 49, 63, 37, 63, 62, 37, 62, 61, 37, 61, 60, 37, 60, 59, 37, 59, 58, 37, 58, 53, 37, 53, 51, 37, 51, 50, 39, 54, 40, 40, 54, 55, 40, 55, 41, 41, 55, 56, 41, 56, 42, 42, 56, 57, 42, 57, 44, 43, 44, 57, 43, 57, 45, 45, 57, 54, 45, 54, 53, 45, 53, 58, 45, 58, 59, 45, 59, 60, 45, 60, 61, 45, 61, 46, 46, 61, 47, 47, 61, 48, 48, 61, 62, 48, 62, 63, 48, 63, 49, 54, 57, 56, 54, 56, 55]
        rel material:binding:physics = </Object/physicsMaterial>
        uniform token physics:approximation = "convexHull"
        point3f[] points = [(-0.027251901, 0.14309594, 0.0121232215), (-0.026886865, 0.14097907, 0.0072807744), (-0.067646526, 0.12982972, 0.0062303906), (-0.031690415, 0.14241214, 0.017087322), (-0.02566731, 0.1425227, 0.019796362), (-0.020731019, 0.13087791, 0.007749589), (-0.02287146, 0.1320776, 0.0006313117), (-0.026994716, 0.13677402, 0.0019161034), (-0.07251645, 0.12809774, 0.00592477), (-0.07391022, 0.12785207, 0.01177606), (-0.07206015, 0.12848672, 0.017208977), (-0.06828534, 0.12947349, 0.026718806), (-0.026480345, 0.13963197, 0.024997838), (-0.021975461, 0.13424361, 0.02651407), (-0.020689536, 0.13174595, 0.021650853), (-0.02148598, 0.13362943, 0.016384099), (-0.02025813, 0.13023508, 0.01274633), (-0.016781988, 0.11943786, 0.008254011), (-0.027235309, 0.13023098, -0.000377532), (-0.022257535, 0.12381489, 0.0009072597), (-0.03451945, 0.12929334, 0.00007644833), (-0.08277895, 0.12061298, 0.0049099927), (-0.09825983, 0.115474366, 0.0069573508), (-0.09060236, 0.11999062, 0.0075389193), (-0.07966785, 0.1251456, 0.007443969), (-0.08763228, 0.12120668, 0.027519947), (-0.077187255, 0.12446591, 0.028368562), (-0.026687754, 0.13282691, 0.029157832), (-0.022821683, 0.1291009, 0.02918157), (-0.01864865, 0.12557143, 0.025353901), (-0.017429098, 0.12268071, 0.019579759), (-0.017022576, 0.120043844, 0.02157074), (-0.017072354, 0.117271855, 0.01941953), (-0.017462282, 0.11629327, 0.012363563), (-0.020050723, 0.11947061, 0.00428095), (-0.031640638, 0.12435127, -0.00014312414), (-0.098782495, 0.101295084, 0.003743889), (-0.061756164, 0.10127052, 0.004212705), (-0.09092592, 0.11596161, 0.004951534), (-0.10054131, 0.10955371, 0.005411448), (-0.101495385, 0.113513105, 0.011096574), (-0.09371346, 0.118270926, 0.026971016), (-0.09208739, 0.116485715, 0.028870016), (-0.07894607, 0.1187336, 0.029380372), (-0.0867031, 0.11650618, 0.029306192), (-0.030678269, 0.1253667, 0.029662255), (-0.021552352, 0.12245141, 0.027611928), (-0.018690132, 0.116195, 0.019734051), (-0.025285682, 0.11211278, 0.0132210795), (-0.0558658, 0.10127052, 0.006604256), (-0.070757635, 0.10127052, 0.0038892808), (-0.07907881, 0.10127052, 0.0036904798), (-0.08450458, 0.101278715, 0.0036756443), (-0.09002991, 0.10127052, 0.029736433), (-0.10084827, 0.102494776, 0.0299293), (-0.10153686, 0.11345988, 0.018256394), (-0.100989304, 0.11354995, 0.026163943), (-0.09852531, 0.10842772, 0.029665222), (-0.08457925, 0.10127052, 0.029513896), (-0.0768637, 0.10127052, 0.029059917), (-0.070824005, 0.10127052, 0.028597035), (-0.057342537, 0.10127052, 0.026769249), (-0.05556713, 0.10127052, 0.02199208), (-0.055094242, 0.10127052, 0.014752148)]
        uniform token subdivisionScheme = "none"
        token visibility = "invisible"
    }

    def Mesh "hull3" (
        prepend apiSchemas = ["PhysicsCollisionAPI", "PhysicsMeshCollisionAPI", "MaterialBindingAPI"]
    )
    {
        int[] faceVertexCounts = [3, 3, 3, 3, 3, 3, 3, 3, 3, 3, 3, 3, 3, 3, 3, 3, 3, 3, 3, 3, 3, 3, 3, 3, 3, 3, 3, 3, 3, 3, 3, 3, 3, 3, 3, 3, 3, 3, 3, 3, 3, 3, 3, 3, 3, 3, 3, 3, 3, 3, 3, 3, 3, 3, 3, 3, 3, 3, 3, 3, 3, 3, 3, 3, 3, 3, 3, 3, 3, 3, 3, 3, 3, 3, 3, 3, 3, 3, 3, 3, 3, 3, 3, 3, 3, 3, 3, 3, 3, 3, 3, 3, 3, 3, 3, 3, 3, 3, 3, 3, 3, 3, 3, 3, 3, 3, 3, 3, 3, 3, 3, 3, 3, 3, 3, 3, 3, 3, 3, 3, 3, 3, 3, 3]
        int[] faceVertexIndices = [0, 1, 4, 0, 4, 14, 0, 14, 24, 0, 24, 33, 0, 33, 32, 0, 32, 43, 0, 43, 37, 0, 37, 28, 0, 28, 19, 0, 19, 7, 0, 7, 2, 0, 2, 3, 0, 3, 1, 1, 3, 5, 1, 5, 6, 1, 6, 4, 2, 7, 8, 2, 8, 9, 2, 9, 3, 3, 9, 10, 3, 10, 11, 3, 11, 12, 3, 12, 5, 4, 6, 13, 4, 13, 14, 5, 12, 6, 6, 15, 13, 6, 12, 16, 6, 16, 15, 7, 17, 18, 7, 18, 8, 7, 19, 17, 8, 18, 20, 8, 20, 9, 9, 20, 11, 9, 11, 10, 11, 20, 27, 11, 27, 35, 11, 35, 34, 11, 34, 45, 11, 45, 54, 11, 54, 61, 11, 61, 58, 11, 58, 49, 11, 49, 47, 11, 47, 40, 11, 40, 29, 11, 29, 23, 11, 23, 16, 11, 16, 12, 13, 21, 22, 13, 22, 14, 13, 15, 23, 13, 23, 21, 14, 22, 24, 15, 16, 23, 17, 19, 25, 17, 25, 26, 17, 26, 27, 17, 27, 18, 18, 27, 20, 19, 28, 25, 21, 23, 29, 21, 29, 30, 21, 30, 22, 22, 30, 31, 22, 31, 32, 22, 32, 33, 22, 33, 24, 25, 34, 35, 25, 35, 36, 25, 36, 26, 25, 28, 37, 25, 37, 38, 25, 38, 34, 26, 36, 39, 26, 39, 27, 27, 39, 35, 29, 40, 31, 29, 31, 30, 31, 40, 41, 31, 41, 42, 31, 42, 32, 32, 42, 43, 34, 38, 44, 34, 44, 45, 35, 39, 36, 37, 43, 38, 38, 43, 46, 38, 46, 44, 40, 47, 42, 40, 42, 41, 42, 48, 43, 42, 47, 49, 42, 49, 50, 42, 50, 51, 42, 51, 48, 43, 48, 52, 43, 52, 53, 43, 53, 46, 44, 46, 45, 45, 46, 53, 45, 53, 54, 48, 51, 55, 48, 55, 56, 48, 56, 57, 48, 57, 52, 49, 58, 50, 50, 59, 51, 50, 58, 59, 51, 60, 55, 51, 59, 60, 52, 57, 54, 52, 54, 53, 54, 57, 61, 55, 60, 62, 55, 62, 61, 55, 61, 63, 55, 63, 56, 56, 63, 57, 57, 63, 61, 58, 61, 62, 58, 62, 60, 58, 60, 59]
        rel material:binding:physics = </Object/physicsMaterial>
        uniform token physics:approximation = "convexHull"
        point3f[] points = [(-0.052865017, 0.08231136, 0.014866984), (-0.054077145, 0.08231136, 0.008230829), (-0.052910414, 0.08231136, 0.020409366), (-0.046386708, 0.06960325, 0.01372643), (-0.058389965, 0.08231136, 0.006263818), (-0.05065867, 0.075223796, 0.007954601), (-0.050735846, 0.07135482, 0.006687071), (-0.054177023, 0.08231136, 0.024383485), (-0.048656613, 0.07281446, 0.021774912), (-0.04633223, 0.06916351, 0.018299786), (-0.045215435, 0.06639204, 0.015036286), (-0.03841934, 0.044563953, 0.015214497), (-0.03968595, 0.044563953, 0.010785938), (-0.053396177, 0.06479937, 0.0052791997), (-0.062857136, 0.08231136, 0.005976452), (-0.05084934, 0.067153275, 0.006152436), (-0.04273216, 0.044563953, 0.0078944545), (-0.05209325, 0.07024992, 0.025659926), (-0.049255867, 0.07007625, 0.023681778), (-0.059379645, 0.08231136, 0.025615374), (-0.039813064, 0.044563953, 0.020810343), (-0.054081686, 0.060882363, 0.0050408416), (-0.057768013, 0.06062, 0.00483367), (-0.0470586, 0.044563953, 0.0065311356), (-0.067692034, 0.08231136, 0.005791557), (-0.056247175, 0.061636202, 0.02732175), (-0.052660726, 0.0642266, 0.026352724), (-0.044030543, 0.044563953, 0.024245372), (-0.07088353, 0.08231136, 0.026582172), (-0.052905876, 0.044563953, 0.0059474926), (-0.05663306, 0.056137607, 0.0050698007), (-0.061554212, 0.05835478, 0.005038613), (-0.076889694, 0.08231136, 0.00575146), (-0.07355293, 0.08231136, 0.005715817), (-0.054140702, 0.044563953, 0.026484156), (-0.050077572, 0.044563953, 0.026018579), (-0.054499347, 0.05879452, 0.026974237), (-0.07723472, 0.08231136, 0.027098985), (-0.059624795, 0.058421295, 0.027582385), (-0.049364824, 0.047745597, 0.025878236), (-0.059143573, 0.044563953, 0.006620242), (-0.065817095, 0.058990374, 0.00556211), (-0.08393094, 0.08212659, 0.0063128266), (-0.08167465, 0.08231136, 0.027232643), (-0.05827193, 0.048440315, 0.02684949), (-0.058535237, 0.044563953, 0.026372774), (-0.06355173, 0.05798895, 0.027591296), (-0.0643916, 0.044563953, 0.00839122), (-0.0847935, 0.08220419, 0.025755715), (-0.0671518, 0.044563953, 0.010607727), (-0.07549143, 0.058705837, 0.011868574), (-0.07552775, 0.057216633, 0.016185751), (-0.06914023, 0.05775245, 0.02669578), (-0.065299556, 0.055339422, 0.027130174), (-0.062212486, 0.044563953, 0.025902739), (-0.074551694, 0.055904802, 0.019852456), (-0.076027125, 0.06155491, 0.023374362), (-0.06586249, 0.044811536, 0.024232006), (-0.06901312, 0.044563953, 0.015176628), (-0.07431562, 0.05502163, 0.01434126), (-0.07335318, 0.052782282, 0.016916418), (-0.068245895, 0.044563953, 0.020968506), (-0.07103787, 0.048322067, 0.017985689), (-0.07458801, 0.05834, 0.022928834)]
        uniform token subdivisionScheme = "none"
        token visibility = "invisible"
    }

    def Mesh "hull4" (
        prepend apiSchemas = ["PhysicsCollisionAPI", "PhysicsMeshCollisionAPI", "MaterialBindingAPI"]
    )
    {
        int[] faceVertexCounts = [3, 3, 3, 3, 3, 3, 3, 3, 3, 3, 3, 3, 3, 3, 3, 3, 3, 3, 3, 3, 3, 3, 3, 3, 3, 3, 3, 3, 3, 3, 3, 3, 3, 3, 3, 3, 3, 3, 3, 3, 3, 3, 3, 3, 3, 3, 3, 3, 3, 3, 3, 3, 3, 3, 3, 3, 3, 3, 3, 3, 3, 3, 3, 3, 3, 3, 3, 3, 3, 3, 3, 3, 3, 3, 3, 3, 3, 3, 3, 3, 3, 3, 3, 3, 3, 3, 3, 3, 3, 3, 3, 3, 3, 3, 3, 3, 3, 3, 3, 3, 3, 3, 3, 3, 3, 3, 3, 3, 3, 3, 3, 3, 3, 3, 3, 3, 3, 3, 3, 3, 3, 3, 3, 3]
        int[] faceVertexIndices = [0, 1, 11, 0, 11, 29, 0, 29, 18, 0, 18, 2, 0, 2, 3, 0, 3, 4, 0, 4, 5, 0, 5, 6, 0, 6, 7, 0, 7, 8, 0, 8, 9, 0, 9, 10, 0, 10, 1, 1, 10, 12, 1, 12, 13, 1, 13, 14, 1, 14, 11, 2, 15, 16, 2, 16, 17, 2, 17, 3, 2, 18, 19, 2, 19, 20, 2, 20, 21, 2, 21, 15, 3, 17, 22, 3, 22, 4, 4, 22, 23, 4, 23, 5, 5, 23, 40, 5, 40, 58, 5, 58, 59, 5, 59, 41, 5, 41, 24, 5, 24, 8, 5, 8, 7, 5, 7, 6, 8, 24, 25, 8, 25, 9, 9, 26, 10, 9, 25, 27, 9, 27, 28, 9, 28, 26, 10, 26, 36, 10, 36, 19, 10, 19, 30, 10, 30, 14, 10, 14, 13, 10, 13, 12, 11, 14, 30, 11, 30, 29, 15, 23, 16, 15, 21, 31, 15, 31, 32, 15, 32, 33, 15, 33, 23, 16, 23, 34, 16, 34, 17, 17, 34, 22, 18, 29, 30, 18, 30, 19, 19, 35, 20, 19, 36, 37, 19, 37, 35, 20, 35, 38, 20, 38, 31, 20, 31, 21, 22, 34, 39, 22, 39, 23, 23, 39, 34, 23, 33, 40, 24, 41, 42, 24, 42, 43, 24, 43, 44, 24, 44, 45, 24, 45, 25, 25, 45, 27, 26, 28, 36, 27, 45, 46, 27, 46, 44, 27, 44, 28, 28, 44, 43, 28, 43, 36, 31, 47, 32, 31, 38, 48, 31, 48, 49, 31, 49, 47, 32, 47, 33, 33, 47, 50, 33, 50, 40, 35, 37, 51, 35, 51, 38, 36, 43, 52, 36, 52, 53, 36, 53, 37, 37, 53, 54, 37, 54, 55, 37, 55, 56, 37, 56, 51, 38, 51, 48, 40, 50, 57, 40, 57, 58, 41, 59, 54, 41, 54, 42, 42, 54, 52, 42, 52, 43, 44, 46, 45, 47, 49, 50, 48, 60, 61, 48, 61, 49, 48, 51, 60, 49, 61, 57, 49, 57, 50, 51, 56, 60, 52, 54, 53, 54, 59, 58, 54, 58, 55, 55, 58, 62, 55, 62, 56, 56, 63, 60, 56, 62, 63, 57, 61, 63, 57, 63, 62, 57, 62, 58, 60, 63, 61]
        rel material:binding:physics = </Object/physicsMaterial>
        uniform token physics:approximation = "convexHull"
        point3f[] points = [(-0.10190615, 0.09406898, 0.003476708), (-0.10190615, 0.08950686, 0.004065994), (-0.10190615, 0.09189733, 0.029654477), (-0.10148453, 0.1001759, 0.0037207294), (-0.09681274, 0.10085466, 0.003668811), (-0.08450809, 0.101264514, 0.0036791943), (-0.07908028, 0.101264514, 0.0036895785), (-0.0707738, 0.101264514, 0.0038868724), (-0.06320395, 0.101264514, 0.0041360846), (-0.059748568, 0.08426042, 0.005813082), (-0.06770612, 0.08231874, 0.0057923147), (-0.10190615, 0.08810855, 0.007549787), (-0.073565245, 0.08231874, 0.005714435), (-0.07690432, 0.08231874, 0.0057507795), (-0.08391201, 0.08231874, 0.0061946902), (-0.085307725, 0.098325096, 0.029394878), (-0.08873887, 0.09845677, 0.029571405), (-0.1013973, 0.097357035, 0.029997146), (-0.10190615, 0.08852396, 0.028117662), (-0.08237574, 0.08231874, 0.02721686), (-0.07884282, 0.0832868, 0.027302528), (-0.0793226, 0.091327995, 0.028288996), (-0.09970595, 0.10034838, 0.02997378), (-0.08458079, 0.101264514, 0.029514294), (-0.05586187, 0.101264514, 0.0066022575), (-0.060364045, 0.10095666, 0.0042996313), (-0.06286471, 0.08231874, 0.0059766285), (-0.0576356, 0.086929075, 0.0056988597), (-0.056351345, 0.082413316, 0.0065788934), (-0.10190615, 0.08807702, 0.02408612), (-0.08525926, 0.08231874, 0.025524287), (-0.0758333, 0.090999745, 0.02803459), (-0.08172634, 0.09668941, 0.028989907), (-0.07730655, 0.10100302, 0.02907298), (-0.09298904, 0.09951199, 0.029805042), (-0.07094342, 0.082363255, 0.026593827), (-0.05286204, 0.08231874, 0.014867827), (-0.054170527, 0.08233914, 0.024389848), (-0.0692957, 0.08481122, 0.026783332), (-0.09016368, 0.100895464, 0.029727165), (-0.06774974, 0.101264514, 0.02835649), (-0.055091318, 0.101264514, 0.014753605), (-0.05274573, 0.086665735, 0.014148744), (-0.0532982, 0.08297895, 0.008777681), (-0.05406876, 0.08565131, 0.0065685096), (-0.05741752, 0.09866633, 0.0046812394), (-0.05612357, 0.09074568, 0.005566465), (-0.073822096, 0.09770013, 0.028514845), (-0.06381942, 0.09143556, 0.027102638), (-0.067124575, 0.09519838, 0.02777759), (-0.07101611, 0.10097521, 0.028595319), (-0.06029135, 0.083090216, 0.02579946), (-0.052396797, 0.083880246, 0.01713411), (-0.05281358, 0.08251903, 0.020124668), (-0.05245011, 0.08471848, 0.022424698), (-0.05369075, 0.08585717, 0.02505182), (-0.057562906, 0.08420478, 0.025648894), (-0.059961807, 0.10097706, 0.027723074), (-0.05684566, 0.101264514, 0.02670026), (-0.05556625, 0.101264514, 0.021993767), (-0.06069359, 0.09230348, 0.026926111), (-0.06426528, 0.095866, 0.027606256), (-0.056816585, 0.09237209, 0.026492584), (-0.059433565, 0.09506856, 0.027100042)]
        uniform token subdivisionScheme = "none"
        token visibility = "invisible"
    }
}
