#usda 1.0
(
    defaultPrim = "Object"
    metersPerUnit = 1
    subLayers = [
        @./configuration/appearance.usda@
    ]
    upAxis = "Z"
)

def Xform "Object" (
    prepend apiSchemas = ["PhysicsRigidBodyAPI", "PhysicsMassAPI"]
)
{
    custom string crossEmbodiment:objectName = "YcbHammer"
    float physics:mass = 0.665

    def Material "physicsMaterial" (
        apiSchemas = ["PhysicsMaterialAPI", "PhysxMaterialAPI"]
    )
    {
        float physics:dynamicFriction = 0.5
        float physics:restitution = 0
        float physics:staticFriction = 0.5
        token physxMaterial:frictionCombineMode = "max"
        token physxMaterial:restitutionCombineMode = "average"
    }

    def Mesh "hull0" (
        prepend apiSchemas = ["PhysicsCollisionAPI", "MaterialBindingAPI", "PhysicsMeshCollisionAPI", "NewtonSDFCollisionAPI"]
    )
    {
        int[] faceVertexCounts = [3, 3, 3, 3, 3, 3, 3, 3, 3, 3, 3, 3, 3, 3, 3, 3, 3, 3, 3, 3, 3, 3, 3, 3, 3, 3, 3, 3, 3, 3, 3, 3, 3, 3, 3, 3, 3, 3, 3, 3, 3, 3, 3, 3, 3, 3, 3, 3, 3, 3, 3, 3, 3, 3, 3, 3, 3, 3, 3, 3, 3, 3, 3, 3, 3, 3, 3, 3, 3, 3, 3, 3, 3, 3, 3, 3, 3, 3, 3, 3, 3, 3, 3, 3, 3, 3, 3, 3, 3, 3, 3, 3, 3, 3, 3, 3, 3, 3, 3, 3, 3, 3, 3, 3, 3, 3, 3, 3, 3, 3, 3, 3, 3, 3, 3, 3]
        int[] faceVertexIndices = [0, 1, 6, 0, 6, 16, 0, 16, 32, 0, 32, 48, 0, 48, 37, 0, 37, 22, 0, 22, 10, 0, 10, 2, 0, 2, 3, 0, 3, 4, 0, 4, 5, 0, 5, 1, 1, 5, 7, 1, 7, 8, 1, 8, 9, 1, 9, 6, 2, 10, 11, 2, 11, 3, 3, 12, 13, 3, 13, 14, 3, 14, 4, 3, 11, 12, 4, 14, 5, 5, 14, 15, 5, 15, 7, 6, 9, 17, 6, 17, 18, 6, 18, 19, 6, 19, 16, 7, 15, 20, 7, 20, 8, 8, 20, 9, 9, 20, 21, 9, 21, 17, 10, 22, 23, 10, 23, 24, 10, 24, 11, 11, 24, 12, 12, 25, 26, 12, 26, 13, 12, 24, 25, 13, 26, 27, 13, 27, 28, 13, 28, 29, 13, 29, 30, 13, 30, 31, 13, 31, 20, 13, 20, 15, 13, 15, 14, 16, 19, 33, 16, 33, 34, 16, 34, 35, 16, 35, 36, 16, 36, 32, 17, 21, 18, 18, 21, 19, 19, 21, 33, 20, 31, 21, 21, 31, 33, 22, 37, 38, 22, 38, 39, 22, 39, 40, 22, 40, 23, 23, 40, 25, 23, 25, 24, 25, 40, 26, 26, 40, 39, 26, 39, 38, 26, 38, 41, 26, 41, 27, 27, 42, 28, 27, 41, 43, 27, 43, 42, 28, 42, 44, 28, 44, 45, 28, 45, 29, 29, 45, 46, 29, 46, 47, 29, 47, 30, 30, 47, 36, 30, 36, 35, 30, 35, 33, 30, 33, 31, 32, 36, 49, 32, 49, 50, 32, 50, 51, 32, 51, 48, 33, 35, 34, 36, 47, 49, 37, 48, 43, 37, 43, 41, 37, 41, 38, 42, 52, 44, 42, 43, 52, 43, 48, 53, 43, 53, 54, 43, 54, 52, 44, 52, 53, 44, 53, 55, 44, 55, 45, 45, 55, 56, 45, 56, 46, 46, 56, 51, 46, 51, 50, 46, 50, 57, 46, 57, 47, 47, 57, 50, 47, 50, 49, 48, 51, 58, 48, 58, 59, 48, 59, 53, 51, 56, 55, 51, 55, 58, 52, 54, 53, 53, 59, 58, 53, 58, 55]
        rel material:binding:physics = </Object/physicsMaterial>
        custom int newton:sdfMaxResolution = 64
        uniform token physics:approximation = "none"
        point3f[] points = [(-0.06891731, 0.04454117, 0.016041595), (-0.06665384, 0.04454117, 0.023211926), (-0.065765046, 0.04454117, 0.009501746), (0.021905826, -0.18724164, 0.008470302), (-0.027120182, -0.065465175, 0.01562957), (-0.027037228, -0.0637577, 0.020548977), (-0.060361166, 0.04454117, 0.026137576), (-0.025437394, -0.063143015, 0.023864528), (-0.02402717, -0.0607298, 0.025988251), (-0.02227328, -0.05991022, 0.02708606), (-0.059128698, 0.04454117, 0.006620341), (-0.02155039, -0.063211314, 0.0051436904), (0.026302403, -0.18530652, 0.0037831783), (0.047147643, -0.17970604, 0.02152788), (0.020768167, -0.1880157, 0.014407325), (0.021917677, -0.18749207, 0.021243058), (-0.052089434, 0.04454117, 0.026250953), (-0.019310625, -0.061116826, 0.027993066), (-0.013906744, -0.06712711, 0.028571008), (-0.007910332, -0.07486762, 0.028930493), (0.026124641, -0.1859212, 0.025999313), (0.02931246, -0.18020688, 0.028817117), (-0.052895274, 0.04454117, 0.0059483815), (-0.014546678, -0.058908504, 0.002740674), (-0.013776387, -0.06689944, 0.002942539), (0.035308875, -0.18164116, 0.0007247962), (0.04292882, -0.17913687, 0.00068055396), (0.049553316, -0.17624557, 0.00447173), (0.052148603, -0.17396894, 0.0110917725), (0.050916135, -0.17501618, 0.02164402), (0.044054627, -0.17631386, 0.02729622), (0.035178516, -0.18257457, 0.028568244), (-0.041886054, 0.04454117, 0.022432122), (-0.0064171525, -0.07004118, 0.028861362), (-0.008775425, -0.06113959, 0.02861802), (0.0012501967, -0.07318292, 0.027865866), (-0.0042484906, -0.05421866, 0.026942268), (-0.04487241, 0.04454117, 0.0072121075), (0.00023104419, -0.061481085, 0.0035315403), (-0.012804635, -0.04977925, 0.0026826041), (-0.0071163387, -0.068060525, 0.0021793256), (0.0012975996, -0.0607298, 0.0041343668), (0.01458214, -0.079534695, 0.010063095), (-0.0016176517, -0.044816215, 0.0074360934), (0.013124515, -0.074366756, 0.012974918), (0.05039471, -0.16754887, 0.015496839), (0.011394327, -0.07202184, 0.020214379), (0.006843687, -0.06646688, 0.023576941), (-0.038899697, 0.04454117, 0.013215496), (-0.00030223475, -0.04971095, 0.02357141), (0.00053916057, -0.048982434, 0.022183247), (0.0010961385, -0.0455675, 0.017471237), (0.011500982, -0.07172588, 0.010278786), (0.0055164206, -0.056131024, 0.011849456), (0.008313167, -0.064509, 0.010134991), (0.0047816834, -0.053899936, 0.016456386), (0.0074006678, -0.060820863, 0.017584613), (0.004058795, -0.057884026, 0.022432122), (0.0014398058, -0.04600006, 0.0150267435), (0.0016412669, -0.046979006, 0.012413569)]
        uniform token subdivisionScheme = "none"
        token visibility = "invisible"
    }

    def Mesh "hull1" (
        prepend apiSchemas = ["PhysicsCollisionAPI", "MaterialBindingAPI", "PhysicsMeshCollisionAPI", "NewtonSDFCollisionAPI"]
    )
    {
        int[] faceVertexCounts = [3, 3, 3, 3, 3, 3, 3, 3, 3, 3, 3, 3, 3, 3, 3, 3, 3, 3, 3, 3, 3, 3, 3, 3, 3, 3, 3, 3, 3, 3, 3, 3, 3, 3, 3, 3, 3, 3, 3, 3, 3, 3, 3, 3, 3, 3, 3, 3, 3, 3, 3, 3, 3, 3, 3, 3, 3, 3, 3, 3, 3, 3, 3, 3, 3, 3, 3, 3, 3, 3, 3, 3, 3, 3, 3, 3, 3, 3, 3, 3, 3, 3, 3, 3, 3, 3, 3, 3, 3, 3, 3, 3, 3, 3, 3, 3, 3, 3, 3, 3, 3, 3, 3, 3, 3, 3, 3, 3, 3, 3, 3, 3, 3, 3, 3, 3, 3, 3]
        int[] faceVertexIndices = [0, 1, 2, 0, 2, 3, 0, 3, 4, 0, 4, 5, 0, 5, 6, 0, 6, 7, 0, 7, 1, 1, 8, 2, 1, 7, 9, 1, 9, 10, 1, 10, 11, 1, 11, 8, 2, 12, 13, 2, 13, 3, 2, 8, 12, 3, 13, 14, 3, 14, 4, 4, 14, 29, 4, 29, 28, 4, 28, 33, 4, 33, 15, 4, 15, 5, 5, 15, 16, 5, 16, 6, 6, 16, 17, 6, 17, 7, 7, 18, 9, 7, 17, 19, 7, 19, 18, 8, 11, 20, 8, 20, 21, 8, 21, 12, 9, 18, 10, 10, 22, 23, 10, 23, 11, 10, 18, 24, 10, 24, 22, 11, 23, 20, 12, 25, 13, 12, 21, 26, 12, 26, 25, 13, 25, 27, 13, 27, 28, 13, 28, 29, 13, 29, 14, 15, 30, 31, 15, 31, 32, 15, 32, 16, 15, 33, 30, 16, 32, 34, 16, 34, 17, 17, 34, 35, 17, 35, 19, 18, 19, 36, 18, 36, 37, 18, 37, 24, 19, 35, 36, 20, 38, 21, 20, 23, 38, 21, 38, 26, 22, 24, 39, 22, 39, 23, 23, 40, 41, 23, 41, 38, 23, 39, 40, 24, 42, 39, 24, 37, 43, 24, 43, 44, 24, 44, 42, 25, 26, 27, 26, 45, 27, 26, 38, 41, 26, 41, 45, 27, 45, 46, 27, 46, 47, 27, 47, 28, 28, 47, 33, 30, 33, 48, 30, 48, 49, 30, 49, 50, 30, 50, 31, 31, 34, 51, 31, 51, 32, 31, 50, 34, 32, 51, 34, 33, 47, 46, 33, 46, 52, 33, 52, 48, 34, 50, 36, 34, 36, 35, 36, 50, 53, 36, 53, 54, 36, 54, 43, 36, 43, 37, 39, 42, 55, 39, 55, 56, 39, 56, 40, 40, 56, 57, 40, 57, 45, 40, 45, 41, 42, 44, 54, 42, 54, 55, 43, 54, 44, 45, 57, 46, 46, 58, 52, 46, 57, 56, 46, 56, 58, 48, 59, 49, 48, 52, 58, 48, 58, 55, 48, 55, 60, 48, 60, 59, 49, 59, 60, 49, 60, 54, 49, 54, 53, 49, 53, 50, 54, 60, 55, 55, 58, 56]
        rel material:binding:physics = </Object/physicsMaterial>
        custom int newton:sdfMaxResolution = 64
        uniform token physics:approximation = "none"
        point3f[] points = [(-0.12484726, 0.05371175, 0.031943962), (-0.12515268, 0.06108116, 0.029975243), (-0.1277056, 0.050169654, 0.02812744), (-0.12536934, 0.048531275, 0.031264987), (-0.10157604, 0.0937228, 0.029804725), (-0.10157604, 0.09965945, 0.030009348), (-0.1085796, 0.092568636, 0.030322481), (-0.12005989, 0.07765735, 0.030418592), (-0.1273297, 0.052869342, 0.025768079), (-0.1228347, 0.0695384, 0.029876033), (-0.12135985, 0.07603887, 0.02740196), (-0.12476113, 0.06412576, 0.02632304), (-0.12824072, 0.04851137, 0.020035544), (-0.12607151, 0.045765255, 0.024211707), (-0.10157604, 0.08850915, 0.028118137), (-0.10157604, 0.113098174, 0.01981232), (-0.10225212, 0.1057553, 0.029646607), (-0.10736317, 0.101092204, 0.029711714), (-0.11773147, 0.08642635, 0.028722705), (-0.11155278, 0.0990492, 0.028753709), (-0.12654921, 0.05700178, 0.02343042), (-0.12759075, 0.053698484, 0.0070544095), (-0.12139901, 0.07819463, 0.008644885), (-0.12472458, 0.06689178, 0.005271712), (-0.11901837, 0.085265554, 0.0076620765), (-0.12770298, 0.045334104, 0.010260163), (-0.1279118, 0.05178151, 0.0023573902), (-0.1264944, 0.04804705, 0.0012536675), (-0.10157604, 0.088422924, 0.007007904), (-0.10157604, 0.08806474, 0.024084592), (-0.10244789, 0.1125012, 0.009705202), (-0.10306393, 0.112368524, 0.015815977), (-0.10241396, 0.11252772, 0.025482846), (-0.10157604, 0.09922829, 0.0036533335), (-0.105173096, 0.10960915, 0.027907314), (-0.108274184, 0.10487972, 0.028263854), (-0.11043294, 0.10243873, 0.025169712), (-0.116006024, 0.0914609, 0.023631942), (-0.12676065, 0.05773806, 0.0072497306), (-0.12138334, 0.07838037, 0.0040904814), (-0.12491514, 0.06565802, 0.0023325868), (-0.12608196, 0.06060357, 0.002013252), (-0.119976364, 0.08243321, 0.004905871), (-0.1154944, 0.093683004, 0.008102325), (-0.117292926, 0.089391366, 0.006177012), (-0.12751505, 0.052325424, 0.0006770041), (-0.12620203, 0.052570846, 0.00027085922), (-0.103484206, 0.09195175, 0.0032533885), (-0.10221035, 0.10336737, 0.004239298), (-0.10361211, 0.10914483, 0.0059444862), (-0.106815, 0.10780493, 0.00914404), (-0.10318662, 0.11213637, 0.02017816), (-0.10516787, 0.09526168, 0.0033277974), (-0.110720076, 0.10231934, 0.007938007), (-0.113500096, 0.09764297, 0.0068373852), (-0.117269434, 0.085006855, 0.0032843917), (-0.12016953, 0.0783273, 0.002868946), (-0.12438523, 0.06592335, 0.0019326431), (-0.11623835, 0.080808096, 0.0024069955), (-0.10639212, 0.10375209, 0.0050329855), (-0.110328525, 0.0979083, 0.0044997265)]
        uniform token subdivisionScheme = "none"
        token visibility = "invisible"
    }

    def Mesh "hull2" (
        prepend apiSchemas = ["PhysicsCollisionAPI", "MaterialBindingAPI", "PhysicsMeshCollisionAPI", "NewtonSDFCollisionAPI"]
    )
    {
        int[] faceVertexCounts = [3, 3, 3, 3, 3, 3, 3, 3, 3, 3, 3, 3, 3, 3, 3, 3, 3, 3, 3, 3, 3, 3, 3, 3, 3, 3, 3, 3, 3, 3, 3, 3, 3, 3, 3, 3, 3, 3, 3, 3, 3, 3, 3, 3, 3, 3, 3, 3, 3, 3, 3, 3, 3, 3, 3, 3, 3, 3, 3, 3, 3, 3, 3, 3, 3, 3, 3, 3, 3, 3, 3, 3, 3, 3, 3, 3, 3, 3, 3, 3, 3, 3, 3, 3, 3, 3, 3, 3, 3, 3, 3, 3, 3, 3, 3, 3, 3, 3, 3, 3, 3, 3, 3, 3, 3, 3, 3, 3, 3, 3, 3, 3, 3, 3, 3, 3, 3, 3, 3, 3, 3, 3, 3, 3]
        int[] faceVertexIndices = [0, 1, 2, 0, 2, 3, 0, 3, 4, 0, 4, 5, 0, 5, 1, 1, 5, 6, 1, 6, 7, 1, 7, 2, 2, 8, 9, 2, 9, 3, 2, 7, 8, 3, 9, 10, 3, 10, 11, 3, 11, 4, 4, 11, 12, 4, 12, 13, 4, 13, 14, 4, 14, 15, 4, 15, 5, 5, 15, 16, 5, 16, 17, 5, 17, 6, 6, 18, 7, 6, 17, 19, 6, 19, 18, 7, 18, 20, 7, 20, 8, 8, 20, 21, 8, 21, 22, 8, 22, 23, 8, 23, 24, 8, 24, 9, 9, 24, 23, 9, 23, 25, 9, 25, 10, 10, 25, 11, 11, 25, 26, 11, 26, 27, 11, 27, 12, 12, 27, 13, 13, 28, 29, 13, 29, 14, 13, 27, 28, 14, 16, 15, 14, 29, 30, 14, 30, 16, 16, 30, 17, 17, 30, 31, 17, 31, 32, 17, 32, 33, 17, 33, 34, 17, 34, 19, 18, 19, 35, 18, 35, 36, 18, 36, 20, 19, 34, 37, 19, 37, 35, 20, 36, 38, 20, 38, 21, 21, 38, 22, 22, 39, 40, 22, 40, 41, 22, 41, 23, 22, 38, 39, 23, 41, 25, 25, 41, 42, 25, 42, 26, 26, 43, 27, 26, 42, 44, 26, 44, 43, 27, 45, 28, 27, 43, 45, 28, 46, 29, 28, 45, 46, 29, 31, 30, 29, 46, 31, 31, 46, 32, 32, 46, 47, 32, 47, 33, 33, 47, 48, 33, 48, 49, 33, 49, 34, 34, 49, 37, 35, 37, 50, 35, 50, 51, 35, 51, 52, 35, 52, 36, 36, 52, 53, 36, 53, 54, 36, 54, 39, 36, 39, 38, 37, 49, 63, 37, 63, 62, 37, 62, 61, 37, 61, 60, 37, 60, 59, 37, 59, 58, 37, 58, 53, 37, 53, 51, 37, 51, 50, 39, 54, 40, 40, 54, 55, 40, 55, 41, 41, 55, 56, 41, 56, 42, 42, 56, 57, 42, 57, 44, 43, 44, 57, 43, 57, 45, 45, 57, 54, 45, 54, 53, 45, 53, 58, 45, 58, 59, 45, 59, 60, 45, 60, 61, 45, 61, 46, 46, 61, 47, 47, 61, 48, 48, 61, 62, 48, 62, 63, 48, 63, 49, 51, 53, 52, 54, 57, 56, 54, 56, 55]
        rel material:binding:physics = </Object/physicsMaterial>
        custom int newton:sdfMaxResolution = 64
        uniform token physics:approximation = "none"
        point3f[] points = [(-0.027251901, 0.14309181, 0.01212374), (-0.026886865, 0.14097895, 0.0072822412), (-0.067646526, 0.12982866, 0.0062320633), (-0.031690415, 0.1424109, 0.01708687), (-0.02566731, 0.14252234, 0.01979538), (-0.020731019, 0.13087684, 0.0077509647), (-0.02287146, 0.13207358, 0.00063407945), (-0.026994716, 0.13677387, 0.0019186195), (-0.07251645, 0.12809546, 0.0059265024), (-0.07391022, 0.127852, 0.0117766475), (-0.07206015, 0.12848337, 0.0172085), (-0.06828534, 0.12946965, 0.026716469), (-0.026480345, 0.13962953, 0.024995837), (-0.021975461, 0.13424009, 0.026511773), (-0.020689536, 0.13174345, 0.021649508), (-0.02148598, 0.13362934, 0.016383784), (-0.02025813, 0.13023308, 0.012746727), (-0.016781988, 0.11944182, 0.008255287), (-0.027235309, 0.13022897, -0.000377532), (-0.022257535, 0.123811975, 0.00090997416), (-0.03451945, 0.1292922, 0.000079325175), (-0.08277895, 0.1206138, 0.004911924), (-0.09825983, 0.11547608, 0.006958881), (-0.09060236, 0.11999067, 0.0075403354), (-0.07966785, 0.12514488, 0.007445405), (-0.08763228, 0.12120804, 0.027517453), (-0.077187255, 0.12446399, 0.0283659), (-0.026687754, 0.13282464, 0.029155018), (-0.022821683, 0.12909825, 0.029178752), (-0.01864865, 0.12556994, 0.02535183), (-0.017429098, 0.12267714, 0.019578818), (-0.017022576, 0.12004432, 0.02156941), (-0.017072354, 0.11727532, 0.019418621), (-0.017462282, 0.1162973, 0.0123640355), (-0.020050723, 0.11947071, 0.0042830035), (-0.031640638, 0.12434844, -0.0001402039), (-0.098782495, 0.10129682, 0.0037460483), (-0.061756164, 0.100941926, 0.0042147725), (-0.09092592, 0.115963034, 0.0049534566), (-0.10054131, 0.109554306, 0.0054132803), (-0.101495385, 0.11351592, 0.011097295), (-0.09371346, 0.118273966, 0.02696863), (-0.09208739, 0.11648712, 0.028867258), (-0.07894607, 0.118736155, 0.029377513), (-0.0867031, 0.116507754, 0.02930335), (-0.030678269, 0.1253636, 0.02965934), (-0.021552352, 0.12245017, 0.027609417), (-0.018690132, 0.11619826, 0.01973308), (-0.025285682, 0.11211284, 0.013221384), (-0.0558658, 0.100941926, 0.0066058557), (-0.070757635, 0.100941926, 0.0038914115), (-0.07907881, 0.100941926, 0.00369265), (-0.08450458, 0.100946054, 0.003677816), (-0.09002991, 0.100941926, 0.029733507), (-0.10084827, 0.10249769, 0.0299293), (-0.10153686, 0.11346226, 0.018255712), (-0.100989304, 0.113553055, 0.026161714), (-0.09852531, 0.10842772, 0.029662307), (-0.08457925, 0.100941926, 0.02951101), (-0.0768637, 0.100941926, 0.029057119), (-0.070824005, 0.100941926, 0.02859433), (-0.057342537, 0.100941926, 0.026766902), (-0.05556713, 0.100941926, 0.021990668), (-0.05510254, 0.100941926, 0.014752152)]
        uniform token subdivisionScheme = "none"
        token visibility = "invisible"
    }

    def Mesh "hull3" (
        prepend apiSchemas = ["PhysicsCollisionAPI", "MaterialBindingAPI", "PhysicsMeshCollisionAPI", "NewtonSDFCollisionAPI"]
    )
    {
        int[] faceVertexCounts = [3, 3, 3, 3, 3, 3, 3, 3, 3, 3, 3, 3, 3, 3, 3, 3, 3, 3, 3, 3, 3, 3, 3, 3, 3, 3, 3, 3, 3, 3, 3, 3, 3, 3, 3, 3, 3, 3, 3, 3, 3, 3, 3, 3, 3, 3, 3, 3, 3, 3, 3, 3, 3, 3, 3, 3, 3, 3, 3, 3, 3, 3, 3, 3, 3, 3, 3, 3, 3, 3, 3, 3, 3, 3, 3, 3, 3, 3, 3, 3, 3, 3, 3, 3, 3, 3, 3, 3, 3, 3, 3, 3, 3, 3, 3, 3, 3, 3, 3, 3, 3, 3, 3, 3, 3, 3, 3, 3, 3, 3, 3, 3, 3, 3, 3, 3, 3, 3, 3, 3, 3, 3, 3, 3]
        int[] faceVertexIndices = [0, 1, 4, 0, 4, 15, 0, 15, 24, 0, 24, 33, 0, 33, 32, 0, 32, 43, 0, 43, 37, 0, 37, 28, 0, 28, 19, 0, 19, 7, 0, 7, 2, 0, 2, 3, 0, 3, 1, 1, 3, 5, 1, 5, 6, 1, 6, 4, 2, 7, 8, 2, 8, 9, 2, 9, 3, 3, 9, 10, 3, 10, 11, 3, 11, 12, 3, 12, 5, 4, 6, 13, 4, 13, 14, 4, 14, 15, 5, 12, 6, 6, 12, 16, 6, 16, 13, 7, 17, 18, 7, 18, 8, 7, 19, 17, 8, 18, 20, 8, 20, 9, 9, 20, 11, 9, 11, 10, 11, 20, 27, 11, 27, 35, 11, 35, 34, 11, 34, 45, 11, 45, 54, 11, 54, 61, 11, 61, 58, 11, 58, 49, 11, 49, 47, 11, 47, 40, 11, 40, 29, 11, 29, 21, 11, 21, 16, 11, 16, 12, 13, 16, 21, 13, 21, 14, 14, 22, 23, 14, 23, 15, 14, 21, 22, 15, 23, 24, 17, 19, 25, 17, 25, 26, 17, 26, 27, 17, 27, 18, 18, 27, 20, 19, 28, 25, 21, 29, 22, 22, 29, 30, 22, 30, 23, 23, 30, 31, 23, 31, 32, 23, 32, 33, 23, 33, 24, 25, 34, 35, 25, 35, 36, 25, 36, 26, 25, 28, 37, 25, 37, 38, 25, 38, 34, 26, 36, 39, 26, 39, 27, 27, 39, 35, 29, 40, 31, 29, 31, 30, 31, 40, 41, 31, 41, 42, 31, 42, 32, 32, 42, 43, 34, 38, 44, 34, 44, 45, 35, 39, 36, 37, 43, 38, 38, 43, 46, 38, 46, 44, 40, 47, 42, 40, 42, 41, 42, 48, 43, 42, 47, 49, 42, 49, 50, 42, 50, 51, 42, 51, 48, 43, 48, 52, 43, 52, 53, 43, 53, 46, 44, 46, 45, 45, 46, 53, 45, 53, 54, 48, 51, 55, 48, 55, 56, 48, 56, 57, 48, 57, 52, 49, 58, 50, 50, 59, 51, 50, 58, 59, 51, 60, 55, 51, 59, 60, 52, 57, 54, 52, 54, 53, 54, 57, 61, 55, 60, 62, 55, 62, 61, 55, 61, 63, 55, 63, 56, 56, 63, 57, 57, 63, 61, 58, 61, 62, 58, 62, 60, 58, 60, 59]
        rel material:binding:physics = </Object/physicsMaterial>
        custom int newton:sdfMaxResolution = 64
        uniform token physics:approximation = "none"
        point3f[] points = [(-0.052868143, 0.08264035, 0.014866984), (-0.054080155, 0.08264035, 0.008230829), (-0.05291354, 0.08264035, 0.020407138), (-0.04639047, 0.069601566, 0.01372643), (-0.05839255, 0.08264035, 0.006263818), (-0.05066201, 0.075222634, 0.007954601), (-0.05073918, 0.071353495, 0.006687071), (-0.05418002, 0.08264035, 0.024381258), (-0.04866015, 0.07281094, 0.021772685), (-0.046335995, 0.06916171, 0.018299786), (-0.04521931, 0.06638846, 0.015036286), (-0.038419344, 0.044563957, 0.015216725), (-0.039690364, 0.044563957, 0.010785938), (-0.050852664, 0.0671526, 0.006152436), (-0.05339925, 0.06479682, 0.005281427), (-0.06285475, 0.08264035, 0.005976452), (-0.04273628, 0.044563957, 0.007896682), (-0.052096453, 0.07024642, 0.025659926), (-0.049259346, 0.07007496, 0.023681778), (-0.059382133, 0.08264035, 0.025615374), (-0.039817467, 0.044563957, 0.020810343), (-0.047062296, 0.044563957, 0.0065311356), (-0.054084692, 0.06088294, 0.005043069), (-0.05777066, 0.06062202, 0.00483367), (-0.06768917, 0.08264035, 0.005791557), (-0.056249972, 0.061639633, 0.02732175), (-0.05266387, 0.06422651, 0.026350496), (-0.044034537, 0.044563957, 0.024245372), (-0.070880346, 0.08264035, 0.026582172), (-0.052908998, 0.044563957, 0.0059474926), (-0.056635816, 0.05613784, 0.005072028), (-0.06155649, 0.058355696, 0.005038613), (-0.07688593, 0.08264035, 0.00575146), (-0.073549494, 0.08264035, 0.005715817), (-0.054143704, 0.044563957, 0.026484156), (-0.050080974, 0.044563957, 0.026018579), (-0.054502316, 0.058795545, 0.026972009), (-0.07723092, 0.08264035, 0.027096758), (-0.059627257, 0.058422793, 0.027582385), (-0.049368292, 0.04774724, 0.025876008), (-0.059146088, 0.044563957, 0.006620242), (-0.06581441, 0.0589931, 0.00556211), (-0.083926484, 0.082125954, 0.0063128266), (-0.08167042, 0.08264035, 0.027230415), (-0.058274526, 0.048440553, 0.026847262), (-0.05853781, 0.044563957, 0.026372774), (-0.06354927, 0.057990406, 0.027591296), (-0.06438905, 0.044563957, 0.008393447), (-0.0847935, 0.08220051, 0.025755715), (-0.06714898, 0.044563957, 0.010609955), (-0.0754878, 0.058706086, 0.011868574), (-0.075524114, 0.057218812, 0.016185751), (-0.06913723, 0.057755575, 0.026693555), (-0.065296926, 0.055340152, 0.027130174), (-0.062210158, 0.044563957, 0.025900513), (-0.074548155, 0.05590673, 0.019852456), (-0.07602345, 0.061557617, 0.023372134), (-0.06585981, 0.044813696, 0.024232006), (-0.06901013, 0.044563957, 0.015176628), (-0.074312106, 0.055023316, 0.01434126), (-0.07334976, 0.052783087, 0.016916418), (-0.068242975, 0.044563957, 0.020968506), (-0.071034685, 0.048325002, 0.017985689), (-0.07458447, 0.058340788, 0.022928834)]
        uniform token subdivisionScheme = "none"
        token visibility = "invisible"
    }

    def Mesh "hull4" (
        prepend apiSchemas = ["PhysicsCollisionAPI", "MaterialBindingAPI", "PhysicsMeshCollisionAPI", "NewtonSDFCollisionAPI"]
    )
    {
        int[] faceVertexCounts = [3, 3, 3, 3, 3, 3, 3, 3, 3, 3, 3, 3, 3, 3, 3, 3, 3, 3, 3, 3, 3, 3, 3, 3, 3, 3, 3, 3, 3, 3, 3, 3, 3, 3, 3, 3, 3, 3, 3, 3, 3, 3, 3, 3, 3, 3, 3, 3, 3, 3, 3, 3, 3, 3, 3, 3, 3, 3, 3, 3, 3, 3, 3, 3, 3, 3, 3, 3, 3, 3, 3, 3, 3, 3, 3, 3, 3, 3, 3, 3, 3, 3, 3, 3, 3, 3, 3, 3, 3, 3, 3, 3, 3, 3, 3, 3, 3, 3, 3, 3, 3, 3, 3, 3, 3, 3, 3, 3, 3, 3, 3, 3, 3, 3, 3, 3, 3, 3, 3, 3, 3, 3, 3, 3]
        int[] faceVertexIndices = [0, 1, 11, 0, 11, 29, 0, 29, 18, 0, 18, 2, 0, 2, 3, 0, 3, 4, 0, 4, 5, 0, 5, 6, 0, 6, 7, 0, 7, 8, 0, 8, 9, 0, 9, 10, 0, 10, 1, 1, 10, 12, 1, 12, 13, 1, 13, 14, 1, 14, 11, 2, 15, 16, 2, 16, 17, 2, 17, 3, 2, 18, 19, 2, 19, 20, 2, 20, 21, 2, 21, 15, 3, 17, 22, 3, 22, 4, 4, 22, 23, 4, 23, 5, 5, 23, 40, 5, 40, 58, 5, 58, 59, 5, 59, 41, 5, 41, 24, 5, 24, 8, 5, 8, 7, 5, 7, 6, 8, 24, 25, 8, 25, 9, 9, 26, 10, 9, 25, 27, 9, 27, 28, 9, 28, 26, 10, 26, 36, 10, 36, 19, 10, 19, 30, 10, 30, 14, 10, 14, 13, 10, 13, 12, 11, 14, 30, 11, 30, 29, 15, 23, 16, 15, 21, 31, 15, 31, 32, 15, 32, 33, 15, 33, 23, 16, 23, 34, 16, 34, 17, 17, 34, 22, 18, 29, 30, 18, 30, 19, 19, 35, 20, 19, 36, 37, 19, 37, 35, 20, 35, 38, 20, 38, 31, 20, 31, 21, 22, 34, 39, 22, 39, 23, 23, 39, 34, 23, 33, 40, 24, 41, 42, 24, 42, 43, 24, 43, 44, 24, 44, 45, 24, 45, 25, 25, 45, 27, 26, 28, 36, 27, 45, 46, 27, 46, 44, 27, 44, 28, 28, 44, 43, 28, 43, 36, 31, 47, 32, 31, 38, 48, 31, 48, 49, 31, 49, 47, 32, 47, 33, 33, 47, 50, 33, 50, 40, 35, 37, 51, 35, 51, 38, 36, 43, 52, 36, 52, 53, 36, 53, 37, 37, 53, 54, 37, 54, 55, 37, 55, 56, 37, 56, 51, 38, 51, 48, 40, 50, 57, 40, 57, 58, 41, 59, 54, 41, 54, 42, 42, 54, 52, 42, 52, 43, 44, 46, 45, 47, 49, 50, 48, 60, 61, 48, 61, 49, 48, 51, 60, 49, 61, 57, 49, 57, 50, 51, 56, 60, 52, 54, 53, 54, 59, 58, 54, 58, 55, 55, 58, 62, 55, 62, 56, 56, 63, 60, 56, 62, 63, 57, 61, 63, 57, 63, 62, 57, 62, 58, 60, 63, 61]
        rel material:binding:physics = </Object/physicsMaterial>
        custom int newton:sdfMaxResolution = 64
        uniform token physics:approximation = "none"
        point3f[] points = [(-0.10223888, 0.09406642, 0.003476708), (-0.10223888, 0.08950916, 0.00406859), (-0.10223888, 0.09189529, 0.029654477), (-0.1014729, 0.100170925, 0.0037207294), (-0.096798986, 0.100850485, 0.0036714065), (-0.08449459, 0.10159723, 0.0036791943), (-0.07906933, 0.10159723, 0.003692174), (-0.07077533, 0.10159723, 0.003889468), (-0.063208275, 0.10159723, 0.0041360846), (-0.059749186, 0.084260814, 0.005813082), (-0.06771631, 0.081986025, 0.0057923147), (-0.10223888, 0.08811164, 0.007552382), (-0.07356602, 0.081986025, 0.005714435), (-0.076912895, 0.081986025, 0.0057533747), (-0.08389937, 0.081986025, 0.0061972854), (-0.085294716, 0.0983223, 0.029392283), (-0.08873429, 0.09845283, 0.029571405), (-0.10139484, 0.097354785, 0.029997146), (-0.10223888, 0.08852821, 0.028117662), (-0.0823723, 0.081986025, 0.02721686), (-0.07883027, 0.08328755, 0.027302528), (-0.07931816, 0.09133283, 0.028288996), (-0.09970189, 0.100347534, 0.02997378), (-0.08457753, 0.10159723, 0.029511698), (-0.055865645, 0.10159723, 0.0066074487), (-0.0603688, 0.100954145, 0.0042996313), (-0.062866755, 0.081986025, 0.0059766285), (-0.057636656, 0.08693106, 0.0057014553), (-0.056353524, 0.08241603, 0.006584085), (-0.10223888, 0.088080935, 0.02408612), (-0.08525569, 0.081986025, 0.025521692), (-0.07584443, 0.09100265, 0.02803459), (-0.081713654, 0.09668675, 0.028989907), (-0.077317834, 0.10100021, 0.02907298), (-0.092988625, 0.09950864, 0.029802447), (-0.07094609, 0.08236612, 0.026588636), (-0.052865166, 0.081986025, 0.014867827), (-0.05417269, 0.08234116, 0.024389848), (-0.069297045, 0.08481368, 0.026780738), (-0.0901589, 0.10089464, 0.029727165), (-0.06775046, 0.10159723, 0.028353896), (-0.055094786, 0.10159723, 0.014753605), (-0.052748073, 0.08666998, 0.014151339), (-0.053299382, 0.082982324, 0.008777681), (-0.054070234, 0.08565256, 0.006571105), (-0.05742199, 0.09866399, 0.004683835), (-0.05612422, 0.09074925, 0.005569061), (-0.07382948, 0.09769841, 0.028514845), (-0.06382301, 0.09143841, 0.027102638), (-0.06713573, 0.095195174, 0.02777759), (-0.07101927, 0.100971416, 0.028592724), (-0.060295615, 0.08309174, 0.02579946), (-0.052396797, 0.083882645, 0.01713411), (-0.052816376, 0.082523525, 0.020124668), (-0.052450467, 0.08471961, 0.022422103), (-0.053694565, 0.0858618, 0.025049224), (-0.057563473, 0.084207065, 0.025643703), (-0.059963856, 0.100973345, 0.027720477), (-0.056846287, 0.10159723, 0.02669507), (-0.055568036, 0.10159723, 0.021993767), (-0.06069568, 0.092302255, 0.026926111), (-0.06426698, 0.09586129, 0.027606256), (-0.056817014, 0.092369445, 0.026489988), (-0.059436943, 0.09506464, 0.027097445)]
        uniform token subdivisionScheme = "none"
        token visibility = "invisible"
    }
}

