#usda 1.0
(
    defaultPrim = "Object"
    metersPerUnit = 1
    subLayers = [
        @./configuration/appearance.usda@
    ]
    upAxis = "Z"
)

def Xform "Object" (
    prepend apiSchemas = ["PhysicsRigidBodyAPI", "PhysicsMassAPI"]
)
{
    custom string crossEmbodiment:objectName = "YcbBanana"
    float physics:mass = 0.066

    def Material "physicsMaterial" (
        apiSchemas = ["PhysicsMaterialAPI", "PhysxMaterialAPI"]
    )
    {
        float physics:dynamicFriction = 0.5
        float physics:restitution = 0
        float physics:staticFriction = 0.5
        token physxMaterial:frictionCombineMode = "max"
        token physxMaterial:restitutionCombineMode = "average"
    }

    def Mesh "hull0" (
        prepend apiSchemas = ["PhysicsCollisionAPI", "PhysicsMeshCollisionAPI", "MaterialBindingAPI"]
    )
    {
        int[] faceVertexCounts = [3, 3, 3, 3, 3, 3, 3, 3, 3, 3, 3, 3, 3, 3, 3, 3, 3, 3, 3, 3, 3, 3, 3, 3, 3, 3, 3, 3, 3, 3, 3, 3, 3, 3, 3, 3, 3, 3, 3, 3, 3, 3, 3, 3, 3, 3, 3, 3, 3, 3, 3, 3, 3, 3, 3, 3, 3, 3, 3, 3, 3, 3, 3, 3, 3, 3, 3, 3, 3, 3, 3, 3, 3, 3, 3, 3, 3, 3, 3, 3, 3, 3, 3, 3, 3, 3, 3, 3, 3, 3, 3, 3, 3, 3, 3, 3, 3, 3, 3, 3, 3, 3, 3, 3, 3, 3, 3, 3, 3, 3, 3, 3, 3, 3, 3, 3, 3, 3, 3, 3, 3, 3, 3, 3]
        int[] faceVertexIndices = [16, 61, 34, 16, 33, 34, 62, 61, 34, 6, 33, 34, 24, 6, 29, 24, 6, 27, 25, 24, 29, 4, 6, 33, 4, 6, 29, 28, 25, 29, 28, 4, 29, 45, 38, 15, 21, 20, 15, 21, 24, 27, 5, 21, 20, 63, 62, 9, 63, 10, 9, 63, 62, 61, 63, 10, 61, 8, 10, 9, 18, 6, 34, 57, 58, 48, 43, 14, 38, 22, 58, 16, 31, 16, 33, 11, 14, 38, 11, 28, 38, 11, 31, 28, 11, 31, 16, 3, 28, 25, 3, 21, 15, 3, 25, 24, 3, 21, 24, 19, 20, 15, 19, 45, 15, 1, 5, 20, 47, 10, 40, 47, 10, 61, 7, 8, 9, 7, 1, 9, 7, 1, 20, 37, 10, 40, 37, 8, 10, 37, 7, 8, 37, 19, 20, 37, 7, 20, 0, 21, 27, 0, 5, 21, 42, 43, 48, 42, 57, 48, 17, 22, 16, 30, 31, 33, 30, 28, 4, 30, 31, 28, 2, 28, 38, 2, 3, 28, 2, 38, 15, 2, 3, 15, 50, 19, 45, 50, 37, 40, 50, 37, 19, 26, 1, 5, 26, 0, 5, 26, 60, 62, 26, 62, 9, 26, 1, 9, 56, 47, 61, 56, 47, 55, 56, 55, 53, 56, 16, 61, 56, 58, 16, 56, 58, 53, 51, 55, 53, 51, 52, 53, 44, 52, 49, 44, 47, 55, 44, 51, 55, 44, 51, 52, 44, 49, 40, 44, 47, 40, 54, 52, 49, 54, 42, 57, 35, 0, 18, 35, 18, 34, 35, 26, 60, 35, 26, 0, 35, 62, 34, 35, 60, 62, 13, 18, 6, 13, 0, 18, 13, 6, 27, 13, 0, 27, 23, 17, 14, 23, 17, 22, 23, 43, 14, 23, 43, 48, 23, 58, 48, 23, 22, 58, 12, 11, 14, 12, 17, 14, 12, 11, 16, 12, 17, 16, 32, 4, 33, 32, 30, 33, 32, 30, 4, 46, 42, 49, 46, 49, 40, 46, 50, 40, 46, 45, 38, 46, 50, 45, 36, 42, 49, 36, 54, 49, 36, 54, 42, 59, 52, 53, 59, 54, 52, 59, 54, 57, 59, 58, 53, 59, 57, 58, 41, 42, 43, 41, 46, 42, 39, 46, 38, 39, 41, 46, 39, 43, 38, 39, 41, 43]
        rel material:binding:physics = </Object/physicsMaterial>
        uniform token physics:approximation = "convexHull"
        point3f[] points = [(0.09661285, 0.004617797, 0.0141406), (0.09842875, -0.00017186734, 0.0059104306), (0.11752524, -0.023114918, 0.021371895), (0.11333801, -0.016192993, 0.022511808), (0.08993443, -0.0026429817, 0.029068045), (0.10102401, 0.0003592269, 0.010282373), (0.08840807, 0.008188072, 0.02124949), (0.105268866, -0.0065790173, 0.005647392), (0.096179344, -0.0109155355, 0.000502304), (0.09688749, -0.0002667488, 0.0044110757), (0.09456296, -0.012883358, -0.0006892218), (0.0955858, -0.01766013, 0.027544752), (0.08732117, -0.019046547, 0.026984144), (0.097235635, 0.0039231773, 0.015606572), (0.09222335, -0.023338133, 0.02464226), (0.12092817, -0.02042884, 0.015739946), (0.074823946, -0.011286526, 0.029968156), (0.07961919, -0.017777303, 0.027089568), (0.08875064, 0.00843636, 0.01923714), (0.118472315, -0.019200169, 0.009017082), (0.11541437, -0.0135944905, 0.008954249), (0.11702795, -0.013642341, 0.015840592), (0.077208325, -0.021438243, 0.02336518), (0.08581556, -0.024566162, 0.02290316), (0.102982804, -0.0022858144, 0.020943012), (0.104994185, -0.008174541, 0.023845898), (0.095523074, 0.0041481946, 0.009114726), (0.10032352, 0.001381032, 0.017768439), (0.102828376, -0.014736913, 0.02747384), (0.09463343, -0.002247588, 0.026753658), (0.08965327, -0.007797072, 0.03055418), (0.087516576, -0.008546572, 0.030683666), (0.08652, -0.004323, 0.030746), (0.075221024, 0.0007424994, 0.032488894), (0.074358314, 0.014588338, 0.021466836), (0.075005054, 0.015279424, 0.011720724), (0.09936049, -0.029291252, 0.009402928), (0.1060554, -0.01921597, 0.0018839659), (0.11689575, -0.027422855, 0.021018082), (0.11469876, -0.029227572, 0.01981824), (0.10852787, -0.023499336, 0.0030824922), (0.11123696, -0.031871565, 0.016804492), (0.10280536, -0.0307541, 0.014427285), (0.10481907, -0.030744433, 0.01906191), (0.095022015, -0.023667522, 0.0036944752), (0.11908302, -0.024681335, 0.009416498), (0.11442476, -0.03111892, 0.0100877555), (0.09244678, -0.019325739, 0.0014685506), (0.091145635, -0.027957916, 0.018285878), (0.101286955, -0.029365437, 0.008398771), (0.116065815, -0.0264514, 0.006672028), (0.084513, -0.022694, 0.005331), (0.087880015, -0.024424601, 0.0061133974), (0.075681716, -0.020601332, 0.0061587896), (0.088484816, -0.026580067, 0.00945856), (0.085368365, -0.019753646, 0.0026239213), (0.075409636, -0.014941819, 0.0015096262), (0.08564387, -0.026245797, 0.01361734), (0.07556056, -0.022503715, 0.019742034), (0.08303759, -0.024421446, 0.008414199), (0.08076977, 0.011621751, 0.008618782), (0.07505819, -0.005018009, -0.0020019808), (0.07503476, 0.01214976, 0.0038530957), (0.07569907, 0.0048722937, 0.00077470316)]
        uniform token subdivisionScheme = "none"
        token visibility = "invisible"
    }

    def Mesh "hull1" (
        prepend apiSchemas = ["PhysicsCollisionAPI", "PhysicsMeshCollisionAPI", "MaterialBindingAPI"]
    )
    {
        int[] faceVertexCounts = [3, 3, 3, 3, 3, 3, 3, 3, 3, 3, 3, 3, 3, 3, 3, 3, 3, 3, 3, 3, 3, 3, 3, 3, 3, 3, 3, 3, 3, 3, 3, 3, 3, 3, 3, 3, 3, 3, 3, 3, 3, 3, 3, 3, 3, 3, 3, 3, 3, 3, 3, 3, 3, 3, 3, 3, 3, 3, 3, 3, 3, 3, 3, 3, 3, 3, 3, 3, 3, 3, 3, 3, 3, 3, 3, 3, 3, 3, 3, 3, 3, 3, 3, 3, 3, 3, 3, 3, 3, 3, 3, 3, 3, 3, 3, 3, 3, 3, 3, 3, 3, 3, 3, 3, 3, 3, 3, 3, 3, 3, 3, 3, 3, 3, 3, 3, 3, 3, 3, 3, 3, 3, 3, 3]
        int[] faceVertexIndices = [44, 63, 34, 42, 63, 33, 42, 63, 54, 30, 7, 34, 30, 63, 34, 30, 63, 33, 36, 44, 34, 6, 42, 35, 6, 26, 42, 5, 42, 33, 5, 26, 42, 49, 63, 54, 49, 44, 63, 50, 42, 54, 39, 42, 35, 48, 62, 34, 48, 36, 34, 4, 5, 26, 28, 30, 7, 28, 4, 7, 28, 4, 5, 8, 30, 33, 8, 5, 33, 8, 28, 30, 8, 28, 5, 40, 49, 44, 40, 49, 41, 38, 50, 42, 52, 49, 54, 52, 50, 54, 52, 49, 41, 52, 50, 41, 60, 39, 42, 60, 38, 42, 60, 50, 41, 60, 38, 50, 58, 60, 39, 53, 48, 36, 53, 48, 47, 53, 46, 47, 32, 7, 34, 22, 48, 47, 22, 48, 62, 27, 4, 7, 27, 4, 26, 45, 40, 41, 59, 29, 46, 59, 53, 37, 59, 53, 46, 51, 53, 36, 51, 53, 37, 51, 36, 44, 51, 37, 44, 9, 46, 47, 9, 29, 46, 9, 6, 35, 9, 29, 35, 13, 32, 34, 13, 31, 7, 13, 32, 7, 24, 22, 62, 24, 18, 22, 16, 6, 26, 43, 37, 44, 43, 59, 37, 55, 58, 39, 55, 39, 35, 55, 29, 35, 55, 59, 29, 14, 18, 6, 14, 18, 2, 14, 16, 6, 14, 16, 2, 23, 22, 47, 23, 18, 22, 19, 9, 6, 19, 18, 6, 19, 9, 47, 19, 23, 47, 19, 23, 18, 12, 13, 21, 25, 13, 21, 25, 24, 21, 25, 24, 62, 25, 62, 34, 25, 13, 34, 17, 24, 21, 17, 24, 18, 56, 43, 59, 10, 13, 31, 10, 31, 7, 15, 18, 2, 15, 17, 18, 20, 17, 21, 20, 3, 21, 20, 15, 17, 20, 15, 2, 20, 16, 2, 20, 3, 16, 1, 12, 21, 1, 3, 21, 1, 3, 16, 61, 56, 59, 61, 55, 58, 61, 55, 59, 61, 56, 45, 61, 58, 60, 61, 60, 41, 61, 45, 41, 57, 56, 43, 57, 40, 44, 57, 43, 44, 57, 45, 40, 57, 56, 45, 11, 1, 12, 11, 12, 13, 11, 10, 13, 11, 10, 7, 11, 27, 7, 11, 27, 26, 0, 11, 26, 0, 11, 1, 0, 16, 26, 0, 1, 16]
        rel material:binding:physics = </Object/physicsMaterial>
        uniform token physics:approximation = "convexHull"
        point3f[] points = [(0.07765198, -0.00060256105, 0.031986684), (0.07366266, 0.0028197877, 0.031905647), (0.07498811, 0.009456003, 0.026789011), (0.070549, 0.005744, 0.031264), (0.08269271, -0.015734283, 0.02848487), (0.08691068, -0.021144887, 0.02619303), (0.086045876, 0.009460265, 0.019899117), (0.035364687, 0.008602082, 0.034107734), (0.08596497, -0.024156304, 0.023216397), (0.076850705, 0.014410081, 0.017784478), (0.05376, 0.006685, 0.033594), (0.06939575, 0.00171492, 0.032947205), (0.060373046, 0.0073476452, 0.032770477), (0.051078565, 0.010396697, 0.033217262), (0.07951566, 0.009894605, 0.023860408), (0.07164191, 0.010414996, 0.027318988), (0.086027935, 0.001037562, 0.02886917), (0.06360137, 0.013035664, 0.028201627), (0.07000955, 0.01451578, 0.023668882), (0.07130441, 0.01627945, 0.01959754), (0.06749201, 0.008513575, 0.03051449), (0.058862336, 0.009812596, 0.03214276), (0.061417874, 0.01757411, 0.02354316), (0.064404, 0.017975, 0.021249), (0.05946791, 0.015372057, 0.027205542), (0.052298356, 0.01597443, 0.02836831), (0.086605564, -0.0072709415, 0.03096996), (0.08176044, -0.009309866, 0.030600123), (0.03653396, -0.0021948763, 0.030282807), (0.074572966, 0.015530724, 0.012746804), (0.035733584, -0.012048653, 0.020519646), (0.050261788, 0.008012604, 0.033661198), (0.037121363, 0.011367131, 0.033525407), (0.08704909, -0.027340671, 0.007269695), (0.03472277, 0.022912836, 0.02418917), (0.08604297, 0.009416094, 0.008562171), (0.036980446, 0.025160963, 0.016212), (0.04909686, 0.021770747, 0.008294949), (0.07053385, -0.000036607456, -0.00148578), (0.08514631, 0.0070257075, 0.004090242), (0.041700948, 0.016545001, 0.0010358774), (0.059999745, 0.009623768, -0.00025946213), (0.08675673, -0.008476815, -0.001282278), (0.04990911, 0.019488348, 0.0039936), (0.03506742, 0.022540785, 0.004393748), (0.056461122, 0.013743884, 0.0012531684), (0.0682821, 0.017974447, 0.013902002), (0.063091286, 0.019505808, 0.019319966), (0.054376185, 0.021733815, 0.01999099), (0.03549938, 0.012107911, -0.0011315926), (0.060512424, 0.002257615, -0.0021574392), (0.046033103, 0.023436075, 0.012538309), (0.05162832, 0.0043400885, -0.002291711), (0.057039857, 0.021489006, 0.016253725), (0.036463637, 0.0036096699, -0.0030522435), (0.07525929, 0.013321212, 0.0060626157), (0.05811503, 0.016802225, 0.0033851643), (0.049580045, 0.017131707, 0.0023126327), (0.076607406, 0.010073177, 0.003533752), (0.062892176, 0.017711649, 0.0054890825), (0.07074985, 0.006494608, 0.00018670617), (0.06606116, 0.013485554, 0.0027261546), (0.047956057, 0.019081624, 0.026013685), (0.035731774, -0.005818705, 0.0000903119)]
        uniform token subdivisionScheme = "none"
        token visibility = "invisible"
    }

    def Mesh "hull2" (
        prepend apiSchemas = ["PhysicsCollisionAPI", "PhysicsMeshCollisionAPI", "MaterialBindingAPI"]
    )
    {
        int[] faceVertexCounts = [3, 3, 3, 3, 3, 3, 3, 3, 3, 3, 3, 3, 3, 3, 3, 3, 3, 3, 3, 3, 3, 3, 3, 3, 3, 3, 3, 3, 3, 3, 3, 3, 3, 3, 3, 3, 3, 3, 3, 3, 3, 3, 3, 3, 3, 3, 3, 3, 3, 3, 3, 3, 3, 3, 3, 3, 3, 3, 3, 3, 3, 3, 3, 3, 3, 3, 3, 3, 3, 3, 3, 3, 3, 3, 3, 3, 3, 3, 3, 3, 3, 3, 3, 3, 3, 3, 3, 3, 3, 3, 3, 3, 3, 3, 3, 3, 3, 3, 3, 3, 3, 3, 3, 3, 3, 3, 3, 3, 3, 3, 3, 3, 3, 3, 3, 3, 3, 3, 3, 3]
        int[] faceVertexIndices = [51, 61, 27, 4, 61, 27, 26, 51, 27, 3, 2, 27, 3, 4, 27, 3, 11, 2, 3, 11, 61, 3, 4, 61, 48, 55, 57, 48, 51, 61, 48, 55, 50, 48, 11, 50, 48, 11, 61, 23, 2, 27, 52, 55, 50, 40, 26, 51, 40, 48, 51, 59, 55, 57, 17, 23, 27, 1, 23, 2, 34, 1, 23, 7, 11, 2, 12, 11, 50, 12, 7, 11, 12, 7, 8, 38, 17, 18, 38, 17, 31, 60, 58, 57, 60, 59, 57, 60, 38, 31, 60, 38, 58, 47, 58, 57, 30, 17, 31, 56, 52, 55, 56, 59, 55, 21, 26, 27, 21, 17, 27, 5, 1, 2, 5, 1, 8, 53, 52, 50, 22, 34, 23, 6, 7, 2, 6, 7, 8, 6, 5, 2, 6, 5, 8, 10, 8, 9, 10, 12, 9, 10, 12, 8, 36, 40, 48, 36, 47, 48, 36, 40, 26, 41, 48, 57, 41, 47, 57, 41, 47, 48, 37, 60, 59, 37, 30, 59, 37, 60, 31, 37, 30, 31, 15, 17, 23, 15, 30, 17, 33, 30, 59, 33, 56, 59, 33, 56, 52, 33, 53, 52, 19, 17, 18, 19, 21, 17, 32, 23, 13, 32, 22, 23, 35, 21, 26, 35, 36, 26, 35, 19, 21, 35, 36, 47, 28, 15, 23, 28, 15, 30, 46, 12, 50, 46, 49, 50, 46, 12, 9, 45, 32, 22, 45, 33, 53, 45, 32, 33, 25, 22, 34, 25, 45, 22, 25, 45, 49, 0, 20, 9, 0, 8, 9, 0, 1, 8, 44, 46, 49, 44, 25, 49, 44, 25, 20, 24, 19, 18, 24, 35, 19, 39, 38, 18, 39, 24, 18, 39, 24, 35, 39, 38, 58, 39, 47, 58, 39, 35, 47, 14, 23, 13, 14, 28, 13, 14, 28, 23, 29, 33, 30, 29, 28, 30, 29, 28, 13, 29, 32, 13, 29, 32, 33, 54, 49, 50, 54, 45, 49, 54, 53, 50, 54, 45, 53, 16, 34, 1, 16, 25, 34, 16, 25, 20, 16, 0, 1, 16, 0, 20, 43, 20, 9, 43, 44, 20, 42, 46, 9, 42, 44, 46, 42, 43, 9, 42, 43, 44]
        rel material:binding:physics = </Object/physicsMaterial>
        uniform token physics:approximation = "convexHull"
        point3f[] points = [(0.033228964, 0.017102946, 0.030011604), (0.045087498, 0.013984437, 0.03175655), (0.04667821, 0.008272736, 0.03372923), (0.046895463, -0.001690513, 0.0320894), (0.047049, -0.012792, 0.023067), (0.044785812, 0.0111603, 0.033319797), (0.027839888, 0.01057979, 0.033877153), (0.012324513, 0.0099577, 0.034097992), (0.017491465, 0.012850079, 0.03363508), (0.01199076, 0.015644766, 0.031800564), (0.014181, 0.013762, 0.033038), (-0.004138709, 0.008139865, 0.034023408), (-0.003996893, 0.012165965, 0.033288937), (0.03272001, 0.02559303, 0.01614529), (0.03819976, 0.02474895, 0.013642136), (0.042108, 0.022859, 0.008258), (0.03827686, 0.020376474, 0.026049517), (0.0460936, 0.020156695, 0.0039020851), (0.036522124, 0.018245144, 0.0016495412), (0.044178024, 0.015886398, 0.0009128213), (0.029494576, 0.018947473, 0.028544439), (0.046439737, 0.012644006, -0.00019922054), (0.028960237, 0.02495063, 0.021144222), (0.046420176, 0.024294693, 0.018136214), (0.040625513, 0.016453229, 0.0009625921), (0.02814847, 0.023920769, 0.02316499), (0.043877896, 0.007624877, -0.0019249001), (0.047915563, -0.009654922, -0.0020892764), (0.03688271, 0.024699267, 0.011697524), (0.025638362, 0.025789352, 0.013023303), (0.031235041, 0.024253082, 0.0082701), (0.028469995, 0.022220505, 0.0040627453), (0.021179987, 0.026201664, 0.017451016), (0.015141378, 0.026139684, 0.01325183), (0.039094586, 0.023610193, 0.021714265), (0.02776993, 0.015226489, -0.00034683876), (0.020985339, 0.011168007, -0.001904528), (0.018362503, 0.022912841, 0.0045631975), (0.022092067, 0.020826127, 0.0024352127), (0.021198383, 0.017416876, 0.0003896302), (0.013991959, 0.008854938, -0.0025295615), (0.00009518594, 0.013707003, -0.0012408955), (0.011682143, 0.018482411, 0.029213656), (0.022038762, 0.019708706, 0.028007075), (0.017477823, 0.02205995, 0.025773423), (0.01481373, 0.02612346, 0.020058224), (0.0010427608, 0.019830314, 0.027324371), (0.0051462227, 0.014142278, -0.0012679636), (-0.0040581254, 0.009193524, -0.0027537255), (0.010119518, 0.023901481, 0.023466175), (-0.0043702433, 0.024705071, 0.020654855), (-0.0036607466, -0.0003323086, -0.0031595435), (0.005065329, 0.02593125, 0.016511446), (0.007165854, 0.02597269, 0.018864233), (0.0023966085, 0.025196854, 0.020492943), (-0.004315684, 0.024972996, 0.012792962), (0.00387145, 0.025596526, 0.012998696), (-0.0040704487, 0.02103092, 0.002741605), (0.0068947664, 0.020415127, 0.0019178219), (0.0077669723, 0.024790034, 0.009172937), (0.010152891, 0.022381326, 0.0035745285), (-0.00359136, -0.016096123, 0.01852599)]
        uniform token subdivisionScheme = "none"
        token visibility = "invisible"
    }

    def Mesh "hull3" (
        prepend apiSchemas = ["PhysicsCollisionAPI", "PhysicsMeshCollisionAPI", "MaterialBindingAPI"]
    )
    {
        int[] faceVertexCounts = [3, 3, 3, 3, 3, 3, 3, 3, 3, 3, 3, 3, 3, 3, 3, 3, 3, 3, 3, 3, 3, 3, 3, 3, 3, 3, 3, 3, 3, 3, 3, 3, 3, 3, 3, 3, 3, 3, 3, 3, 3, 3, 3, 3, 3, 3, 3, 3, 3, 3, 3, 3, 3, 3, 3, 3, 3, 3, 3, 3, 3, 3, 3, 3, 3, 3, 3, 3, 3, 3, 3, 3, 3, 3, 3, 3, 3, 3, 3, 3, 3, 3, 3, 3, 3, 3, 3, 3, 3, 3, 3, 3, 3, 3, 3, 3, 3, 3, 3, 3, 3, 3, 3, 3, 3, 3, 3, 3, 3, 3, 3, 3, 3, 3, 3, 3, 3, 3, 3, 3]
        int[] faceVertexIndices = [61, 57, 41, 7, 57, 41, 7, 31, 41, 16, 31, 41, 15, 7, 14, 3, 61, 37, 3, 43, 37, 8, 7, 14, 2, 16, 41, 2, 16, 0, 2, 61, 41, 2, 3, 61, 2, 3, 43, 18, 16, 31, 29, 16, 0, 47, 7, 31, 47, 15, 7, 59, 26, 14, 59, 61, 37, 59, 61, 57, 28, 13, 27, 19, 18, 16, 19, 29, 27, 19, 29, 16, 50, 47, 22, 17, 18, 31, 17, 47, 31, 17, 47, 22, 60, 8, 14, 60, 59, 57, 60, 7, 57, 60, 8, 7, 25, 26, 14, 25, 5, 49, 30, 33, 13, 30, 28, 37, 30, 28, 13, 32, 19, 18, 32, 17, 18, 32, 13, 27, 32, 19, 27, 36, 29, 0, 36, 39, 29, 38, 2, 43, 38, 39, 43, 4, 43, 37, 4, 39, 43, 46, 29, 27, 46, 39, 29, 46, 4, 39, 34, 33, 13, 34, 21, 13, 51, 50, 22, 51, 21, 54, 51, 53, 54, 35, 17, 22, 35, 51, 22, 35, 51, 21, 35, 21, 13, 35, 32, 13, 35, 32, 17, 58, 59, 14, 58, 60, 14, 58, 60, 59, 55, 25, 26, 55, 25, 49, 24, 25, 14, 24, 25, 5, 24, 15, 14, 24, 5, 15, 45, 5, 49, 48, 47, 15, 40, 34, 33, 40, 21, 54, 40, 34, 21, 12, 59, 37, 12, 30, 37, 12, 40, 54, 12, 6, 54, 12, 30, 33, 12, 40, 33, 1, 36, 39, 1, 38, 39, 1, 36, 0, 1, 2, 0, 1, 38, 2, 23, 4, 37, 23, 46, 4, 23, 28, 37, 23, 28, 27, 23, 46, 27, 9, 55, 26, 9, 12, 11, 9, 59, 26, 9, 12, 59, 10, 55, 49, 10, 9, 11, 10, 9, 55, 44, 45, 53, 44, 48, 15, 44, 51, 50, 44, 51, 53, 52, 45, 53, 52, 45, 49, 52, 10, 49, 52, 10, 11, 42, 44, 15, 42, 44, 45, 42, 5, 15, 42, 45, 5, 20, 44, 50, 20, 44, 48, 20, 50, 47, 20, 48, 47, 56, 52, 53, 56, 53, 54, 56, 6, 54, 56, 12, 6, 56, 12, 11, 56, 52, 11]
        rel material:binding:physics = </Object/physicsMaterial>
        uniform token physics:approximation = "convexHull"
        point3f[] points = [(0.0062698205, 0.012645549, 0.03376392), (-0.00528157, 0.010227028, 0.033792153), (0.0071268566, 0.0062190793, 0.033653285), (-0.042509, -0.016567, 0.029233), (-0.03421346, 0.0029764276, 0.03169845), (-0.0033740052, 0.01161947, -0.0018719588), (-0.03796245, 0.012212643, 0.0032041792), (0.007792049, -0.0037000244, -0.000094121715), (0.007289, -0.001956, -0.001244), (-0.03965685, 0.0015687383, -0.0013585783), (-0.030677076, 0.005682329, -0.001664691), (-0.036793105, 0.0073143262, -0.00023691355), (-0.04337483, 0.010047324, 0.0032258919), (-0.027264427, 0.019700404, 0.018037291), (0.0071706604, 0.0023670932, -0.0037809312), (0.0066663693, 0.020739798, 0.0016974758), (0.0071815075, 0.02054782, 0.027360003), (-0.0048501506, 0.025747957, 0.016688952), (-0.00059016707, 0.024166366, 0.02194128), (-0.0048163068, 0.021812148, 0.024242548), (-0.0029948605, 0.022508755, 0.005338582), (-0.026511455, 0.019224886, 0.009359842), (-0.012971852, 0.022668364, 0.009695165), (-0.03256955, 0.009042029, 0.028228557), (-0.00093094155, 0.008004104, -0.0027768547), (-0.011518506, 0.005050525, -0.0031515788), (-0.038076792, -0.0024888269, -0.0024011221), (-0.020657524, 0.016846545, 0.025738757), (-0.032610893, 0.01373846, 0.023385227), (-0.012313671, 0.013402512, 0.03098356), (-0.038660765, 0.014096061, 0.018478924), (0.0068829255, 0.026267227, 0.01896127), (-0.016572261, 0.022565382, 0.01987682), (-0.036530636, 0.015721107, 0.01308397), (-0.033066124, 0.017035762, 0.011761413), (-0.017834209, 0.022358442, 0.012504631), (-0.01176, 0.010519, 0.03291), (-0.043832984, 0.008468685, 0.022885915), (-0.016115963, 0.0073386845, 0.033465296), (-0.023343384, 0.0066791214, 0.032944415), (-0.0365937, 0.015007795, 0.008933683), (0.008600427, -0.012782767, 0.018778766), (-0.0034322347, 0.018414475, 0.0010423509), (-0.04195647, -0.005672522, 0.03158747), (-0.011582955, 0.019774798, 0.0026283048), (-0.018621987, 0.014409133, 0.00016793399), (-0.025545545, 0.008113755, 0.031533763), (0.0067133736, 0.025881192, 0.011255547), (0.000027627242, 0.021280719, 0.0028945217), (-0.02137295, 0.009319654, -0.001646773), (-0.013205282, 0.02156682, 0.006435287), (-0.02176724, 0.019086778, 0.0050446442), (-0.02764181, 0.0127296755, 0.00030529167), (-0.02097183, 0.017587027, 0.0023738993), (-0.031029731, 0.016374405, 0.004870702), (-0.028716233, 0.0033583809, -0.0024077466), (-0.033978377, 0.012456209, 0.001830984), (-0.042334553, -0.020512827, 0.003179569), (-0.04064, -0.01468, -0.000431), (-0.042688213, -0.01362079, -0.0010000665), (-0.042031, -0.015743, -0.000033), (-0.0425227, -0.028495595, 0.02083837)]
        uniform token subdivisionScheme = "none"
        token visibility = "invisible"
    }

    def Mesh "hull4" (
        prepend apiSchemas = ["PhysicsCollisionAPI", "PhysicsMeshCollisionAPI", "MaterialBindingAPI"]
    )
    {
        int[] faceVertexCounts = [3, 3, 3, 3, 3, 3, 3, 3, 3, 3, 3, 3, 3, 3, 3, 3, 3, 3, 3, 3, 3, 3, 3, 3, 3, 3, 3, 3, 3, 3, 3, 3, 3, 3, 3, 3, 3, 3, 3, 3, 3, 3, 3, 3, 3, 3, 3, 3, 3, 3, 3, 3, 3, 3, 3, 3, 3, 3, 3, 3, 3, 3, 3, 3, 3, 3, 3, 3, 3, 3, 3, 3, 3, 3, 3, 3, 3, 3, 3, 3, 3, 3, 3, 3, 3, 3, 3, 3, 3, 3, 3, 3, 3, 3, 3, 3, 3, 3, 3, 3, 3, 3, 3, 3, 3, 3, 3, 3, 3, 3, 3, 3, 3, 3, 3, 3, 3, 3, 3, 3, 3, 3]
        int[] faceVertexIndices = [45, 21, 11, 45, 9, 11, 31, 21, 11, 55, 9, 11, 55, 1, 11, 0, 1, 11, 0, 52, 19, 54, 55, 1, 22, 0, 11, 22, 0, 19, 3, 52, 4, 3, 0, 52, 3, 5, 4, 3, 0, 5, 50, 59, 51, 2, 54, 1, 2, 0, 1, 2, 0, 5, 61, 59, 51, 61, 54, 51, 56, 62, 54, 56, 55, 9, 56, 54, 55, 6, 45, 9, 6, 13, 9, 58, 62, 49, 58, 13, 49, 58, 13, 9, 15, 14, 46, 15, 48, 46, 15, 13, 49, 15, 14, 13, 15, 50, 49, 15, 50, 48, 12, 14, 46, 10, 14, 45, 10, 25, 45, 10, 25, 47, 10, 12, 47, 10, 12, 14, 53, 62, 49, 53, 50, 49, 53, 50, 51, 53, 54, 51, 53, 62, 54, 60, 61, 59, 60, 59, 4, 60, 61, 54, 60, 5, 4, 60, 2, 54, 60, 2, 5, 32, 16, 31, 32, 16, 7, 32, 31, 21, 32, 7, 21, 17, 16, 31, 17, 31, 11, 17, 22, 11, 8, 14, 13, 8, 6, 13, 8, 14, 45, 8, 6, 45, 57, 56, 62, 57, 58, 62, 57, 56, 9, 57, 58, 9, 28, 12, 46, 28, 12, 47, 28, 41, 46, 34, 7, 21, 40, 41, 46, 20, 17, 16, 20, 22, 19, 20, 17, 22, 24, 34, 21, 24, 25, 47, 24, 45, 21, 24, 25, 45, 36, 28, 41, 36, 40, 41, 36, 40, 39, 42, 40, 46, 42, 48, 46, 42, 50, 48, 42, 50, 59, 42, 59, 4, 44, 40, 39, 44, 42, 4, 44, 42, 40, 23, 24, 47, 23, 28, 47, 23, 36, 28, 33, 34, 7, 33, 35, 34, 18, 24, 34, 18, 23, 34, 18, 23, 24, 37, 33, 35, 37, 16, 7, 37, 33, 7, 37, 20, 16, 29, 52, 19, 29, 20, 19, 43, 44, 39, 43, 36, 39, 43, 35, 34, 43, 23, 34, 43, 23, 36, 38, 37, 35, 38, 37, 27, 38, 43, 35, 26, 37, 20, 26, 37, 27, 26, 29, 20, 30, 29, 52, 30, 26, 27, 30, 26, 29, 30, 52, 4, 30, 44, 4, 30, 43, 44, 30, 38, 27, 30, 38, 43]
        rel material:binding:physics = </Object/physicsMaterial>
        uniform token physics:approximation = "convexHull"
        point3f[] points = [(-0.07068121, -0.05049442, 0.023100235), (-0.06640716, -0.05338014, 0.016850637), (-0.07345617, -0.050202765, 0.013447909), (-0.073860936, -0.048922118, 0.021215405), (-0.07628718, -0.045433342, 0.017718147), (-0.0755307, -0.04858085, 0.01713257), (-0.032490473, 0.0071236393, -0.0010791257), (-0.040778413, 0.00626401, 0.026066855), (-0.038196597, 0.01020636, 0.001614069), (-0.03173421, -0.0029916407, -0.0030551855), (-0.03926622, 0.012390004, 0.0048476774), (-0.029986378, -0.009500073, 0.031456042), (-0.045193, 0.008622, 0.004597), (-0.03935217, 0.0050622425, -0.00053967454), (-0.041438553, 0.009986486, 0.0023481254), (-0.05233039, 0.0012112875, 0.002686517), (-0.043625835, -0.0007059407, 0.029316003), (-0.040731363, -0.002973204, 0.03147514), (-0.039760828, 0.013402431, 0.01820404), (-0.049934346, -0.009761455, 0.029970093), (-0.047745835, -0.005443449, 0.029628167), (-0.032057602, 0.017098762, 0.020243762), (-0.048286133, -0.009183443, 0.030438358), (-0.04485347, 0.010714735, 0.016144287), (-0.0350636, 0.01617293, 0.018601427), (-0.037401628, 0.014667592, 0.009086693), (-0.053056125, -0.0050194045, 0.02559852), (-0.054623168, -0.0030954229, 0.023112183), (-0.04710292, 0.008950108, 0.009092835), (-0.053620033, -0.008757376, 0.027267735), (-0.061710846, -0.009157037, 0.020725697), (-0.03269362, 0.004056651, 0.031738847), (-0.036999386, 0.0056800125, 0.028477116), (-0.046527144, 0.0059800292, 0.022207864), (-0.04420356, 0.010173143, 0.019674521), (-0.052192528, 0.0032426734, 0.020154377), (-0.052794255, 0.004482475, 0.014609678), (-0.048780393, 0.0015218629, 0.024528297), (-0.05374839, -0.0003782919, 0.021768963), (-0.056126885, 0.0008208302, 0.014914392), (-0.05835135, -0.0017173985, 0.011513153), (-0.05279239, 0.004280407, 0.010421536), (-0.061622072, -0.0068283607, 0.007298436), (-0.054783005, 0.0018362785, 0.01860306), (-0.061088447, -0.006430507, 0.017447893), (-0.03231286, 0.015545558, 0.0032281617), (-0.05296577, 0.0029936375, 0.004857105), (-0.04335273, 0.011869842, 0.0105840815), (-0.05410132, 0.00053746667, 0.004083353), (-0.052429564, -0.0007021046, 0.0019167673), (-0.05920824, -0.0070638545, 0.0040026447), (-0.059641942, -0.012089639, 0.0037023532), (-0.060078215, -0.016040348, 0.025427863), (-0.055097334, -0.009015452, 0.0018011599), (-0.07142756, -0.04877458, 0.010756057), (-0.03088559, -0.016715655, 0.0024783788), (-0.04214214, -0.012521612, -0.0012709823), (-0.039377958, -0.0044942307, -0.0019177586), (-0.043675706, -0.00071850733, -0.00086105784), (-0.06164263, -0.010995597, 0.005332071), (-0.07454937, -0.04784902, 0.013218101), (-0.07313725, -0.047203284, 0.011857189), (-0.05291662, -0.008626619, 0.0009777097)]
        uniform token subdivisionScheme = "none"
        token visibility = "invisible"
    }
}

