#usda 1.0
(
    defaultPrim = "Object"
    metersPerUnit = 1
    subLayers = [
        @./configuration/appearance.usda@
    ]
    upAxis = "Z"
)

def Xform "Object" (
    prepend apiSchemas = ["PhysicsRigidBodyAPI", "PhysicsMassAPI"]
)
{
    custom string crossEmbodiment:objectName = "YcbPhillipsScrewdriver"
    float physics:mass = 0.097

    def Material "physicsMaterial" (
        apiSchemas = ["PhysicsMaterialAPI", "PhysxMaterialAPI"]
    )
    {
        float physics:dynamicFriction = 0.5
        float physics:restitution = 0
        float physics:staticFriction = 0.5
        token physxMaterial:frictionCombineMode = "max"
        token physxMaterial:restitutionCombineMode = "average"
    }

    def Mesh "hull0" (
        prepend apiSchemas = ["PhysicsCollisionAPI", "PhysicsMeshCollisionAPI", "MaterialBindingAPI"]
    )
    {
        int[] faceVertexCounts = [3, 3, 3, 3, 3, 3, 3, 3, 3, 3, 3, 3, 3, 3, 3, 3, 3, 3, 3, 3, 3, 3, 3, 3, 3, 3, 3, 3, 3, 3, 3, 3, 3, 3, 3, 3, 3, 3, 3, 3, 3, 3, 3, 3, 3, 3, 3, 3, 3, 3, 3, 3, 3, 3, 3, 3, 3, 3, 3, 3, 3, 3, 3, 3, 3, 3, 3, 3, 3, 3, 3, 3, 3, 3, 3, 3, 3, 3, 3, 3, 3, 3, 3, 3, 3, 3, 3, 3, 3, 3, 3, 3, 3, 3, 3, 3, 3, 3, 3, 3, 3, 3, 3, 3, 3, 3, 3, 3, 3, 3, 3, 3, 3, 3, 3, 3, 3, 3, 3, 3]
        int[] faceVertexIndices = [23, 33, 20, 23, 33, 11, 0, 15, 8, 0, 15, 41, 44, 61, 41, 44, 0, 41, 44, 0, 1, 9, 17, 8, 25, 15, 8, 25, 17, 8, 25, 17, 15, 14, 23, 20, 14, 23, 4, 14, 17, 15, 35, 11, 36, 35, 33, 11, 35, 55, 36, 35, 33, 20, 35, 14, 20, 35, 55, 41, 35, 15, 41, 35, 14, 15, 56, 55, 36, 56, 38, 36, 56, 38, 51, 56, 34, 51, 13, 26, 32, 13, 26, 7, 22, 24, 49, 16, 0, 8, 16, 0, 1, 16, 22, 1, 60, 28, 32, 60, 58, 32, 37, 11, 36, 37, 38, 36, 39, 38, 51, 39, 37, 58, 39, 37, 38, 57, 34, 41, 57, 56, 34, 47, 45, 28, 46, 44, 49, 46, 44, 61, 46, 61, 41, 46, 34, 41, 53, 46, 34, 53, 46, 45, 29, 23, 11, 27, 28, 32, 27, 13, 32, 12, 16, 19, 12, 9, 8, 12, 16, 8, 18, 22, 24, 18, 16, 19, 18, 16, 22, 2, 22, 49, 2, 22, 1, 2, 44, 49, 2, 44, 1, 3, 14, 4, 3, 6, 4, 3, 14, 17, 3, 9, 17, 3, 6, 9, 50, 53, 45, 50, 34, 51, 50, 53, 34, 48, 45, 28, 48, 60, 28, 40, 39, 51, 40, 50, 51, 40, 48, 60, 40, 50, 45, 40, 48, 45, 59, 60, 58, 59, 39, 58, 59, 40, 60, 59, 40, 39, 52, 56, 55, 52, 57, 56, 52, 55, 41, 52, 57, 41, 43, 47, 45, 43, 46, 45, 43, 46, 49, 54, 29, 11, 54, 37, 11, 54, 37, 58, 5, 29, 30, 5, 30, 26, 5, 23, 4, 5, 29, 23, 5, 26, 7, 5, 6, 4, 5, 6, 7, 21, 27, 13, 21, 12, 19, 21, 12, 13, 21, 18, 19, 10, 13, 7, 10, 12, 13, 10, 12, 9, 10, 6, 7, 10, 6, 9, 31, 29, 30, 31, 54, 29, 31, 26, 32, 31, 30, 26, 31, 58, 32, 31, 54, 58, 42, 21, 27, 42, 18, 24, 42, 21, 18, 42, 43, 47, 42, 47, 28, 42, 27, 28, 42, 24, 49, 42, 43, 49]
        rel material:binding:physics = </Object/physicsMaterial>
        uniform token physics:approximation = "convexHull"
        point3f[] points = [(0.0074972343, 0.015610679, -0.012920217), (0.0108946, 0.021479502, -0.0092238095), (0.04088353, 0.03793559, -0.0053631673), (0.05138087, 0.013623545, -0.011487707), (0.05569895, 0.012163125, -0.0069153635), (0.060479287, 0.012952845, -0.002250107), (0.056550007, 0.01683584, -0.010248506), (0.061699368, 0.020442307, -0.007150614), (0.034768242, 0.018505469, -0.01714217), (0.054371897, 0.021903891, -0.013242277), (0.05811491, 0.023332326, -0.011146127), (0.05467381, 0.0103728, 0.012565676), (0.05567222, 0.028399149, -0.011985439), (0.06242382, 0.029398153, -0.005873801), (0.015154833, -0.0067631025, -0.010280542), (0.008828895, 0.0034703074, -0.016751481), (0.046914376, 0.03247556, -0.012823887), (0.028109964, 0.010471163, -0.016573112), (0.050713904, 0.03732648, -0.0077004037), (0.053195905, 0.034213725, -0.010052289), (0.018468026, -0.009260223, -0.0026969935), (0.05824652, 0.033389073, -0.0073226406), (0.04471178, 0.03730745, -0.00755563), (0.04985651, 0.0053681177, -0.00212135), (0.04952778, 0.03956645, -0.00390563), (0.017753867, 0.0073601482, -0.016847365), (0.06311382, 0.019068401, -0.0037934019), (0.060856447, 0.034596734, 0.00046792353), (0.06062695, 0.035582364, 0.0055921264), (0.059347287, 0.010917669, 0.0018404212), (0.06202193, 0.0154936025, -0.0013459753), (0.06415737, 0.019486923, 0.0058080098), (0.06526579, 0.025386188, 0.005102782), (0.019099796, -0.007910518, 0.0076097585), (0.035953205, 0.03145179, 0.016170967), (0.013450588, -0.007717454, 0.010431124), (0.016710721, 0.0018386822, 0.01701267), (0.054615263, 0.018179549, 0.016884161), (0.051289145, 0.022035837, 0.01898344), (0.054838866, 0.025007319, 0.017687911), (0.05566173, 0.03127108, 0.015758062), (-0.0017816637, 0.016242538, 0.011339207), (0.054747343, 0.038824037, -0.0022015905), (0.049534902, 0.041213132, 0.00425304), (0.0064228564, 0.02261775, 0.0006074496), (0.051715527, 0.03800575, 0.011574115), (0.043524534, 0.03930916, 0.009182184), (0.0529643, 0.04001701, 0.005837514), (0.05610178, 0.03505145, 0.01202737), (0.045562763, 0.041316967, -0.00052960136), (0.05023851, 0.03228489, 0.017093876), (0.05014854, 0.028423594, 0.018905329), (0.00854307, 0.008109504, 0.016395556), (0.047074795, 0.035550583, 0.01503613), (0.059315693, 0.013614549, 0.011199328), (0.011280611, 0.001250519, 0.016486498), (0.02778674, 0.018325463, 0.018746622), (0.012659593, 0.0133837145, 0.016935006), (0.05857479, 0.022247223, 0.015448138), (0.059295453, 0.026079154, 0.014424538), (0.060789563, 0.029808277, 0.012511117), (0.0063641896, 0.022027276, 0.005481767)]
        uniform token subdivisionScheme = "none"
        token visibility = "invisible"
    }

    def Mesh "hull1" (
        prepend apiSchemas = ["PhysicsCollisionAPI", "PhysicsMeshCollisionAPI", "MaterialBindingAPI"]
    )
    {
        int[] faceVertexCounts = [3, 3, 3, 3, 3, 3, 3, 3, 3, 3, 3, 3, 3, 3, 3, 3, 3, 3, 3, 3, 3, 3, 3, 3, 3, 3, 3, 3, 3, 3, 3, 3, 3, 3, 3, 3, 3, 3, 3, 3, 3, 3, 3, 3, 3, 3, 3, 3, 3, 3, 3, 3, 3, 3, 3, 3, 3, 3, 3, 3, 3, 3, 3, 3, 3, 3, 3, 3, 3, 3, 3, 3, 3, 3, 3, 3, 3, 3, 3, 3, 3, 3, 3, 3, 3, 3, 3, 3, 3, 3, 3, 3, 3, 3, 3, 3, 3, 3, 3, 3, 3, 3, 3, 3, 3, 3, 3, 3, 3, 3, 3, 3, 3, 3, 3, 3, 3, 3]
        int[] faceVertexIndices = [16, 59, 26, 16, 59, 56, 49, 59, 56, 47, 59, 26, 35, 59, 57, 35, 47, 59, 32, 31, 45, 23, 16, 30, 23, 10, 30, 20, 16, 56, 20, 16, 18, 60, 49, 59, 44, 53, 49, 44, 31, 45, 44, 60, 49, 44, 60, 31, 22, 47, 26, 34, 32, 33, 34, 40, 33, 15, 16, 30, 15, 9, 30, 8, 9, 30, 8, 10, 30, 41, 46, 45, 41, 51, 45, 28, 16, 26, 28, 23, 16, 54, 20, 56, 54, 41, 51, 19, 20, 18, 19, 54, 51, 19, 54, 20, 55, 41, 46, 55, 49, 56, 55, 53, 49, 55, 54, 56, 55, 54, 41, 58, 59, 57, 58, 60, 57, 58, 60, 59, 29, 3, 26, 39, 32, 33, 39, 40, 33, 48, 34, 35, 48, 34, 40, 52, 22, 47, 52, 40, 47, 52, 40, 22, 36, 32, 31, 36, 34, 32, 36, 60, 57, 36, 35, 57, 36, 34, 35, 17, 16, 18, 43, 19, 18, 43, 19, 51, 43, 51, 45, 11, 15, 16, 11, 17, 16, 11, 17, 12, 11, 15, 9, 11, 8, 9, 0, 3, 26, 0, 32, 3, 0, 8, 10, 0, 32, 45, 0, 8, 45, 27, 23, 10, 42, 44, 53, 42, 55, 53, 42, 55, 46, 42, 46, 45, 42, 44, 45, 21, 22, 26, 21, 29, 26, 6, 40, 22, 6, 21, 22, 6, 21, 29, 50, 40, 47, 50, 48, 40, 50, 35, 47, 50, 48, 35, 37, 60, 31, 37, 36, 31, 37, 36, 60, 13, 43, 18, 13, 17, 18, 13, 17, 12, 13, 11, 12, 25, 0, 1, 25, 28, 26, 25, 0, 26, 5, 27, 10, 5, 0, 10, 38, 39, 40, 4, 29, 3, 4, 6, 3, 4, 6, 29, 14, 43, 45, 14, 13, 43, 14, 8, 45, 14, 11, 8, 14, 13, 11, 24, 25, 28, 24, 25, 27, 24, 28, 23, 24, 27, 23, 2, 5, 27, 2, 25, 1, 2, 25, 27, 2, 0, 1, 2, 5, 0, 7, 6, 40, 7, 38, 40, 7, 32, 3, 7, 6, 3, 7, 39, 32, 7, 38, 39]
        rel material:binding:physics = </Object/physicsMaterial>
        uniform token physics:approximation = "convexHull"
        point3f[] points = [(-0.029189644, -0.028399527, -0.009481249), (-0.02611822, -0.02591155, -0.01103063), (-0.02626822, -0.02514655, -0.01190463), (-0.02515622, -0.02894055, -0.00269863), (-0.02448522, -0.02854355, 0.00025637), (-0.02690322, -0.02436155, -0.01282363), (-0.02484522, -0.02865255, 0.00094337), (-0.025933208, -0.02867364, 0.0023730125), (-0.035835262, -0.01184942, -0.015064448), (-0.034391277, -0.007457263, -0.013936152), (-0.029921057, -0.019532364, -0.015999427), (-0.03664022, -0.00558355, -0.01101763), (-0.03649622, -0.00501755, -0.01039963), (-0.03723722, -0.00527855, -0.01018563), (-0.038151957, -0.0054778, -0.009515732), (0.00984378, 0.01909545, -0.01086363), (0.012306473, 0.022270426, -0.008737063), (0.00919478, 0.02136245, -0.00787163), (0.00919678, 0.02200345, -0.00687463), (0.00818078, 0.02175545, -0.00625163), (0.010759129, 0.023158308, -0.0058836094), (0.022649143, -0.0074272347, -0.00015725967), (0.02183178, -0.00686955, 0.00661837), (0.019927802, 0.005257822, -0.01589205), (0.021982666, -0.0028947298, -0.010916459), (0.02150978, -0.00452155, -0.00960563), (0.025867345, -0.006042928, -0.0028397157), (0.02037078, -0.00270355, -0.01193063), (0.02456634, -0.0033142746, -0.008851994), (0.02197278, -0.00784555, -0.00120363), (0.012945801, 0.014411546, -0.015196801), (-0.035247948, -0.013099412, 0.012209829), (-0.03363891, -0.028430192, 0.0048582386), (-0.029025592, -0.025186494, 0.009147973), (-0.029742863, -0.022093972, 0.011687821), (0.019520849, 0.003190739, 0.016702898), (-0.03246322, -0.01626455, 0.01285837), (-0.03360622, -0.01423255, 0.01268037), (-0.02536622, -0.02802455, 0.00400037), (-0.02655622, -0.02766355, 0.00573237), (-0.021237213, -0.025891485, 0.006624307), (-0.03890522, -0.00300255, -0.00035463), (-0.03921122, -0.00395355, 0.00242037), (-0.03820222, -0.00370955, -0.00661163), (-0.036270853, -0.0046236296, 0.00853104), (-0.043169014, -0.007477678, -0.0039521856), (-0.03911842, -0.0032044651, 0.0000052055084), (0.024173543, -0.005006573, 0.009010504), (0.01916978, -0.00364455, 0.01281537), (0.0109895, 0.019074548, 0.013410734), (0.02170309, -0.0038274766, 0.011612258), (-0.037768003, -0.0029550584, -0.005109981), (0.02058678, -0.00707455, 0.00779137), (0.00770178, 0.02227545, 0.00577437), (0.00922785, 0.023752825, 0.0035287268), (0.00963478, 0.02386645, 0.00459037), (0.009904616, 0.024012567, 0.00451045), (0.01327778, 0.00912645, 0.01733537), (0.01294678, 0.00997045, 0.01724537), (0.016550729, 0.0101401685, 0.017280286), (0.011589495, 0.010333646, 0.017168786)]
        uniform token subdivisionScheme = "none"
        token visibility = "invisible"
    }

    def Mesh "hull2" (
        prepend apiSchemas = ["PhysicsCollisionAPI", "PhysicsMeshCollisionAPI", "MaterialBindingAPI"]
    )
    {
        int[] faceVertexCounts = [3, 3, 3, 3, 3, 3, 3, 3, 3, 3, 3, 3, 3, 3, 3, 3, 3, 3, 3, 3, 3, 3, 3, 3, 3, 3, 3, 3, 3, 3, 3, 3, 3, 3, 3, 3, 3, 3, 3, 3, 3, 3, 3, 3, 3, 3, 3, 3, 3, 3, 3, 3, 3, 3, 3, 3, 3, 3, 3, 3, 3, 3, 3, 3, 3, 3, 3, 3, 3, 3, 3, 3, 3, 3, 3, 3, 3, 3, 3, 3, 3, 3, 3, 3, 3, 3, 3, 3, 3, 3, 3, 3, 3, 3, 3, 3, 3, 3, 3, 3, 3, 3, 3, 3, 3, 3, 3, 3, 3, 3, 3, 3, 3, 3, 3, 3, 3, 3, 3, 3, 3, 3, 3, 3]
        int[] faceVertexIndices = [56, 35, 19, 46, 35, 60, 46, 63, 60, 46, 63, 45, 59, 14, 19, 59, 35, 19, 59, 35, 60, 12, 14, 19, 12, 14, 2, 3, 14, 2, 51, 54, 27, 43, 63, 30, 43, 63, 45, 31, 27, 30, 31, 41, 30, 42, 41, 45, 42, 31, 41, 26, 59, 14, 7, 29, 28, 23, 56, 19, 55, 54, 27, 55, 23, 56, 55, 23, 54, 34, 32, 27, 62, 63, 60, 62, 63, 30, 62, 29, 30, 44, 43, 30, 44, 43, 45, 44, 41, 30, 44, 41, 45, 48, 46, 35, 48, 46, 45, 48, 42, 45, 24, 7, 15, 24, 7, 28, 24, 14, 15, 24, 26, 14, 16, 13, 2, 11, 13, 4, 0, 3, 14, 20, 18, 19, 20, 18, 51, 22, 51, 54, 22, 23, 54, 57, 55, 56, 57, 55, 27, 33, 34, 35, 33, 34, 32, 33, 56, 35, 9, 51, 4, 9, 11, 4, 9, 11, 12, 25, 29, 28, 25, 24, 28, 25, 24, 26, 25, 58, 29, 25, 26, 59, 25, 59, 60, 25, 58, 60, 61, 62, 29, 61, 58, 29, 61, 62, 60, 61, 58, 60, 6, 7, 29, 6, 13, 4, 6, 16, 13, 6, 29, 30, 6, 27, 30, 6, 51, 27, 6, 51, 4, 8, 11, 12, 8, 11, 13, 8, 12, 2, 8, 13, 2, 1, 7, 15, 1, 0, 7, 1, 14, 15, 1, 0, 14, 5, 0, 7, 5, 6, 7, 5, 6, 16, 5, 0, 3, 5, 3, 2, 5, 16, 2, 21, 20, 51, 21, 22, 51, 21, 20, 19, 21, 23, 19, 21, 22, 23, 53, 33, 32, 53, 32, 27, 53, 57, 27, 38, 37, 31, 39, 31, 27, 39, 37, 31, 39, 34, 27, 36, 48, 35, 36, 39, 37, 17, 18, 51, 17, 9, 51, 52, 57, 56, 52, 53, 57, 52, 33, 56, 52, 53, 33, 40, 34, 35, 40, 39, 34, 40, 36, 35, 40, 36, 39, 50, 36, 48, 10, 18, 19, 10, 17, 18, 10, 12, 19, 10, 9, 12, 10, 17, 9, 49, 38, 37, 49, 42, 31, 49, 38, 31, 49, 48, 42, 49, 50, 48, 47, 36, 37, 47, 50, 36, 47, 49, 37, 47, 49, 50]
        rel material:binding:physics = </Object/physicsMaterial>
        uniform token physics:approximation = "convexHull"
        point3f[] points = [(-0.03785408, -0.016851919, -0.012665408), (-0.03860722, -0.01521355, -0.01223563), (-0.03481784, -0.019813444, -0.013615219), (-0.03650522, -0.01777455, -0.01325163), (-0.04372222, -0.02346955, -0.00496563), (-0.03732522, -0.01882455, -0.01258163), (-0.04403787, -0.022975044, -0.005168947), (-0.0444021, -0.021605838, -0.0054510636), (-0.03378122, -0.02419955, -0.01109263), (-0.033460695, -0.026672695, -0.007966752), (-0.031840518, -0.027904423, -0.0059200893), (-0.03443322, -0.02451155, -0.01042963), (-0.03186508, -0.025917612, -0.009765094), (-0.03499811, -0.022827832, -0.011849935), (-0.038234048, -0.012780108, -0.01228376), (-0.03963022, -0.01334955, -0.01113163), (-0.035732865, -0.020945333, -0.012720566), (-0.03271422, -0.02783355, -0.00542963), (-0.03269122, -0.02815555, -0.00414463), (-0.030596953, -0.028845038, -0.0022442897), (-0.03252822, -0.02833255, -0.00284963), (-0.03272422, -0.02833655, -0.00169363), (-0.03322222, -0.02809855, -0.00028763), (-0.031880356, -0.028355038, 0.00065982563), (-0.040442996, -0.0114694415, -0.009594124), (-0.041493118, -0.009970161, -0.0069128787), (-0.04072722, -0.00943355, -0.00784263), (-0.04410244, -0.02358615, 0.0004924814), (-0.045263167, -0.019418852, -0.003402741), (-0.04600722, -0.01942855, -0.00182363), (-0.04601213, -0.019511757, -0.0012902864), (-0.044870395, -0.021440595, 0.00067048334), (-0.03565022, -0.02323555, 0.00786437), (-0.035142127, -0.022747658, 0.008630845), (-0.03653422, -0.02149855, 0.00860737), (-0.03536022, -0.02035655, 0.00992537), (-0.03800745, -0.017642146, 0.009395176), (-0.03918922, -0.01696855, 0.00851537), (-0.03950122, -0.01602455, 0.00825437), (-0.03787822, -0.01916055, 0.00892137), (-0.03707403, -0.019348685, 0.009466391), (-0.04087322, -0.01309855, 0.00650837), (-0.04035722, -0.01355255, 0.00735137), (-0.04192522, -0.00995155, 0.00275637), (-0.04153922, -0.01104355, 0.00459837), (-0.04087894, -0.010421575, 0.005627063), (-0.040357616, -0.010474675, 0.006166067), (-0.03894322, -0.01638255, 0.00878837), (-0.039583605, -0.012262537, 0.007865808), (-0.03995022, -0.01442755, 0.00789437), (-0.03922522, -0.01474355, 0.00857637), (-0.043219235, -0.024625564, -0.0026160206), (-0.03349922, -0.02538255, 0.00678037), (-0.034426264, -0.02453394, 0.007304793), (-0.03374822, -0.02767755, 0.00114137), (-0.03389322, -0.02685655, 0.00441237), (-0.032646615, -0.026253464, 0.006107348), (-0.034211904, -0.025361912, 0.0063885953), (-0.04185022, -0.00918755, -0.00484563), (-0.04071122, -0.00818155, -0.00653363), (-0.041034486, -0.007709686, -0.0051253736), (-0.04210822, -0.00917655, -0.00305063), (-0.042101808, -0.008792147, -0.0011924744), (-0.04206122, -0.00924255, 0.00113637)]
        uniform token subdivisionScheme = "none"
        token visibility = "invisible"
    }

    def Mesh "hull3" (
        prepend apiSchemas = ["PhysicsCollisionAPI", "PhysicsMeshCollisionAPI", "MaterialBindingAPI"]
    )
    {
        int[] faceVertexCounts = [3, 3, 3, 3, 3, 3, 3, 3, 3, 3, 3, 3, 3, 3, 3, 3, 3, 3, 3, 3, 3, 3, 3, 3, 3, 3, 3, 3, 3, 3, 3, 3, 3, 3, 3, 3, 3, 3, 3, 3, 3, 3, 3, 3, 3, 3, 3, 3, 3, 3, 3, 3, 3, 3, 3, 3, 3, 3, 3, 3, 3, 3, 3, 3, 3, 3, 3, 3, 3, 3, 3, 3, 3, 3, 3, 3, 3, 3, 3, 3, 3, 3, 3, 3, 3, 3, 3, 3, 3, 3, 3, 3, 3, 3, 3, 3, 3, 3, 3, 3, 3, 3, 3, 3, 3, 3, 3, 3, 3, 3, 3, 3, 3, 3, 3, 3, 3, 3, 3, 3, 3, 3, 3, 3]
        int[] faceVertexIndices = [59, 47, 46, 35, 56, 36, 35, 25, 36, 32, 25, 13, 32, 35, 34, 32, 35, 25, 22, 62, 53, 22, 25, 13, 22, 57, 13, 22, 62, 57, 7, 59, 8, 7, 59, 47, 63, 62, 57, 63, 62, 53, 63, 52, 53, 12, 57, 24, 12, 40, 57, 49, 5, 24, 44, 40, 57, 44, 63, 57, 54, 56, 36, 54, 25, 36, 54, 56, 53, 54, 22, 53, 54, 22, 25, 39, 47, 46, 10, 7, 5, 10, 7, 8, 55, 7, 47, 55, 7, 56, 55, 35, 47, 55, 35, 56, 4, 10, 5, 4, 10, 2, 4, 1, 2, 4, 1, 0, 6, 10, 8, 6, 10, 2, 17, 12, 24, 17, 12, 40, 17, 49, 24, 17, 49, 40, 51, 44, 40, 51, 52, 53, 51, 7, 5, 51, 56, 53, 51, 7, 56, 3, 4, 5, 3, 4, 0, 14, 1, 2, 14, 15, 2, 14, 1, 0, 14, 57, 24, 14, 57, 13, 14, 19, 13, 14, 58, 19, 14, 15, 58, 26, 58, 19, 28, 21, 19, 11, 49, 40, 11, 51, 40, 11, 49, 5, 11, 51, 5, 50, 44, 63, 50, 51, 44, 50, 63, 52, 50, 51, 52, 31, 35, 34, 31, 33, 35, 31, 32, 34, 31, 32, 13, 29, 33, 35, 29, 35, 47, 29, 39, 47, 18, 15, 58, 18, 37, 58, 18, 15, 2, 9, 6, 2, 9, 18, 2, 9, 18, 37, 27, 14, 0, 27, 3, 0, 27, 5, 24, 27, 3, 5, 48, 9, 6, 48, 9, 37, 48, 26, 60, 48, 37, 58, 48, 26, 58, 45, 59, 46, 45, 38, 46, 45, 38, 21, 45, 28, 21, 61, 28, 19, 61, 28, 60, 61, 26, 19, 61, 26, 60, 20, 31, 33, 20, 19, 13, 20, 31, 13, 16, 14, 24, 16, 27, 24, 16, 27, 14, 42, 28, 60, 42, 48, 60, 23, 21, 19, 23, 20, 19, 30, 29, 33, 30, 20, 33, 30, 23, 20, 30, 23, 21, 30, 38, 21, 30, 38, 46, 30, 39, 46, 30, 29, 39, 43, 45, 28, 43, 42, 28, 43, 45, 59, 41, 48, 6, 41, 42, 48, 41, 43, 42, 41, 6, 8, 41, 59, 8, 41, 43, 59]
        rel material:binding:physics = </Object/physicsMaterial>
        uniform token physics:approximation = "convexHull"
        point3f[] points = [(-0.04880422, -0.02646655, -0.00525263), (-0.04839837, -0.026644912, -0.0050743218), (-0.04646322, -0.02608655, -0.00481563), (-0.04816122, -0.02610455, -0.00523363), (-0.04664622, -0.02582655, -0.00497963), (-0.04483029, -0.022730254, -0.005282663), (-0.045289688, -0.025977148, -0.0038618988), (-0.04367622, -0.02417755, -0.00450263), (-0.04359622, -0.02482855, -0.00363263), (-0.05263922, -0.02955255, -0.00450563), (-0.0447319, -0.02521723, -0.004631997), (-0.04674692, -0.021837536, -0.005078155), (-0.07576468, -0.03663306, -0.00625486), (-0.07735175, -0.03585002, -0.0016767237), (-0.07506222, -0.03926155, -0.00624563), (-0.07456522, -0.039744332, -0.0057496033), (-0.07280322, -0.03777455, -0.00628363), (-0.07448022, -0.03612955, -0.00631763), (-0.07248322, -0.03905055, -0.00533463), (-0.07505377, -0.04026347, -0.0013033991), (-0.075599365, -0.03842359, -0.00010732803), (-0.06749635, -0.036166374, -0.00040087342), (-0.07558022, -0.03466855, -0.00188063), (-0.07423505, -0.038599722, -0.00032524814), (-0.075315505, -0.03814791, -0.006523027), (-0.06792914, -0.032093517, -0.00027294093), (-0.07007465, -0.038672905, -0.0031842622), (-0.06781922, -0.03525555, -0.00615063), (-0.06109014, -0.034046672, -0.0011933639), (-0.06321422, -0.03173855, 0.00055637), (-0.06300422, -0.03220855, 0.00048337), (-0.07605507, -0.037343565, -0.00019889258), (-0.07507822, -0.03581355, -0.00064463), (-0.07288446, -0.036219016, 0.00020139902), (-0.06988122, -0.03380355, -0.00001163), (-0.06375603, -0.030691378, 0.00036072038), (-0.06415322, -0.03046855, 0.00008037), (-0.06959473, -0.038083717, -0.004729955), (-0.04702922, -0.02536055, 0.00041737), (-0.04715522, -0.02401455, 0.00073937), (-0.062684774, -0.02993206, -0.0058392864), (-0.044472247, -0.025783129, -0.0024065587), (-0.047323108, -0.027287416, -0.0021421656), (-0.04521622, -0.02602455, -0.00125063), (-0.06273922, -0.02880655, -0.00504263), (-0.045385513, -0.02567618, -0.00048216523), (-0.045310788, -0.024061667, 0.000609265), (-0.045173604, -0.02241956, 0.00074104423), (-0.058348645, -0.03296646, -0.0033610414), (-0.058138166, -0.028149555, -0.0057741497), (-0.046707027, -0.020748932, -0.0042210217), (-0.045708664, -0.020689832, -0.00460233), (-0.047041524, -0.020221846, -0.0030702848), (-0.04653085, -0.019620728, -0.001438136), (-0.04636122, -0.02000055, -0.00077663), (-0.045576543, -0.021529717, 0.0004976485), (-0.04597622, -0.02062755, -0.00011563), (-0.07706961, -0.035606734, -0.005149404), (-0.07418694, -0.040404756, -0.004335023), (-0.043944508, -0.024777059, -0.0004852723), (-0.06530727, -0.03630322, -0.002282919), (-0.06999422, -0.03810555, -0.00144463), (-0.06983022, -0.03114455, -0.00310263), (-0.052493013, -0.02244091, -0.0027953843)]
        uniform token subdivisionScheme = "none"
        token visibility = "invisible"
    }

    def Mesh "hull4" (
        prepend apiSchemas = ["PhysicsCollisionAPI", "PhysicsMeshCollisionAPI", "MaterialBindingAPI"]
    )
    {
        int[] faceVertexCounts = [3, 3, 3, 3, 3, 3, 3, 3, 3, 3, 3, 3, 3, 3, 3, 3, 3, 3, 3, 3, 3, 3, 3, 3, 3, 3, 3, 3, 3, 3, 3, 3, 3, 3, 3, 3, 3, 3, 3, 3, 3, 3, 3, 3, 3, 3, 3, 3, 3, 3, 3, 3, 3, 3, 3, 3, 3, 3, 3, 3, 3, 3, 3, 3, 3, 3, 3, 3, 3, 3, 3, 3, 3, 3, 3, 3, 3, 3, 3, 3, 3, 3, 3, 3, 3, 3, 3, 3, 3, 3, 3, 3, 3, 3, 3, 3, 3, 3, 3, 3, 3, 3, 3, 3, 3, 3, 3, 3, 3, 3, 3, 3, 3, 3, 3, 3, 3, 3, 3, 3, 3, 3, 3, 3]
        int[] faceVertexIndices = [12, 7, 53, 48, 42, 15, 6, 7, 53, 22, 12, 54, 22, 12, 25, 22, 9, 54, 22, 9, 10, 13, 22, 25, 13, 22, 20, 13, 20, 15, 50, 52, 54, 50, 52, 56, 57, 56, 28, 57, 52, 28, 16, 12, 54, 16, 12, 7, 47, 20, 15, 47, 22, 20, 47, 22, 10, 47, 9, 15, 47, 9, 10, 62, 12, 53, 62, 61, 53, 3, 6, 53, 3, 61, 53, 59, 9, 15, 59, 29, 9, 59, 55, 15, 59, 55, 29, 34, 42, 15, 34, 13, 15, 46, 7, 42, 5, 6, 7, 5, 46, 7, 63, 29, 56, 63, 50, 56, 63, 50, 54, 63, 9, 54, 63, 29, 9, 58, 52, 56, 58, 57, 56, 58, 57, 52, 4, 16, 7, 17, 52, 54, 17, 16, 54, 8, 13, 25, 8, 19, 13, 8, 32, 19, 8, 12, 25, 8, 32, 12, 18, 19, 13, 49, 29, 56, 49, 55, 29, 49, 56, 28, 49, 48, 28, 49, 48, 15, 49, 55, 15, 36, 34, 42, 31, 3, 6, 2, 46, 30, 2, 5, 46, 45, 5, 6, 45, 31, 6, 33, 7, 42, 33, 4, 7, 0, 52, 28, 0, 17, 52, 1, 62, 12, 1, 32, 12, 43, 46, 30, 43, 36, 30, 43, 46, 42, 43, 36, 42, 38, 34, 37, 38, 31, 3, 38, 61, 37, 38, 3, 61, 24, 36, 30, 41, 45, 34, 41, 45, 31, 41, 38, 34, 41, 38, 31, 44, 2, 5, 44, 45, 5, 44, 45, 34, 44, 36, 34, 44, 24, 36, 44, 2, 30, 44, 24, 30, 40, 48, 42, 51, 62, 61, 51, 1, 62, 51, 61, 37, 14, 32, 19, 14, 1, 32, 14, 18, 19, 21, 40, 42, 27, 17, 16, 27, 0, 17, 27, 40, 48, 27, 48, 28, 27, 0, 28, 23, 27, 16, 23, 27, 40, 39, 51, 1, 39, 14, 1, 11, 18, 13, 11, 14, 13, 11, 14, 18, 26, 33, 42, 26, 21, 42, 26, 33, 4, 26, 21, 4, 35, 4, 16, 35, 23, 16, 35, 21, 4, 35, 21, 40, 35, 23, 40, 60, 51, 37, 60, 39, 51, 60, 34, 37, 60, 39, 14, 60, 34, 13, 60, 14, 13]
        rel material:binding:physics = </Object/physicsMaterial>
        uniform token physics:approximation = "convexHull"
        point3f[] points = [(-0.07677322, -0.03536255, -0.00495963), (-0.0868071, -0.046854213, -0.0022368517), (-0.07629822, -0.04047255, -0.00600663), (-0.07536222, -0.04128555, -0.00405863), (-0.07448022, -0.03612955, -0.00631763), (-0.07161622, -0.03817555, -0.00576763), (-0.07032381, -0.038124003, -0.0051100906), (-0.07033077, -0.03570998, -0.006475505), (-0.08093715, -0.041264288, -0.00013750332), (-0.07558022, -0.03466855, -0.00188063), (-0.07610922, -0.03520955, -0.00155263), (-0.10363722, -0.05344555, -0.00154163), (-0.069720894, -0.037468575, -0.0007614677), (-0.104781896, -0.052656498, -0.00096694205), (-0.10322725, -0.05385207, -0.0018531167), (-0.106029764, -0.04976591, -0.0029995614), (-0.07137511, -0.033836324, -0.0057213423), (-0.071981095, -0.03317239, -0.0049771676), (-0.10113422, -0.05203755, -0.00117763), (-0.09933422, -0.05116155, -0.00103963), (-0.09834939, -0.04722207, -0.0015805971), (-0.09753322, -0.04770455, -0.00725263), (-0.07143814, -0.03433343, -0.00008214055), (-0.08968403, -0.0429919, -0.006460056), (-0.09231922, -0.04848955, -0.00659263), (-0.07119122, -0.03561255, 0.00029637), (-0.09218422, -0.04509255, -0.00707463), (-0.09690822, -0.04555555, -0.00595163), (-0.1019814, -0.047529142, -0.005364843), (-0.094453365, -0.0437904, -0.0031961105), (-0.08885422, -0.04648955, -0.00665363), (-0.08474422, -0.04561155, -0.00538963), (-0.08831722, -0.04626955, -0.00098263), (-0.08911622, -0.04376455, -0.00701363), (-0.10357322, -0.05461255, -0.00664263), (-0.08961022, -0.04338455, -0.00673063), (-0.10316922, -0.05388955, -0.00699763), (-0.10234546, -0.05466833, -0.00536664), (-0.10060222, -0.05363555, -0.00582563), (-0.10290322, -0.05407655, -0.00231363), (-0.10223156, -0.049887683, -0.0073317424), (-0.10018822, -0.05311855, -0.00627763), (-0.104555644, -0.052366555, -0.007837802), (-0.09913722, -0.05118555, -0.00726363), (-0.08406222, -0.04461455, -0.00612163), (-0.08324922, -0.04439055, -0.00590463), (-0.08328555, -0.042542063, -0.0069383834), (-0.09217922, -0.04312355, -0.00216963), (-0.10543886, -0.049609575, -0.0058226488), (-0.10305222, -0.04796955, -0.00418163), (-0.08214775, -0.03765962, -0.0034890403), (-0.09744566, -0.052489825, -0.0033766008), (-0.07609722, -0.03464155, -0.00403263), (-0.069382526, -0.038259793, -0.003430569), (-0.07211975, -0.03280283, -0.0023943323), (-0.10384322, -0.04846355, -0.00350363), (-0.09982522, -0.04632955, -0.00441163), (-0.09767922, -0.04534355, -0.00503963), (-0.09819822, -0.04554855, -0.00458663), (-0.09462822, -0.04396955, -0.00291263), (-0.10330008, -0.055152293, -0.0037458697), (-0.08618322, -0.04693255, -0.00369363), (-0.07336406, -0.040335383, -0.002379264), (-0.09031522, -0.04173755, -0.00308563)]
        uniform token subdivisionScheme = "none"
        token visibility = "invisible"
    }

    def Mesh "hull5" (
        prepend apiSchemas = ["PhysicsCollisionAPI", "PhysicsMeshCollisionAPI", "MaterialBindingAPI"]
    )
    {
        int[] faceVertexCounts = [3, 3, 3, 3, 3, 3, 3, 3, 3, 3, 3, 3, 3, 3, 3, 3, 3, 3, 3, 3, 3, 3, 3, 3, 3, 3, 3, 3, 3, 3, 3, 3, 3, 3, 3, 3, 3, 3, 3, 3, 3, 3, 3, 3, 3, 3, 3, 3, 3, 3, 3, 3, 3, 3, 3, 3, 3, 3, 3, 3, 3, 3, 3, 3, 3, 3, 3, 3, 3, 3, 3, 3, 3, 3, 3, 3, 3, 3, 3, 3, 3, 3, 3, 3, 3, 3, 3, 3, 3, 3, 3, 3, 3, 3, 3, 3, 3, 3, 3, 3, 3, 3, 3, 3, 3, 3, 3, 3, 3, 3, 3, 3, 3, 3, 3, 3, 3, 3, 3, 3, 3, 3, 3, 3]
        int[] faceVertexIndices = [56, 28, 57, 43, 28, 57, 55, 56, 57, 55, 56, 53, 14, 10, 4, 41, 43, 28, 3, 10, 4, 16, 52, 46, 16, 52, 58, 24, 59, 28, 24, 56, 28, 49, 3, 4, 37, 24, 20, 42, 55, 57, 42, 55, 58, 22, 24, 20, 22, 24, 56, 8, 22, 56, 8, 22, 6, 13, 37, 20, 13, 37, 30, 13, 22, 20, 13, 22, 6, 31, 8, 53, 31, 8, 6, 5, 14, 4, 12, 5, 14, 45, 43, 23, 45, 43, 57, 62, 41, 28, 39, 43, 23, 39, 25, 43, 9, 3, 10, 7, 52, 53, 7, 12, 11, 54, 52, 58, 54, 55, 53, 54, 52, 53, 17, 16, 58, 17, 45, 23, 17, 45, 44, 35, 24, 34, 35, 24, 59, 26, 14, 10, 26, 60, 14, 63, 59, 28, 63, 62, 28, 63, 35, 59, 51, 49, 3, 51, 0, 3, 51, 16, 46, 51, 0, 16, 47, 7, 11, 47, 7, 52, 47, 52, 46, 47, 51, 46, 38, 56, 53, 38, 8, 53, 38, 8, 56, 32, 31, 30, 32, 31, 6, 32, 13, 30, 32, 13, 6, 48, 49, 4, 36, 24, 34, 36, 37, 24, 15, 37, 30, 15, 12, 30, 15, 36, 37, 15, 12, 14, 15, 36, 14, 21, 39, 25, 21, 9, 3, 40, 62, 10, 40, 9, 10, 40, 62, 41, 40, 21, 25, 40, 21, 9, 40, 41, 43, 40, 25, 43, 29, 31, 30, 29, 12, 30, 29, 7, 12, 29, 31, 53, 29, 7, 53, 19, 55, 58, 19, 54, 58, 19, 54, 55, 1, 0, 16, 27, 17, 58, 27, 17, 44, 27, 42, 58, 27, 42, 57, 27, 45, 57, 27, 45, 44, 33, 35, 34, 33, 36, 34, 33, 63, 60, 33, 63, 35, 33, 60, 14, 33, 36, 14, 61, 63, 60, 61, 63, 62, 61, 26, 60, 61, 62, 10, 61, 26, 10, 50, 48, 49, 50, 51, 49, 50, 47, 51, 50, 47, 11, 50, 12, 11, 50, 12, 5, 50, 5, 4, 50, 48, 4, 18, 39, 23, 18, 21, 39, 18, 1, 23, 18, 1, 0, 18, 0, 3, 18, 21, 3, 2, 17, 16, 2, 1, 16, 2, 17, 23, 2, 1, 23]
        rel material:binding:physics = </Object/physicsMaterial>
        uniform token physics:approximation = "convexHull"
        point3f[] points = [(-0.12573029, -0.06405886, -0.008105913), (-0.12454822, -0.06374355, -0.00827663), (-0.12400122, -0.06364255, -0.00826863), (-0.12882124, -0.06322388, -0.00724595), (-0.13028392, -0.064406365, -0.005637027), (-0.12994322, -0.06401255, -0.00495063), (-0.113445036, -0.0585747, -0.0019173226), (-0.12495668, -0.06549565, -0.0038935256), (-0.11180987, -0.058285665, -0.0021531633), (-0.12444722, -0.05994655, -0.00731163), (-0.1266872, -0.060503256, -0.006884787), (-0.12844335, -0.06541373, -0.0041928557), (-0.12649725, -0.062119275, -0.0027936255), (-0.11189801, -0.056243334, -0.0013356566), (-0.12860233, -0.062476926, -0.0042135515), (-0.12569436, -0.061413664, -0.002746856), (-0.12512681, -0.06445447, -0.008045371), (-0.12242522, -0.06342855, -0.00802363), (-0.12216122, -0.06128755, -0.00831263), (-0.11981922, -0.06366355, -0.00531263), (-0.10141763, -0.050609384, -0.0007474601), (-0.12157982, -0.06049175, -0.008264928), (-0.09933422, -0.05116155, -0.00103963), (-0.12245845, -0.06267536, -0.008370724), (-0.1000338, -0.04842327, -0.0014440893), (-0.11809822, -0.05797855, -0.00806263), (-0.12578751, -0.05982592, -0.006340683), (-0.09941468, -0.052907523, -0.006135224), (-0.10083625, -0.04684022, -0.00488015), (-0.12143322, -0.06216655, -0.00241663), (-0.121224724, -0.06074161, -0.001945314), (-0.12032713, -0.06206449, -0.0024618984), (-0.116002485, -0.059582636, -0.0019753352), (-0.12107188, -0.05704214, -0.0043042996), (-0.12119235, -0.05826797, -0.0028659853), (-0.11293909, -0.05307817, -0.003518783), (-0.12390361, -0.06009789, -0.0026958294), (-0.11641165, -0.0576916, -0.0015309284), (-0.11167222, -0.05847255, -0.00240563), (-0.11516959, -0.056884784, -0.008082508), (-0.11957178, -0.057932626, -0.0077479407), (-0.104718946, -0.04962291, -0.006380436), (-0.10832581, -0.058076143, -0.0046881665), (-0.09967713, -0.049419418, -0.0075870855), (-0.099673, -0.052701358, -0.006436609), (-0.09913722, -0.05118555, -0.00726363), (-0.12827408, -0.065432705, -0.006783217), (-0.12867287, -0.06605854, -0.004944243), (-0.13024323, -0.06513355, -0.00552463), (-0.13021213, -0.06533672, -0.005879312), (-0.13005643, -0.06581704, -0.004950945), (-0.12961636, -0.06537838, -0.006512524), (-0.12487016, -0.06562987, -0.004237071), (-0.12319622, -0.06470055, -0.00356863), (-0.12150322, -0.06437155, -0.00469663), (-0.11400363, -0.060975097, -0.004302048), (-0.09803588, -0.05211425, -0.0022145794), (-0.09779161, -0.05257916, -0.00410045), (-0.11958408, -0.0634826, -0.005811486), (-0.10384322, -0.04846355, -0.00350363), (-0.12135422, -0.05708655, -0.00477063), (-0.11522222, -0.05386955, -0.00539063), (-0.11472222, -0.05390555, -0.00614563), (-0.104390524, -0.048404682, -0.0047174576)]
        uniform token subdivisionScheme = "none"
        token visibility = "invisible"
    }
}

